<svg width="69" height="90" viewBox="0 0 69 90" fill="none" xmlns="http://www.w3.org/2000/svg">
<path d="M60.32 36.62H57.85L57.84 24.31C57.83 10.9 46.92 -0.00999313 33.51 6.86894e-06C20.1 0.0100069 9.19002 10.92 9.20002 24.33L9.22002 36.64H8.34002C3.73002 36.65 -0.00997999 40.39 2.00068e-05 45V81.65C2.00068e-05 86.26 3.75002 90 8.36002 90L60.34 89.97C64.95 89.97 68.69 86.23 68.68 81.62V44.96C68.68 40.35 64.93 36.62 60.32 36.62ZM18.18 36.64L18.16 24.33C18.16 15.86 25.04 8.97001 33.51 8.96001C41.98 8.96001 48.87 15.85 48.87 24.31L48.89 36.62L18.18 36.64Z" fill="black"/>
</svg>
