<svg id="图层_1" data-name="图层 1" xmlns="http://www.w3.org/2000/svg" viewBox="0 0 792 151.14"><defs><style>.cls-1{fill:#d8d8d8;}.cls-2{font-size:10px;fill:#231815;font-family:HelveticaNeue, Helvetica Neue;}.cls-3{letter-spacing:-0.02em;}.cls-4{letter-spacing:-0.02em;}.cls-5{font-size:14px;fill:#225985;font-family:HelveticaNeue-Bold, Helvetica Neue;font-weight:700;}</style></defs><title>HXT-img</title><rect id="_Rectangle_" data-name="&lt;Rectangle&gt;" class="cls-1" y="-7.55" width="792" height="168.25"/><g id="_Group_" data-name="&lt;Group&gt;"><text class="cls-2" transform="translate(618.01 55.59)">Making the hospital <tspan class="cls-3" x="90.4" y="0">r</tspan><tspan x="93.55" y="0">esou</tspan><tspan class="cls-4" x="115.22" y="0">r</tspan><tspan x="118.37" y="0">ces </tspan><tspan x="0" y="12">a</tspan><tspan class="cls-3" x="5.37" y="12">r</tspan><tspan x="8.52" y="12">e e</tspan><tspan class="cls-4" x="22.04" y="12">f</tspan><tspan x="24.82" y="12">fectively used. Patients </tspan><tspan x="0" y="24">a</tspan><tspan class="cls-3" x="5.37" y="24">r</tspan><tspan x="8.52" y="24">e e</tspan><tspan class="cls-4" x="22.04" y="24">f</tspan><tspan x="24.82" y="24">fectively and fully </tspan><tspan x="0" y="36">p</tspan><tspan class="cls-3" x="5.93" y="36">r</tspan><tspan x="9.08" y="36">otected and ca</tspan><tspan class="cls-4" x="76.32" y="36">r</tspan><tspan x="79.47" y="36">ed during </tspan><tspan x="0" y="48">hospitalization</tspan></text></g><text class="cls-2" transform="translate(51.82 55.59)">60+ Patient and <tspan x="0" y="12">Long-term hospi</tspan><tspan x="74.1" y="12">-</tspan><tspan x="0" y="24">talized patients</tspan></text><text class="cls-2" transform="translate(176.75 55.59)">Establish an information platform <tspan x="0" y="12">for e</tspan><tspan class="cls-3" x="20.18" y="12">f</tspan><tspan x="22.96" y="12">fective communication mainly </tspan><tspan x="0" y="24">between the patient and the doctor</tspan></text><text class="cls-2" transform="translate(176.75 110.11)">Company patient all to help with <tspan x="0" y="12">tedious detail like Nursing workers </tspan><tspan x="0" y="24">and ca</tspan><tspan class="cls-3" x="30.38" y="24">r</tspan><tspan x="33.53" y="24">e them as fanilies.</tspan></text><text class="cls-2" transform="translate(365.26 55.59)">Users a<tspan class="cls-3" x="34.07" y="0">r</tspan><tspan x="37.22" y="0">e linked </tspan><tspan x="0" y="12">online by </tspan><tspan class="cls-3" x="43.16" y="12">r</tspan><tspan x="46.31" y="12">obot.</tspan></text><text class="cls-2" transform="translate(488.15 55.59)">During hospitalization</text><text class="cls-5" transform="translate(204.28 32.98)">What</text><text class="cls-5" transform="translate(380.03 32.98)">How</text><text class="cls-5" transform="translate(515.95 32.98)">when</text><text class="cls-5" transform="translate(670.96 32.98)">Why</text><text class="cls-5" transform="translate(72.32 32.98)">Who</text></svg>