<svg id="图层_1" data-name="图层 1" xmlns="http://www.w3.org/2000/svg" viewBox="0 0 607.66 415.13"><defs><style>.cls-1{fill:#dededf;}.cls-2{fill:#a9ceb8;}.cls-3{fill:#7dc0e3;}.cls-12,.cls-17,.cls-4{fill:#fff;}.cls-11,.cls-5{font-size:7.92px;}.cls-5{fill:#231815;}.cls-11,.cls-17,.cls-5,.cls-9{font-family:PingFang-SC-Heavy, PingFang SC;}.cls-13,.cls-14,.cls-16,.cls-6,.cls-7{fill:none;stroke-miterlimit:10;}.cls-6,.cls-7{stroke:#a4a4a5;}.cls-7{stroke-dasharray:5.04 5.04;}.cls-8,.cls-9{font-size:8.6px;}.cls-10,.cls-11,.cls-8,.cls-9{fill:#22598f;}.cls-12,.cls-8{font-family:STHeiti, STHeiti;}.cls-12,.cls-17{font-size:6.9px;}.cls-13{stroke:#7dc0e3;}.cls-13,.cls-14,.cls-16{stroke-width:4px;}.cls-14{stroke:#22598f;}.cls-15{fill:#5c5d5d;}.cls-16{stroke:#5c5d5d;}</style></defs><title>HXT-img</title><rect id="_Path_" data-name="&lt;Path&gt;" class="cls-1" x="21.73" y="40.14" width="113.8" height="358.67"/><rect id="_Path_2" data-name="&lt;Path&gt;" class="cls-2" x="121.65" y="122.15" width="13.88" height="56.75"/><rect id="_Path_3" data-name="&lt;Path&gt;" class="cls-3" x="121.65" y="122.15" width="13.88" height="56.75"/><rect id="_Path_4" data-name="&lt;Path&gt;" class="cls-3" x="121.65" y="40.14" width="13.88" height="56.75"/><rect id="_Path_5" data-name="&lt;Path&gt;" class="cls-4" x="48.7" y="333.98" width="86.83" height="9.36"/><rect id="_Path_6" data-name="&lt;Path&gt;" class="cls-4" x="48.7" y="216.51" width="86.83" height="9.36"/><text class="cls-5" transform="translate(76.18 224.32)">line of visibility</text><text class="cls-5" transform="translate(54.52 340.91)">line of inner interaction</text><g id="_Group_" data-name="&lt;Group&gt;"><line class="cls-6" x1="135.53" y1="338.93" x2="138.03" y2="338.93"/><line class="cls-7" x1="143.06" y1="338.93" x2="583.7" y2="338.93"/><line class="cls-6" x1="586.22" y1="338.93" x2="588.72" y2="338.93"/></g><g id="_Group_2" data-name="&lt;Group&gt;"><line class="cls-6" x1="135.53" y1="223.33" x2="138.03" y2="223.33"/><line class="cls-7" x1="143.06" y1="223.33" x2="583.7" y2="223.33"/><line class="cls-6" x1="586.22" y1="223.33" x2="588.72" y2="223.33"/></g><g id="_Group_3" data-name="&lt;Group&gt;"><text class="cls-8" transform="translate(313.33 53.95)">Examination</text></g><text class="cls-8" transform="translate(261.07 53.95)">Ward round</text><text class="cls-8" transform="translate(403.01 53.95)">Lunch</text><text class="cls-8" transform="translate(367.14 53.95)">Drugs</text><text class="cls-8" transform="translate(214.99 53.95)">Measuring </text><text class="cls-8" transform="translate(445.76 53.95)">Infusion</text><text class="cls-9" transform="translate(489.53 53.95)">Work out</text><g id="_Group_4" data-name="&lt;Group&gt;"><text class="cls-8" transform="translate(543.85 53.95)">Sleeping</text></g><path id="_Compound_Path_" data-name="&lt;Compound Path&gt;" class="cls-10" d="M332.39,17.57A11.39,11.39,0,1,1,321,28.52,11.4,11.4,0,0,1,332.39,17.57Zm3.33,15.81L338.36,36c.45.45.51.45,1,0a9.7,9.7,0,0,0,2.81-8.6A9.93,9.93,0,0,0,326,21.21a9.94,9.94,0,0,0,11.07,16.41c.37-.2.4-.35.1-.64-1.09-1.07-2.17-2.14-3.23-3.23a1.45,1.45,0,0,0-1.15-.49c-2.21,0-4.41,0-6.62,0-.59,0-1-.32-1-.76s.37-.74,1-.74H340c.59,0,.91.26.93.7s-.34.78-.92.79c-1.21,0-2.42,0-3.63,0A1,1,0,0,0,335.71,33.38Z"/><path id="_Compound_Path_2" data-name="&lt;Compound Path&gt;" class="cls-10" d="M331,30.43h-4.62c-.83,0-1.11-.28-1.11-1.1s0-1.51,0-2.26.3-1,1-1c2.29,0,4.59,0,6.88,0a3.6,3.6,0,0,1,3.56,3.39c0,.59-.31.94-1,.94Zm-.12-1.51h3.73c.37,0,.45-.13.24-.43a2,2,0,0,0-1.74-.9c-1.93,0-3.85,0-5.78,0-.57,0-.56.3-.56.7s0,.67.54.66C328.45,28.9,329.64,28.92,330.83,28.92Z"/><path id="_Compound_Path_3" data-name="&lt;Compound Path&gt;" class="cls-10" d="M340.91,28.26a2.22,2.22,0,0,1-2.13,2.16,2.24,2.24,0,0,1-2.2-2.17,2.2,2.2,0,0,1,2.18-2.16A2.12,2.12,0,0,1,340.91,28.26Zm-2.1-.66a.7.7,0,0,0-.7.63.66.66,0,0,0,.69.64.61.61,0,0,0,.6-.66A.58.58,0,0,0,338.81,27.6Z"/><path id="_Compound_Path_4" data-name="&lt;Compound Path&gt;" class="cls-10" d="M551.35,32.92c-1.73-1.49-2.14-2.93-1.36-4.34a3.11,3.11,0,0,1,3.69-1.52c1.58.52,2.34,1.87,2.09,3.94a7.43,7.43,0,0,1,2-2.44,15.43,15.43,0,0,1,7.37-2.91,17.2,17.2,0,0,1,3.09-.25c.75,0,.89.14.9.89,0,1.87,0,3.75,0,5.62,0,.16,0,.31,0,.47s-.05.46.23.45.19-.29.2-.47,0-.62,0-.94a.55.55,0,0,1,.52-.55c.33,0,.5.18.57.47a3,3,0,0,1,.07.64q0,3.19,0,6.38a2.88,2.88,0,0,1,0,.29c0,.39-.12.78-.6.79s-.58-.38-.56-.78-.17-.62-.62-.61H550c-.44,0-.65.15-.64.6a1.12,1.12,0,0,1-.14.5.51.51,0,0,1-.58.29.49.49,0,0,1-.41-.44,3.54,3.54,0,0,1,0-.52q0-6.09,0-12.17c0-.16,0-.31,0-.47a.53.53,0,0,1,.48-.51c.3,0,.47.13.57.39a2.24,2.24,0,0,1,.11.87c0,1.87,0,3.75,0,5.62,0,.53.17.76.71.71C550.47,32.89,550.84,32.92,551.35,32.92Zm10.9,0h5.14c.4,0,.62-.1.62-.55,0-1.75,0-3.51,0-5.26,0-.37-.16-.52-.53-.52a12,12,0,0,0-1.69.13,14.94,14.94,0,0,0-7.07,2.55,4.87,4.87,0,0,0-2.08,2.94c-.13.63-.07.72.58.72Zm-2.77,1.17h-4.33c-1.7,0-3.4,0-5.09,0-.47,0-.68.15-.65.64s0,.86,0,1.29c0,.88,0,.88.88.88H569c.37,0,.54-.14.53-.52a14.39,14.39,0,0,1,0-1.52c0-.59-.17-.78-.76-.77C565.69,34.1,562.58,34.09,559.48,34.09Zm-4.8-4a1.93,1.93,0,1,0-3.87-.06,1.93,1.93,0,1,0,3.87.06Z"/><path id="_Path_7" data-name="&lt;Path&gt;" class="cls-10" d="M556.35,23.07h-1.14a5,5,0,0,1-.76-.06c-.32-.06-.56-.24-.54-.59a.56.56,0,0,1,.61-.51c.64,0,1.29,0,1.93,0h1.81c.36,0,.73,0,.84.44s-.22.62-.52.82l-2,1.3,0,.15h1.66c.41,0,.83.06.82.6s-.41.56-.8.57h-3.63c-.36,0-.67-.09-.78-.48s.17-.53.41-.7l2.06-1.38Z"/><path id="_Path_8" data-name="&lt;Path&gt;" class="cls-10" d="M536.93,19.11c.32.17.6.06.86.13s.46.16.45.45-.24.34-.46.35h-2.33c-.2,0-.4,0-.47-.27s.09-.4.27-.53l1.08-.74a2.05,2.05,0,0,0-.86-.1c-.28,0-.52-.1-.51-.43s.23-.39.48-.39h2.28a.43.43,0,0,1,.47.28.46.46,0,0,1-.22.55Z"/><path id="_Compound_Path_5" data-name="&lt;Compound Path&gt;" class="cls-10" d="M378.8,21.71c2.94.3,4.72,2.09,4.88,4.83A4.41,4.41,0,0,1,382.41,30c-3,3-5.93,6-9,9a4.58,4.58,0,0,1-5.18.93,5,5,0,0,1-1.68-8.06q4.32-4.36,8.69-8.69A4.78,4.78,0,0,1,378.8,21.71Zm-8.75,16.8a3.41,3.41,0,0,0,2.37-1c1.05-1,2.09-2.11,3.16-3.14a.46.46,0,0,0,.07-.71,15.19,15.19,0,0,0-4-3.95.34.34,0,0,0-.51,0c-1.12,1.14-2.3,2.23-3.37,3.41a3,3,0,0,0-.53,3.42A3.16,3.16,0,0,0,370.05,38.51Zm11.89-11.9a3.15,3.15,0,0,0-2-2.87,3.06,3.06,0,0,0-3.52.68c-1.25,1.2-2.44,2.45-3.68,3.65-.29.28-.23.41.07.63a15.55,15.55,0,0,1,4,3.94c.19.28.31.18.48,0,1.24-1.25,2.49-2.49,3.73-3.74A3.32,3.32,0,0,0,381.95,26.61Z"/><path id="_Path_9" data-name="&lt;Path&gt;" class="cls-10" d="M377.07,27a.65.65,0,0,1-.13.41,5.35,5.35,0,0,1-1.25,1.23.68.68,0,0,1-.93-.12.66.66,0,0,1-.11-.89,4.81,4.81,0,0,1,1.26-1.28A.76.76,0,0,1,377.07,27Z"/><path id="_Path_10" data-name="&lt;Path&gt;" class="cls-10" d="M378.8,25.41a.87.87,0,1,1-1.75,0,.9.9,0,0,1,.87-.87A.92.92,0,0,1,378.8,25.41Z"/><path id="_Compound_Path_6" data-name="&lt;Compound Path&gt;" class="cls-10" d="M279.72,17.3c2.45.79,3.38,2.08,3.6,5.12.2,2.78-.06,5.46-1.82,7.78-.52.68,0,.89.47,1.11a9.31,9.31,0,0,1,4.63,4.4c1.23,2.45.83,3.45-1.71,4.37-4.92,0-9.84,0-14.76,0-.86,0-1.09-1-1.18-1.53a3.72,3.72,0,0,1,.08-1.78A9.94,9.94,0,0,1,274,31.43c.74-.33.53-.7.18-1.18-2.09-2.86-2.35-6-1.58-9.37.4-1.74,1.11-3.23,3.11-3.58ZM278,38.7c2.14,0,4.27,0,6.41,0,1.2,0,1.55-.54,1.1-1.67a7.42,7.42,0,0,0-2.11-2.83,8.07,8.07,0,0,0-12.62,2.65c-.62,1.34-.27,1.84,1.17,1.85C273.95,38.71,276,38.7,278,38.7Zm-.22-8.13a2.06,2.06,0,0,0,1.24-.33c1.85-1.16,2.42-3,2.75-5,.08-.5-.33-.64-.76-.71a21,21,0,0,0-6.38,0c-.61.09-.83.41-.72,1a7.66,7.66,0,0,0,2,4.23A2.66,2.66,0,0,0,277.76,30.56Zm0-11.59c-3,0-3.26.16-3.9,3.24-.1.5-.06,1,.7.89a26.79,26.79,0,0,1,6.51,0c.51.07.71-.15.72-.66.05-2.24-1-3.4-3.2-3.49C278.31,19,278,19,277.76,19Z"/><path id="_Path_11" data-name="&lt;Path&gt;" class="cls-10" d="M285.49,23.44c1.11.41,1.11-.32,1.05-1.12-.1-1.44-.58-2-2.08-2.52-.53-.17-1.21-.27-1.07-1s.9-.63,1.46-.54a4.17,4.17,0,0,1,3.35,4.52,15.19,15.19,0,0,1-2.05,7c-.45.75-.27,1.09.44,1.45a9.31,9.31,0,0,1,4.22,3.52,5,5,0,0,1,.83,3.15,1.85,1.85,0,0,1-2.16,1.69c-.4-.07-.81-.17-.88-.66a.75.75,0,0,1,.71-.92c.91-.11.82-.63.65-1.28a5.87,5.87,0,0,0-3-3.5c-.74-.45-1.52-.85-2.29-1.25a1.21,1.21,0,0,1-.49-2,18,18,0,0,0,1.71-3.51c.3-.85.22-1.39-.79-1.51-.58-.07-1.19-.21-1-1S284.9,23.45,285.49,23.44Z"/><path id="_Path_12" data-name="&lt;Path&gt;" class="cls-10" d="M279.5,20.93a2.4,2.4,0,0,1-1.67,1.48c-.48,0-1.83-1.33-1.66-1.63a3.26,3.26,0,0,1,1.77-1.56C278.35,19.08,279.53,20.46,279.5,20.93Z"/><path id="_Compound_Path_7" data-name="&lt;Compound Path&gt;" class="cls-10" d="M414.93,27.92h5.82c1.36,0,1.65.27,1.47,1.64a8.43,8.43,0,0,1-5.28,6.94,1.3,1.3,0,0,0-.93,1.41c0,1.3-.13,1.43-1.43,1.43-1.64,0-3.28,0-4.92,0-1,0-1.32-.26-1.26-1.29a1.88,1.88,0,0,0-1.16-2,8.15,8.15,0,0,1-4.31-5.93,5.64,5.64,0,0,1-.09-.94c0-1,.22-1.24,1.21-1.24,2.1,0,4.2,0,6.3,0a1.18,1.18,0,0,0,1.4-.9,36.08,36.08,0,0,1,2.45-4.45q.78-1.35,1.6-2.66c.25-.4.59-.8,1.12-.45s.32.79.07,1.22l-3.6,6.2c-.13.22-.24.46-.35.69s0,.24.11.28.21,0,.22-.06c.4-1.43,1.75-2,2.68-2.93s2-1.77,3-2.65c.37-.33.79-.58,1.2-.11s.07.81-.26,1.11c-1.33,1.19-2.67,2.37-4,3.56A3.35,3.35,0,0,0,414.93,27.92Zm-2.35,1.44c-2.5,0-5,0-7.5,0-.67,0-.88.24-.73.88a6.31,6.31,0,0,0,1,2.35c2.08,2.78,5,3.7,8.28,3.42a7.89,7.89,0,0,0,7-5.62c.22-.9.13-1-.77-1Zm-.36,8.57h1.89c.21,0,.43-.06.42-.32s-.25-.26-.46-.23a11,11,0,0,1-3.67-.1c-.22,0-.49-.14-.54.2s.19.46.48.46Z"/><path id="_Compound_Path_8" data-name="&lt;Compound Path&gt;" class="cls-10" d="M501.76,33.87c-1.65,1-2.71.7-3.54-.91,0,.24,0,.39,0,.55,0,1.7,0,3.4,0,5.09,0,.78-.23,1-1,1h-1.58a.81.81,0,0,1-.9-.79.87.87,0,0,1,0-.12c0-2.22-.15-4.45.07-6.67A3.44,3.44,0,0,1,498.65,29a.88.88,0,0,0,.8-.35l5.93-5.91a2.84,2.84,0,0,1,2.3-1,2.74,2.74,0,0,1,1.31.45,16.32,16.32,0,0,1,6.32,8.2A18,18,0,0,1,516.45,38c0,.77-.28,1-1,1H502.77c-.77,0-1-.26-1-1C501.75,36.64,501.76,35.29,501.76,33.87Zm7.38,3.6h5.27c.26,0,.56.07.55-.39a18.59,18.59,0,0,0-.55-4.4c-1.06-3.68-2.82-6.89-6.07-9.1-.82-.56-1.17-.52-1.89.19Q503.23,27,500,30.18a1.09,1.09,0,0,1-1.15.34,2,2,0,0,0-2.69,2.08c0,1.56,0,3.12,0,4.68,0,.25-.17.71.27.7s.25-.46.25-.71c0-1.62,0-3.24,0-4.86a1.49,1.49,0,0,1,1.43-1.5,1.53,1.53,0,0,1,1.53,1.26c0,.1,0,.19.06.29s.17.4.43.41a.47.47,0,0,0,.51-.31c.21-.66.8-1,1.26-1.43s1.2-.24,1.31.51a4.31,4.31,0,0,1,0,.64c0,1.5,0,3,0,4.51,0,.52.18.68.69.67C505.7,37.46,507.42,37.47,509.14,37.47Z"/><path id="_Compound_Path_9" data-name="&lt;Compound Path&gt;" class="cls-10" d="M500.05,14.26a5.46,5.46,0,0,1,5.5,5.51,5.52,5.52,0,1,1-5.5-5.51Zm4,5.45a4,4,0,0,0-7.95.1,4,4,0,0,0,4.06,4A3.93,3.93,0,0,0,504,19.7Z"/><path id="_Compound_Path_10" data-name="&lt;Compound Path&gt;" class="cls-10" d="M463.81,30.7q0-3.16,0-6.32a1,1,0,0,0-.37-1,.55.55,0,0,1,0-.95.88.88,0,0,0,.36-.85c0-.39,0-.78,0-1.17a.64.64,0,0,1,.71-.69c.43,0,.61.31.62.71s0,.59,0,.88-.06.86.43,1.18a.52.52,0,0,1,0,.9c-.39.25-.38.59-.38,1q0,6.53,0,13.06a2.58,2.58,0,0,1-4.2,2,2.79,2.79,0,0,1-1-2.23c0-.37,0-.74,0-1.11a1.17,1.17,0,0,0-2.33,0,15.83,15.83,0,0,1-.09,1.63A2.6,2.6,0,0,1,454.88,40a2.55,2.55,0,0,1-2.43-2.53c0-1.21,0-2.42,0-3.63,0-.61-.2-.79-.77-.75s-1.25,0-1.87,0c-.31,0-.48.11-.47.44s-.2.79-.67.79S448,34,448,33.58s-.22-.49-.56-.48-.78,0-1.17,0a.75.75,0,0,1-.83-.78.58.58,0,0,1,0-.06c0-4.1,0-8.2,0-12.3,0-.61.27-.84.88-.84,1.23,0,2.46,0,3.69,0a.73.73,0,0,0,.78-.45,2.59,2.59,0,0,1,4.65,0,.68.68,0,0,0,.72.44c1.15,0,2.3,0,3.45,0,1,0,1.16.18,1.16,1.17,0,2.13,0,4.26,0,6.38,0,1.74,0,3.47,0,5.21,0,1-.2,1.22-1.23,1.23-1.7,0-3.4,0-5.09,0-.5,0-.7.14-.68.66,0,1.15,0,2.3,0,3.45,0,.91.44,1.38,1.23,1.38s1.16-.45,1.2-1.35a8.15,8.15,0,0,1,.07-1.52,2.57,2.57,0,0,1,5.1.48c0,.41,0,.82,0,1.23a1.22,1.22,0,0,0,1.2,1.25,1.19,1.19,0,0,0,1.21-1.24c0-1.58,0-3.16,0-4.74Q463.81,31.7,463.81,30.7ZM453.1,31.76c1.87,0,3.75,0,5.62,0,.47,0,.66-.13.66-.63q0-3.75,0-7.49c0-.48-.17-.65-.65-.64q-5.62,0-11.24,0c-.42,0-.65.1-.65.59s.25.57.66.57c.81,0,1.17.21,1.19.64s-.34.69-1.2.68c-.42,0-.65.08-.65.58s.24.58.65.59c.8,0,1.21.28,1.2.73s-.38.68-1.17.67c-.44,0-.69.08-.69.61s.28.56.67.56c.8,0,1.16.22,1.18.66s-.4.74-1.19.74c-.46,0-.67.13-.67.63s.32.52.7.52Zm0-10.17h5.61c.37,0,.63,0,.65-.52s-.19-.63-.66-.63c-2.24,0-4.48,0-6.73,0h-4.56c-.37,0-.57.09-.59.52s.19.64.66.63C449.38,21.58,451.25,21.59,453.12,21.59Z"/><path id="_Path_13" data-name="&lt;Path&gt;" class="cls-10" d="M455.65,27.41a.66.66,0,0,1-.52.59,2.1,2.1,0,0,1-.52.05c-.81,0-.81,0-.83.86a2,2,0,0,1,0,.41.65.65,0,0,1-.69.59.66.66,0,0,1-.61-.61c-.07-.38.15-.84-.13-1.13s-.75-.06-1.13-.14a.68.68,0,0,1-.63-.66.64.64,0,0,1,.6-.67l.41-.05c.85-.05.85,0,.87-.93,0-.58.27-.95.68-.91s.64.43.66.88c0,.88,0,.88,1,1C455.35,26.7,455.66,27,455.65,27.41Z"/><path id="_Compound_Path_11" data-name="&lt;Compound Path&gt;" class="cls-10" d="M198.49,29.12a9.93,9.93,0,0,1-2,5.7.86.86,0,0,0,0,1.15c.58.93,1.12,1.87,1.68,2.81.15.26.28.52.07.82s-.7.31-1-.16c-.55-.88-1.09-1.76-1.58-2.67-.27-.5-.46-.51-.91-.16a9.54,9.54,0,0,1-11.78,0c-.4-.32-.62-.32-.89.16-.48.89-1,1.75-1.56,2.61-.2.32-.43.68-.88.4s-.28-.63-.08-1c.58-1,1.15-2,1.75-3a.73.73,0,0,0-.06-.95A9.24,9.24,0,0,1,180,25.31a9.21,9.21,0,0,1,7.86-5.85,9.55,9.55,0,0,1,10.55,8.72C198.41,28.53,198.47,28.88,198.49,29.12Zm-1.18,0a8.5,8.5,0,0,0-8.44-8.55A8.41,8.41,0,0,0,180.38,29a8.46,8.46,0,0,0,16.92.12Z"/><path id="_Compound_Path_12" data-name="&lt;Compound Path&gt;" class="cls-10" d="M180.85,17.46a3.76,3.76,0,0,1,2.79,1,.66.66,0,0,1,.05,1.06q-2.31,2.32-4.63,4.62a.67.67,0,0,1-1.07,0,4,4,0,0,1,.44-5.81A3.64,3.64,0,0,1,180.85,17.46Zm-2.74,4.1a3.23,3.23,0,0,0,0,.36,3.4,3.4,0,0,0,.13.51c.18.53.32.57.7.19,1.07-1.06,2.12-2.13,3.2-3.18.34-.33.25-.48-.13-.65A2.87,2.87,0,0,0,178.11,21.57Z"/><path id="_Compound_Path_13" data-name="&lt;Compound Path&gt;" class="cls-10" d="M196.53,17.46a3.77,3.77,0,0,1,3.56,2.15,3.83,3.83,0,0,1-.39,4.3c-.49.67-.83.68-1.42.1L194,19.7c-.57-.57-.53-1,.11-1.43A3.73,3.73,0,0,1,196.53,17.46Zm2.88,4.07a2.89,2.89,0,0,0-3.93-2.73c-.39.18-.46.33-.13.65.94.91,1.85,1.85,2.78,2.76.24.24.46.72.78.62s.38-.67.48-1.06A1.24,1.24,0,0,0,199.41,21.53Z"/><path id="_Compound_Path_14" data-name="&lt;Compound Path&gt;" class="cls-10" d="M196.15,29.07a7.32,7.32,0,1,1-7.31-7.38A7.38,7.38,0,0,1,196.15,29.07ZM195,29a6.15,6.15,0,1,0-6.13,6.13A6.11,6.11,0,0,0,195,29Z"/><path id="_Path_14" data-name="&lt;Path&gt;" class="cls-10" d="M189.46,25.79a2.7,2.7,0,0,1,0,.64c-.23.91.47,1.37.95,1.91.22.25.59.11.9.13h.82c.32,0,.53.16.54.49a.51.51,0,0,1-.49.56,9.25,9.25,0,0,1-1.17,0,1,1,0,0,0-.9.42,1.4,1.4,0,0,1-1.54.57,1.57,1.57,0,0,1-1.25-1.24,1.4,1.4,0,0,1,.57-1.54,1,1,0,0,0,.41-.89c0-.84,0-1.67,0-2.51,0-.39.1-.73.55-.75s.56.33.59.67c0,.5,0,1,0,1.52Z"/><g id="_Group_5" data-name="&lt;Group&gt;"><text class="cls-5" transform="translate(130.88 81.91) rotate(-90)">online</text></g><g id="_Group_6" data-name="&lt;Group&gt;"><text class="cls-5" transform="translate(130.88 156.97) rotate(-90)">offline</text></g><rect id="_Path_15" data-name="&lt;Path&gt;" class="cls-4" x="21.47" y="333.98" width="114.05" height="9.36"/><rect id="_Path_16" data-name="&lt;Path&gt;" class="cls-4" x="21.47" y="216.51" width="114.05" height="9.36"/><rect id="_Path_17" data-name="&lt;Path&gt;" class="cls-4" x="21.47" y="178.91" width="114.05" height="9.36"/><text class="cls-5" transform="translate(65.56 185.51)">line of interaction</text><text class="cls-5" transform="translate(76.18 224.32)">line of visibility</text><text class="cls-5" transform="translate(54.52 340.91)">line of inner interaction</text><text class="cls-11" transform="translate(67.85 370.11)">SUPPORT<tspan x="-10.41" y="9.51">PROCESSES</tspan></text><g id="_Group_7" data-name="&lt;Group&gt;"><line class="cls-6" x1="135.53" y1="338.93" x2="138.03" y2="338.93"/><line class="cls-7" x1="143.06" y1="338.93" x2="583.7" y2="338.93"/><line class="cls-6" x1="586.22" y1="338.93" x2="588.72" y2="338.93"/></g><g id="_Group_8" data-name="&lt;Group&gt;"><line class="cls-6" x1="135.53" y1="223.33" x2="138.03" y2="223.33"/><line class="cls-7" x1="143.06" y1="223.33" x2="583.7" y2="223.33"/><line class="cls-6" x1="586.22" y1="223.33" x2="588.72" y2="223.33"/></g><g id="_Group_9" data-name="&lt;Group&gt;"><line class="cls-6" x1="135.53" y1="184.52" x2="138.03" y2="184.52"/><line class="cls-7" x1="143.06" y1="184.52" x2="583.7" y2="184.52"/><line class="cls-6" x1="586.22" y1="184.52" x2="588.72" y2="184.52"/></g><text class="cls-11" transform="translate(57.34 285.77)">BACKSTAGE</text><text class="cls-11" transform="translate(61.37 204.15)">ONSTAGE</text><text class="cls-11" transform="translate(77.22 104.9)">USER<tspan x="-16.52" y="9.51">JOURNEY</tspan></text><text class="cls-8" transform="translate(165.74 53.95)">Getting up</text><path id="_Compound_Path_15" data-name="&lt;Compound Path&gt;" class="cls-10" d="M227.87,32.55a6.13,6.13,0,0,1,1.57-3.69,1.45,1.45,0,0,0,.36-1c0-2.34.07-4.69,0-7A4.26,4.26,0,0,1,234,16.36a4.78,4.78,0,0,1,4.64,2,2.77,2.77,0,0,1,.48,1.25c.05.43.25.62.69.58a2.13,2.13,0,0,1,.64,0,.72.72,0,0,1,.66.77.74.74,0,0,1-.72.72,5.86,5.86,0,0,1-.76,0c-.28,0-.45.1-.44.41s.17.37.42.37a6.61,6.61,0,0,1,.76,0,.74.74,0,0,1,.74.77.73.73,0,0,1-.7.74,6,6,0,0,1-.82,0c-.26,0-.4.12-.4.39s.14.38.4.38a7.75,7.75,0,0,1,.82,0,.71.71,0,0,1,.7.73.7.7,0,0,1-.62.73l-.29,0c-1,.1-1,.1-1,1.16a2.1,2.1,0,0,0,.48,1.43,6.63,6.63,0,0,1-5.08,10.77C230.93,39.91,227.85,36.79,227.87,32.55Zm9.77-8.17c0-1.37,0-2.73,0-4.1a1.91,1.91,0,0,0-.58-1.42,3.57,3.57,0,0,0-3.47-.89,2.49,2.49,0,0,0-2.25,2.78c0,2.44,0,4.88,0,7.31a2.23,2.23,0,0,1-.64,1.65,4.81,4.81,0,0,0-.92,5.39,4.87,4.87,0,0,0,4.56,3.12,5.09,5.09,0,0,0,3.75-8.69,1.51,1.51,0,0,1-.48-1.19C237.65,27,237.64,25.7,237.64,24.38Z"/><path id="_Compound_Path_16" data-name="&lt;Compound Path&gt;" class="cls-10" d="M235.21,25.34c0,1.33,0,2.65,0,4a.91.91,0,0,0,.64,1,3.1,3.1,0,0,1,1.79,2.92,3.21,3.21,0,0,1-2.15,2.8,3.11,3.11,0,0,1-3.83-1.73,3,3,0,0,1,1.48-4,1,1,0,0,0,.66-1.12c0-2.67,0-5.34,0-8,0-.38,0-.7.49-.81a.68.68,0,0,1,1,.72C235.21,22.54,235.21,23.94,235.21,25.34Zm-.76,9.41a1.57,1.57,0,0,0,1.67-1.64,1.6,1.6,0,0,0-1.62-1.64,1.64,1.64,0,1,0,0,3.28Z"/><polygon id="_Path_18" data-name="&lt;Path&gt;" class="cls-3" points="202.25 108.14 162.97 108.14 162.97 66.37 202.25 66.37 207.54 87.25 202.25 108.14"/><text class="cls-12" transform="translate(164.86 77.92)">greeting<tspan x="0" y="8.28">remind the</tspan><tspan x="0" y="16.57">routine today</tspan></text><polygon id="_Path_19" data-name="&lt;Path&gt;" class="cls-3" points="248.62 108.14 209.34 108.14 209.34 66.37 248.62 66.37 253.91 87.25 248.62 108.14"/><polygon id="_Path_20" data-name="&lt;Path&gt;" class="cls-3" points="295.27 108.14 255.99 108.14 255.99 66.37 295.27 66.37 300.56 87.25 295.27 108.14"/><polygon id="_Path_21" data-name="&lt;Path&gt;" class="cls-3" points="341.44 108.14 302.15 108.14 302.15 66.37 341.44 66.37 346.72 87.25 341.44 108.14"/><text class="cls-12" transform="translate(303.37 84.51)">guide to<tspan x="0" y="8.28">examination</tspan></text><polygon id="_Path_22" data-name="&lt;Path&gt;" class="cls-3" points="387.38 108.14 348.1 108.14 348.1 66.37 387.38 66.37 392.67 87.25 387.38 108.14"/><polygon id="_Path_23" data-name="&lt;Path&gt;" class="cls-3" points="432.83 108.14 393.54 108.14 393.54 66.37 432.83 66.37 438.11 87.25 432.83 108.14"/><polygon id="_Path_24" data-name="&lt;Path&gt;" class="cls-3" points="478.28 108.14 439 108.14 439 66.37 478.28 66.37 483.57 87.25 478.28 108.14"/><polygon id="_Path_25" data-name="&lt;Path&gt;" class="cls-3" points="525.06 108.14 485.77 108.14 485.77 66.37 525.06 66.37 530.35 87.25 525.06 108.14"/><polygon id="_Path_26" data-name="&lt;Path&gt;" class="cls-3" points="576.44 108.14 537.15 108.14 537.15 66.37 576.44 66.37 581.72 87.25 576.44 108.14"/><g id="_Group_10" data-name="&lt;Group&gt;"><line id="_Path_27" data-name="&lt;Path&gt;" class="cls-13" x1="186.9" y1="108.14" x2="186.9" y2="223.33"/><line id="_Path_28" data-name="&lt;Path&gt;" class="cls-14" x1="186.9" y1="223.33" x2="186.9" y2="244.31"/></g><line id="_Path_29" data-name="&lt;Path&gt;" class="cls-14" x1="455.48" y1="271.19" x2="455.48" y2="285.77"/><g id="_Group_11" data-name="&lt;Group&gt;"><line id="_Path_30" data-name="&lt;Path&gt;" class="cls-13" x1="229.77" y1="108.14" x2="229.77" y2="223.33"/><line id="_Path_31" data-name="&lt;Path&gt;" class="cls-14" x1="229.77" y1="223.33" x2="229.77" y2="244.31"/></g><g id="_Group_12" data-name="&lt;Group&gt;"><line id="_Path_32" data-name="&lt;Path&gt;" class="cls-13" x1="272.42" y1="108.14" x2="272.42" y2="223.33"/><line id="_Path_33" data-name="&lt;Path&gt;" class="cls-14" x1="272.42" y1="223.33" x2="272.42" y2="244.31"/></g><rect id="_Path_34" data-name="&lt;Path&gt;" class="cls-15" x="163.27" y="383.81" width="416.86" height="18.61"/><polygon id="_Path_35" data-name="&lt;Path&gt;" class="cls-3" points="202.25 166.54 162.97 166.54 162.97 124.77 202.25 124.77 207.54 145.66 202.25 166.54"/><text class="cls-12" transform="translate(328.3 395.84)">physician&apos;s order communication system</text><rect id="_Path_36" data-name="&lt;Path&gt;" class="cls-15" x="194.23" y="359.51" width="67.83" height="18.61"/><text class="cls-12" transform="translate(197.36 368.49)">disease surveillance<tspan x="0" y="8.28">system</tspan></text><rect id="_Path_37" data-name="&lt;Path&gt;" class="cls-15" x="264.52" y="359.51" width="39.71" height="18.61"/><text class="cls-12" transform="translate(268.73 367.5)">knowledge<tspan x="0" y="8.28">graph</tspan></text><rect id="_Path_38" data-name="&lt;Path&gt;" class="cls-15" x="306.78" y="359.51" width="55.17" height="18.61"/><text class="cls-12" transform="translate(317.38 367.67)">navigation<tspan x="0" y="8.28">engine</tspan></text><polygon id="_Path_39" data-name="&lt;Path&gt;" class="cls-3" points="248.62 166.54 209.34 166.54 209.34 124.77 248.62 124.77 253.91 145.66 248.62 166.54"/><text class="cls-12" transform="translate(216.5 81.1)">measure <tspan x="0" y="8.28">body</tspan><tspan x="0" y="16.57">response</tspan></text><polygon id="_Path_40" data-name="&lt;Path&gt;" class="cls-3" points="295.27 166.54 255.99 166.54 255.99 124.77 295.27 124.77 300.56 145.66 295.27 166.54"/><text class="cls-12" transform="translate(258.7 83.87)">explain their<tspan x="0" y="8.28">illness</tspan></text><polygon id="_Path_41" data-name="&lt;Path&gt;" class="cls-3" points="341.44 166.54 302.15 166.54 302.15 124.77 341.44 124.77 346.72 145.66 341.44 166.54"/><polygon id="_Path_42" data-name="&lt;Path&gt;" class="cls-3" points="387.38 166.54 348.1 166.54 348.1 124.77 387.38 124.77 392.67 145.66 387.38 166.54"/><text class="cls-12" transform="translate(354.15 83.87)">medicine<tspan x="0" y="8.28">remind</tspan></text><polygon id="_Path_43" data-name="&lt;Path&gt;" class="cls-3" points="432.83 166.54 393.54 166.54 393.54 124.77 432.83 124.77 438.11 145.66 432.83 166.54"/><text class="cls-12" transform="translate(394.77 81.1)">order food<tspan class="cls-15"><tspan x="0" y="8.28">healthy</tspan><tspan x="0" y="16.57">suggestion</tspan></tspan></text><polygon id="_Path_44" data-name="&lt;Path&gt;" class="cls-3" points="478.28 166.54 439 166.54 439 124.77 478.28 124.77 483.57 145.66 478.28 166.54"/><text class="cls-12" transform="translate(440.28 81.1)">amusement</text><polygon id="_Path_45" data-name="&lt;Path&gt;" class="cls-3" points="525.06 166.54 485.77 166.54 485.77 124.77 525.06 124.77 530.35 145.66 525.06 166.54"/><text class="cls-12" transform="translate(485.78 79.47)">rehabilitative <tspan x="0" y="8.28">training </tspan></text><polygon id="_Path_46" data-name="&lt;Path&gt;" class="cls-3" points="576.44 166.54 537.15 166.54 537.15 124.77 576.44 124.77 581.72 145.66 576.44 166.54"/><text class="cls-12" transform="translate(538.37 81.1)">sleeping aid<tspan class="cls-15"><tspan x="0" y="8.28">essential oil</tspan><tspan x="0" y="16.57">/white noise</tspan></tspan></text><rect id="_Path_47" data-name="&lt;Path&gt;" class="cls-10" x="213.03" y="243.32" width="35.44" height="29.85"/><rect id="_Path_48" data-name="&lt;Path&gt;" class="cls-10" x="319.72" y="244.31" width="35.44" height="29.85"/><text class="cls-12" transform="translate(219.47 253.09)">send to<tspan x="0" y="8.28">nursing</tspan><tspan x="0" y="16.57" xml:space="preserve"> station</tspan></text><rect id="_Path_49" data-name="&lt;Path&gt;" class="cls-10" x="250.28" y="243.32" width="35.44" height="29.85"/><text class="cls-12" transform="translate(250.78 252.1)">record<tspan x="0" y="8.28">patient’s</tspan><tspan x="0" y="16.57">puzzlement</tspan></text><rect id="_Path_50" data-name="&lt;Path&gt;" class="cls-10" x="250.28" y="284.3" width="35.44" height="29.85"/><text class="cls-12" transform="translate(250.78 293.65)">nurse<tspan x="0" y="8.28">answer the</tspan><tspan x="0" y="16.57">question</tspan></text><rect id="_Path_51" data-name="&lt;Path&gt;" class="cls-10" x="164.73" y="243.32" width="35.44" height="29.85"/><text class="cls-12" transform="translate(165.23 256.62)">planning &amp;<tspan x="0" y="8.28">scheduling</tspan></text><text class="cls-12" transform="translate(320.69 254.64)">doctor get<tspan x="0" y="8.28">patient’s</tspan><tspan x="0" y="16.57">profile</tspan></text><rect id="_Path_52" data-name="&lt;Path&gt;" class="cls-10" x="435.04" y="284.3" width="42.82" height="29.85"/><g id="_Group_13" data-name="&lt;Group&gt;"><text class="cls-12" transform="translate(435.04 296.62)">wardmate’s<tspan x="0" y="8.28">preference</tspan></text></g><g id="_Group_14" data-name="&lt;Group&gt;"><line id="_Path_53" data-name="&lt;Path&gt;" class="cls-13" x1="186.9" y1="108.14" x2="186.9" y2="223.33"/></g><line id="_Path_54" data-name="&lt;Path&gt;" class="cls-14" x1="186.9" y1="272.82" x2="186.9" y2="338.93"/><line id="_Path_55" data-name="&lt;Path&gt;" class="cls-14" x1="229.77" y1="269.85" x2="229.77" y2="338.93"/><line id="_Path_56" data-name="&lt;Path&gt;" class="cls-14" x1="390.52" y1="272.82" x2="390.52" y2="338.66"/><line id="_Path_57" data-name="&lt;Path&gt;" class="cls-14" x1="317.38" y1="223.33" x2="317.38" y2="338.93"/><line id="_Path_58" data-name="&lt;Path&gt;" class="cls-14" x1="272.42" y1="269.01" x2="272.42" y2="284.3"/><g id="_Group_15" data-name="&lt;Group&gt;"><line id="_Path_59" data-name="&lt;Path&gt;" class="cls-13" x1="229.77" y1="108.14" x2="229.77" y2="223.33"/></g><line id="_Path_60" data-name="&lt;Path&gt;" class="cls-13" x1="289.3" y1="108.14" x2="289.3" y2="223.33"/><line id="_Path_61" data-name="&lt;Path&gt;" class="cls-13" x1="317.38" y1="108.14" x2="317.38" y2="223.33"/><line id="_Path_62" data-name="&lt;Path&gt;" class="cls-14" x1="289.3" y1="223.33" x2="289.3" y2="338.93"/><g id="_Group_16" data-name="&lt;Group&gt;"><line id="_Path_63" data-name="&lt;Path&gt;" class="cls-13" x1="366.76" y1="108.14" x2="366.76" y2="223.33"/><line id="_Path_64" data-name="&lt;Path&gt;" class="cls-13" x1="366.76" y1="223.33" x2="366.76" y2="244.31"/></g><g id="_Group_17" data-name="&lt;Group&gt;"><line id="_Path_65" data-name="&lt;Path&gt;" class="cls-13" x1="407.6" y1="108.14" x2="407.6" y2="223.33"/><line id="_Path_66" data-name="&lt;Path&gt;" class="cls-13" x1="407.6" y1="223.33" x2="407.6" y2="244.31"/></g><g id="_Group_18" data-name="&lt;Group&gt;"><line id="_Path_67" data-name="&lt;Path&gt;" class="cls-13" x1="455.48" y1="108.14" x2="455.48" y2="223.33"/><line id="_Path_68" data-name="&lt;Path&gt;" class="cls-13" x1="455.48" y1="223.33" x2="455.48" y2="244.31"/></g><line id="_Path_69" data-name="&lt;Path&gt;" class="cls-13" x1="504.31" y1="108.14" x2="504.31" y2="223.33"/><line id="_Path_70" data-name="&lt;Path&gt;" class="cls-14" x1="504.31" y1="223.33" x2="504.31" y2="338.93"/><g id="_Group_19" data-name="&lt;Group&gt;"><line id="_Path_71" data-name="&lt;Path&gt;" class="cls-13" x1="555.01" y1="108.14" x2="555.01" y2="223.33"/><line id="_Path_72" data-name="&lt;Path&gt;" class="cls-13" x1="555.01" y1="223.33" x2="555.01" y2="244.31"/></g><line id="_Path_73" data-name="&lt;Path&gt;" class="cls-14" x1="555.01" y1="271.19" x2="555.01" y2="323.73"/><line id="_Path_74" data-name="&lt;Path&gt;" class="cls-14" x1="338.94" y1="274.16" x2="338.94" y2="339.78"/><line id="_Path_75" data-name="&lt;Path&gt;" class="cls-16" x1="239.88" y1="338.93" x2="239.88" y2="359.51"/><line id="_Path_76" data-name="&lt;Path&gt;" class="cls-16" x1="229.77" y1="338.93" x2="229.77" y2="359.51"/><line id="_Path_77" data-name="&lt;Path&gt;" class="cls-16" x1="504.31" y1="338.93" x2="504.31" y2="384.51"/><line id="_Path_78" data-name="&lt;Path&gt;" class="cls-16" x1="390.52" y1="338.66" x2="390.52" y2="382.98"/><line id="_Path_79" data-name="&lt;Path&gt;" class="cls-16" x1="239.88" y1="338.93" x2="239.88" y2="359.51"/><line id="_Path_80" data-name="&lt;Path&gt;" class="cls-16" x1="289.3" y1="338.93" x2="289.3" y2="359.51"/><line id="_Path_81" data-name="&lt;Path&gt;" class="cls-16" x1="317.51" y1="338.93" x2="317.51" y2="359.51"/><line id="_Path_82" data-name="&lt;Path&gt;" class="cls-16" x1="339.07" y1="339.78" x2="339.07" y2="360.35"/><line id="_Path_83" data-name="&lt;Path&gt;" class="cls-16" x1="229.77" y1="338.93" x2="229.77" y2="359.51"/><line id="_Path_84" data-name="&lt;Path&gt;" class="cls-16" x1="186.9" y1="338.93" x2="186.9" y2="384.51"/><line id="_Path_85" data-name="&lt;Path&gt;" class="cls-16" x1="504.31" y1="338.93" x2="504.31" y2="384.51"/><line id="_Path_86" data-name="&lt;Path&gt;" class="cls-14" x1="239.88" y1="320.5" x2="239.88" y2="338.93"/><line id="_Path_87" data-name="&lt;Path&gt;" class="cls-14" x1="555.01" y1="321.94" x2="239.88" y2="321.94"/><text class="cls-12" transform="translate(167.67 145.66)">weak up</text><text class="cls-12" transform="translate(216.5 145.66)">weak up</text><text class="cls-12" transform="translate(258.2 136.67)">doctor<tspan x="0" y="8.28" xml:space="preserve"> &amp; patient</tspan><tspan x="0" y="16.57">Exchange</tspan><tspan x="0" y="24.85">information</tspan></text><text class="cls-12" transform="translate(303.32 139.64)">go to <tspan x="0" y="8.28">Examination</tspan><tspan x="0" y="16.57">Room</tspan></text><text class="cls-12" transform="translate(349.09 144.59)">patient:<tspan x="0" y="8.28">Eat drugs</tspan></text><text class="cls-12" transform="translate(397.44 148.42)">order food</text><text class="cls-12" transform="translate(443.93 139.33)">relax and <tspan x="0" y="8.28">chat with</tspan><tspan x="0" y="16.57">wardmate</tspan></text><text class="cls-12" transform="translate(488.07 143.6)">patients help<tspan x="0" y="8.28">each other</tspan></text><text class="cls-12" transform="translate(542.15 147.56)">fall asleep</text><rect id="_Path_88" data-name="&lt;Path&gt;" class="cls-10" x="360.7" y="243.32" width="57.11" height="29.85"/><text class="cls-12" transform="translate(366.76 256.62)">refer to<tspan x="0" y="8.28">Medical advice</tspan></text><rect id="_Path_89" data-name="&lt;Path&gt;" class="cls-10" x="435.04" y="243.32" width="42.82" height="29.85"/><text class="cls-12" transform="translate(438.18 252.66)">cooperate<tspan x="1.65" y="8.28">with other</tspan><tspan x="3.16" y="16.57">Xiao TUO</tspan></text><rect id="_Path_90" data-name="&lt;Path&gt;" class="cls-10" x="537.29" y="243.32" width="35.44" height="29.85"/><text class="cls-17" transform="translate(541.24 251.67)">collect<tspan x="0" y="8.28">sleeping</tspan><tspan x="0" y="16.57">data</tspan></text></svg>