<?xml version="1.0" encoding="utf-8"?>
<!-- Generator: Adobe Illustrator 21.0.0, SVG Export Plug-In . SVG Version: 6.00 Build 0)  -->
<svg version="1.1" id="图层_1" xmlns="http://www.w3.org/2000/svg" xmlns:xlink="http://www.w3.org/1999/xlink" x="0px" y="0px"
	 viewBox="0 0 607.7 430.3" style="enable-background:new 0 0 607.7 430.3;" xml:space="preserve">
<style type="text/css">
	.st0{fill:#DEDEDF;}
	.st1{fill:#A9CEB8;}
	.st2{fill:#7DC0E3;}
	.st3{fill:#FFFFFF;}
	.st4{fill:#231815;}
	.st5{font-family:'PingFang-SC-Heavy';}
	.st6{font-size:8.6268px;}
	.st7{fill:none;stroke:#A4A4A5;stroke-miterlimit:10;}
	.st8{fill:none;stroke:#A4A4A5;stroke-miterlimit:10;stroke-dasharray:5.04,5.04;}
	.st9{fill:#22598F;}
	.st10{font-family:'STHeiti';}
	.st11{font-size:9.3675px;}
	.st12{font-size:7.5157px;}
	.st13{fill:none;stroke:#7DC0E3;stroke-width:4;stroke-miterlimit:10;}
	.st14{fill:none;stroke:#22598F;stroke-width:4;stroke-miterlimit:10;}
	.st15{fill:#5C5D5D;}
	.st16{fill:none;stroke:#5C5D5D;stroke-width:4;stroke-miterlimit:10;}
</style>
<title>HXT-img</title>
<rect id="_Path_" x="1.8" y="30.2" class="st0" width="111.9" height="390.7"/>
<rect id="_Path_2" x="98.5" y="119.5" class="st1" width="15.1" height="61.8"/>
<rect id="_Path_3" x="98.5" y="119.5" class="st2" width="15.1" height="61.8"/>
<rect id="_Path_4" x="98.5" y="30.2" class="st2" width="15.1" height="61.8"/>
<rect id="_Path_5" x="19.1" y="350.3" class="st3" width="94.6" height="10.2"/>
<rect id="_Path_6" x="19.1" y="222.3" class="st3" width="94.6" height="10.2"/>
<text transform="matrix(1 0 0 1 49.0181 230.8066)" class="st4 st5 st6">line of visibility</text>
<g id="_Group_">
	<line class="st7" x1="113.7" y1="355.6" x2="116.4" y2="355.6"/>
	<line class="st8" x1="121.9" y1="355.6" x2="601.8" y2="355.6"/>
	<line class="st7" x1="604.6" y1="355.6" x2="607.3" y2="355.6"/>
</g>
<g id="_Group_2">
	<line class="st7" x1="113.7" y1="229.7" x2="116.4" y2="229.7"/>
	<line class="st8" x1="121.9" y1="229.7" x2="601.8" y2="229.7"/>
	<line class="st7" x1="604.6" y1="229.7" x2="607.3" y2="229.7"/>
</g>
<g id="_Group_3">
	<text transform="matrix(1 0 0 1 307.3301 45.2339)" class="st9 st10 st11">Examination</text>
</g>
<text transform="matrix(1 0 0 1 250.4062 45.2339)" class="st9 st10 st11">Ward round</text>
<text transform="matrix(1 0 0 1 405.0127 45.2339)" class="st9 st10 st11">Lunch</text>
<text transform="matrix(1 0 0 1 365.9414 45.2339)" class="st9 st10 st11">Drugs</text>
<text transform="matrix(1 0 0 1 200.2148 45.2339)" class="st9 st10 st11">Measuring</text>
<text transform="matrix(1 0 0 1 451.5781 45.2339)" class="st9 st10 st11">Infusion</text>
<text transform="matrix(1 0 0 1 499.2539 45.2339)" class="st9 st5 st11">Work out</text>
<g id="_Group_4">
	<text transform="matrix(1 0 0 1 558.4219 45.2339)" class="st9 st10 st11">Sleeping</text>
</g>
<path id="_Compound_Path_" class="st9" d="M328.1,5.6c6.9,0,12.4,5.6,12.4,12.4s-5.6,12.4-12.4,12.4c-6.9,0-12.4-5.6-12.4-12.4
	c0-0.2,0-0.3,0-0.5C315.9,10.9,321.4,5.6,328.1,5.6z M331.7,22.8l2.9,2.9c0.5,0.5,0.6,0.5,1.1,0c2.5-2.4,3.6-5.9,3.1-9.4
	c-0.9-5.9-6.4-10-12.3-9.1c-2,0.3-3.8,1.1-5.3,2.4c-4.6,3.8-5.3,10.6-1.5,15.2c3.3,4,9,5.1,13.6,2.6c0.4-0.2,0.4-0.4,0.1-0.7
	c-1.2-1.2-2.4-2.3-3.5-3.5c-0.3-0.4-0.8-0.6-1.3-0.5c-2.4,0-4.8,0-7.2,0c-0.6,0-1.1-0.3-1.1-0.8s0.4-0.8,1.1-0.8h15.1
	c0.6,0,1,0.3,1,0.8s-0.4,0.8-1,0.9c-1.3,0-2.6,0-4,0C332.2,22.6,331.9,22.7,331.7,22.8L331.7,22.8z"/>
<path id="_Compound_Path_2" class="st9" d="M326.6,19.6h-5c-0.9,0-1.2-0.3-1.2-1.2s0-1.6,0-2.5c0-0.8,0.3-1.1,1.1-1.1
	c2.5,0,5,0,7.5,0c2.1,0,3.8,1.6,3.9,3.7c0,0.6-0.3,1-1.1,1L326.6,19.6z M326.4,18h4.1c0.4,0,0.5-0.1,0.3-0.5c-0.4-0.6-1.1-1-1.9-1
	c-2.1,0-4.2,0-6.3,0c-0.6,0-0.6,0.3-0.6,0.8s0,0.7,0.6,0.7C323.8,17.9,325.1,18,326.4,18L326.4,18z"/>
<path id="_Compound_Path_3" class="st9" d="M337.4,17.2c0,1.3-1,2.3-2.3,2.4c-1.3,0-2.4-1.1-2.4-2.4c0-1.3,1.1-2.3,2.4-2.4
	C336.3,14.9,337.4,15.9,337.4,17.2C337.4,17.2,337.4,17.2,337.4,17.2z M335.1,16.5c-0.4,0-0.7,0.3-0.8,0.7c0,0.4,0.3,0.7,0.7,0.7
	c0,0,0,0,0,0c0.4,0,0.7-0.3,0.7-0.7c0,0,0,0,0,0C335.7,16.8,335.5,16.5,335.1,16.5C335.1,16.5,335.1,16.5,335.1,16.5z"/>
<path id="_Compound_Path_4" class="st9" d="M566.6,22.3c-1.9-1.6-2.3-3.2-1.5-4.7c0.8-1.5,2.5-2.1,4-1.7c1.7,0.6,2.5,2,2.3,4.3
	c0.5-1,1.3-1.9,2.2-2.7c2.4-1.7,5.1-2.8,8-3.2c1.1-0.2,2.2-0.3,3.4-0.3c0.8,0,1,0.2,1,1c0,2,0,4.1,0,6.1c0,0.2,0,0.3,0,0.5
	s-0.1,0.5,0.3,0.5c0.3,0,0.2-0.3,0.2-0.5s0-0.7,0-1c0-0.3,0.2-0.6,0.6-0.6c0.4,0,0.5,0.2,0.6,0.5c0.1,0.2,0.1,0.5,0.1,0.7
	c0,2.3,0,4.6,0,6.9c0,0.1,0,0.2,0,0.3c0,0.4-0.1,0.8-0.7,0.9s-0.6-0.4-0.6-0.8c0-0.4-0.2-0.7-0.7-0.7h-20.6c-0.5,0-0.7,0.2-0.7,0.7
	c0,0.2-0.1,0.4-0.2,0.5c-0.1,0.2-0.4,0.4-0.6,0.3c-0.2,0-0.4-0.2-0.4-0.5c0-0.2,0-0.4,0-0.6c0-4.4,0-8.8,0-13.3c0-0.2,0-0.3,0-0.5
	c0-0.3,0.2-0.5,0.5-0.6c0.3,0,0.5,0.1,0.6,0.4c0.1,0.3,0.1,0.6,0.1,0.9c0,2,0,4.1,0,6.1c0,0.6,0.2,0.8,0.8,0.8
	C565.6,22.3,566,22.3,566.6,22.3z M578.5,22.3h5.6c0.4,0,0.7-0.1,0.7-0.6c0-1.9,0-3.8,0-5.7c0-0.4-0.2-0.6-0.6-0.6
	c-0.6,0-1.2,0.1-1.8,0.1c-2.8,0.3-5.4,1.2-7.7,2.8c-1.1,0.7-1.9,1.9-2.3,3.2c-0.1,0.7-0.1,0.8,0.6,0.8L578.5,22.3z M575.4,23.6h-4.7
	c-1.9,0-3.7,0-5.5,0c-0.5,0-0.7,0.2-0.7,0.7c0,0.5,0,0.9,0,1.4c0,1,0,1,1,1h20.4c0.4,0,0.6-0.2,0.6-0.6c0-0.6,0-1.1,0-1.7
	c0-0.6-0.2-0.8-0.8-0.8C582.2,23.6,578.8,23.6,575.4,23.6z M570.2,19.2c0-1.2-0.9-2.1-2.1-2.1c-1.2,0-2.1,0.9-2.1,2.1
	c0,1.2,0.9,2.1,2.1,2.1C569.2,21.3,570.2,20.4,570.2,19.2L570.2,19.2z"/>
<path id="_Path_7" class="st9" d="M572,11.6h-1.2c-0.3,0-0.6,0-0.8-0.1c-0.3-0.1-0.6-0.3-0.6-0.6c0-0.3,0.3-0.6,0.7-0.6c0,0,0,0,0,0
	c0.7,0,1.4,0,2.1,0h2c0.4,0,0.8,0,0.9,0.5c0.1,0.5-0.2,0.7-0.6,0.9l-2.2,1.4v0.2h1.8c0.4,0,0.9,0.1,0.9,0.7c0,0.6-0.4,0.6-0.9,0.6
	h-4c-0.4,0-0.7-0.1-0.8-0.5c-0.1-0.4,0.2-0.6,0.4-0.8l2.2-1.5L572,11.6z"/>
<path id="_Path_8" class="st9" d="M550.9,7.3c0.3,0.2,0.7,0.1,0.9,0.1c0.3,0.1,0.5,0.2,0.5,0.5c0,0.3-0.3,0.4-0.5,0.4h-2.5
	c-0.2,0-0.4,0-0.5-0.3c-0.1-0.3,0.1-0.4,0.3-0.6l1.2-0.8c-0.3-0.1-0.6-0.1-0.9-0.1c-0.3,0-0.6-0.1-0.6-0.5c0-0.4,0.3-0.4,0.5-0.4
	h2.5c0.2,0,0.4,0.1,0.5,0.3c0.1,0.2,0,0.5-0.2,0.6L550.9,7.3z"/>
<path id="_Compound_Path_5" class="st9" d="M378.6,10.1c3.2,0.3,5.1,2.3,5.3,5.3c0.1,1.4-0.4,2.8-1.4,3.8c-3.3,3.3-6.5,6.5-9.8,9.8
	c-1.5,1.5-3.7,1.9-5.6,1c-2.8-1.2-4.1-4.4-2.9-7.1c0.3-0.6,0.6-1.2,1.1-1.6c3.1-3.2,6.3-6.3,9.5-9.5
	C375.8,10.7,377.2,10.1,378.6,10.1z M369.1,28.4c1,0,1.9-0.4,2.6-1.1c1.1-1.1,2.3-2.3,3.4-3.4c0.2-0.2,0.3-0.5,0.1-0.7
	c0,0,0-0.1-0.1-0.1c-1.2-1.7-2.6-3.2-4.4-4.3c-0.1-0.2-0.4-0.2-0.5,0c0,0,0,0,0,0c-1.2,1.2-2.5,2.4-3.7,3.7c-1,1-1.2,2.5-0.6,3.7
	C366.6,27.5,367.8,28.4,369.1,28.4z M382.1,15.5c0-1.4-0.9-2.6-2.2-3.1c-1.3-0.6-2.8-0.3-3.8,0.7c-1.4,1.3-2.7,2.7-4,4
	c-0.3,0.3-0.3,0.4,0.1,0.7c1.7,1.2,3.2,2.6,4.4,4.3c0.2,0.3,0.3,0.2,0.5,0c1.4-1.4,2.7-2.7,4.1-4.1
	C381.7,17.3,382.1,16.4,382.1,15.5L382.1,15.5z"/>
<path id="_Path_9" class="st9" d="M376.8,15.9c0,0.2,0,0.3-0.1,0.4c-0.4,0.5-0.8,1-1.4,1.3c-0.3,0.2-0.8,0.2-1-0.1
	c-0.3-0.2-0.3-0.7-0.1-1c0.4-0.5,0.8-1,1.4-1.4c0.4-0.2,0.9-0.1,1.1,0.3C376.7,15.6,376.8,15.7,376.8,15.9z"/>
<path id="_Path_10" class="st9" d="M378.6,14.1c0,0.5-0.4,1-1,1s-1-0.4-1-1l0,0c0-0.5,0.4-0.9,0.9-0.9
	C378.2,13.2,378.6,13.6,378.6,14.1z"/>
<path id="_Compound_Path_6" class="st9" d="M270.7,5.3c2.7,0.9,3.7,2.3,3.9,5.6c0.2,3-0.1,5.9-2,8.5c-0.6,0.7,0,1,0.5,1.2
	c2.2,1,4,2.7,5,4.8c1.3,2.7,0.9,3.8-1.9,4.8c-5.4,0-10.7,0-16.1,0c-0.9,0-1.2-1.1-1.3-1.7c-0.1-0.6-0.1-1.3,0.1-1.9
	c1-2.6,2.9-4.6,5.4-5.8c0.8-0.4,0.6-0.8,0.2-1.3c-2.3-3.1-2.6-6.5-1.7-10.2c0.4-1.9,1.2-3.5,3.4-3.9L270.7,5.3z M268.8,28.6
	c2.3,0,4.7,0,7,0c1.3,0,1.7-0.6,1.2-1.8c-0.5-1.2-1.3-2.3-2.3-3.1c-3.7-3.2-9.2-2.8-12.4,0.8c-0.5,0.6-1,1.3-1.3,2.1
	c-0.7,1.5-0.3,2,1.3,2C264.4,28.6,266.7,28.6,268.8,28.6z M268.6,19.8c0.5,0,1-0.1,1.4-0.4c2-1.3,2.6-3.3,3-5.4
	c0.1-0.5-0.4-0.7-0.8-0.8c-2.3-0.4-4.6-0.4-6.9,0c-0.7,0.1-0.9,0.4-0.8,1.1c0.2,1.7,1,3.3,2.2,4.6C267.1,19.4,267.8,19.7,268.6,19.8
	L268.6,19.8z M268.6,7.1c-3.3,0-3.6,0.2-4.2,3.5c-0.1,0.5-0.1,1.1,0.8,1c2.4-0.3,4.7-0.3,7.1,0c0.6,0.1,0.8-0.2,0.8-0.7
	c0.1-2.4-1.1-3.7-3.5-3.8C269.2,7.2,268.8,7.2,268.6,7.1L268.6,7.1z"/>
<path id="_Path_11" class="st9" d="M277,12c1.2,0.4,1.2-0.3,1.1-1.2c-0.1-1.6-0.6-2.2-2.3-2.7c-0.6-0.2-1.3-0.3-1.2-1.1
	c0.2-0.8,1-0.7,1.6-0.6c2.3,0.4,3.9,2.6,3.6,4.9c-0.1,2.7-0.9,5.3-2.2,7.6c-0.5,0.8-0.3,1.2,0.5,1.6c1.9,0.8,3.5,2.1,4.6,3.8
	c0.7,1,1,2.2,0.9,3.4c-0.1,1.1-1,1.9-2.2,1.9c-0.1,0-0.1,0-0.2,0c-0.4-0.1-0.9-0.2-1-0.7c-0.1-0.4,0.2-0.9,0.6-1c0.1,0,0.1,0,0.2,0
	c1-0.1,0.9-0.7,0.7-1.4c-0.5-1.7-1.7-3-3.3-3.8c-0.8-0.5-1.7-0.9-2.5-1.4c-0.7-0.2-1.1-1-0.8-1.7c0.1-0.2,0.2-0.4,0.3-0.5
	c0.8-1.2,1.4-2.5,1.9-3.8c0.3-0.9,0.2-1.5-0.9-1.6c-0.6-0.1-1.3-0.2-1.1-1.1C275.7,11.7,276.4,12,277,12z"/>
<path id="_Path_12" class="st9" d="M270.5,9.3c-0.3,0.8-1,1.4-1.8,1.6c-0.5,0-2-1.4-1.8-1.8c0.4-0.8,1.1-1.4,1.9-1.7
	C269.2,7.3,270.5,8.8,270.5,9.3z"/>
<path id="_Compound_Path_7" class="st9" d="M418,16.9h6.3c1.5,0,1.8,0.3,1.6,1.8c-0.4,3.4-2.6,6.3-5.8,7.6c-0.7,0.2-1.1,0.8-1,1.5
	c0,1.4-0.1,1.6-1.6,1.6c-1.8,0-3.6,0-5.4,0c-1.1,0-1.4-0.3-1.4-1.4c0.1-0.9-0.4-1.8-1.3-2.2c-2.5-1.3-4.2-3.7-4.7-6.5
	c-0.1-0.3-0.1-0.7-0.1-1c0-1.1,0.2-1.4,1.3-1.4c2.3,0,4.6,0,6.9,0c0.7,0.1,1.4-0.3,1.5-1c0.8-1.7,1.7-3.3,2.7-4.8
	c0.6-1,1.1-1.9,1.7-2.9c0.3-0.4,0.6-0.9,1.2-0.5c0.6,0.4,0.3,0.9,0.1,1.3l-3.9,6.8c-0.1,0.2-0.3,0.5-0.4,0.8s0,0.3,0.1,0.3
	c0.1,0,0.2,0,0.2-0.1c0.4-1.6,1.9-2.2,2.9-3.2c1-1,2.2-1.9,3.3-2.9c0.4-0.4,0.9-0.6,1.3-0.1s0.1,0.9-0.3,1.2
	c-1.4,1.3-2.9,2.6-4.4,3.9C418.7,16,418.3,16.4,418,16.9z M415.4,18.4c-2.7,0-5.4,0-8.2,0c-0.7,0-1,0.3-0.8,1
	c0.2,0.9,0.6,1.8,1.1,2.6c2.3,3,5.4,4,9,3.7c3.6-0.3,6.6-2.7,7.6-6.1c0.2-1,0.1-1.1-0.8-1.1L415.4,18.4z M415,27.8h2.1
	c0.2,0,0.5-0.1,0.5-0.3c0-0.3-0.3-0.3-0.5-0.3c-1.3,0.2-2.7,0.2-4-0.1c-0.2,0-0.5-0.2-0.6,0.2c-0.1,0.4,0.2,0.5,0.5,0.5L415,27.8z"
	/>
<path id="_Compound_Path_8" class="st9" d="M512.6,23.4c-1.8,1.1-3,0.8-3.9-1c0,0.3,0,0.4,0,0.6c0,1.9,0,3.7,0,5.5
	c0,0.8-0.3,1.1-1.1,1.1h-1.7c-0.5,0.1-0.9-0.3-1-0.8c0,0,0-0.1,0-0.1c0,0,0-0.1,0-0.1c0-2.4-0.2-4.8,0.1-7.3
	c0.2-2.1,2.1-3.5,4.2-3.3c0,0,0,0,0,0c0.3,0,0.7-0.1,0.9-0.4l6.5-6.4c0.6-0.7,1.5-1.1,2.5-1.1c0.5,0,1,0.2,1.4,0.5
	c3.2,2.2,5.6,5.3,6.9,8.9c1,2.6,1.4,5.5,1.2,8.3c0,0.8-0.3,1.1-1.1,1.1h-13.8c-0.8,0-1.1-0.3-1.1-1.1
	C512.6,26.4,512.6,24.9,512.6,23.4z M520.6,27.3h5.7c0.3,0,0.6,0.1,0.6-0.4c0-1.6-0.2-3.2-0.6-4.8c-1.2-4-3.1-7.5-6.6-9.9
	c-0.9-0.6-1.3-0.6-2.1,0.2c-2.3,2.3-4.7,4.7-7,7c-0.3,0.4-0.8,0.5-1.3,0.4c-1.1-0.4-2.4,0.2-2.8,1.3c-0.1,0.3-0.2,0.7-0.1,1
	c0,1.7,0,3.4,0,5.1c0,0.3-0.2,0.8,0.3,0.8c0.5,0,0.3-0.5,0.3-0.8c0-1.8,0-3.5,0-5.3c0-0.9,0.7-1.6,1.6-1.6c0.8,0,1.5,0.6,1.7,1.4
	c0,0.1,0,0.2,0.1,0.3c0.1,0.1,0.2,0.4,0.5,0.4c0.2,0,0.5-0.1,0.6-0.3c0.2-0.7,0.9-1.1,1.4-1.6c0.5-0.5,1.3-0.3,1.4,0.6
	c0,0.2,0,0.5,0,0.7c0,1.6,0,3.3,0,4.9c0,0.6,0.2,0.7,0.8,0.7C516.9,27.3,518.7,27.3,520.6,27.3z"/>
<path id="_Compound_Path_9" class="st9" d="M510.7,2c3.3,0,6,2.6,6,5.9c0,0,0,0.1,0,0.1c0,3.3-2.7,6-6,6c-3.3,0-6-2.7-6-6
	S507.4,2,510.7,2C510.7,2,510.7,2,510.7,2z M515.1,7.9c-0.3-2.4-2.5-4.1-4.9-3.8c-2,0.3-3.6,1.9-3.8,3.9c0,2.4,2,4.4,4.4,4.4
	c0,0,0,0,0.1,0C513.2,12.4,515.1,10.4,515.1,7.9C515,8,515,8,515.1,7.9L515.1,7.9z"/>
<path id="_Compound_Path_10" class="st9" d="M471.2,19.9c0-2.3,0-4.6,0-6.9c0.1-0.4-0.1-0.8-0.4-1.1c-0.3-0.2-0.4-0.5-0.2-0.8
	c0.1-0.1,0.1-0.2,0.2-0.2c0.3-0.2,0.4-0.6,0.4-0.9c0-0.4,0-0.8,0-1.3c0-0.4,0.3-0.7,0.6-0.8c0,0,0.1,0,0.1,0c0.5,0,0.7,0.3,0.7,0.8
	c0,0.4,0,0.6,0,1c0,0.3-0.1,0.9,0.5,1.3c0.3,0.2,0.4,0.5,0.2,0.8c0,0.1-0.1,0.2-0.2,0.2c-0.4,0.3-0.4,0.6-0.4,1.1
	c0,4.7,0,9.5,0,14.2c0,1.6-1.3,2.8-2.8,2.8c-0.6,0-1.3-0.2-1.8-0.6c-0.7-0.6-1.1-1.5-1.1-2.4c0-0.4,0-0.8,0-1.2
	c-0.1-0.7-0.7-1.2-1.4-1.2c-0.6,0.1-1.1,0.5-1.2,1.2c0,0.6,0,1.2-0.1,1.8c-0.2,1.5-1.5,2.5-2.9,2.5c-1.5-0.1-2.6-1.3-2.6-2.8
	c0-1.3,0-2.6,0-4c0-0.7-0.2-0.9-0.8-0.8c-0.6,0-1.4,0-2,0c-0.3,0-0.5,0.1-0.5,0.5c0,0.4-0.2,0.9-0.7,0.9c-0.5,0-0.7-0.3-0.7-0.8
	s-0.2-0.5-0.6-0.5c-0.4,0-0.8,0-1.3,0c-0.4,0-0.9-0.3-0.9-0.7c0,0,0-0.1,0-0.1c0,0,0,0,0-0.1c0-4.5,0-8.9,0-13.4
	c0-0.7,0.3-0.9,1-0.9c1.3,0,2.7,0,4,0c0.4,0.1,0.7-0.2,0.8-0.5c0.7-1.4,2.4-2,3.8-1.3c0.6,0.3,1,0.7,1.3,1.3
	c0.1,0.3,0.4,0.5,0.8,0.5c1.3,0,2.5,0,3.8,0c1.1,0,1.3,0.2,1.3,1.3c0,2.3,0,4.6,0,6.9c0,1.9,0,3.8,0,5.7c0,1.1-0.2,1.3-1.3,1.3
	c-1.9,0-3.7,0-5.5,0c-0.5,0-0.8,0.2-0.7,0.7c0,1.3,0,2.5,0,3.8c0,1,0.5,1.5,1.3,1.5s1.3-0.5,1.3-1.5c0-0.6,0-1.1,0.1-1.7
	c0.3-1.5,1.7-2.5,3.2-2.3c1.3,0.2,2.3,1.4,2.3,2.8c0,0.4,0,0.9,0,1.3c0,0.7,0.6,1.3,1.3,1.4c0,0,0,0,0,0c0.7,0,1.3-0.6,1.3-1.3
	c0,0,0-0.1,0-0.1c0-1.7,0-3.4,0-5.2C471.2,21.4,471.2,20.6,471.2,19.9z M459.6,21.1c2,0,4.1,0,6.1,0c0.5,0,0.7-0.1,0.7-0.7
	c0-2.7,0-5.4,0-8.2c0-0.5-0.2-0.7-0.7-0.7c-4.1,0-8.2,0-12.2,0c-0.5,0-0.7,0.1-0.7,0.6s0.3,0.6,0.7,0.6c0.9,0,1.3,0.2,1.3,0.7
	c0,0.5-0.4,0.8-1.3,0.7c-0.5,0-0.7,0.1-0.7,0.6c0,0.5,0.3,0.6,0.7,0.6c0.9,0,1.3,0.3,1.3,0.8c0,0.5-0.4,0.7-1.3,0.7
	c-0.5,0-0.8,0.1-0.8,0.7s0.3,0.6,0.7,0.6c0.9,0,1.3,0.2,1.3,0.7c0,0.5-0.4,0.8-1.3,0.8c-0.5,0-0.7,0.1-0.7,0.7
	c0,0.5,0.3,0.6,0.8,0.6L459.6,21.1z M459.6,10h6.1c0.4,0,0.7,0,0.7-0.6c0-0.6-0.2-0.7-0.7-0.7c-2.4,0-4.9,0-7.3,0h-5
	c-0.4,0-0.6,0.1-0.6,0.6c0,0.5,0.2,0.7,0.7,0.7C455.5,10,457.6,10,459.6,10L459.6,10z"/>
<path id="_Path_13" class="st9" d="M462.3,16.3c0,0.3-0.3,0.6-0.6,0.6c-0.2,0-0.4,0.1-0.6,0.1c-0.9,0-0.9,0-0.9,0.9
	c0,0.1,0,0.3,0,0.4c0,0.4-0.4,0.7-0.8,0.6c-0.4,0-0.6-0.3-0.7-0.7c-0.1-0.4,0.2-0.9-0.1-1.2s-0.8-0.1-1.2-0.2
	c-0.4,0-0.7-0.3-0.7-0.7c0-0.4,0.3-0.7,0.7-0.7l0.4-0.1c0.9-0.1,0.9,0,0.9-1c0-0.6,0.3-1,0.7-1c0.4,0,0.7,0.5,0.7,1c0,1,0,1,1.1,1.1
	C462,15.6,462.4,15.9,462.3,16.3z"/>
<path id="_Compound_Path_11" class="st9" d="M182.2,18.2c-0.1,2.2-0.8,4.4-2.2,6.2c-0.3,0.4-0.3,0.9,0,1.3c0.6,1,1.2,2,1.8,3.1
	c0.2,0.3,0.3,0.6,0.1,0.9c-0.2,0.3-0.8,0.3-1.1-0.2c-0.6-1-1.2-1.9-1.7-2.9c-0.3-0.5-0.5-0.6-1-0.2c-3.8,3-9.1,3-12.8,0
	c-0.4-0.3-0.7-0.3-1,0.2c-0.5,1-1.1,1.9-1.7,2.8c-0.2,0.3-0.5,0.7-1,0.4c-0.5-0.3-0.3-0.7-0.1-1.1c0.6-1.1,1.3-2.2,1.9-3.3
	c0.2-0.3,0.2-0.8-0.1-1c-2.4-2.9-2.9-6.9-1.4-10.4c1.4-3.6,4.7-6.1,8.6-6.4c5.7-0.6,10.8,3.5,11.5,9.2c0,0.1,0,0.2,0,0.3
	C182.2,17.5,182.2,17.9,182.2,18.2z M181,18.2c0-5.1-4.1-9.3-9.2-9.3c-5.1,0-9.2,4-9.2,9.1c0,0,0,0.1,0,0.1c0,5.1,4.1,9.2,9.1,9.3
	C176.8,27.4,180.9,23.3,181,18.2L181,18.2z"/>
<path id="_Compound_Path_12" class="st9" d="M163,5.5c1.1-0.1,2.2,0.3,3,1.1c0.3,0.2,0.4,0.7,0.2,1c0,0.1-0.1,0.1-0.1,0.2
	c-1.7,1.7-3.4,3.4-5,5c-0.2,0.3-0.7,0.4-1,0.1c-0.1,0-0.1-0.1-0.1-0.1c-1.6-1.8-1.5-4.5,0.3-6.2c0.1-0.1,0.1-0.1,0.2-0.2
	C161.1,5.8,162.1,5.5,163,5.5z M160,10c0,0.1,0,0.3,0,0.4c0,0.2,0.1,0.4,0.1,0.6c0.2,0.6,0.3,0.6,0.8,0.2c1.2-1.2,2.3-2.3,3.5-3.5
	c0.4-0.4,0.3-0.5-0.1-0.7c-1.6-0.6-3.4,0.2-4,1.8C160.1,9.1,160,9.5,160,10L160,10z"/>
<path id="_Compound_Path_13" class="st9" d="M180.1,5.5c1.6-0.1,3.2,0.9,3.9,2.3c0.8,1.5,0.7,3.4-0.4,4.7c-0.5,0.7-0.9,0.7-1.5,0.1
	l-4.7-4.7c-0.6-0.6-0.6-1.1,0.1-1.6C178.2,5.8,179.2,5.5,180.1,5.5z M183.2,9.9c0-1.7-1.4-3.2-3.1-3.2c-0.4,0-0.8,0.1-1.2,0.2
	c-0.4,0.2-0.5,0.4-0.1,0.7c1,1,2,2,3,3c0.3,0.3,0.5,0.8,0.8,0.7c0.3-0.1,0.4-0.7,0.5-1.2C183.2,10.1,183.2,10,183.2,9.9z"/>
<path id="_Compound_Path_14" class="st9" d="M179.7,18.1c0,4.4-3.6,7.9-8,7.9c-4.4,0-7.9-3.6-7.9-8c0-4.4,3.6-7.9,8-7.9
	C176.1,10.1,179.7,13.7,179.7,18.1z M178.4,18.1c0-3.7-3-6.7-6.7-6.7c-3.7,0-6.7,3-6.7,6.7c0,3.7,3,6.7,6.7,6.7c0,0,0,0,0,0
	C175.4,24.7,178.4,21.8,178.4,18.1C178.4,18.1,178.4,18.1,178.4,18.1z"/>
<path id="_Path_14" class="st9" d="M172.4,14.6c0,0.2,0,0.5,0,0.7c-0.3,1,0.5,1.5,1,2.1c0.2,0.3,0.6,0.1,1,0.1h0.9
	c0.3,0,0.6,0.2,0.6,0.5c0,0.3-0.2,0.6-0.5,0.6c0,0,0,0,0,0c-0.4,0-0.9,0-1.3,0c-0.4,0-0.8,0.1-1,0.5c-0.4,0.5-1,0.8-1.7,0.6
	c-0.7-0.1-1.2-0.7-1.4-1.4c-0.2-0.6,0.1-1.3,0.6-1.7c0.3-0.2,0.5-0.6,0.4-1c0-0.9,0-1.8,0-2.7c0-0.4,0.1-0.8,0.6-0.8
	c0.5,0,0.6,0.4,0.6,0.7C172.4,13.4,172.4,14,172.4,14.6L172.4,14.6z"/>
<g id="_Group_5">
	<text transform="matrix(6.123234e-17 -1 1 6.123234e-17 108.5991 75.6875)" class="st4 st5 st6">online</text>
</g>
<g id="_Group_6">
	<text transform="matrix(6.123234e-17 -1 1 6.123234e-17 108.5991 157.4453)" class="st4 st5 st6">offline</text>
</g>
<rect id="_Path_15" x="1.8" y="350.3" class="st3" width="111.8" height="10.2"/>
<rect id="_Path_16" x="1.8" y="222.3" class="st3" width="111.8" height="10.2"/>
<rect id="_Path_17" x="1.8" y="181.3" class="st3" width="111.8" height="10.2"/>
<text transform="matrix(1 0 0 1 37.4497 188.5342)" class="st4 st5 st6">line of interaction</text>
<text transform="matrix(1 0 0 1 49.0181 230.8066)" class="st4 st5 st6">line of visibility</text>
<text transform="matrix(1 0 0 1 14.2212 357.8008)" class="st4 st5 st6">line of inner interaction</text>
<text transform="matrix(1 0 0 1 39.9438 389.6074)" class="st9 st5 st6">SUPPORT</text>
<text transform="matrix(1 0 0 1 28.605 399.9658)" class="st9 st5 st6">PROCESSES</text>
<g id="_Group_7">
	<line class="st7" x1="113.7" y1="355.6" x2="116.4" y2="355.6"/>
	<line class="st8" x1="121.9" y1="355.6" x2="601.8" y2="355.6"/>
	<line class="st7" x1="604.6" y1="355.6" x2="607.3" y2="355.6"/>
</g>
<g id="_Group_8">
	<line class="st7" x1="113.7" y1="229.7" x2="116.4" y2="229.7"/>
	<line class="st8" x1="121.9" y1="229.7" x2="601.8" y2="229.7"/>
	<line class="st7" x1="604.6" y1="229.7" x2="607.3" y2="229.7"/>
</g>
<g id="_Group_9">
	<line class="st7" x1="113.7" y1="187.5" x2="116.4" y2="187.5"/>
	<line class="st8" x1="121.9" y1="187.5" x2="601.8" y2="187.5"/>
	<line class="st7" x1="604.6" y1="187.5" x2="607.3" y2="187.5"/>
</g>
<text transform="matrix(1 0 0 1 28.4966 297.7402)" class="st9 st5 st6">BACKSTAGE</text>
<text transform="matrix(1 0 0 1 32.8862 208.8369)" class="st9 st5 st6">ONSTAGE</text>
<text transform="matrix(1 0 0 1 50.1499 100.7305)" class="st9 st5 st6">USER</text>
<text transform="matrix(1 0 0 1 32.1562 111.0898)" class="st9 st5 st6">JOURNEY</text>
<text transform="matrix(1 0 0 1 146.5698 45.2339)" class="st9 st10 st11">Getting up</text>
<path id="_Compound_Path_15" class="st9" d="M214.2,21.9c0.1-1.5,0.7-2.9,1.7-4c0.3-0.3,0.4-0.7,0.4-1.1c0-2.5,0.1-5.1,0-7.6
	c-0.1-2.6,1.8-4.7,4.4-4.9c0.1,0,0.1,0,0.2,0c2-0.3,3.9,0.5,5.1,2.2c0.3,0.4,0.5,0.9,0.5,1.4c0.1,0.5,0.3,0.7,0.8,0.6
	c0.2,0,0.5,0,0.7,0c0.4,0,0.8,0.4,0.7,0.8c0,0.4-0.4,0.8-0.8,0.8c-0.3,0-0.6,0-0.8,0c-0.3,0-0.5,0.1-0.5,0.4s0.2,0.4,0.5,0.4
	c0.3,0,0.6,0,0.8,0c0.4,0,0.8,0.4,0.8,0.8c0,0,0,0,0,0c0,0.4-0.3,0.8-0.8,0.8c-0.3,0-0.6,0-0.9,0c-0.3,0-0.4,0.1-0.4,0.4
	c0,0.3,0.2,0.4,0.4,0.4c0.3,0,0.6,0,0.9,0c0.4,0,0.8,0.4,0.8,0.8c0,0,0,0,0,0c0,0.4-0.3,0.7-0.7,0.8h-0.3c-1.1,0.1-1.1,0.1-1.1,1.3
	c0,0.6,0.2,1.1,0.5,1.6c2.5,3.1,2,7.7-1.1,10.2c-1.3,1-2.8,1.6-4.4,1.6C217.6,29.9,214.2,26.5,214.2,21.9z M224.9,13
	c0-1.5,0-3,0-4.5c0-0.6-0.2-1.1-0.6-1.5c-1-1-2.4-1.3-3.8-1C219,6.2,217.9,7.5,218,9c0,0,0,0.1,0,0.1c0,2.7,0,5.3,0,8
	c0,0.7-0.2,1.3-0.7,1.8c-1.5,1.6-1.9,3.9-1,5.9c0.8,2.1,2.8,3.4,5,3.4c3.1,0.1,5.6-2.3,5.7-5.4c0-1.5-0.5-3-1.6-4.1
	c-0.4-0.3-0.5-0.8-0.5-1.3C224.9,15.9,224.9,14.5,224.9,13z"/>
<path id="_Compound_Path_16" class="st9" d="M222.2,14.1c0,1.4,0,2.9,0,4.4c-0.1,0.5,0.2,0.9,0.7,1.1c1.2,0.6,2,1.8,1.9,3.2
	c-0.1,1.4-1,2.6-2.3,3c-1.7,0.5-3.5-0.3-4.2-1.9c-0.8-1.6-0.1-3.6,1.6-4.3c0,0,0,0,0,0c0.5-0.2,0.8-0.7,0.7-1.2c0-2.9,0-5.8,0-8.7
	c0-0.4,0-0.8,0.5-0.9c0.4-0.2,0.8-0.1,1,0.3c0.1,0.2,0.1,0.3,0.1,0.5C222.2,11,222.2,12.5,222.2,14.1z M221.4,24.3
	c0.9,0.1,1.8-0.7,1.8-1.6c0-0.1,0-0.1,0-0.2c0-1-0.7-1.8-1.7-1.8c0,0,0,0-0.1,0c-1,0-1.8,0.8-1.8,1.8S220.5,24.3,221.4,24.3
	C221.5,24.3,221.5,24.3,221.4,24.3L221.4,24.3z"/>
<polygon id="_Path_18" class="st2" points="186.3,104.3 143.6,104.3 143.6,58.8 186.3,58.8 192.1,81.5 "/>
<text transform="matrix(1 0 0 1 145.6108 71.3418)" class="st3 st10 st12">greeting</text>
<text transform="matrix(1 0 0 1 145.6108 80.3613)" class="st3 st10 st12">remind the</text>
<text transform="matrix(1 0 0 1 145.6108 89.3916)" class="st3 st10 st12">routine today</text>
<polygon id="_Path_19" class="st2" points="236.8,104.3 194.1,104.3 194.1,58.8 236.8,58.8 242.6,81.5 "/>
<polygon id="_Path_20" class="st2" points="287.7,104.3 244.9,104.3 244.9,58.8 287.7,58.8 293.4,81.5 "/>
<polygon id="_Path_21" class="st2" points="337.9,104.3 295.2,104.3 295.2,58.8 337.9,58.8 343.7,81.5 "/>
<text transform="matrix(1 0 0 1 296.4814 78.5215)" class="st3 st10 st12">guide to</text>
<text transform="matrix(1 0 0 1 296.4814 87.5391)" class="st3 st10 st12">examination</text>
<polygon id="_Path_22" class="st2" points="388,104.3 345.2,104.3 345.2,58.8 388,58.8 393.7,81.5 "/>
<polygon id="_Path_23" class="st2" points="437.5,104.3 394.7,104.3 394.7,58.8 437.5,58.8 443.2,81.5 "/>
<polygon id="_Path_24" class="st2" points="487,104.3 444.2,104.3 444.2,58.8 487,58.8 492.8,81.5 "/>
<polygon id="_Path_25" class="st2" points="538,104.3 495.2,104.3 495.2,58.8 538,58.8 543.7,81.5 "/>
<polygon id="_Path_26" class="st2" points="593.9,104.3 551.1,104.3 551.1,58.8 593.9,58.8 599.7,81.5 "/>
<g id="_Group_10">
	<line id="_Path_27" class="st13" x1="169.6" y1="104.3" x2="169.6" y2="229.7"/>
	<line id="_Path_28" class="st14" x1="169.6" y1="229.7" x2="169.6" y2="252.6"/>
</g>
<line id="_Path_29" class="st14" x1="462.2" y1="281.9" x2="462.2" y2="297.7"/>
<g id="_Group_11">
	<line id="_Path_30" class="st13" x1="216.3" y1="104.3" x2="216.3" y2="229.7"/>
	<line id="_Path_31" class="st14" x1="216.3" y1="229.7" x2="216.3" y2="252.6"/>
</g>
<g id="_Group_12">
	<line id="_Path_32" class="st13" x1="262.8" y1="104.3" x2="262.8" y2="229.7"/>
	<line id="_Path_33" class="st14" x1="262.8" y1="229.7" x2="262.8" y2="252.6"/>
</g>
<rect id="_Path_34" x="143.9" y="404.5" class="st15" width="454.1" height="20.3"/>
<polygon id="_Path_35" class="st2" points="186.3,167.9 143.6,167.9 143.6,122.4 186.3,122.4 192.1,145.1 "/>
<text transform="matrix(1 0 0 1 323.6357 417.6328)" class="st3 st10 st12">physician&apos;s order communication system</text>
<rect id="_Path_36" x="177.6" y="378.1" class="st15" width="73.9" height="20.3"/>
<text transform="matrix(1 0 0 1 181.0117 387.8428)" class="st3 st10 st12">disease surveillance</text>
<text transform="matrix(1 0 0 1 181.0117 396.8613)" class="st3 st10 st12">system</text>
<rect id="_Path_37" x="254.2" y="378.1" class="st15" width="43.3" height="20.3"/>
<text transform="matrix(1 0 0 1 258.75 386.7646)" class="st3 st10 st12">knowledge</text>
<text transform="matrix(1 0 0 1 258.75 395.7822)" class="st3 st10 st12">graph</text>
<rect id="_Path_38" x="300.2" y="378.1" class="st15" width="60.1" height="20.3"/>
<text transform="matrix(1 0 0 1 311.7412 386.9482)" class="st3 st10 st12">navigation</text>
<text transform="matrix(1 0 0 1 311.7412 395.9688)" class="st3 st10 st12">engine</text>
<polygon id="_Path_39" class="st2" points="236.8,167.9 194.1,167.9 194.1,122.4 236.8,122.4 242.6,145.1 "/>
<text transform="matrix(1 0 0 1 201.8584 74.8066)" class="st3 st10 st12">measure </text>
<text transform="matrix(1 0 0 1 201.8584 83.8252)" class="st3 st10 st12">body</text>
<text transform="matrix(1 0 0 1 201.8584 92.8545)" class="st3 st10 st12">response</text>
<polygon id="_Path_40" class="st2" points="287.7,167.9 244.9,167.9 244.9,122.4 287.7,122.4 293.4,145.1 "/>
<text transform="matrix(1 0 0 1 247.8252 77.8242)" class="st3 st10 st12">explain their</text>
<text transform="matrix(1 0 0 1 247.8252 86.8418)" class="st3 st10 st12">illness</text>
<polygon id="_Path_41" class="st2" points="337.9,167.9 295.2,167.9 295.2,122.4 337.9,122.4 343.7,145.1 "/>
<polygon id="_Path_42" class="st2" points="388,167.9 345.2,167.9 345.2,122.4 388,122.4 393.7,145.1 "/>
<text transform="matrix(1 0 0 1 351.793 77.8242)" class="st3 st10 st12">medicine</text>
<text transform="matrix(1 0 0 1 351.793 86.8418)" class="st3 st10 st12">remind</text>
<polygon id="_Path_43" class="st2" points="437.5,167.9 394.7,167.9 394.7,122.4 437.5,122.4 443.2,145.1 "/>
<text transform="matrix(1 0 0 1 396.0381 74.8066)" class="st3 st10 st12">order food</text>
<text transform="matrix(1 0 0 1 396.0381 83.8252)" class="st15 st10 st12">healthy</text>
<text transform="matrix(1 0 0 1 396.0381 92.8545)" class="st15 st10 st12">suggestion</text>
<polygon id="_Path_44" class="st2" points="487,167.9 444.2,167.9 444.2,122.4 487,122.4 492.8,145.1 "/>
<text transform="matrix(1 0 0 1 445.6084 74.8066)" class="st3 st10 st12">amusement</text>
<polygon id="_Path_45" class="st2" points="538,167.9 495.2,167.9 495.2,122.4 538,122.4 543.7,145.1 "/>
<text transform="matrix(1 0 0 1 495.1699 73.0312)" class="st3 st10 st12">rehabilitative </text>
<text transform="matrix(1 0 0 1 495.1699 82.0498)" class="st3 st10 st12">training</text>
<polygon id="_Path_46" class="st2" points="593.9,167.9 551.1,167.9 551.1,122.4 593.9,122.4 599.7,145.1 "/>
<text transform="matrix(1 0 0 1 552.4521 74.8066)" class="st3 st10 st12">sleeping aid</text>
<text transform="matrix(1 0 0 1 552.4521 83.8252)" class="st15 st10 st12">essential oil</text>
<text transform="matrix(1 0 0 1 552.4521 92.8545)" class="st15 st10 st12">/white noise</text>
<rect id="_Path_47" x="198.1" y="251.5" class="st9" width="38.6" height="32.5"/>
<rect id="_Path_48" x="314.3" y="252.6" class="st9" width="38.6" height="32.5"/>
<text transform="matrix(1 0 0 1 205.0947 262.1445)" class="st3 st10 st12">send to</text>
<text transform="matrix(1 0 0 1 205.0947 271.1631)" class="st3 st10 st12">nursing</text>
<text transform="matrix(1 0 0 1 205.0947 280.1924)" class="st3 st10 st12"> station</text>
<rect id="_Path_49" x="238.7" y="251.5" class="st9" width="38.6" height="32.5"/>
<text transform="matrix(1 0 0 1 239.1982 261.0654)" class="st3 st10 st12">record</text>
<text transform="matrix(1 0 0 1 239.1982 270.085)" class="st3 st10 st12">patient’s</text>
<text transform="matrix(1 0 0 1 239.1982 279.1143)" class="st3 st10 st12">puzzlement</text>
<rect id="_Path_50" x="238.7" y="296.1" class="st9" width="38.6" height="32.5"/>
<text transform="matrix(1 0 0 1 239.1982 306.3242)" class="st3 st10 st12">nurse</text>
<text transform="matrix(1 0 0 1 239.1982 315.3418)" class="st3 st10 st12">answer the</text>
<text transform="matrix(1 0 0 1 239.1982 324.3721)" class="st3 st10 st12">question</text>
<rect id="_Path_51" x="145.5" y="251.5" class="st9" width="38.6" height="32.5"/>
<text transform="matrix(1 0 0 1 146.0137 265.9902)" class="st3 st10 st12">planning &amp;</text>
<text transform="matrix(1 0 0 1 146.0137 275.0088)" class="st3 st10 st12">scheduling</text>
<text transform="matrix(1 0 0 1 315.3467 263.834)" class="st3 st10 st12">doctor get</text>
<text transform="matrix(1 0 0 1 315.3467 272.8516)" class="st3 st10 st12">patient’s</text>
<text transform="matrix(1 0 0 1 315.3467 281.8818)" class="st3 st10 st12">profile</text>
<rect id="_Path_52" x="439.9" y="296.1" class="st9" width="46.6" height="32.5"/>
<g id="_Group_13">
	<text transform="matrix(1 0 0 1 439.9004 309.5586)" class="st3 st10 st12">wardmate’s</text>
	<text transform="matrix(1 0 0 1 439.9004 318.5781)" class="st3 st10 st12">preference</text>
</g>
<g id="_Group_14">
	<line id="_Path_53" class="st13" x1="169.6" y1="104.3" x2="169.6" y2="229.7"/>
</g>
<line id="_Path_54" class="st14" x1="169.6" y1="283.6" x2="169.6" y2="355.6"/>
<line id="_Path_55" class="st14" x1="216.3" y1="280.4" x2="216.3" y2="355.6"/>
<line id="_Path_56" class="st14" x1="391.4" y1="283.6" x2="391.4" y2="355.3"/>
<line id="_Path_57" class="st14" x1="311.7" y1="229.7" x2="311.7" y2="355.6"/>
<line id="_Path_58" class="st14" x1="262.8" y1="279.5" x2="262.8" y2="296.1"/>
<g id="_Group_15">
	<line id="_Path_59" class="st13" x1="216.3" y1="104.3" x2="216.3" y2="229.7"/>
</g>
<line id="_Path_60" class="st13" x1="281.2" y1="104.3" x2="281.2" y2="229.7"/>
<line id="_Path_61" class="st13" x1="311.7" y1="104.3" x2="311.7" y2="229.7"/>
<line id="_Path_62" class="st14" x1="281.2" y1="229.7" x2="281.2" y2="355.6"/>
<g id="_Group_16">
	<line id="_Path_63" class="st13" x1="365.5" y1="104.3" x2="365.5" y2="229.7"/>
	<line id="_Path_64" class="st13" x1="365.5" y1="229.7" x2="365.5" y2="252.6"/>
</g>
<g id="_Group_17">
	<line id="_Path_65" class="st13" x1="410" y1="104.3" x2="410" y2="229.7"/>
	<line id="_Path_66" class="st13" x1="410" y1="229.7" x2="410" y2="252.6"/>
</g>
<g id="_Group_18">
	<line id="_Path_67" class="st13" x1="462.2" y1="104.3" x2="462.2" y2="229.7"/>
	<line id="_Path_68" class="st13" x1="462.2" y1="229.7" x2="462.2" y2="252.6"/>
</g>
<line id="_Path_69" class="st13" x1="515.4" y1="104.3" x2="515.4" y2="229.7"/>
<line id="_Path_70" class="st14" x1="515.4" y1="229.7" x2="515.4" y2="355.6"/>
<g id="_Group_19">
	<line id="_Path_71" class="st13" x1="570.6" y1="104.3" x2="570.6" y2="229.7"/>
	<line id="_Path_72" class="st13" x1="570.6" y1="229.7" x2="570.6" y2="252.6"/>
</g>
<line id="_Path_73" class="st14" x1="570.6" y1="281.9" x2="570.6" y2="339.1"/>
<line id="_Path_74" class="st14" x1="335.2" y1="285.1" x2="335.2" y2="356.6"/>
<line id="_Path_75" class="st16" x1="227.3" y1="355.6" x2="227.3" y2="378.1"/>
<line id="_Path_76" class="st16" x1="216.3" y1="355.6" x2="216.3" y2="378.1"/>
<line id="_Path_77" class="st16" x1="515.4" y1="355.6" x2="515.4" y2="405.3"/>
<line id="_Path_78" class="st16" x1="391.4" y1="355.3" x2="391.4" y2="403.6"/>
<line id="_Path_79" class="st16" x1="227.3" y1="355.6" x2="227.3" y2="378.1"/>
<line id="_Path_80" class="st16" x1="281.2" y1="355.6" x2="281.2" y2="378.1"/>
<line id="_Path_81" class="st16" x1="311.9" y1="355.6" x2="311.9" y2="378.1"/>
<line id="_Path_82" class="st16" x1="335.4" y1="356.6" x2="335.4" y2="379"/>
<line id="_Path_83" class="st16" x1="216.3" y1="355.6" x2="216.3" y2="378.1"/>
<line id="_Path_84" class="st16" x1="169.6" y1="355.6" x2="169.6" y2="405.3"/>
<line id="_Path_85" class="st16" x1="515.4" y1="355.6" x2="515.4" y2="405.3"/>
<line id="_Path_86" class="st14" x1="227.3" y1="335.6" x2="227.3" y2="355.6"/>
<line id="_Path_87" class="st14" x1="570.6" y1="337.1" x2="227.3" y2="337.1"/>
<text transform="matrix(1 0 0 1 148.6729 145.1279)" class="st3 st10 st12">weak up</text>
<text transform="matrix(1 0 0 1 201.8584 145.1279)" class="st3 st10 st12">weak up</text>
<text transform="matrix(1 0 0 1 247.2803 135.335)" class="st3 st10 st12">doctor</text>
<text transform="matrix(1 0 0 1 247.2803 144.3535)" class="st3 st10 st12"> &amp; patient</text>
<text transform="matrix(1 0 0 1 247.2803 153.3838)" class="st3 st10 st12">Exchange</text>
<text transform="matrix(1 0 0 1 247.2803 162.4033)" class="st3 st10 st12">information</text>
<text transform="matrix(1 0 0 1 296.4277 138.5703)" class="st3 st10 st12">go to </text>
<text transform="matrix(1 0 0 1 296.4277 147.5889)" class="st3 st10 st12">Examination</text>
<text transform="matrix(1 0 0 1 296.4277 156.6191)" class="st3 st10 st12">Room</text>
<text transform="matrix(1 0 0 1 346.2803 143.9619)" class="st3 st10 st12">patient:</text>
<text transform="matrix(1 0 0 1 346.2803 152.9814)" class="st3 st10 st12">Eat drugs</text>
<text transform="matrix(1 0 0 1 398.9463 148.1338)" class="st3 st10 st12">order food</text>
<text transform="matrix(1 0 0 1 449.584 138.2334)" class="st3 st10 st12">relax and </text>
<text transform="matrix(1 0 0 1 449.584 147.251)" class="st3 st10 st12">chat with</text>
<text transform="matrix(1 0 0 1 449.584 156.2812)" class="st3 st10 st12">wardmate</text>
<text transform="matrix(1 0 0 1 497.6631 142.8838)" class="st3 st10 st12">patients help</text>
<text transform="matrix(1 0 0 1 497.6631 151.9023)" class="st3 st10 st12">each other</text>
<text transform="matrix(1 0 0 1 556.5693 147.1973)" class="st3 st10 st12">fall asleep</text>
<rect id="_Path_88" x="358.9" y="251.5" class="st9" width="62.2" height="32.5"/>
<text transform="matrix(1 0 0 1 365.5283 265.9902)" class="st3 st10 st12">refer to</text>
<text transform="matrix(1 0 0 1 365.5283 275.0088)" class="st3 st10 st12">Medical advice</text>
<rect id="_Path_89" x="439.9" y="251.5" class="st9" width="46.6" height="32.5"/>
<text transform="matrix(1 0 0 1 443.3213 261.6768)" class="st3 st10 st12">cooperate</text>
<text transform="matrix(1 0 0 1 445.1182 270.6953)" class="st3 st10 st12">with other</text>
<text transform="matrix(1 0 0 1 446.7637 279.7256)" class="st3 st10 st12">Xiao TUO</text>
<rect id="_Path_90" x="551.3" y="251.5" class="st9" width="38.6" height="32.5"/>
<text transform="matrix(1 0 0 1 555.5781 260.5986)" class="st3 st5 st12">collect</text>
<text transform="matrix(1 0 0 1 555.5781 269.6172)" class="st3 st5 st12">sleeping</text>
<text transform="matrix(1 0 0 1 555.5781 278.6475)" class="st3 st5 st12">data</text>
</svg>
