<?xml version="1.0" standalone="no"?>
<!DOCTYPE svg PUBLIC "-//W3C//DTD SVG 20010904//EN"
 "http://www.w3.org/TR/2001/REC-SVG-20010904/DTD/svg10.dtd">
<svg version="1.0" xmlns="http://www.w3.org/2000/svg"
 width="118.000000pt" height="118.000000pt" viewBox="0 0 118.000000 118.000000"
 preserveAspectRatio="xMidYMid meet">
<metadata>
Created by potrace 1.14, written by Peter Selinger 2001-2017
</metadata>
<g transform="translate(0.000000,118.000000) scale(0.100000,-0.100000)"
fill="#000000" stroke="none">
<path d="M234 1029 c-30 -33 -80 -55 -131 -58 -9 -1 -13 -17 -13 -47 l0 -47
37 5 c21 3 58 15 83 27 l46 21 44 -22 c66 -33 188 -32 247 1 l43 25 41 -24
c28 -15 64 -24 109 -28 58 -4 76 -1 125 22 l58 26 44 -21 c24 -11 61 -23 83
-26 l40 -6 0 46 c0 45 0 45 -40 52 -23 4 -61 22 -85 41 -26 19 -47 29 -50 23
-16 -25 -89 -59 -138 -65 -60 -7 -127 15 -164 55 l-20 21 -24 -21 c-84 -73
-193 -76 -280 -8 l-36 29 -19 -21z"/>
<path d="M240 785 c-27 -33 -88 -61 -137 -64 -9 -1 -13 -17 -13 -47 l0 -47 40
6 c22 3 60 15 86 27 l46 23 41 -24 c61 -35 184 -35 244 0 l43 25 41 -24 c28
-15 64 -24 109 -28 57 -4 75 -1 127 22 l60 27 41 -21 c23 -12 60 -24 82 -27
l40 -6 0 46 c0 45 0 45 -40 52 -23 4 -60 22 -84 40 l-43 32 -34 -28 c-40 -33
-122 -54 -172 -45 -20 4 -59 22 -87 42 -40 28 -52 32 -56 20 -9 -23 -104 -66
-146 -66 -45 0 -99 21 -144 55 -28 21 -34 22 -44 10z"/>
<path d="M234 529 c-25 -27 -61 -46 -107 -54 -36 -7 -37 -8 -37 -52 l0 -45 38
5 c22 2 59 14 84 27 l45 22 44 -23 c63 -34 186 -34 245 -1 l41 24 44 -23 c27
-13 69 -24 110 -27 57 -4 75 -1 124 22 l58 26 41 -19 c23 -11 60 -23 84 -27
l42 -7 0 46 c0 45 0 45 -40 52 -23 4 -60 21 -83 39 l-42 32 -45 -32 c-81 -59
-188 -55 -263 10 l-29 25 -21 -20 c-77 -73 -191 -76 -278 -8 l-36 29 -19 -21z"/>
<path d="M213 265 c-23 -18 -60 -36 -83 -40 -40 -7 -40 -7 -40 -52 l0 -45 38
5 c22 2 59 14 84 27 l45 22 44 -23 c63 -34 186 -34 245 -1 l41 24 44 -23 c35
-19 60 -24 124 -24 68 0 87 4 127 27 38 21 49 24 58 13 14 -16 95 -45 127 -45
21 0 23 5 23 44 0 44 0 44 -40 51 -23 4 -61 22 -85 40 -42 32 -44 33 -60 15
-9 -10 -39 -28 -67 -40 -78 -33 -160 -19 -226 39 l-24 20 -21 -20 c-53 -50
-122 -67 -197 -49 -26 6 -56 19 -67 28 -45 41 -46 41 -90 7z"/>
</g>
</svg>
