<svg id="图层_1" data-name="图层 1" xmlns="http://www.w3.org/2000/svg" xmlns:xlink="http://www.w3.org/1999/xlink" viewBox="0 0 430.32 194.43"><defs><style>.cls-1,.cls-5{fill:none;}.cls-2{opacity:0.7;}.cls-3{clip-path:url(#clip-path);}.cls-4{fill:#c8c0ad;}.cls-5{stroke:#c9bdc1;}.cls-6{opacity:0.39;}.cls-7{clip-path:url(#clip-path-2);}.cls-11,.cls-8{fill:#5b809c;}.cls-9{font-size:12px;fill:#5a5757;font-family:ArialMT, Arial;}.cls-10{fill:#db803c;}.cls-11{opacity:0.4;}</style><clipPath id="clip-path"><rect class="cls-1" x="257.36" y="18.82" width="126.23" height="115.97"/></clipPath><clipPath id="clip-path-2"><rect class="cls-1" x="251.43" y="18.85" width="149.39" height="115.25"/></clipPath></defs><title>FirstAid-img</title><g class="cls-2"><g class="cls-3"><path class="cls-4" d="M297.25,19.3C277,22.19,255.23,64.68,264.38,40c1.81-4.89-7.76,24.12-7,33.59a69.91,69.91,0,0,0,2.75,15.25s9.84,31.76,34.44,42.54c3.65,1.6,24.62,3.16,35.2,3.41,11.58.28,9.42-3.43,26.46-18.37,3.88-3.4,12.73-5.57,16.08-10,5.57-7.43,9.34-29.26,10.38-34.29.85-4.15,3-32.18-5.32-40.49-10.52-10.56-46.7-12-51.62-12.29-3.59-.2-21.69-1-28.52,0"/></g></g><polygon class="cls-5" points="365.65 16.57 365.91 24.41 367.63 25.7 367.63 28.84 377.36 29.7 377.36 31.84 390.25 33.28 395.55 29.85 396.55 30.85 390.68 34.72 377.79 33.71 378.08 43.31 405.72 43.31 405.72 17.82 403.14 16.57 365.65 16.57"/><rect class="cls-5" x="357.89" y="29.42" width="3.01" height="3.72"/><path class="cls-5" d="M338.27,17.82h26.06v7.73A1.89,1.89,0,0,1,365.91,27a21.09,21.09,0,0,0,.86,3.29c.29.57,8.88,1,8.88,1v12h-36.8l-.43-13,18.18-.86v4.73l.72,1.29,5-1.15.29-6.44L338.56,28Z"/><path class="cls-5" d="M339,44.88V55s38.66-.72,42.1-.72,24.63-.14,24.63-.14V44.88Z"/><path class="cls-5" d="M339,56.91s29.64.14,33.36,0c4.84-.19,4.73-.16,33.36-.72v9.75L339,67.22Z"/><path class="cls-5" d="M339,68.51s21-.29,23.05-.57,21.91.43,24.48.29,19.9-.36,19.9-.36v9.38s-43,.57-45,.72-22.48.72-22.48.72Z"/><polygon class="cls-5" points="338.99 80.11 406.43 79.39 406.43 89.84 338.99 90.7 338.99 80.11"/><polygon class="cls-5" points="338.99 92.71 374.79 91.99 374.07 101.7 338.99 102.44 338.99 92.71"/><polygon class="cls-5" points="376.65 91.99 407.29 91.99 407.29 101.7 375.65 101.7 376.65 91.99"/><polygon class="cls-5" points="338.99 104.02 404.82 102.5 407.29 102.44 408.15 112.9 403.35 112.99 338.99 114.19 338.99 104.02"/><path class="cls-5" d="M339,115.62h37.66c3.72,0,31.5-.72,31.5-.72v9.59L339,125.93Z"/><path class="cls-5" d="M339.56,127.65v8.16s34.51.57,38.23.72l31.07,1.14-.72-11.74Z"/><polygon class="cls-5" points="299.04 128.79 337.7 127.65 337.7 136.24 294.17 136.24 294.17 131.23 299.04 128.79"/><path class="cls-5" d="M250.36,85l2.29,51.19h15v-8.59l4.15-.72v1.86l-2.15.57v6.87h23.05V130.8l6.16-4,38.8-.86V115.76l-33.36.86-.29-1.72,33.65-.72V104l-47.25.14-3.15-.86s.15-2.58-2.15-6.09S281.71,92,281.71,92h-3l-7.16-3s-6.44-.29-9.59-.72.29.43-3.87-.72S250.36,85,250.36,85Z"/><path class="cls-5" d="M283.57,92a10.22,10.22,0,0,1,2,2.86c1.15,2.15,1,1.15,2,3.44a9.62,9.62,0,0,1,1,3.15l1.86,1H337.7V92.71c-35.8.15-35.71.09-39.23,0C292.74,92.57,283.57,92,283.57,92Z"/><path class="cls-5" d="M247.92,27.7l8.59-8.59,38.23-.72v9.88H289.3l.29,1.14h12.6V44.88h-3.72l.14-6.73-1.86.14-.57,21.33L268.4,60.78,268,55a2.1,2.1,0,0,1-1.29-1.72c-.29-1.43-.72-11.74-.72-11.74l1.15.14.14-2.15-18.47,1.58Z"/><path class="cls-5" d="M254.36,42.16l9.45-.86a29.7,29.7,0,0,0,0,6.44c.43,2.43.72,5.58,1.29,6.59a14.67,14.67,0,0,0,1.29,1.86v1.43l-6,.57a3.43,3.43,0,0,1-2.72-1c-.86-1.15-1.57-1.43-2-3.72S254.36,42.16,254.36,42.16Z"/><path class="cls-5" d="M248.64,43.31l3.87-1s.57.43.86,3.87-.14,4.15,1,7.59,2.29,4.44,2.29,4.44l2.29,1.71h1.43l6-.57,1,3.15h4.72l17-.79v4.08a2.22,2.22,0,0,0-.71,1.43c-.14,1-.58,4.72-.58,4.72l-2.43,3.67-3.87,1.49-3.44,1.57h-1l-.57,10-3-.86L268.9,87l-5.08-.57-2.43-.29-1-11.6-1-.29L259.52,85s0,.79-2.86,0-6.3-1.79-6.3-1.79Z"/><path class="cls-5" d="M288.16,74.52h-.57l-.57,2h-1v2.86l-1.29.57V77.24l-6,2.72v9.59s7.16,0,12.46.43c7.48.61,6.84,1.1,22.77.72H337.7V79.39l-16,.72-1.15-3.87s-12.46.14-14.89.57a51,51,0,0,1-7.88.14l-.57-1.34-7,.63Z"/><polygon class="cls-5" points="290.66 61.71 295.82 61.71 295.82 74.52 290.66 74.52 289.16 73.27 290.23 70.23 290.02 68.12 290.88 65.5 290.66 61.71"/><polygon class="cls-5" points="297.96 65.5 303.55 65.5 303.55 75.61 298.82 75.61 297.96 65.5"/><path class="cls-5" d="M305.05,69.15H337.7v9.52H322.88l-1.5-4.15s-.22-.43-3.22,0-13.1,1.09-13.1,1.09Z"/><polygon class="cls-5" points="297.96 58.21 297.96 63.57 305.05 63.57 305.05 67.22 337.7 67.22 337.7 56.2 297.96 58.21"/><polygon class="cls-5" points="297.96 46.82 297.96 56.2 337.7 55.05 337.7 44.88 297.96 46.82"/><polygon class="cls-5" points="296.68 18.39 296.68 27.91 307.42 27.91 308.2 30.28 303.55 30.28 305.05 44.88 337.7 43.31 336.84 17.82 296.68 18.39"/><g class="cls-6"><g class="cls-7"><path class="cls-8" d="M251.57,58.22c-2,19.4,16.39,20.81,26.79,30.64,10.79,10.19,11.54,12.38,19.71,20,9.62,9,2.19,18.17,31.83,22.88s38.89,1.79,47.17-4.36c25.8-19.14,23.7-32.36,23.7-32.36.39.84-1.9-21.85-1.65-26.32.46-8-4.41-23.49-14.21-26.76C273.74,4.89,273.26,23.57,270.6,23.46a51.55,51.55,0,0,0-19,34.77"/></g></g><text class="cls-9" transform="translate(276.41 158.09)">one old people activity area</text><text class="cls-9" transform="translate(276.41 179.6)">CCTV coverage area</text><path class="cls-5" d="M65.7,92a10.32,10.32,0,0,1,2,2.88c1.15,2.16,1,1.15,2,3.46a9.7,9.7,0,0,1,1,3.17l1.87,1h47.54v-9.8c-36,.15-35.93.09-39.48,0C74.92,92.58,65.7,92,65.7,92Z"/><polygon class="cls-5" points="148.28 16.11 148.54 24 150.27 25.29 150.27 28.46 160.06 29.33 160.06 31.48 173.03 32.93 178.36 29.47 179.37 30.48 173.46 34.37 160.5 33.36 160.79 43.02 188.59 43.02 188.59 17.37 186 16.11 148.28 16.11"/><rect class="cls-5" x="140.47" y="29.04" width="3.02" height="3.75"/><path class="cls-5" d="M120.73,17.37H147v7.78a1.9,1.9,0,0,1,1.59,1.44,21.16,21.16,0,0,0,.86,3.31c.29.58,8.93,1,8.93,1V43h-37l-.43-13.11,18.3-.87v4.76l.72,1.3,5-1.15.29-6.48L121,27.6Z"/><path class="cls-5" d="M121.45,44.6V54.83s38.9-.72,42.36-.72S188.59,54,188.59,54V44.6Z"/><path class="cls-5" d="M121.45,56.7s29.82.14,33.57,0c4.87-.19,4.76-.16,33.57-.72v9.81l-67.14,1.28Z"/><path class="cls-5" d="M121.45,68.37s21.18-.29,23.19-.58,22,.43,24.64.29,20-.36,20-.36v9.43s-43.22.58-45.24.72-22.62.72-22.62.72Z"/><polygon class="cls-5" points="121.45 80.04 189.31 79.32 189.31 89.84 121.45 90.7 121.45 80.04"/><polygon class="cls-5" points="121.45 92.72 157.47 92 156.75 101.77 121.45 102.52 121.45 92.72"/><polygon class="cls-5" points="159.34 92 190.18 92 190.18 101.77 158.34 101.77 159.34 92"/><polygon class="cls-5" points="121.45 104.1 187.69 102.57 190.18 102.52 191.04 113.03 186.21 113.12 121.45 114.33 121.45 104.1"/><path class="cls-5" d="M121.45,115.77h37.89c3.75,0,31.7-.72,31.7-.72v9.65l-69.59,1.44Z"/><path class="cls-5" d="M122,127.87v8.21s34.72.58,38.47.72L191.76,138,191,126.15Z"/><polygon class="cls-5" points="81.26 129.03 120.16 127.87 120.16 136.52 76.36 136.52 76.36 131.48 81.26 129.03"/><path class="cls-5" d="M32.27,85l2.3,51.51H49.71v-8.65l4.18-.72V129l-2.16.58v6.92h23.2V131l6.19-4,39-.86V115.92l-33.57.86-.29-1.73,33.86-.72V104.1l-47.54.14-3.17-.86s.14-2.59-2.16-6.12S63.82,92,63.82,92h-3l-7.2-3s-6.48-.29-9.65-.72.29.43-3.89-.72S32.27,85,32.27,85Z"/><path class="cls-5" d="M29.82,27.31l8.64-8.64,38.47-.72v9.94H71.46L71.75,29H84.43V44.6H80.68l.14-6.77L79,38l-.58,21.47-28,1.15L50,54.83a2.11,2.11,0,0,1-1.3-1.73C48.41,51.66,48,41.29,48,41.29l1.15.14.14-2.16L30.69,40.85Z"/><path class="cls-5" d="M36.31,41.86,45.82,41a29.85,29.85,0,0,0,0,6.48c.43,2.45.72,5.62,1.3,6.63A14.89,14.89,0,0,0,48.41,56v1.44L42.36,58a3.45,3.45,0,0,1-2.74-1c-.86-1.15-1.59-1.44-2-3.75S36.31,41.86,36.31,41.86Z"/><path class="cls-5" d="M30.54,43l3.89-1s.58.43.86,3.89-.14,4.18,1,7.64S38.61,58,38.61,58l2.3,1.72h1.44l6.05-.58,1,3.17h4.76l17.14-.79v4.11a2.22,2.22,0,0,0-.72,1.44c-.15,1-.58,4.75-.58,4.75l-2.45,3.69L63.68,77,60.22,78.6,49.73,81.45l8.9,7.24-3-.86L50.93,87l-5.12-.57-2.45-.29-1-11.67-1-.29L41.49,85s0,.79-2.88,0-6.34-1.8-6.34-1.8Z"/><path class="cls-5" d="M70.31,74.42h-.58l-.58,2h-1v2.88l-1.3.58V77.16L60.8,79.9v9.65s7.2,0,12.53.43c7.53.61,6.89,1.11,22.91.72h23.91V79.32L104,80l-1.15-3.89s-12.54.14-15,.58a51.2,51.2,0,0,1-7.92.14l-.58-1.35-7.06.63Z"/><polygon class="cls-5" points="72.83 61.53 78.02 61.53 78.02 74.42 72.83 74.42 71.32 73.16 72.4 70.1 72.18 67.97 73.05 65.35 72.83 61.53"/><polygon class="cls-5" points="80.18 65.35 85.8 65.35 85.8 75.52 81.04 75.52 80.18 65.35"/><path class="cls-5" d="M87.31,69h32.85V78.6H105.24l-1.51-4.18s-.22-.43-3.24,0-13.18,1.1-13.18,1.1Z"/><polygon class="cls-5" points="80.18 58 80.18 63.4 87.31 63.4 87.31 67.07 120.16 67.07 120.16 55.98 80.18 58"/><polygon class="cls-5" points="80.18 46.54 80.18 55.98 120.16 54.83 120.16 44.6 80.18 46.54"/><polygon class="cls-5" points="78.88 17.95 78.88 27.53 89.69 27.53 90.48 29.9 85.8 29.9 87.31 44.6 120.16 43.01 119.29 17.37 78.88 17.95"/><rect class="cls-10" x="77.39" y="33.17" width="0.81" height="5.21"/><path class="cls-10" d="M143,29.7c0,.2-.11.36-.23.36h-4c-.13,0-.23-.16-.23-.36s.1-.36.23-.36h4c.13,0,.23.16.23.36"/><polygon class="cls-10" points="135.22 28.64 133.37 29.3 133.37 26.06 135.2 26.7 135.22 28.64"/><rect class="cls-10" x="135.33" y="26.71" width="0.99" height="1.94"/><rect class="cls-10" x="140.38" y="30.21" width="0.81" height="5.21"/><path class="cls-10" d="M117.56,23c0,.2-.1.36-.23.36h-4c-.13,0-.23-.16-.23-.36s.1-.36.23-.36h4c.13,0,.23.16.23.36"/><polygon class="cls-10" points="109.8 21.99 107.94 22.65 107.94 19.41 109.78 20.05 109.8 21.99"/><path class="cls-10" d="M72.27,18.17c0,.2-.11.36-.23.36h-4c-.13,0-.23-.16-.23-.36s.11-.36.23-.36h4c.13,0,.23.16.23.36"/><polygon class="cls-10" points="64.51 17.11 62.65 17.77 62.65 14.53 64.49 15.18 64.51 17.11"/><rect class="cls-10" x="64.62" y="15.18" width="0.99" height="1.94"/><rect class="cls-10" x="69.67" y="18.68" width="0.81" height="5.21"/><path class="cls-10" d="M73.47,28c0,.2-.11.36-.23.36h-4c-.13,0-.23-.16-.23-.36s.1-.36.23-.36h4c.13,0,.23.16.23.36"/><polygon class="cls-10" points="65.71 26.96 63.86 27.62 63.86 24.37 65.69 25.02 65.71 26.96"/><rect class="cls-10" x="65.82" y="25.03" width="0.99" height="1.94"/><rect class="cls-10" x="70.87" y="28.52" width="0.81" height="5.21"/><path class="cls-10" d="M80,32.66c0,.2-.1.36-.23.36h-4c-.13,0-.24-.16-.24-.36s.11-.36.24-.36h4c.13,0,.23.16.23.36"/><polygon class="cls-10" points="72.22 31.61 70.37 32.27 70.37 29.02 72.2 29.67 72.22 31.61"/><rect class="cls-10" x="72.34" y="29.68" width="0.99" height="1.94"/><rect class="cls-10" x="109.91" y="20.06" width="0.98" height="1.94"/><rect class="cls-10" x="114.96" y="23.56" width="0.81" height="5.21"/><path class="cls-10" d="M40.62,41.38c0,.2-.11.36-.23.36h-4c-.13,0-.23-.16-.23-.36s.11-.36.23-.36h4c.13,0,.23.16.23.36"/><polygon class="cls-10" points="32.86 40.33 31.01 40.99 31.01 37.75 32.84 38.39 32.86 40.33"/><rect class="cls-10" x="32.97" y="38.4" width="0.99" height="1.94"/><rect class="cls-10" x="38.02" y="41.9" width="0.81" height="5.21"/><path class="cls-10" d="M40,61.27c0,.2-.11.36-.23.36h-4c-.13,0-.23-.16-.23-.36s.11-.36.23-.36h4c.13,0,.23.16.23.36"/><polygon class="cls-10" points="32.25 60.21 30.39 60.88 30.39 57.63 32.23 58.28 32.25 60.21"/><rect class="cls-10" x="32.36" y="58.28" width="0.99" height="1.94"/><rect class="cls-10" x="37.41" y="61.78" width="0.81" height="5.21"/><path class="cls-10" d="M160.4,31.73c0,.2-.1.36-.23.36h-4c-.13,0-.23-.16-.23-.36s.1-.36.23-.36h4c.13,0,.23.16.23.36"/><polygon class="cls-10" points="152.63 30.68 150.78 31.34 150.78 28.09 152.62 28.74 152.63 30.68"/><rect class="cls-10" x="152.75" y="28.75" width="0.99" height="1.94"/><rect class="cls-10" x="157.8" y="32.24" width="0.81" height="5.21"/><path class="cls-10" d="M164.2,45.54c0,.2-.1.36-.23.36h-4c-.13,0-.23-.16-.23-.36s.1-.36.23-.36h4c.13,0,.23.16.23.36"/><polygon class="cls-10" points="156.44 44.49 154.59 45.15 154.59 41.91 156.42 42.55 156.44 44.49"/><rect class="cls-10" x="156.55" y="42.56" width="0.99" height="1.94"/><rect class="cls-10" x="161.6" y="46.06" width="0.81" height="5.21"/><path class="cls-10" d="M119,33.84a.54.54,0,0,1-.57.5H111a.54.54,0,0,1-.57-.5V31.66a.54.54,0,0,1,.57-.5h7.41a.54.54,0,0,1,.57.5Z"/><polygon class="cls-10" points="109.18 33.79 107.33 34.46 107.33 31.21 109.16 31.86 109.18 33.79"/><rect class="cls-10" x="109.3" y="31.87" width="0.99" height="1.94"/><rect class="cls-10" x="114.34" y="35.36" width="0.81" height="5.21"/><path class="cls-10" d="M140.33,36.6c0,.2-.1.36-.23.36h-4c-.13,0-.23-.16-.23-.36s.11-.36.23-.36h4c.13,0,.23.16.23.36"/><polygon class="cls-10" points="132.57 35.54 130.72 36.21 130.72 32.96 132.55 33.61 132.57 35.54"/><rect class="cls-10" x="132.68" y="33.61" width="0.99" height="1.94"/><rect class="cls-10" x="137.73" y="37.11" width="0.81" height="5.21"/><path class="cls-10" d="M82,47.17c0,.2-.11.36-.23.36h-4c-.13,0-.23-.16-.23-.36s.11-.36.23-.36h4c.13,0,.23.16.23.36"/><polygon class="cls-10" points="74.24 46.12 72.38 46.78 72.38 43.53 74.22 44.18 74.24 46.12"/><rect class="cls-10" x="74.35" y="44.19" width="0.99" height="1.94"/><rect class="cls-10" x="79.4" y="47.68" width="0.81" height="5.21"/><path class="cls-10" d="M73.3,49c0,.2-.1.36-.23.36h-4c-.13,0-.23-.16-.23-.36s.11-.36.23-.36h4c.13,0,.23.16.23.36"/><polygon class="cls-10" points="65.54 47.95 63.68 48.62 63.68 45.37 65.52 46.02 65.54 47.95"/><rect class="cls-10" x="65.65" y="46.03" width="0.99" height="1.94"/><rect class="cls-10" x="70.7" y="49.52" width="0.81" height="5.21"/><path class="cls-10" d="M74.5,59.75c0,.2-.11.36-.23.36h-4c-.13,0-.23-.16-.23-.36s.11-.36.23-.36h4c.13,0,.23.16.23.36"/><polygon class="cls-10" points="66.74 58.7 64.89 59.36 64.89 56.11 66.72 56.76 66.74 58.7"/><rect class="cls-10" x="66.85" y="56.77" width="0.99" height="1.94"/><rect class="cls-10" x="71.9" y="60.26" width="0.81" height="5.21"/><path class="cls-10" d="M118.15,45.9c0,.2-.11.36-.23.36h-4c-.13,0-.23-.16-.23-.36s.1-.36.23-.36h4c.13,0,.23.16.23.36"/><polygon class="cls-10" points="110.39 44.84 108.53 45.51 108.53 42.26 110.36 42.91 110.39 44.84"/><rect class="cls-10" x="110.5" y="42.92" width="0.99" height="1.94"/><rect class="cls-10" x="115.55" y="46.41" width="0.81" height="5.21"/><path class="cls-10" d="M119.69,59.29c0,.2-.11.36-.23.36h-4c-.13,0-.23-.16-.23-.36s.11-.36.23-.36h4c.13,0,.23.16.23.36"/><polygon class="cls-10" points="111.93 58.24 110.08 58.9 110.08 55.65 111.91 56.3 111.93 58.24"/><rect class="cls-10" x="112.04" y="56.31" width="0.99" height="1.94"/><rect class="cls-10" x="117.09" y="59.8" width="0.81" height="5.21"/><path class="cls-10" d="M81.19,66.77c0,.2-.11.36-.23.36H77c-.13,0-.23-.16-.23-.36s.11-.36.23-.36h4c.13,0,.23.16.23.36"/><polygon class="cls-10" points="73.43 65.72 71.57 66.38 71.57 63.13 73.41 63.78 73.43 65.72"/><rect class="cls-10" x="73.54" y="63.79" width="0.99" height="1.94"/><rect class="cls-10" x="78.59" y="67.28" width="0.81" height="5.21"/><path class="cls-10" d="M81.39,70.88c0,.2-.11.36-.23.36h-4c-.13,0-.23-.16-.23-.36s.11-.36.23-.36h4c.13,0,.23.16.23.36"/><polygon class="cls-10" points="73.62 69.83 71.77 70.49 71.77 67.25 73.6 67.89 73.62 69.83"/><rect class="cls-10" x="73.73" y="67.9" width="0.99" height="1.94"/><rect class="cls-10" x="78.78" y="71.4" width="0.81" height="5.21"/><path class="cls-10" d="M119.35,95.89c0,.2-.11.36-.23.36h-4c-.13,0-.23-.16-.23-.36s.11-.36.23-.36h4c.13,0,.23.16.23.36"/><polygon class="cls-10" points="111.59 94.84 109.73 95.5 109.73 92.25 111.57 92.9 111.59 94.84"/><rect class="cls-10" x="111.7" y="92.91" width="0.99" height="1.94"/><rect class="cls-10" x="116.75" y="96.4" width="0.81" height="5.21"/><path class="cls-10" d="M119,70.88c0,.2-.11.36-.23.36h-4c-.13,0-.23-.16-.23-.36s.1-.36.23-.36h4c.13,0,.23.16.23.36"/><polygon class="cls-10" points="111.19 69.83 109.34 70.49 109.34 67.25 111.17 67.89 111.19 69.83"/><rect class="cls-10" x="111.31" y="67.9" width="0.99" height="1.94"/><rect class="cls-10" x="116.35" y="71.4" width="0.81" height="5.21"/><path class="cls-10" d="M120.16,84.73c0,.2-.1.36-.23.36h-4c-.13,0-.23-.16-.23-.36s.11-.36.23-.36h4c.13,0,.23.16.23.36"/><polygon class="cls-10" points="112.4 83.68 110.54 84.34 110.54 81.1 112.38 81.75 112.4 83.68"/><rect class="cls-10" x="112.51" y="81.75" width="0.99" height="1.94"/><rect class="cls-10" x="117.56" y="85.25" width="0.81" height="5.21"/><path class="cls-10" d="M158.39,98.92c0,.2-.11.36-.23.36h-4c-.13,0-.23-.16-.23-.36s.1-.36.23-.36h4c.13,0,.23.16.23.36"/><polygon class="cls-10" points="150.62 97.87 148.77 98.53 148.77 95.28 150.6 95.93 150.62 97.87"/><rect class="cls-10" x="150.74" y="95.94" width="0.99" height="1.94"/><rect class="cls-10" x="155.79" y="99.43" width="0.81" height="5.21"/><path class="cls-10" d="M80.24,79c0,.2-.1.36-.23.36h-4c-.13,0-.23-.16-.23-.36s.11-.36.23-.36h4c.13,0,.23.16.23.36"/><polygon class="cls-10" points="72.48 77.93 70.63 78.59 70.63 75.35 72.46 75.99 72.48 77.93"/><rect class="cls-10" x="72.59" y="76" width="0.99" height="1.94"/><rect class="cls-10" x="77.64" y="79.5" width="0.81" height="5.21"/><path class="cls-10" d="M99.72,82.83c0,.2-.11.36-.23.36h-4c-.13,0-.23-.16-.23-.36s.1-.36.23-.36h4c.13,0,.23.16.23.36"/><polygon class="cls-10" points="91.95 81.77 90.1 82.44 90.1 79.19 91.93 79.84 91.95 81.77"/><rect class="cls-10" x="92.06" y="79.84" width="0.99" height="1.94"/><rect class="cls-10" x="97.11" y="83.34" width="0.81" height="5.21"/><path class="cls-10" d="M157.77,108.83c0,.2-.11.36-.23.36h-4c-.13,0-.23-.16-.23-.36s.11-.36.23-.36h4c.13,0,.23.16.23.36"/><polygon class="cls-10" points="150.01 107.77 148.16 108.44 148.16 105.19 149.99 105.84 150.01 107.77"/><rect class="cls-10" x="150.12" y="105.85" width="0.99" height="1.94"/><rect class="cls-10" x="155.17" y="109.34" width="0.81" height="5.21"/><path class="cls-10" d="M119.08,108.32c0,.2-.1.36-.23.36h-4c-.13,0-.23-.16-.23-.36s.1-.36.23-.36h4c.13,0,.23.16.23.36"/><polygon class="cls-10" points="111.32 107.27 109.46 107.93 109.46 104.69 111.3 105.33 111.32 107.27"/><rect class="cls-10" x="111.43" y="105.34" width="0.99" height="1.94"/><rect class="cls-10" x="116.48" y="108.84" width="0.81" height="5.21"/><path class="cls-10" d="M119.08,121.81c0,.2-.1.36-.23.36h-4c-.13,0-.23-.16-.23-.36s.1-.36.23-.36h4c.13,0,.23.16.23.36"/><polygon class="cls-10" points="111.32 120.76 109.46 121.42 109.46 118.17 111.3 118.82 111.32 120.76"/><rect class="cls-10" x="111.43" y="118.83" width="0.99" height="1.94"/><rect class="cls-10" x="116.48" y="122.32" width="0.81" height="5.21"/><path class="cls-10" d="M119.08,132.77c0,.2-.1.36-.23.36h-4c-.13,0-.23-.16-.23-.36s.1-.36.23-.36h4c.13,0,.23.16.23.36"/><polygon class="cls-10" points="111.32 131.72 109.46 132.38 109.46 129.14 111.3 129.78 111.32 131.72"/><rect class="cls-10" x="111.43" y="129.79" width="0.99" height="1.94"/><rect class="cls-10" x="116.48" y="133.29" width="0.81" height="5.21"/><path class="cls-10" d="M68.59,137.74c0,.2-.1.36-.23.36h-4c-.13,0-.23-.16-.23-.36s.11-.36.23-.36h4c.13,0,.23.16.23.36"/><polygon class="cls-10" points="60.83 136.69 58.97 137.35 58.97 134.1 60.8 134.75 60.83 136.69"/><rect class="cls-10" x="60.94" y="134.76" width="0.99" height="1.94"/><rect class="cls-10" x="65.99" y="138.25" width="0.81" height="5.21"/><path class="cls-10" d="M81.79,121.81c0,.2-.11.36-.23.36h-4c-.13,0-.23-.16-.23-.36s.1-.36.23-.36h4c.13,0,.23.16.23.36"/><polygon class="cls-10" points="74.03 120.76 72.17 121.42 72.17 118.17 74.01 118.82 74.03 120.76"/><rect class="cls-10" x="74.14" y="118.83" width="0.99" height="1.94"/><rect class="cls-10" x="79.19" y="122.32" width="0.81" height="5.21"/><path class="cls-10" d="M64.63,109.53c0,.2-.11.36-.24.36h-4c-.13,0-.23-.16-.23-.36s.1-.36.23-.36h4c.13,0,.24.16.24.36"/><polygon class="cls-10" points="56.87 108.48 55.01 109.14 55.01 105.9 56.85 106.55 56.87 108.48"/><rect class="cls-10" x="56.98" y="106.55" width="0.99" height="1.94"/><rect class="cls-10" x="62.03" y="110.05" width="0.81" height="5.21"/><path class="cls-10" d="M60.67,96.86c0,.2-.11.36-.23.36h-4c-.13,0-.23-.16-.23-.36s.11-.36.23-.36h4c.13,0,.23.16.23.36"/><polygon class="cls-10" points="52.91 95.81 51.05 96.47 51.05 93.22 52.89 93.87 52.91 95.81"/><rect class="cls-10" x="53.02" y="93.88" width="0.98" height="1.94"/><rect class="cls-10" x="58.07" y="97.37" width="0.81" height="5.21"/><path class="cls-10" d="M65.23,65.75c0,.2-.1.36-.23.36h-4c-.13,0-.23-.16-.23-.36s.11-.36.23-.36h4c.13,0,.23.16.23.36"/><polygon class="cls-10" points="57.47 64.7 55.62 65.36 55.62 62.12 57.45 62.76 57.47 64.7"/><rect class="cls-10" x="57.58" y="62.77" width="0.99" height="1.94"/><rect class="cls-10" x="62.63" y="66.27" width="0.81" height="5.21"/><path class="cls-10" d="M54.26,80.56a.54.54,0,0,1-.57.5h-7.4a.54.54,0,0,1-.57-.5V78.38a.54.54,0,0,1,.57-.5h7.4a.54.54,0,0,1,.57.5Z"/><path class="cls-10" d="M52.25,81.57c0,.2-.11.36-.23.36h-4c-.13,0-.23-.16-.23-.36s.11-.36.23-.36h4c.13,0,.23.16.23.36"/><polygon class="cls-10" points="44.49 80.51 42.63 81.18 42.63 77.93 44.47 78.58 44.49 80.51"/><rect class="cls-10" x="44.6" y="78.59" width="0.99" height="1.94"/><rect class="cls-10" x="49.65" y="82.08" width="0.81" height="5.21"/><path class="cls-10" d="M61.28,79.24c0,.2-.1.36-.23.36h-4c-.13,0-.23-.16-.23-.36s.11-.36.23-.36h4c.13,0,.23.16.23.36"/><polygon class="cls-10" points="53.51 78.18 51.66 78.85 51.66 75.6 53.49 76.25 53.51 78.18"/><rect class="cls-10" x="53.62" y="76.26" width="0.99" height="1.94"/><rect class="cls-10" x="58.67" y="79.75" width="0.81" height="5.21"/><path class="cls-10" d="M32.55,80.24c0,.2-.11.36-.23.36h-4c-.13,0-.23-.16-.23-.36s.1-.36.23-.36h4c.13,0,.23.16.23.36"/><polygon class="cls-10" points="24.79 79.18 22.93 79.84 22.93 76.6 24.77 77.25 24.79 79.18"/><rect class="cls-10" x="24.9" y="77.26" width="0.99" height="1.94"/><rect class="cls-10" x="29.95" y="80.75" width="0.81" height="5.21"/><path class="cls-10" d="M35.74,94.64c0,.2-.11.36-.23.36h-4c-.13,0-.23-.16-.23-.36s.11-.36.23-.36h4c.13,0,.23.16.23.36"/><polygon class="cls-10" points="27.97 93.58 26.12 94.25 26.12 91 27.95 91.65 27.97 93.58"/><rect class="cls-10" x="28.09" y="91.65" width="0.99" height="1.94"/><rect class="cls-10" x="33.14" y="95.15" width="0.81" height="5.21"/><path class="cls-10" d="M103.52,17.51c0,.2.1.36.23.36h4c.13,0,.23-.16.23-.36s-.1-.36-.23-.36h-4c-.13,0-.23.16-.23.36"/><polygon class="cls-10" points="111.28 16.46 113.14 17.12 113.14 13.88 111.31 14.52 111.28 16.46"/><rect class="cls-10" x="110.19" y="14.53" width="0.99" height="1.94"/><rect class="cls-10" x="105.31" y="18.02" width="0.81" height="5.21"/><path class="cls-10" d="M97.92,40.41c0,.2.1.36.23.36h4c.13,0,.23-.16.23-.36s-.1-.36-.23-.36h-4c-.13,0-.23.16-.23.36"/><polygon class="cls-10" points="105.68 39.36 107.54 40.02 107.54 36.78 105.7 37.42 105.68 39.36"/><rect class="cls-10" x="104.58" y="37.43" width="0.99" height="1.94"/><rect class="cls-10" x="99.71" y="40.93" width="0.81" height="5.21"/><path class="cls-10" d="M98.53,59.75c0,.2.1.36.23.36h4c.13,0,.23-.16.23-.36s-.1-.36-.23-.36h-4c-.13,0-.23.16-.23.36"/><polygon class="cls-10" points="106.3 58.7 108.15 59.36 108.15 56.11 106.32 56.76 106.3 58.7"/><rect class="cls-10" x="105.2" y="56.77" width="0.99" height="1.94"/><rect class="cls-10" x="100.33" y="60.26" width="0.81" height="5.21"/><path class="cls-10" d="M141.16,44.39a.54.54,0,0,0,.57.5h7.4a.54.54,0,0,0,.57-.5V42.2a.54.54,0,0,0-.57-.5h-7.4a.54.54,0,0,0-.57.5Z"/><polygon class="cls-10" points="150.94 44.34 152.79 45 152.79 41.76 150.96 42.4 150.94 44.34"/><rect class="cls-10" x="149.84" y="42.41" width="0.99" height="1.94"/><rect class="cls-10" x="144.96" y="45.91" width="0.81" height="5.21"/><path class="cls-10" d="M133.18,57.41c0,.2.1.36.23.36h4c.13,0,.23-.16.23-.36s-.1-.36-.23-.36h-4c-.13,0-.23.16-.23.36"/><polygon class="cls-10" points="140.94 56.36 142.8 57.02 142.8 53.77 140.96 54.42 140.94 56.36"/><rect class="cls-10" x="139.84" y="54.43" width="0.99" height="1.94"/><rect class="cls-10" x="134.97" y="57.92" width="0.81" height="5.21"/><path class="cls-10" d="M139.37,63.18c0,.2.1.36.23.36h3.95c.13,0,.23-.16.23-.36s-.1-.36-.23-.36H139.6c-.13,0-.23.16-.23.36"/><polygon class="cls-10" points="147.13 62.12 148.99 62.79 148.99 59.54 147.15 60.19 147.13 62.12"/><rect class="cls-10" x="146.03" y="60.2" width="0.99" height="1.94"/><rect class="cls-10" x="141.16" y="63.69" width="0.81" height="5.21"/><path class="cls-10" d="M154.8,77.86c0,.2.1.36.23.36h4c.13,0,.23-.16.23-.36s-.1-.36-.23-.36h-4c-.13,0-.23.16-.23.36"/><polygon class="cls-10" points="162.56 76.8 164.42 77.47 164.42 74.22 162.58 74.87 162.56 76.8"/><rect class="cls-10" x="161.46" y="74.88" width="0.99" height="1.94"/><rect class="cls-10" x="156.59" y="78.37" width="0.81" height="5.21"/><path class="cls-10" d="M126.91,96c0,.2.1.36.23.36h4c.13,0,.23-.16.23-.36s-.11-.36-.23-.36h-4c-.13,0-.23.16-.23.36"/><polygon class="cls-10" points="134.68 94.93 136.53 95.59 136.53 92.34 134.69 92.99 134.68 94.93"/><rect class="cls-10" x="133.57" y="93" width="0.99" height="1.94"/><rect class="cls-10" x="128.7" y="96.49" width="0.81" height="5.21"/><path class="cls-10" d="M74.28,17.16a.54.54,0,0,1-.57.5h-7.4a.54.54,0,0,1-.57-.5V15a.54.54,0,0,1,.57-.5h7.4a.54.54,0,0,1,.57.5Z"/><path class="cls-10" d="M75.48,27a.54.54,0,0,1-.57.5h-7.4a.54.54,0,0,1-.57-.5V24.82a.54.54,0,0,1,.57-.5h7.4a.54.54,0,0,1,.57.5Z"/><path class="cls-10" d="M82,31.66a.54.54,0,0,1-.57.5H74a.54.54,0,0,1-.57-.5V29.47A.54.54,0,0,1,74,29h7.4a.54.54,0,0,1,.57.5Z"/><path class="cls-10" d="M145,28.69a.54.54,0,0,1-.57.5H137a.54.54,0,0,1-.57-.5V26.51A.54.54,0,0,1,137,26h7.4a.54.54,0,0,1,.57.5Z"/><path class="cls-10" d="M119.57,22a.54.54,0,0,1-.57.5H111.6A.54.54,0,0,1,111,22V19.85a.54.54,0,0,1,.57-.5H119a.54.54,0,0,1,.57.5Z"/><path class="cls-10" d="M42.63,40.38a.54.54,0,0,1-.57.5h-7.4a.54.54,0,0,1-.57-.5V38.19a.54.54,0,0,1,.57-.5h7.4a.54.54,0,0,1,.57.5Z"/><path class="cls-10" d="M42,60.26a.54.54,0,0,1-.57.5H34a.54.54,0,0,1-.57-.5V58.08a.54.54,0,0,1,.57-.5h7.41a.54.54,0,0,1,.57.5Z"/><path class="cls-10" d="M162.41,30.72a.54.54,0,0,1-.57.5h-7.41a.54.54,0,0,1-.57-.5V28.54a.54.54,0,0,1,.57-.5h7.41a.54.54,0,0,1,.57.5Z"/><path class="cls-10" d="M166.21,44.54a.54.54,0,0,1-.57.5h-7.4a.54.54,0,0,1-.57-.5V42.35a.54.54,0,0,1,.57-.5h7.4a.54.54,0,0,1,.57.5Z"/><path class="cls-10" d="M116.95,34.85c0,.2-.1.36-.23.36h-4c-.13,0-.23-.16-.23-.36s.1-.36.23-.36h4c.13,0,.23.16.23.36"/><path class="cls-10" d="M142.34,35.59a.54.54,0,0,1-.57.5h-7.4a.54.54,0,0,1-.57-.5V33.41a.54.54,0,0,1,.57-.5h7.4a.54.54,0,0,1,.57.5Z"/><path class="cls-10" d="M84,46.16a.54.54,0,0,1-.57.5H76a.54.54,0,0,1-.57-.5V44a.54.54,0,0,1,.57-.5h7.4A.54.54,0,0,1,84,44Z"/><path class="cls-10" d="M75.31,48a.54.54,0,0,1-.57.5H67.34a.54.54,0,0,1-.57-.5V45.82a.54.54,0,0,1,.57-.5h7.41a.54.54,0,0,1,.57.5Z"/><path class="cls-10" d="M76.51,58.75a.54.54,0,0,1-.57.5h-7.4a.54.54,0,0,1-.57-.5V56.56a.54.54,0,0,1,.57-.5h7.4a.54.54,0,0,1,.57.5Z"/><path class="cls-10" d="M120.16,44.89a.54.54,0,0,1-.57.5h-7.4a.54.54,0,0,1-.57-.5V42.71a.54.54,0,0,1,.57-.5h7.4a.54.54,0,0,1,.57.5Z"/><path class="cls-10" d="M121.7,58.29a.54.54,0,0,1-.57.5h-7.41a.54.54,0,0,1-.57-.5V56.1a.54.54,0,0,1,.57-.5h7.41a.54.54,0,0,1,.57.5Z"/><path class="cls-10" d="M83.2,65.77a.54.54,0,0,1-.57.5h-7.4a.54.54,0,0,1-.57-.5V63.58a.54.54,0,0,1,.57-.5h7.4a.54.54,0,0,1,.57.5Z"/><path class="cls-10" d="M83.4,69.88a.54.54,0,0,1-.57.5h-7.4a.54.54,0,0,1-.57-.5V67.69a.54.54,0,0,1,.57-.5h7.4a.54.54,0,0,1,.57.5Z"/><path class="cls-10" d="M121.36,94.89a.54.54,0,0,1-.57.5h-7.4a.54.54,0,0,1-.57-.5V92.7a.54.54,0,0,1,.57-.5h7.4a.54.54,0,0,1,.57.5Z"/><path class="cls-10" d="M121,69.88a.54.54,0,0,1-.57.5H113a.54.54,0,0,1-.57-.5V67.69a.54.54,0,0,1,.57-.5h7.41a.54.54,0,0,1,.57.5Z"/><path class="cls-10" d="M122.17,83.73a.54.54,0,0,1-.57.5H114.2a.54.54,0,0,1-.57-.5V81.55a.54.54,0,0,1,.57-.5h7.41a.54.54,0,0,1,.57.5Z"/><path class="cls-10" d="M160.4,97.92a.54.54,0,0,1-.57.5h-7.4a.54.54,0,0,1-.57-.5V95.73a.54.54,0,0,1,.57-.5h7.4a.54.54,0,0,1,.57.5Z"/><path class="cls-10" d="M82.25,78a.54.54,0,0,1-.57.5H74.28a.54.54,0,0,1-.57-.5V75.79a.54.54,0,0,1,.57-.5h7.41a.54.54,0,0,1,.57.5Z"/><path class="cls-10" d="M101.73,81.82a.54.54,0,0,1-.57.5h-7.4a.54.54,0,0,1-.57-.5V79.64a.54.54,0,0,1,.57-.5h7.4a.54.54,0,0,1,.57.5Z"/><path class="cls-10" d="M159.78,107.82a.54.54,0,0,1-.57.5h-7.41a.54.54,0,0,1-.57-.5v-2.19a.54.54,0,0,1,.57-.5h7.41a.54.54,0,0,1,.57.5Z"/><path class="cls-10" d="M121.09,107.32a.54.54,0,0,1-.57.5h-7.41a.54.54,0,0,1-.57-.5v-2.19a.54.54,0,0,1,.57-.5h7.41a.54.54,0,0,1,.57.5Z"/><path class="cls-10" d="M121.09,120.81a.54.54,0,0,1-.57.5h-7.41a.54.54,0,0,1-.57-.5v-2.19a.54.54,0,0,1,.57-.5h7.41a.54.54,0,0,1,.57.5Z"/><path class="cls-10" d="M121.09,131.77a.54.54,0,0,1-.57.5h-7.41a.54.54,0,0,1-.57-.5v-2.19a.54.54,0,0,1,.57-.5h7.41a.54.54,0,0,1,.57.5Z"/><path class="cls-10" d="M70.6,136.73a.54.54,0,0,1-.57.5H62.63a.54.54,0,0,1-.57-.5v-2.19a.54.54,0,0,1,.57-.5H70a.54.54,0,0,1,.57.5Z"/><path class="cls-10" d="M83.8,120.81a.54.54,0,0,1-.57.5h-7.4a.54.54,0,0,1-.57-.5v-2.19a.54.54,0,0,1,.57-.5h7.4a.54.54,0,0,1,.57.5Z"/><path class="cls-10" d="M66.64,108.53a.54.54,0,0,1-.57.5h-7.4a.54.54,0,0,1-.57-.5v-2.19a.54.54,0,0,1,.57-.5h7.4a.54.54,0,0,1,.57.5Z"/><path class="cls-10" d="M62.68,95.86a.54.54,0,0,1-.57.5H54.71a.54.54,0,0,1-.57-.5V93.67a.54.54,0,0,1,.57-.5h7.41a.54.54,0,0,1,.57.5Z"/><path class="cls-10" d="M67.24,64.75a.54.54,0,0,1-.57.5h-7.4a.54.54,0,0,1-.57-.5V62.56a.54.54,0,0,1,.57-.5h7.4a.54.54,0,0,1,.57.5Z"/><path class="cls-10" d="M63.28,78.23a.54.54,0,0,1-.57.5h-7.4a.54.54,0,0,1-.57-.5V76a.54.54,0,0,1,.57-.5h7.4a.54.54,0,0,1,.57.5Z"/><path class="cls-10" d="M34.56,79.23a.54.54,0,0,1-.57.5h-7.4a.54.54,0,0,1-.57-.5V77a.54.54,0,0,1,.57-.5H34a.54.54,0,0,1,.57.5Z"/><path class="cls-10" d="M37.75,93.63a.54.54,0,0,1-.57.5h-7.4a.54.54,0,0,1-.57-.5V91.45a.54.54,0,0,1,.57-.5h7.4a.54.54,0,0,1,.57.5Z"/><path class="cls-10" d="M101.51,16.51a.54.54,0,0,0,.56.5h7.41a.54.54,0,0,0,.57-.5V14.32a.54.54,0,0,0-.57-.5h-7.41a.54.54,0,0,0-.56.5Z"/><path class="cls-10" d="M95.91,39.41a.54.54,0,0,0,.57.5h7.4a.54.54,0,0,0,.57-.5V37.23a.54.54,0,0,0-.57-.5h-7.4a.54.54,0,0,0-.57.5Z"/><path class="cls-10" d="M96.52,58.74a.54.54,0,0,0,.56.5h7.4a.54.54,0,0,0,.57-.5V56.56a.54.54,0,0,0-.57-.5h-7.4a.54.54,0,0,0-.56.5Z"/><path class="cls-10" d="M143.17,45.39c0,.2.1.36.23.36h4c.13,0,.23-.16.23-.36s-.1-.36-.23-.36h-4c-.13,0-.23.16-.23.36"/><path class="cls-10" d="M131.17,56.41a.54.54,0,0,0,.57.5h7.4a.54.54,0,0,0,.57-.5V54.22a.54.54,0,0,0-.57-.5h-7.4a.54.54,0,0,0-.57.5Z"/><path class="cls-10" d="M137.36,62.17a.54.54,0,0,0,.57.5h7.4a.54.54,0,0,0,.57-.5V60a.54.54,0,0,0-.57-.5h-7.4a.54.54,0,0,0-.57.5Z"/><path class="cls-10" d="M152.79,76.85a.54.54,0,0,0,.56.5h7.41a.54.54,0,0,0,.57-.5V74.67a.54.54,0,0,0-.57-.5h-7.41a.54.54,0,0,0-.56.5Z"/><path class="cls-10" d="M124.9,95a.54.54,0,0,0,.57.5h7.4a.54.54,0,0,0,.57-.5V92.79a.54.54,0,0,0-.57-.5h-7.4a.54.54,0,0,0-.57.5Z"/><path class="cls-10" d="M132.75,119.43a.54.54,0,0,0,.56.5h7.41a.54.54,0,0,0,.57-.5v-2.19a.54.54,0,0,0-.57-.5h-7.41a.54.54,0,0,0-.56.5Z"/><path class="cls-10" d="M134.76,120.43c0,.2.1.36.23.36h4c.13,0,.23-.16.23-.36s-.1-.36-.23-.36h-4c-.13,0-.23.16-.23.36"/><polygon class="cls-10" points="142.52 119.38 144.38 120.04 144.38 116.79 142.54 117.44 142.52 119.38"/><rect class="cls-10" x="141.42" y="117.45" width="0.99" height="1.94"/><rect class="cls-10" x="136.55" y="120.94" width="0.81" height="5.21"/><path class="cls-10" d="M102.12,140.68a.54.54,0,0,0,.57.5h7.4a.54.54,0,0,0,.57-.5v-2.19a.54.54,0,0,0-.57-.5h-7.4a.54.54,0,0,0-.57.5Z"/><path class="cls-10" d="M104.13,141.68c0,.2.1.36.23.36h4c.13,0,.23-.16.23-.36s-.1-.36-.23-.36h-4c-.13,0-.23.16-.23.36"/><polygon class="cls-10" points="111.9 140.63 113.75 141.29 113.75 138.05 111.92 138.69 111.9 140.63"/><rect class="cls-10" x="110.8" y="138.7" width="0.99" height="1.94"/><rect class="cls-10" x="105.93" y="142.2" width="0.81" height="5.21"/><text class="cls-9" transform="translate(30.39 155.55)">Shanghai Jingan area </text><text class="cls-9" transform="translate(30.39 169.95)">surveillance cameras </text><text class="cls-9" transform="translate(30.39 184.35)">distribution</text><rect class="cls-11" x="255.48" y="147.19" width="13.41" height="13.41"/><rect class="cls-4" x="255.48" y="168.37" width="13.41" height="13.41"/></svg>