<svg id="图层_1" data-name="图层 1" xmlns="http://www.w3.org/2000/svg" viewBox="0 0 792 334.98"><defs><style>.cls-1{fill:#c5c6c6;}.cls-2{fill:#d57180;}.cls-3{fill:#b98db3;}.cls-4{fill:#7a6a56;}.cls-5{fill:#80739a;}.cls-6{fill:#80b9c6;}.cls-7{font-size:10px;}.cls-10,.cls-11,.cls-7{fill:#5a5757;}.cls-10,.cls-7{font-family:ArialMT, Arial;}.cls-8{letter-spacing:0em;}.cls-9{fill:none;stroke:#5a5757;stroke-miterlimit:10;}.cls-10,.cls-11{font-size:12px;}.cls-11{font-family:Arial-BoldMT, Arial;font-weight:700;}.cls-12{letter-spacing:-0.05em;}.cls-13{letter-spacing:-0.07em;}.cls-14{fill:#604d3f;}.cls-15{fill:#806136;}</style></defs><title>FirstAid-img</title><rect class="cls-1" x="-6.13" y="-12.11" width="804.73" height="350.97"/><path class="cls-2" d="M220.95,261.44,181.2,247a41,41,0,0,1,18.6-22.17Z"/><path class="cls-3" d="M220.95,261.44l-42.14,3.69A40,40,0,0,1,181.2,247Z"/><path class="cls-4" d="M220.95,261.44l-41.38,8.8a38.91,38.91,0,0,1-.76-5.11Z"/><path class="cls-5" d="M220.95,261.44l-26,33.33a41,41,0,0,1-15.33-24.54Z"/><path class="cls-6" d="M220.95,261.44l-21.15-36.63a42.3,42.3,0,0,1,42.3,73.27c-15.38,8.88-33.2,7.63-47.19-3.3Z"/><text class="cls-7" transform="translate(442.97 318.65)">5.2%Living in older apartments, the community and nursing homes</text><text class="cls-7" transform="translate(567.87 213.94)">51.2%Living alone</text><text class="cls-7" transform="translate(372.36 224.82)">43.6%Living with fa<tspan class="cls-8" x="86.16" y="0">m</tspan><tspan x="94.5" y="0">ilies</tspan></text><polyline class="cls-9" points="551.86 226.69 558.79 211.9 564.79 211.9"/><polyline class="cls-9" points="511.5 235.07 500.5 222.57 488.16 222.57"/><line class="cls-9" x1="529.58" y1="285.46" x2="524.97" y2="306.69"/><path class="cls-2" d="M532.09,115.68,516.61,154a41.31,41.31,0,0,1-22.82-53.77A39.54,39.54,0,0,1,505.54,84Z"/><path class="cls-3" d="M532.09,115.68l36.8,18.75A41.3,41.3,0,0,1,516.61,154Z"/><path class="cls-4" d="M532.09,115.68l40.9,5.75a39.32,39.32,0,0,1-4.1,13Z"/><path class="cls-5" d="M532.09,115.68l38.81-14.12A39.93,39.93,0,0,1,573,121.43Z"/><path class="cls-6" d="M532.09,115.68,505.54,84a41.3,41.3,0,0,1,58.19,5.09,38,38,0,0,1,7.17,12.42Z"/><text class="cls-10" transform="translate(563.13 63.15)">30.8%Seldom going to hospital</text><text class="cls-10" transform="translate(601.53 113.93)">7.7%Almost not going to hospital</text><text class="cls-10" transform="translate(601.53 141.45)">5.3%Several times a week</text><text class="cls-10" transform="translate(580.29 176.79)">23.5%Once a week</text><text class="cls-7" transform="translate(383.39 81.93)">32.7%Once a month</text><polyline class="cls-9" points="547.42 76.77 553.57 59.42 558.92 59.42"/><line class="cls-9" x1="573.58" y1="110.09" x2="597.58" y2="110.09"/><polyline class="cls-9" points="570.58 131.92 588.08 137.69 597.58 137.69"/><polyline class="cls-9" points="546.17 154.1 556.92 173.49 571.67 173.49"/><polyline class="cls-9" points="499.97 89.16 487.24 79.55 481.38 79.55"/><text class="cls-11" transform="translate(374.23 34.64)">How often do they go to hospital?</text><text class="cls-7" transform="translate(39.94 252.7)">7%<tspan class="cls-12" x="14.45" y="0">V</tspan><tspan x="20.58" y="0">ery good health</tspan></text><text class="cls-7" transform="translate(56.94 278.35)">2%Health</text><text class="cls-7" transform="translate(294.33 264.45)">69%Sub-health</text><text class="cls-7" transform="translate(36.27 303.02)"><tspan class="cls-13">1</tspan><tspan x="4.82" y="0">1%Poor health</tspan></text><text class="cls-7" transform="translate(92.88 222.7)"><tspan class="cls-13">1</tspan><tspan x="4.82" y="0">1%Sickness</tspan></text><polyline class="cls-9" points="188.8 233.92 171.89 219.92 154.94 219.92"/><line class="cls-9" x1="135.13" y1="250.42" x2="178.55" y2="254.42"/><polyline class="cls-9" points="178.55 268.34 160.77 273.21 100.72 273.21"/><polyline class="cls-9" points="184.66 283.82 149.44 301.92 112.77 301.92"/><text class="cls-11" transform="translate(26.55 197.56)">Health condition</text><line class="cls-9" x1="262.77" y1="260.42" x2="288.77" y2="260.42"/><text class="cls-11" transform="translate(26.55 34.64)">How often does their family visit them?</text><path class="cls-2" d="M539.91,257.09l-12.67,29.85a32.43,32.43,0,0,1-17.18-42.52,31.8,31.8,0,0,1,29.85-19.76Z"/><path class="cls-14" d="M539.91,257.09l-2.26,32.35a31.28,31.28,0,0,1-10.41-2.5Z"/><path class="cls-6" d="M539.91,257.09V224.66a32.43,32.43,0,1,1,0,64.86c-.86,0-1.4,0-2.26-.08Z"/><path class="cls-2" d="M180.52,120.92,153,93.38a38.77,38.77,0,0,1,47-6.19Z"/><path class="cls-6" d="M180.52,120.92l4.74,38.65a38.94,38.94,0,0,1-43.4-33.9A37.58,37.58,0,0,1,153,93.38Z"/><path class="cls-5" d="M180.52,120.92l38.94.68a38.64,38.64,0,0,1-34.19,38Z"/><path class="cls-3" d="M180.52,120.92l29.83-25a37.4,37.4,0,0,1,9.1,25.71Z"/><path class="cls-14" d="M180.52,120.92,206.57,92a37.07,37.07,0,0,1,3.78,3.91Z"/><path class="cls-15" d="M180.52,120.92,200,87.2A35.12,35.12,0,0,1,206.57,92Z"/><text class="cls-7" transform="translate(260.83 105.43)"><tspan class="cls-13">1</tspan><tspan x="4.82" y="0">1.4%Once every few </tspan></text><text class="cls-7" transform="translate(260.83 117.43)">months</text><text class="cls-7" transform="translate(26.55 63.63)">20.6%Several times a week</text><text class="cls-7" transform="translate(37.8 161.82)">39.5%Once a week</text><text class="cls-7" transform="translate(246.16 157.14)">22.8%Once a month</text><text class="cls-7" transform="translate(257.39 82.42)">2.2%Once a year</text><text class="cls-7" transform="translate(239.5 68.86)">3.5%Almost not visiting</text><polyline class="cls-9" points="217.05 108.32 232.8 101.23 256.41 101.23"/><polyline class="cls-9" points="152.8 149.29 135.3 160.29 124.55 160.29"/><polyline class="cls-9" points="210.02 144.63 223.17 153.96 243.09 153.96"/><polyline class="cls-9" points="210.02 94.46 224.52 80.71 252.27 80.71"/><polyline class="cls-9" points="202.74 89.46 218.99 67.22 234.99 67.22"/><polyline class="cls-9" points="168.33 82.64 163.33 60.28 153.33 60.28"/><text class="cls-11" transform="translate(374.23 197.56)">Living conditions</text></svg>