<svg id="图层_1" data-name="图层 1" xmlns="http://www.w3.org/2000/svg" viewBox="0 0 792 256.79"><defs><style>.cls-1{fill:#ececec;}.cls-2{fill:#fff;}.cls-2,.cls-3{stroke:#5a5757;}.cls-2,.cls-3,.cls-8{stroke-miterlimit:10;stroke-width:0.5px;}.cls-3,.cls-8{fill:none;}.cls-4,.cls-5,.cls-6{font-size:9.24px;}.cls-17,.cls-4{fill:#b50f24;}.cls-10,.cls-11,.cls-13,.cls-15,.cls-16,.cls-17,.cls-19,.cls-4,.cls-5,.cls-6{font-family:ArialMT, Arial;}.cls-5{fill:#e58906;}.cls-16,.cls-6{fill:#2f99d2;}.cls-10,.cls-11,.cls-13,.cls-15,.cls-7{fill:#5a5757;}.cls-8{stroke:#d70114;}.cls-9{fill:#d70114;}.cls-10{font-size:6.48px;}.cls-11{font-size:5.13px;}.cls-12{letter-spacing:-0.04em;}.cls-13{font-size:4.89px;}.cls-14{letter-spacing:-0.05em;}.cls-15,.cls-16,.cls-17,.cls-19{font-size:10.21px;}.cls-18{letter-spacing:-0.04em;}.cls-19{fill:#0592db;}</style></defs><title>FirstAid-img</title><rect class="cls-1" x="454.27" y="181.87" width="50.68" height="21.57"/><rect class="cls-1" x="455.49" y="15.6" width="48.4" height="21.61"/><rect class="cls-1" x="595.62" y="126.7" width="41.09" height="41.09" rx="13.51" ry="13.51"/><rect class="cls-1" x="653.6" y="126.7" width="41.09" height="41.09" rx="13.51" ry="13.51"/><rect class="cls-1" x="712.11" y="126.7" width="41.09" height="41.09" rx="13.51" ry="13.51"/><rect class="cls-1" x="372.48" y="72.59" width="49.88" height="86.28" rx="14.55" ry="14.55"/><rect class="cls-2" x="660.7" y="133.32" width="27.57" height="21.5"/><polyline class="cls-3" points="452.99 18.53 455.21 21.1 452.99 23.15"/><polyline class="cls-3" points="538.15 103.88 540.37 106.44 538.15 108.5"/><polyline class="cls-3" points="470.67 121.3 468.1 123.52 466.05 121.3"/><polyline class="cls-3" points="506.56 34.95 504.34 32.38 506.56 30.33"/><polyline class="cls-3" points="483.31 233.36 480.74 235.59 478.69 233.36"/><polyline class="cls-3" points="451.68 195.37 453.9 197.94 451.68 199.99"/><text class="cls-4" transform="translate(340.91 191.67)">1</text><text class="cls-4" transform="translate(395.22 185.13)">2</text><text class="cls-5" transform="translate(483.46 212.3)">1</text><text class="cls-5" transform="translate(484.49 234.53)">2</text><polyline class="cls-3" points="466.47 60.47 469.04 58.24 471.09 60.47"/><text class="cls-4" transform="translate(666.9 191.67)">3</text><text class="cls-4" transform="translate(475.23 123.49)">4</text><text class="cls-4" transform="translate(410.39 138.28)">5</text><text class="cls-4" transform="translate(541.85 140.24)">6</text><text class="cls-4" transform="translate(666.69 115.49)">7</text><text class="cls-6" transform="translate(341.34 34.33)">1</text><text class="cls-6" transform="translate(569.68 33.39)">2</text><text class="cls-6" transform="translate(541.92 91.04)">3</text><text class="cls-6" transform="translate(475.23 71.01)">4</text><text class="cls-6" transform="translate(472.4 103.43)">5</text><text class="cls-6" transform="translate(551.97 44.63)">6</text><text class="cls-6" transform="translate(395.17 45.14)">7</text><rect class="cls-3" x="542.24" y="113.93" width="39.8" height="7.82"/><rect class="cls-3" x="562.49" y="98.71" width="4.73" height="14.15"/><rect class="cls-3" x="568.61" y="98.71" width="13.43" height="8.86"/><rect class="cls-3" x="569.9" y="99.84" width="11.08" height="6.6"/><rect class="cls-3" x="573.6" y="108.82" width="3.68" height="0.84"/><line class="cls-3" x1="574.75" y1="108.82" x2="574.75" y2="107.57"/><line class="cls-3" x1="576.04" y1="107.57" x2="576.04" y2="108.82"/><rect class="cls-3" x="568.61" y="109.97" width="13.43" height="2.89"/><rect class="cls-3" x="552.32" y="98.71" width="4.73" height="14.15"/><rect class="cls-3" x="542.24" y="98.71" width="4.73" height="14.15"/><path class="cls-7" d="M547.47,105.64a.15.15,0,1,1-.15-.15.15.15,0,0,1,.15.15"/><path class="cls-7" d="M547.89,105.64a.15.15,0,1,1-.15-.15.15.15,0,0,1,.15.15"/><path class="cls-7" d="M548.31,105.64a.15.15,0,1,1-.15-.15.15.15,0,0,1,.15.15"/><path class="cls-7" d="M548.72,105.64a.15.15,0,1,1-.15-.15.15.15,0,0,1,.15.15"/><path class="cls-7" d="M549.14,105.64a.15.15,0,1,1-.15-.15.15.15,0,0,1,.15.15"/><path class="cls-7" d="M549.56,105.64a.15.15,0,1,1-.15-.15.15.15,0,0,1,.15.15"/><path class="cls-7" d="M550,105.64a.15.15,0,1,1-.15-.15.15.15,0,0,1,.15.15"/><path class="cls-7" d="M550.39,105.64a.15.15,0,1,1-.15-.15.15.15,0,0,1,.15.15"/><path class="cls-7" d="M550.8,105.64a.15.15,0,1,1-.15-.15.15.15,0,0,1,.15.15"/><path class="cls-7" d="M551.22,105.64a.15.15,0,1,1-.15-.15.15.15,0,0,1,.15.15"/><path class="cls-7" d="M551.64,105.64a.15.15,0,1,1-.15-.15.15.15,0,0,1,.15.15"/><path class="cls-7" d="M552.05,105.64a.15.15,0,1,1-.15-.15.15.15,0,0,1,.15.15"/><path class="cls-7" d="M557.6,105.64a.15.15,0,1,1-.15-.15.15.15,0,0,1,.15.15"/><path class="cls-7" d="M558,105.64a.15.15,0,1,1-.15-.15.15.15,0,0,1,.15.15"/><path class="cls-7" d="M558.43,105.64a.15.15,0,1,1-.15-.15.15.15,0,0,1,.15.15"/><path class="cls-7" d="M558.85,105.64a.15.15,0,1,1-.15-.15.15.15,0,0,1,.15.15"/><path class="cls-7" d="M559.26,105.64a.15.15,0,1,1-.15-.15.15.15,0,0,1,.15.15"/><path class="cls-7" d="M559.68,105.64a.15.15,0,1,1-.15-.15.15.15,0,0,1,.15.15"/><path class="cls-7" d="M560.09,105.64a.15.15,0,1,1-.15-.15.15.15,0,0,1,.15.15"/><path class="cls-7" d="M560.51,105.64a.15.15,0,1,1-.15-.15.15.15,0,0,1,.15.15"/><path class="cls-7" d="M560.93,105.64a.15.15,0,1,1-.15-.15.15.15,0,0,1,.15.15"/><path class="cls-7" d="M561.34,105.64a.15.15,0,1,1-.15-.15.15.15,0,0,1,.15.15"/><path class="cls-7" d="M561.76,105.64a.15.15,0,1,1-.15-.15.15.15,0,0,1,.15.15"/><path class="cls-7" d="M562.18,105.64a.15.15,0,1,1-.15-.15.15.15,0,0,1,.15.15"/><rect class="cls-3" x="543.79" y="115.1" width="3.01" height="5.77"/><rect class="cls-3" x="549.49" y="115.1" width="3.01" height="5.77"/><rect class="cls-3" x="555.18" y="115.1" width="3.01" height="5.77"/><rect class="cls-3" x="560.88" y="115.1" width="3.01" height="5.77"/><rect class="cls-3" x="566.58" y="115.1" width="3.01" height="5.77"/><rect class="cls-3" x="572.27" y="115.1" width="3.01" height="5.77"/><rect class="cls-3" x="577.97" y="115.1" width="3.01" height="5.77"/><rect class="cls-2" x="603.29" y="143.64" width="21.29" height="11.54"/><polygon class="cls-2" points="602 143.64 613.93 133.32 626.14 143.64 602 143.64"/><rect class="cls-3" x="605.79" y="146.23" width="5.76" height="4.9"/><polyline class="cls-3" points="614.07 155.18 614.07 146.23 620.24 146.23 620.24 155.18"/><circle class="cls-2" cx="632.11" cy="141.44" r="1.33"/><path class="cls-2" d="M630.27,145.06H630v4.09a.64.64,0,0,1-1.27,0v-4.52a1.34,1.34,0,0,1,1.51-1.39H634a1.32,1.32,0,0,1,1.49,1.39v4.52a.64.64,0,0,1-1.27,0v-4.09H634v9a.87.87,0,0,1-1.73,0v-4.89H632v4.92c0,1-1.73,1-1.73,0v-9Z"/><line class="cls-3" x1="660.7" y1="141.03" x2="688.28" y2="141.03"/><rect class="cls-3" x="662.49" y="143.06" width="3.56" height="2.81"/><rect class="cls-3" x="667.83" y="143.06" width="3.56" height="2.81"/><rect class="cls-3" x="673.09" y="143.06" width="3.56" height="2.81"/><rect class="cls-3" x="678.18" y="143.06" width="3.56" height="2.81"/><rect class="cls-3" x="682.93" y="143.06" width="3.56" height="2.81"/><rect class="cls-3" x="662.49" y="147.47" width="3.56" height="2.81"/><rect class="cls-3" x="667.83" y="147.47" width="3.56" height="2.81"/><rect class="cls-3" x="673.09" y="147.47" width="3.56" height="2.81"/><rect class="cls-3" x="678.18" y="147.47" width="3.56" height="2.81"/><rect class="cls-3" x="682.93" y="147.47" width="3.56" height="2.81"/><polygon class="cls-8" points="662.97 138.84 662.97 137.46 664.48 137.46 664.48 138.84 664.87 138.84 664.87 135.92 664.48 135.92 664.48 137.12 662.97 137.12 662.97 135.92 662.58 135.92 662.58 138.84 662.97 138.84"/><path class="cls-8" d="M665.87,137.18a.59.59,0,0,1,.89,0,.87.87,0,0,1,.18.59.92.92,0,0,1-.18.62.59.59,0,0,1-.89,0,1.13,1.13,0,0,1,0-1.21Zm-.27,1.42a1,1,0,0,0,.72.28,1,1,0,0,0,.51-.13.87.87,0,0,0,.36-.36,1.4,1.4,0,0,0,.12-.64A1.08,1.08,0,0,0,667,137a.94.94,0,0,0-.71-.29,1,1,0,0,0-.66.23,1.09,1.09,0,0,0-.33.87A1.13,1.13,0,0,0,665.6,138.6Z"/><path class="cls-8" d="M667.86,138.71a1,1,0,0,0,.63.17,1.1,1.1,0,0,0,.45-.09.67.67,0,0,0,.3-.24.6.6,0,0,0,.1-.34.53.53,0,0,0-.09-.31.54.54,0,0,0-.24-.19,4.44,4.44,0,0,0-.53-.17l-.32-.09a.31.31,0,0,1-.14-.1.19.19,0,0,1,0-.12.24.24,0,0,1,.11-.19.58.58,0,0,1,.35-.08.5.5,0,0,1,.32.09.38.38,0,0,1,.14.25l.35,0a.75.75,0,0,0-.12-.33.59.59,0,0,0-.28-.19,1.22,1.22,0,0,0-.44-.07,1.07,1.07,0,0,0-.31,0,.74.74,0,0,0-.23.1.59.59,0,0,0-.18.2.54.54,0,0,0-.06.26.52.52,0,0,0,.31.48,3.39,3.39,0,0,0,.55.17,1.58,1.58,0,0,1,.37.12.22.22,0,0,1,.11.19.3.3,0,0,1-.12.24.56.56,0,0,1-.37.1.57.57,0,0,1-.38-.11.49.49,0,0,1-.17-.33l-.35.06A.79.79,0,0,0,667.86,138.71Z"/><path class="cls-8" d="M670.26,137.17a.52.52,0,0,1,.4-.21.5.5,0,0,1,.4.2.94.94,0,0,1,.17.6,1,1,0,0,1-.17.63.52.52,0,0,1-.41.2.5.5,0,0,1-.4-.19.91.91,0,0,1-.16-.6A1,1,0,0,1,670.26,137.17Zm-.14,2.47v-1a.74.74,0,0,0,.23.19.67.67,0,0,0,.32.08.87.87,0,0,0,.47-.14.88.88,0,0,0,.34-.4,1.41,1.41,0,0,0,.12-.58,1.43,1.43,0,0,0-.11-.56.86.86,0,0,0-.31-.39.84.84,0,0,0-.48-.14.72.72,0,0,0-.35.08.81.81,0,0,0-.26.24v-.27h-.33v2.92Z"/><path class="cls-8" d="M672.39,136.73H672v2.11h.36Zm0-.8H672v.41h.36Z"/><path class="cls-8" d="M673.56,138.53a.24.24,0,0,1-.12,0,.15.15,0,0,1-.06-.07.61.61,0,0,1,0-.2V137h.36v-.28h-.36V136l-.36.22v.52h-.26V137H673v1.22a1.28,1.28,0,0,0,0,.42.35.35,0,0,0,.15.16.62.62,0,0,0,.3.06l.27,0-.05-.32Z"/><path class="cls-8" d="M675.41,137.91a.86.86,0,0,1-.06.36.56.56,0,0,1-.24.25.74.74,0,0,1-.37.09.46.46,0,0,1-.32-.1.3.3,0,0,1-.11-.24.31.31,0,0,1,0-.17.31.31,0,0,1,.14-.12,1.34,1.34,0,0,1,.31-.07,2.63,2.63,0,0,0,.58-.14Zm.1.93h.37a.8.8,0,0,1-.09-.25,5.05,5.05,0,0,1,0-.63v-.48a2,2,0,0,0,0-.33.56.56,0,0,0-.11-.24.58.58,0,0,0-.25-.16,1.27,1.27,0,0,0-.44-.06,1.43,1.43,0,0,0-.48.07.69.69,0,0,0-.32.21.87.87,0,0,0-.16.36l.35,0a.54.54,0,0,1,.18-.31.63.63,0,0,1,.37-.09.6.6,0,0,1,.41.12.4.4,0,0,1,.1.31s0,0,0,.09a3.35,3.35,0,0,1-.64.12l-.32.05a.87.87,0,0,0-.26.12.58.58,0,0,0-.18.21.57.57,0,0,0-.07.28.56.56,0,0,0,.19.43.77.77,0,0,0,.53.17,1.1,1.1,0,0,0,.39-.07,1.32,1.32,0,0,0,.38-.24A.78.78,0,0,0,675.51,138.84Z"/><rect class="cls-8" x="676.32" y="135.92" width="0.36" height="2.91"/><rect class="cls-9" x="682.6" y="135.34" width="0.65" height="4.16"/><rect class="cls-8" x="682.6" y="135.34" width="0.65" height="4.16"/><rect class="cls-9" x="680.85" y="136.89" width="4.16" height="0.86"/><rect class="cls-8" x="680.85" y="137.09" width="4.16" height="0.65"/><polyline class="cls-2" points="340.24 117.95 341.64 117.14 340.24 115.32 347.26 111.15 351.8 114.33 344.36 119.76 342.43 118.25 341.03 118.9"/><polyline class="cls-3" points="332.27 123.28 330.75 124.05 328.71 122.91 320.09 127.67 323.39 132.42 332.7 127.67 331.23 125.15 332.7 124.25"/><line class="cls-3" x1="330.75" y1="124.05" x2="331.22" y2="125.15"/><line class="cls-3" x1="341.64" y1="117.14" x2="342.43" y2="118.25"/><line class="cls-3" x1="321.74" y1="130.04" x2="330.99" y2="124.8"/><line class="cls-3" x1="342.04" y1="117.69" x2="349.12" y2="112.46"/><line class="cls-3" x1="343.64" y1="113.3" x2="348.18" y2="116.85"/><line class="cls-3" x1="324.38" y1="125.15" x2="328.05" y2="130.04"/><path class="cls-3" d="M460.49,83.59a1.07,1.07,0,0,0,1.13,1h14.81a1.07,1.07,0,0,0,1.13-1V79.22a1.07,1.07,0,0,0-1.13-1H461.63a1.07,1.07,0,0,0-1.13,1Z"/><path class="cls-3" d="M464.51,85.6c0,.4.21.73.47.73h7.9c.26,0,.47-.32.47-.73s-.21-.73-.47-.73H465C464.72,84.87,464.51,85.2,464.51,85.6Z"/><polygon class="cls-3" points="480.05 83.5 483.76 84.82 483.76 78.33 480.08 79.62 480.05 83.5"/><rect class="cls-3" x="477.85" y="79.64" width="1.97" height="3.87"/><rect class="cls-3" x="468.1" y="86.63" width="1.62" height="10.42"/><circle class="cls-2" cx="732.98" cy="132.97" r="2.32"/><path class="cls-2" d="M729.78,139.26h-.43l0,7.1a1.11,1.11,0,0,1-2.21,0v-7.85a2.33,2.33,0,0,1,2.63-2.42h6.45a2.3,2.3,0,0,1,2.59,2.42v7.85a1.11,1.11,0,0,1-2.21,0l0-7.1h-.36v15.59c0,1.83-3,1.83-3,0v-8.49h-.42v8.55c0,1.74-3,1.74-3,0l0-15.61Z"/><rect class="cls-9" x="736.59" y="139.67" width="2.23" height="2.5"/><rect class="cls-3" x="736.59" y="139.67" width="2.23" height="2.5"/><text class="cls-10" transform="translate(468.75 24.45)">Warning<tspan x="1.26" y="7.78">product</tspan></text><path class="cls-3" d="M461.61,133.48a1.07,1.07,0,0,0,1.13,1h14.81a1.07,1.07,0,0,0,1.13-1v-4.37a1.07,1.07,0,0,0-1.13-1H462.74a1.07,1.07,0,0,0-1.13,1Z"/><path class="cls-3" d="M465.63,135.49c0,.4.21.73.47.73H474c.26,0,.47-.33.47-.73s-.21-.72-.47-.72h-7.9C465.84,134.77,465.63,135.09,465.63,135.49Z"/><polygon class="cls-3" points="481.16 133.39 484.87 134.71 484.87 128.22 481.19 129.51 481.16 133.39"/><rect class="cls-3" x="478.96" y="129.53" width="1.98" height="3.87"/><rect class="cls-3" x="469.21" y="136.52" width="1.62" height="10.42"/><path class="cls-2" d="M385,89.5v15.27h7.41V93.49l.8.8.8-.68v11.17h.91v-12l.57-.57-3.08-2.74C391.72,85.06,386.48,84,385,89.5Z"/><circle class="cls-2" cx="391.84" cy="83.15" r="2.62"/><polygon class="cls-2" points="388.76 83.8 394.92 81.64 391.84 78.9 389.22 80.53 388.76 83.8"/><text class="cls-10" transform="translate(466.23 190.56)">Protection<tspan x="3.78" y="7.78">product</tspan></text><path class="cls-2" d="M389.13,139.55l6.12,8.7,8.4.09-6.14-9.47,1.1.24.3-1,6.56,9.9,1.76.34-8-11.4.17-.79-4.07-.62C392.36,132.16,387.4,134.15,389.13,139.55Z"/><circle class="cls-2" cx="390.5" cy="130.95" r="2.62" transform="translate(227.73 509.29) rotate(-85.26)"/><polygon class="cls-2" points="387.38 131.34 393.69 129.69 390.85 126.71 388.1 128.12 387.38 131.34"/><polyline class="cls-3" points="560.85 94.11 560.85 32.42 504.34 32.42"/><text class="cls-11" transform="translate(540.77 129.54)">Monitoring Center</text><polyline class="cls-3" points="577.97 94.99 577.97 20.84 504.25 20.84"/><polyline class="cls-3" points="391.84 78.55 391.84 32.64 455.21 32.64"/><polyline class="cls-3" points="337.01 111.19 337.01 20.84 455.47 20.84"/><text class="cls-11" transform="translate(458.93 54.18)">Risk Factors </text><rect class="cls-3" x="455.87" y="46.24" width="33.81" height="11.72"/><polyline class="cls-3" points="337.01 135.74 337.01 197.68 454.2 197.68"/><text class="cls-11" transform="translate(458.79 220.49)"><tspan class="cls-12">T</tspan><tspan x="2.95" y="0">rigger the airbag</tspan></text><rect class="cls-3" x="454.36" y="213.43" width="50.6" height="10.05"/><text class="cls-13" transform="translate(456.59 242.67) scale(1 1.05)">Improve body posture</text><rect class="cls-3" x="454.36" y="235.59" width="50.6" height="12.33"/><line class="cls-3" x1="675.11" y1="175.87" x2="675.11" y2="166.4"/><polyline class="cls-3" points="504.95 192.65 675.11 192.65 675.11 179.83"/><polyline class="cls-3" points="733.31 165.79 733.32 177.89 568.61 177.89 568.61 162.82 568.61 133.56"/><line class="cls-3" x1="614.27" y1="166.4" x2="614.27" y2="177.89"/><polyline class="cls-3" points="614.27 128.53 614.27 119.3 733.31 119.3 733.31 128.53"/><polyline class="cls-3" points="486.46 80.4 551.76 80.4 551.76 94.86"/><polyline class="cls-3" points="551.47 134.78 551.47 143.44 545.39 143.44 475.23 143.44"/><polyline class="cls-3" points="540.18 106.44 468.78 106.44 468.78 98.7"/><polyline class="cls-3" points="468.1 123.52 468.1 115.08 539.26 115.08"/><polyline class="cls-3" points="391.84 149.58 391.84 189.8 454.25 189.8"/><line class="cls-3" x1="462.31" y1="143.43" x2="413.11" y2="143.43"/><line class="cls-3" x1="469.03" y1="74.13" x2="469.03" y2="58.24"/><line class="cls-3" x1="480.74" y1="203.44" x2="480.74" y2="213.43"/><line class="cls-3" x1="480.74" y1="223.48" x2="480.74" y2="235.59"/><polyline class="cls-3" points="451.68 187.49 453.9 190.05 451.68 192.11"/><polyline class="cls-3" points="566.3 135.89 568.87 133.67 570.92 135.89"/><polyline class="cls-3" points="611.7 168.62 614.27 166.4 616.32 168.62"/><polyline class="cls-3" points="672.29 168.62 674.86 166.4 676.91 168.62"/><polyline class="cls-3" points="731 167.51 733.57 165.28 735.62 167.51"/><polyline class="cls-3" points="488.69 82.84 486.46 80.27 488.69 78.22"/><polyline class="cls-3" points="483.05 211.21 480.49 213.43 478.43 211.21"/><polyline class="cls-3" points="616.69 127.32 614.13 129.54 612.07 127.32"/><polyline class="cls-3" points="677.42 126.55 674.86 128.78 672.8 126.55"/><polyline class="cls-3" points="735.97 126.7 733.41 128.93 731.35 126.7"/><polyline class="cls-3" points="580.28 93 577.71 95.23 575.66 93"/><polyline class="cls-3" points="549.16 137 551.72 134.78 553.78 137"/><polyline class="cls-3" points="415.33 146.07 413.11 143.51 415.33 141.45"/><text class="cls-11" transform="translate(338.22 132.93)">GPS</text><text class="cls-11" transform="translate(396.26 154.27)">Fall down</text><text class="cls-11" transform="translate(398.2 100.17)">Old man</text><text class="cls-11" transform="translate(474.12 93.1)">MonitoringCamera</text><text class="cls-11" transform="translate(474.12 141.33)">MonitoringCamera</text><text class="cls-11" transform="translate(604.83 164.04)">Families</text><text class="cls-11" transform="translate(665.59 163.52)">Hospital</text><text class="cls-11" transform="translate(723.17 163.78)"><tspan class="cls-14">V</tspan><tspan x="3.14" y="0">olunteers</tspan></text><path class="cls-3" d="M675.11,179.94v0a2,2,0,0,0,2-2,1.87,1.87,0,0,0-2-1.84v-.18"/><path class="cls-3" d="M586.95,106.19h87.87v11.1h.29a2,2,0,0,1,0,4l-.29,0v7.32"/><circle class="cls-3" cx="337.01" cy="121.81" r="4.96"/><rect class="cls-1" x="68.06" y="41.05" width="243.52" height="164.88" rx="14.55" ry="14.55"/><text class="cls-15" transform="translate(107.59 66.56)">The record of people&apos;s routes by GPS</text><text class="cls-16" transform="translate(87.34 66.56)"><tspan xml:space="preserve">1   </tspan></text><text class="cls-17" transform="translate(96.74 66.56)">1</text><text class="cls-16" transform="translate(87.81 100.17)"><tspan xml:space="preserve">2   </tspan></text><text class="cls-17" transform="translate(97.21 100.17)">3</text><text class="cls-17" transform="translate(97.37 83.14)">2</text><text class="cls-15" transform="translate(107.56 100.5)"><tspan class="cls-18">T</tspan><tspan x="5.86" y="0">ransmit location information</tspan></text><text class="cls-15" transform="translate(107.59 116.87)">Control surveillance cameras</text><text class="cls-15" transform="translate(107.59 84.04)">Switch on protection product when fell down</text><text class="cls-16" transform="translate(87.34 116.87)"><tspan xml:space="preserve">3   </tspan></text><text class="cls-17" transform="translate(96.74 116.87)">4</text><text class="cls-19" transform="translate(88.16 134.73)"><tspan xml:space="preserve">4   </tspan></text><text class="cls-17" transform="translate(97.57 134.73)">5</text><text class="cls-16" transform="translate(88.09 151.55)"><tspan xml:space="preserve">5   </tspan></text><text class="cls-17" transform="translate(97.49 151.55)">6</text><text class="cls-15" transform="translate(106.79 133.25)">Capture live situation</text><text class="cls-16" transform="translate(87.72 167.6)"><tspan xml:space="preserve">6   </tspan></text><text class="cls-17" transform="translate(97.12 167.6)">7</text><text class="cls-15" transform="translate(106.93 167.6)"><tspan class="cls-18">T</tspan><tspan x="5.86" y="0">ransmit analysed detailed information</tspan></text><text class="cls-15" transform="translate(107.05 151.55)"><tspan class="cls-18">T</tspan><tspan x="5.86" y="0">ransmit live information</tspan></text><text class="cls-15" transform="translate(106.93 182.26)">Notice old men</text><text class="cls-19" transform="translate(88.48 182.77)">7</text></svg>