<svg id="Layer_1" data-name="Layer 1" xmlns="http://www.w3.org/2000/svg" xmlns:xlink="http://www.w3.org/1999/xlink" viewBox="0 0 1920 1080"><defs><style>.cls-1{fill:#84ba43;}.cls-2,.cls-35{fill:#fff;}.cls-3{fill:#99c590;}.cls-4{fill:#82ae7f;}.cls-5{fill:#8a5424;}.cls-6{fill:#6a3906;}.cls-15,.cls-7{fill:none;}.cls-8{fill:#971f24;}.cls-9{fill:#c10d23;}.cls-10{fill:#717071;}.cls-11{fill:#b2b2b3;}.cls-12{fill:#868686;}.cls-13{fill:#c6c7c8;}.cls-14{fill:#595757;}.cls-15{stroke:#99c590;stroke-linecap:round;stroke-miterlimit:10;stroke-width:5px;}.cls-16{fill:#c0b8a7;}.cls-17{fill:#ed845f;}.cls-18{fill:#25243f;}.cls-19{fill:#221e1f;}.cls-20{fill:url(#linear-gradient);}.cls-21{fill:#c6b999;}.cls-22{fill:#b9651d;}.cls-23{fill:#77411f;}.cls-24{fill:#666;}.cls-25{fill:#191919;}.cls-26{fill:#9c9c9d;}.cls-27{fill:#4b100b;}.cls-28{fill:#eaa228;}.cls-29{fill:url(#linear-gradient-2);}.cls-30{fill:#5e3819;}.cls-31{fill:#a46a22;}.cls-32{fill:#cde4f5;}.cls-33{fill:url(#linear-gradient-3);}.cls-34{fill:url(#linear-gradient-4);}.cls-35{font-size:59.14px;font-family:Helvetica-Bold, Helvetica;font-weight:700;}.cls-36{letter-spacing:-0.04em;}.cls-37{letter-spacing:0em;}</style><linearGradient id="linear-gradient" x1="1620.26" y1="387.34" x2="1575.08" y2="495.68" gradientUnits="userSpaceOnUse"><stop offset="0" stop-color="#fff"/><stop offset="1" stop-color="#faf5d3"/></linearGradient><linearGradient id="linear-gradient-2" x1="1646.68" y1="402.79" x2="1599.79" y2="372.76" gradientUnits="userSpaceOnUse"><stop offset="0" stop-color="#390b04"/><stop offset="1" stop-color="#430b07"/></linearGradient><linearGradient id="linear-gradient-3" x1="1580.7" y1="444.96" x2="1569.15" y2="449.05" gradientUnits="userSpaceOnUse"><stop offset="0" stop-color="#ad4d22"/><stop offset="0.18" stop-color="#a1461f"/><stop offset="0.5" stop-color="#813217"/><stop offset="0.92" stop-color="#4e120a"/><stop offset="1" stop-color="#430b07"/></linearGradient><linearGradient id="linear-gradient-4" x1="1602.34" y1="403.76" x2="1590.79" y2="407.86" xlink:href="#linear-gradient-3"/></defs><title>GAS-img</title><rect class="cls-1" x="1" y="1" width="1920" height="1081"/><rect class="cls-2" x="131" y="176" width="1610" height="474" rx="88.32" ry="88.32"/><polygon class="cls-3" points="492.82 391.88 449.5 352.09 449.5 367.98 407.15 367.98 407.15 415.78 449.5 415.78 449.5 431.67 492.82 391.88"/><polygon class="cls-3" points="773.61 395.11 730.28 355.31 730.28 371.21 687.93 371.21 687.93 419.01 730.28 419.01 730.28 434.9 773.61 395.11"/><polygon class="cls-3" points="1054.88 395.11 1011.56 355.31 1011.56 371.21 969.21 371.21 969.21 419.01 1011.56 419.01 1011.56 434.9 1054.88 395.11"/><polygon class="cls-3" points="1412.85 395.11 1369.52 355.31 1369.52 371.21 1327.17 371.21 1327.17 419.01 1369.52 419.01 1369.52 434.9 1412.85 395.11"/><path class="cls-3" d="M570.82,409.15l-4.16-2.64c5.67-8.93,16.06-23.8,22-23.28l-.45,4.9C585.9,388.43,577.74,398.25,570.82,409.15Z"/><path class="cls-3" d="M567.6,424.69c-.77-21.44-4.74-36.87-7.93-46-3.46-9.93-6.77-14.86-6.81-14.91l4.07-2.78c.57.84,14.07,21,15.59,63.56Z"/><path class="cls-3" d="M608.64,366.68s-48.13,3.15-27.54,25.44Z"/><path class="cls-4" d="M608.64,366.68s-6.94,47.73-27.54,25.44Z"/><path class="cls-3" d="M541.57,320.71s-22.77,58.59,14.89,46.53Z"/><path class="cls-4" d="M541.57,320.71s52.56,34.48,14.89,46.53Z"/><path class="cls-5" d="M609.37,448.71a8.23,8.23,0,0,1,1.48-.05c-3.92-9.59-10.77-16.66-18.91-19-5.17-8-12.74-13-21.18-13-8,0-15.15,4.49-20.28,11.71a19.8,19.8,0,0,0-4.19-.45c-11.42,0-21.2,9.83-25.3,23.8,0,0,20.7,13.47,50.3,12.44s39.56-15.5,39.56-15.5Z"/><path class="cls-5" d="M795,460.24a5.41,5.41,0,0,1-.21-.65C794.78,460.06,794.86,460.21,795,460.24Z"/><path class="cls-6" d="M609.37,448.71a8.23,8.23,0,0,1,1.48-.05c-3.92-9.59-10.77-16.66-18.91-19l-.14-.2c-.24,0-.45.16-.59.13.78,2,2.79,3.16,2.79,4.79,1.19,7.12-7.71,8.9-12.46,11.27-10.09,4.15-20.77,5.34-31.45,6.53-5.34,0-10.09.59-15.43,0-4.36-.62-8.72-1.47-13.09-2.35-.21.61-.41,1.23-.59,1.85,0,0,20.7,13.47,50.3,12.44s39.56-15.5,39.56-15.5Z"/><path class="cls-7" d="M897.52,432.45a38.87,38.87,0,0,0,7.36-13.26c.09-.31.14-.64.29-1.3a50.25,50.25,0,0,0-6.25.05c-2.48.32-4.09-.9-5.65-2.55-3.6-3.81-7.26-7.56-10.86-11.36-.76-.8-1.31-.77-2,.05-2.37,2.78-4.74,5.55-7.16,8.28s-4.86,5.35-7.43,8.16v27.34a43,43,0,0,0,20-5.61A39.72,39.72,0,0,0,897.52,432.45Z"/><path class="cls-7" d="M861.26,367.26A43.34,43.34,0,0,0,837,376.59a38,38,0,0,0-5.44,5.29,44.31,44.31,0,0,0-6.9,11.31c-1.71,3.88-2.27,7.87-2.77,12.2.75,0,1.32.1,1.89.1,3.33,0,6.66,0,10,0a3.31,3.31,0,0,0,2.92-1.35c4.39-5.32,8.89-10.55,13.37-15.79.53-.62,1.17-1.16,1.89-1.86l13.6,17,.28-.25v-36.1C864.31,367.15,862.8,367.17,861.26,367.26Z"/><path class="cls-8" d="M895,379.69a42.28,42.28,0,0,1,8.4,12,1.76,1.76,0,0,0,1.86,1.18c4,0,8.08,0,12.13,0a15.88,15.88,0,0,0,1.58-.21c-1.3-2.89-2.48-5.55-3.68-8.2a47.66,47.66,0,0,0-8.85-12.75,55.4,55.4,0,0,0-17.52-12.63,57.42,57.42,0,0,0-23.12-5.39v13.5A43,43,0,0,1,895,379.69Z"/><path class="cls-9" d="M860.24,447.65a42.34,42.34,0,0,1-29.9-16,3,3,0,0,0-2-1c-4.64-.09-9.28-.06-13.93-.06-.31,0-.62.06-1.09.11a9.06,9.06,0,0,0,.66,1.44c2.32,3.28,4.58,6.6,7,9.78a44.28,44.28,0,0,0,11.79,10.25,57.37,57.37,0,0,0,27,8.9q3.08.22,6.07.15V447.85A44.13,44.13,0,0,1,860.24,447.65Z"/><path class="cls-8" d="M921,407c0-.59-.06-1.18-.1-1.86h-3c-6.66,0-13.33,0-20,0a2.71,2.71,0,0,1-1.86-.65c-2.79-3.2-5.49-6.47-8.2-9.73-2.08-2.51-4.14-5-6.21-7.56-.5-.61-1-1.09-1.68-.2-1.49,1.85-3,3.64-4.55,5.47-2.25,2.73-4.45,5.5-6.76,8.18a28.56,28.56,0,0,1-2.87,2.63v17.22c2.56-2.81,5-5.45,7.43-8.16s4.8-5.5,7.16-8.28c.7-.82,1.25-.86,2-.05,3.6,3.81,7.26,7.56,10.86,11.36,1.56,1.65,3.17,2.87,5.65,2.55a50.25,50.25,0,0,1,6.25-.05c-.14.66-.19,1-.29,1.3a38.87,38.87,0,0,1-7.36,13.26,39.72,39.72,0,0,1-11.69,9.8,43,43,0,0,1-20,5.61v13.43c14.05-.3,26.63-5.24,37.63-14.91a50.09,50.09,0,0,0,12.93-17.69A51.32,51.32,0,0,0,921,407Z"/><path class="cls-9" d="M865.52,403.54l-13.6-17c-.73.71-1.36,1.24-1.89,1.86-4.48,5.24-9,10.47-13.37,15.79a3.31,3.31,0,0,1-2.92,1.35c-3.33-.06-6.66,0-10,0-.57,0-1.14-.06-1.89-.1.5-4.34,1.07-8.32,2.77-12.2a44.31,44.31,0,0,1,6.9-11.31,38,38,0,0,1,5.44-5.29,43.34,43.34,0,0,1,24.29-9.33c1.54-.09,3.05-.11,4.54-.07V353.7a60.68,60.68,0,0,0-6.55.21c-15.94,1.39-29.2,8.29-39.77,20.59a49.19,49.19,0,0,0-8.68,15.07,53,53,0,0,0-2.28,27.36c.16,1,.5,1.42,1.55,1.43,8.47,0,16.93.1,25.4.12a2.51,2.51,0,0,0,1.62-.57q2.91-2.79,5.68-5.73c2.43-2.57,4.78-5.21,7.2-7.78.74-.78,1.6-1.44,2.45-2.2l13.24,18.47.14-.15V403.29Z"/><polygon class="cls-10" points="286.71 391.03 244.22 391.03 213.72 441.22 214.52 444.82 257.01 444.82 287.51 394.63 286.71 391.03"/><polygon class="cls-11" points="256.22 441.22 213.72 441.22 244.22 391.03 286.71 391.03 256.22 441.22"/><path class="cls-10" d="M269.7,335.64c-16,21.65-17.63,49.64-19.23,75.56-.15,2.41,3.6,2.4,3.75,0,1.57-25.31,3.08-52.52,18.72-73.67,1.44-1.94-1.82-3.81-3.24-1.89Z"/><circle class="cls-10" cx="312.24" cy="347.75" r="18.87"/><path class="cls-10" d="M351.28,414.65c0-26.53-13.13-48-23.84-48s-7.69,43.87-9,43.87c-12.64,8.48-9.7,18.28-8.54,24.45-9.94.4-18.6,2.64-24,5.9a4.2,4.2,0,0,0-2.09,1.43c-2.46,1.94-3.87,4.16-3.87,6.51a6,6,0,0,0,.16,1.37c-2.54,8.42-2.38,21.74-2.38,36.73,0,25.47,2.93,46.12,8.77,46.12S297,512.35,297,486.88a170.68,170.68,0,0,0-1.91-26.42c5.18,1.4,25,2.7,32.78,1.76s13.29-2.92,18.4-13.44S351.28,425.19,351.28,414.65Z"/><polygon class="cls-12" points="279.94 281.29 260.45 313.83 260.45 421.4 265.93 421.4 285.42 388.85 285.42 281.29 279.94 281.29"/><polygon class="cls-13" points="285.42 281.29 285.42 388.85 265.93 421.4 265.93 313.83 285.42 281.29"/><polygon class="cls-5" points="355.9 392.75 355.9 463.91 301.22 463.91 301.31 533.54 307.7 533.54 307.7 470.25 355.9 470.25 355.9 533 362.67 533 362.67 392.75 355.9 392.75"/><path class="cls-14" d="M325.84,334.5c4,21.7-7.52,28.48-10.69,29.62s-8.06.89-10.1,1.21a18.87,18.87,0,0,0,20.79-30.83Z"/><path class="cls-14" d="M351.28,414.59a76,76,0,0,0-6-29.94c1.17,27.81-8.33,55.57-25.08,77.83a66.34,66.34,0,0,0,7.64-.32c7.75-.94,13.29-2.92,18.4-13.44S351.28,425.14,351.28,414.59Z"/><polygon class="cls-12" points="284.13 289.25 284.13 379.07 267.85 406.25 267.85 316.43 284.13 289.25"/><line class="cls-15" x1="563.39" y1="226.33" x2="563.39" y2="274.8"/><line class="cls-15" x1="482.76" y1="247.9" x2="510.79" y2="289.87"/><line class="cls-15" x1="641.49" y1="247.9" x2="613.45" y2="289.87"/><line class="cls-15" x1="565.83" y1="579.04" x2="565.83" y2="530.58"/><line class="cls-15" x1="485.2" y1="557.48" x2="513.24" y2="515.5"/><line class="cls-15" x1="643.93" y1="557.48" x2="615.89" y2="515.5"/><g id="_Group_" data-name="&lt;Group&gt;"><g id="_Group_2" data-name="&lt;Group&gt;"><path id="_Path_" data-name="&lt;Path&gt;" class="cls-16" d="M1248.14,434.31v35.27a.26.26,0,0,1-.52,0V434.31a.26.26,0,0,1,.52,0"/></g><g id="_Group_3" data-name="&lt;Group&gt;"><path id="_Path_2" data-name="&lt;Path&gt;" class="cls-16" d="M1248.14,389.72V425a.26.26,0,1,1-.52,0V389.72a.26.26,0,0,1,.52,0"/></g><g id="_Group_4" data-name="&lt;Group&gt;"><path id="_Path_3" data-name="&lt;Path&gt;" class="cls-16" d="M1247.23,434.27l-6.88,34.6a.26.26,0,0,1-.51-.1l6.88-34.6a.26.26,0,0,1,.51.1"/></g><g id="_Group_5" data-name="&lt;Group&gt;"><path id="_Path_4" data-name="&lt;Path&gt;" class="cls-16" d="M1255.93,390.54l-6.88,34.6a.26.26,0,0,1-.51-.1l6.88-34.6a.26.26,0,1,1,.51.1"/></g><g id="_Group_6" data-name="&lt;Group&gt;"><path id="_Path_5" data-name="&lt;Path&gt;" class="cls-16" d="M1246.34,434.06l-13.5,32.59a.26.26,0,1,1-.48-.2l13.5-32.59a.26.26,0,1,1,.48.2"/></g><g id="_Group_7" data-name="&lt;Group&gt;"><path id="_Path_6" data-name="&lt;Path&gt;" class="cls-16" d="M1263.41,392.86l-13.5,32.59a.26.26,0,0,1-.48-.2l13.5-32.59a.26.26,0,0,1,.48.2"/></g><g id="_Group_8" data-name="&lt;Group&gt;"><path id="_Path_7" data-name="&lt;Path&gt;" class="cls-16" d="M1245.51,433.67,1225.91,463a.26.26,0,0,1-.44-.29l19.6-29.33a.26.26,0,0,1,.44.29"/></g><g id="_Group_9" data-name="&lt;Group&gt;"><path id="_Path_8" data-name="&lt;Path&gt;" class="cls-16" d="M1270.28,396.6l-19.6,29.33a.26.26,0,0,1-.44-.29l19.6-29.33a.26.26,0,0,1,.44.29"/></g><g id="_Group_10" data-name="&lt;Group&gt;"><path id="_Path_9" data-name="&lt;Path&gt;" class="cls-16" d="M1244.77,433.13l-24.94,24.94a.26.26,0,0,1-.37-.37l24.94-24.94a.26.26,0,0,1,.37.37"/></g><g id="_Group_11" data-name="&lt;Group&gt;"><path id="_Path_10" data-name="&lt;Path&gt;" class="cls-16" d="M1276.3,401.6l-24.94,24.94a.26.26,0,1,1-.37-.37l24.94-24.94a.26.26,0,1,1,.37.37"/></g><g id="_Group_12" data-name="&lt;Group&gt;"><path id="_Path_11" data-name="&lt;Path&gt;" class="cls-16" d="M1244.15,432.46l-29.33,19.6a.26.26,0,1,1-.29-.44l29.33-19.6a.26.26,0,0,1,.29.44"/></g><g id="_Group_13" data-name="&lt;Group&gt;"><path id="_Path_12" data-name="&lt;Path&gt;" class="cls-16" d="M1281.23,407.69l-29.33,19.6a.26.26,0,1,1-.29-.44l29.33-19.6a.26.26,0,1,1,.29.44"/></g><g id="_Group_14" data-name="&lt;Group&gt;"><path id="_Path_13" data-name="&lt;Path&gt;" class="cls-16" d="M1243.68,431.68l-32.59,13.5a.26.26,0,0,1-.2-.48l32.59-13.5a.26.26,0,1,1,.2.48"/></g><g id="_Group_15" data-name="&lt;Group&gt;"><path id="_Path_14" data-name="&lt;Path&gt;" class="cls-16" d="M1284.87,414.61l-32.59,13.5a.26.26,0,0,1-.2-.48l32.59-13.5a.26.26,0,0,1,.2.48"/></g><g id="_Group_16" data-name="&lt;Group&gt;"><path id="_Path_15" data-name="&lt;Path&gt;" class="cls-16" d="M1243.36,430.82l-34.6,6.88a.26.26,0,1,1-.1-.51l34.6-6.88a.26.26,0,0,1,.1.51"/></g><g id="_Group_17" data-name="&lt;Group&gt;"><path id="_Path_16" data-name="&lt;Path&gt;" class="cls-16" d="M1287.1,422.12,1252.5,429a.26.26,0,0,1-.1-.51l34.6-6.88a.26.26,0,1,1,.1.51"/></g><g id="_Group_18" data-name="&lt;Group&gt;"><path id="_Path_17" data-name="&lt;Path&gt;" class="cls-16" d="M1243.22,429.91h-35.27a.26.26,0,0,1,0-.52h35.27a.26.26,0,1,1,0,.52"/></g><g id="_Group_19" data-name="&lt;Group&gt;"><path id="_Path_18" data-name="&lt;Path&gt;" class="cls-16" d="M1287.81,429.91h-35.27a.26.26,0,0,1,0-.52h35.27a.26.26,0,0,1,0,.52"/></g><g id="_Group_20" data-name="&lt;Group&gt;"><path id="_Path_19" data-name="&lt;Path&gt;" class="cls-16" d="M1243.26,429l-34.6-6.88a.26.26,0,1,1,.1-.51l34.6,6.88a.26.26,0,0,1-.1.51"/></g><g id="_Group_21" data-name="&lt;Group&gt;"><path id="_Path_20" data-name="&lt;Path&gt;" class="cls-16" d="M1287,437.7l-34.6-6.88a.26.26,0,0,1,.1-.51l34.6,6.88a.26.26,0,1,1-.1.51"/></g><g id="_Group_22" data-name="&lt;Group&gt;"><path id="_Path_21" data-name="&lt;Path&gt;" class="cls-16" d="M1243.48,428.11l-32.59-13.5a.26.26,0,0,1,.2-.48l32.59,13.5a.26.26,0,1,1-.2.48"/></g><g id="_Group_23" data-name="&lt;Group&gt;"><path id="_Path_22" data-name="&lt;Path&gt;" class="cls-16" d="M1284.67,445.18l-32.59-13.5a.26.26,0,0,1,.2-.48l32.59,13.5a.26.26,0,0,1-.2.48"/></g><g id="_Group_24" data-name="&lt;Group&gt;"><path id="_Path_23" data-name="&lt;Path&gt;" class="cls-16" d="M1243.86,427.28l-29.33-19.6a.26.26,0,0,1,.29-.44l29.33,19.6a.26.26,0,0,1-.29.44"/></g><g id="_Group_25" data-name="&lt;Group&gt;"><path id="_Path_24" data-name="&lt;Path&gt;" class="cls-16" d="M1280.94,452.06l-29.33-19.6a.26.26,0,1,1,.29-.44l29.33,19.6a.26.26,0,1,1-.29.44"/></g><g id="_Group_26" data-name="&lt;Group&gt;"><path id="_Path_25" data-name="&lt;Path&gt;" class="cls-16" d="M1244.4,426.54l-24.94-24.94a.26.26,0,1,1,.37-.37l24.94,24.94a.26.26,0,1,1-.37.37"/></g><g id="_Group_27" data-name="&lt;Group&gt;"><path id="_Path_26" data-name="&lt;Path&gt;" class="cls-16" d="M1275.93,458.07,1251,433.13a.26.26,0,0,1,.37-.37l24.94,24.94a.26.26,0,0,1-.37.37"/></g><g id="_Group_28" data-name="&lt;Group&gt;"><path id="_Path_27" data-name="&lt;Path&gt;" class="cls-16" d="M1245.08,425.93l-19.6-29.33a.26.26,0,1,1,.44-.29l19.6,29.33a.26.26,0,0,1-.44.29"/></g><g id="_Group_29" data-name="&lt;Group&gt;"><path id="_Path_28" data-name="&lt;Path&gt;" class="cls-16" d="M1269.85,463l-19.6-29.33a.26.26,0,0,1,.44-.29l19.6,29.33a.26.26,0,0,1-.44.29"/></g><g id="_Group_30" data-name="&lt;Group&gt;"><path id="_Path_29" data-name="&lt;Path&gt;" class="cls-16" d="M1245.86,425.45l-13.5-32.59a.26.26,0,0,1,.48-.2l13.5,32.59a.26.26,0,0,1-.48.2"/></g><g id="_Group_31" data-name="&lt;Group&gt;"><path id="_Path_30" data-name="&lt;Path&gt;" class="cls-16" d="M1262.92,466.65l-13.5-32.59a.26.26,0,1,1,.48-.2l13.5,32.59a.26.26,0,0,1-.48.2"/></g><g id="_Group_32" data-name="&lt;Group&gt;"><path id="_Path_31" data-name="&lt;Path&gt;" class="cls-16" d="M1246.72,425.14l-6.88-34.6a.26.26,0,0,1,.51-.1l6.88,34.6a.26.26,0,0,1-.51.1"/></g><g id="_Group_33" data-name="&lt;Group&gt;"><path id="_Path_32" data-name="&lt;Path&gt;" class="cls-16" d="M1255.41,468.87l-6.88-34.6a.26.26,0,0,1,.51-.1l6.88,34.6a.26.26,0,1,1-.51.1"/></g><g id="_Group_34" data-name="&lt;Group&gt;"><path id="_Path_33" data-name="&lt;Path&gt;" class="cls-17" d="M1278.26,398.15a43.79,43.79,0,0,0-74.16,31.5,1,1,0,0,1-2.1,0,45.86,45.86,0,0,1,77.72-33,1,1,0,0,1-1.46,1.51Z"/></g><g id="_Group_35" data-name="&lt;Group&gt;"><path id="_Path_34" data-name="&lt;Path&gt;" class="cls-18" d="M1207.95,429.65h2.1a37.83,37.83,0,1,0,11.08-26.75A37.71,37.71,0,0,0,1210,429.65h-4.2a42,42,0,1,1,12.31,29.72,41.91,41.91,0,0,1-12.31-29.72Z"/></g><g id="_Group_36" data-name="&lt;Group&gt;"><path id="_Path_35" data-name="&lt;Path&gt;" class="cls-16" d="M1211.31,429.65h1a35.52,35.52,0,1,0,10.4-25.12,35.4,35.4,0,0,0-10.4,25.12h-2.1a37.62,37.62,0,1,1,37.62,37.62,37.62,37.62,0,0,1-37.62-37.62Z"/></g><g id="_Group_37" data-name="&lt;Group&gt;"><circle id="_Path_36" data-name="&lt;Path&gt;" class="cls-19" cx="1247.88" cy="429.65" r="2.93"/></g><g id="_Group_38" data-name="&lt;Group&gt;"><path id="_Path_37" data-name="&lt;Path&gt;" class="cls-18" d="M1245,429.65h.52a2.4,2.4,0,1,0,.7-1.7,2.39,2.39,0,0,0-.7,1.7h-1a3.45,3.45,0,1,1,3.45,3.45,3.45,3.45,0,0,1-3.45-3.45Z"/></g><g id="_Group_39" data-name="&lt;Group&gt;"><path id="_Path_38" data-name="&lt;Path&gt;" class="cls-18" d="M1243.22,429.65h.52a4.13,4.13,0,1,0,1.21-2.92,4.12,4.12,0,0,0-1.21,2.92h-1a5.18,5.18,0,1,1,5.18,5.18,5.18,5.18,0,0,1-5.18-5.18Z"/></g><g id="_Group_40" data-name="&lt;Group&gt;"><path id="_Path_39" data-name="&lt;Path&gt;" class="cls-16" d="M1115.1,434.31v35.27a.26.26,0,1,1-.52,0V434.31a.26.26,0,0,1,.52,0"/></g><g id="_Group_41" data-name="&lt;Group&gt;"><path id="_Path_40" data-name="&lt;Path&gt;" class="cls-16" d="M1115.1,389.72V425a.26.26,0,0,1-.52,0V389.72a.26.26,0,1,1,.52,0"/></g><g id="_Group_42" data-name="&lt;Group&gt;"><path id="_Path_41" data-name="&lt;Path&gt;" class="cls-16" d="M1114.19,434.27l-6.88,34.6a.26.26,0,0,1-.51-.1l6.88-34.6a.26.26,0,1,1,.51.1"/></g><g id="_Group_43" data-name="&lt;Group&gt;"><path id="_Path_42" data-name="&lt;Path&gt;" class="cls-16" d="M1122.89,390.54l-6.88,34.6a.26.26,0,1,1-.51-.1l6.88-34.6a.26.26,0,0,1,.51.1"/></g><g id="_Group_44" data-name="&lt;Group&gt;"><path id="_Path_43" data-name="&lt;Path&gt;" class="cls-16" d="M1113.3,434.06l-13.5,32.59a.26.26,0,1,1-.48-.2l13.5-32.59a.26.26,0,1,1,.48.2"/></g><g id="_Group_45" data-name="&lt;Group&gt;"><path id="_Path_44" data-name="&lt;Path&gt;" class="cls-16" d="M1130.36,392.86l-13.5,32.59a.26.26,0,0,1-.48-.2l13.5-32.59a.26.26,0,0,1,.48.2"/></g><g id="_Group_46" data-name="&lt;Group&gt;"><path id="_Path_45" data-name="&lt;Path&gt;" class="cls-16" d="M1112.47,433.67,1092.87,463a.26.26,0,1,1-.44-.29l19.6-29.33a.26.26,0,0,1,.44.29"/></g><g id="_Group_47" data-name="&lt;Group&gt;"><path id="_Path_46" data-name="&lt;Path&gt;" class="cls-16" d="M1137.24,396.6l-19.6,29.33a.26.26,0,1,1-.44-.29l19.6-29.33a.26.26,0,0,1,.44.29"/></g><g id="_Group_48" data-name="&lt;Group&gt;"><path id="_Path_47" data-name="&lt;Path&gt;" class="cls-16" d="M1111.73,433.13l-24.94,24.94a.26.26,0,0,1-.37-.37l24.94-24.94a.26.26,0,0,1,.37.37"/></g><g id="_Group_49" data-name="&lt;Group&gt;"><path id="_Path_48" data-name="&lt;Path&gt;" class="cls-16" d="M1143.26,401.6l-24.94,24.94a.26.26,0,1,1-.37-.37l24.94-24.94a.26.26,0,0,1,.37.37"/></g><g id="_Group_50" data-name="&lt;Group&gt;"><path id="_Path_49" data-name="&lt;Path&gt;" class="cls-16" d="M1111.11,432.46l-29.33,19.6a.26.26,0,1,1-.29-.44l29.33-19.6a.26.26,0,1,1,.29.44"/></g><g id="_Group_51" data-name="&lt;Group&gt;"><path id="_Path_50" data-name="&lt;Path&gt;" class="cls-16" d="M1148.19,407.69l-29.33,19.6a.26.26,0,0,1-.29-.44l29.33-19.6a.26.26,0,1,1,.29.44"/></g><g id="_Group_52" data-name="&lt;Group&gt;"><path id="_Path_51" data-name="&lt;Path&gt;" class="cls-16" d="M1110.64,431.68,1078,445.18a.26.26,0,1,1-.2-.48l32.59-13.5a.26.26,0,1,1,.2.48"/></g><g id="_Group_53" data-name="&lt;Group&gt;"><path id="_Path_52" data-name="&lt;Path&gt;" class="cls-16" d="M1151.83,414.61l-32.59,13.5a.26.26,0,1,1-.2-.48l32.59-13.5a.26.26,0,1,1,.2.48"/></g><g id="_Group_54" data-name="&lt;Group&gt;"><path id="_Path_53" data-name="&lt;Path&gt;" class="cls-16" d="M1110.32,430.82l-34.6,6.88a.26.26,0,0,1-.1-.51l34.6-6.88a.26.26,0,1,1,.1.51"/></g><g id="_Group_55" data-name="&lt;Group&gt;"><path id="_Path_54" data-name="&lt;Path&gt;" class="cls-16" d="M1154.05,422.12l-34.6,6.88a.26.26,0,1,1-.1-.51l34.6-6.88a.26.26,0,0,1,.1.51"/></g><g id="_Group_56" data-name="&lt;Group&gt;"><path id="_Path_55" data-name="&lt;Path&gt;" class="cls-16" d="M1110.18,429.91h-35.27a.26.26,0,1,1,0-.52h35.27a.26.26,0,0,1,0,.52"/></g><g id="_Group_57" data-name="&lt;Group&gt;"><path id="_Path_56" data-name="&lt;Path&gt;" class="cls-16" d="M1154.77,429.91H1119.5a.26.26,0,0,1,0-.52h35.27a.26.26,0,1,1,0,.52"/></g><g id="_Group_58" data-name="&lt;Group&gt;"><path id="_Path_57" data-name="&lt;Path&gt;" class="cls-16" d="M1110.22,429l-34.6-6.88a.26.26,0,0,1,.1-.51l34.6,6.88a.26.26,0,1,1-.1.51"/></g><g id="_Group_59" data-name="&lt;Group&gt;"><path id="_Path_58" data-name="&lt;Path&gt;" class="cls-16" d="M1154,437.7l-34.6-6.88a.26.26,0,1,1,.1-.51l34.6,6.88a.26.26,0,1,1-.1.51"/></g><g id="_Group_60" data-name="&lt;Group&gt;"><path id="_Path_59" data-name="&lt;Path&gt;" class="cls-16" d="M1110.44,428.11l-32.59-13.5a.26.26,0,1,1,.2-.48l32.59,13.5a.26.26,0,1,1-.2.48"/></g><g id="_Group_61" data-name="&lt;Group&gt;"><path id="_Path_60" data-name="&lt;Path&gt;" class="cls-16" d="M1151.63,445.18,1119,431.68a.26.26,0,1,1,.2-.48l32.59,13.5a.26.26,0,0,1-.2.48"/></g><g id="_Group_62" data-name="&lt;Group&gt;"><path id="_Path_61" data-name="&lt;Path&gt;" class="cls-16" d="M1110.82,427.28l-29.33-19.6a.26.26,0,1,1,.29-.44l29.33,19.6a.26.26,0,1,1-.29.44"/></g><g id="_Group_63" data-name="&lt;Group&gt;"><path id="_Path_62" data-name="&lt;Path&gt;" class="cls-16" d="M1147.89,452.06l-29.33-19.6a.26.26,0,1,1,.29-.44l29.33,19.6a.26.26,0,1,1-.29.44"/></g><g id="_Group_64" data-name="&lt;Group&gt;"><path id="_Path_63" data-name="&lt;Path&gt;" class="cls-16" d="M1111.36,426.54l-24.94-24.94a.26.26,0,0,1,.37-.37l24.94,24.94a.26.26,0,0,1-.37.37"/></g><g id="_Group_65" data-name="&lt;Group&gt;"><path id="_Path_64" data-name="&lt;Path&gt;" class="cls-16" d="M1142.89,458.07l-24.94-24.94a.26.26,0,0,1,.37-.37l24.94,24.94a.26.26,0,0,1-.37.37"/></g><g id="_Group_66" data-name="&lt;Group&gt;"><path id="_Path_65" data-name="&lt;Path&gt;" class="cls-16" d="M1112,425.93l-19.6-29.33a.26.26,0,0,1,.44-.29l19.6,29.33a.26.26,0,1,1-.44.29"/></g><g id="_Group_67" data-name="&lt;Group&gt;"><path id="_Path_66" data-name="&lt;Path&gt;" class="cls-16" d="M1136.81,463l-19.6-29.33a.26.26,0,0,1,.44-.29l19.6,29.33a.26.26,0,1,1-.44.29"/></g><g id="_Group_68" data-name="&lt;Group&gt;"><path id="_Path_67" data-name="&lt;Path&gt;" class="cls-16" d="M1112.81,425.45l-13.5-32.59a.26.26,0,1,1,.48-.2l13.5,32.59a.26.26,0,1,1-.48.2"/></g><g id="_Group_69" data-name="&lt;Group&gt;"><path id="_Path_68" data-name="&lt;Path&gt;" class="cls-16" d="M1129.88,466.65l-13.5-32.59a.26.26,0,0,1,.48-.2l13.5,32.59a.26.26,0,1,1-.48.2"/></g><g id="_Group_70" data-name="&lt;Group&gt;"><path id="_Path_69" data-name="&lt;Path&gt;" class="cls-16" d="M1113.67,425.14l-6.88-34.6a.26.26,0,0,1,.51-.1l6.88,34.6a.26.26,0,1,1-.51.1"/></g><g id="_Group_71" data-name="&lt;Group&gt;"><path id="_Path_70" data-name="&lt;Path&gt;" class="cls-16" d="M1122.37,468.87l-6.88-34.6a.26.26,0,0,1,.51-.1l6.88,34.6a.26.26,0,0,1-.51.1"/></g><g id="_Group_72" data-name="&lt;Group&gt;"><path id="_Path_71" data-name="&lt;Path&gt;" class="cls-18" d="M1155.44,413.25a44,44,0,0,0-15.86-19.71,43.79,43.79,0,0,0-68.53,36.11,1,1,0,0,1-2.1,0,45.89,45.89,0,0,1,88.43-17.19,1,1,0,0,1-1.95.79Z"/></g><g id="_Group_73" data-name="&lt;Group&gt;"><path id="_Path_72" data-name="&lt;Path&gt;" class="cls-18" d="M1074.91,429.65h2.1a37.83,37.83,0,1,0,11.08-26.75A37.7,37.7,0,0,0,1077,429.65h-4.2a42,42,0,1,1,12.31,29.72,41.91,41.91,0,0,1-12.31-29.72Z"/></g><g id="_Group_74" data-name="&lt;Group&gt;"><path id="_Path_73" data-name="&lt;Path&gt;" class="cls-16" d="M1077.53,429.65h1A36.26,36.26,0,1,0,1089.2,404a36.14,36.14,0,0,0-10.62,25.64h-2.1A38.36,38.36,0,1,1,1114.84,468a38.36,38.36,0,0,1-38.36-38.36Z"/></g><g id="_Group_75" data-name="&lt;Group&gt;"><circle id="_Path_74" data-name="&lt;Path&gt;" class="cls-19" cx="1114.84" cy="429.65" r="2.93"/></g><g id="_Group_76" data-name="&lt;Group&gt;"><path id="_Path_75" data-name="&lt;Path&gt;" class="cls-18" d="M1111.91,429.65h.52a2.4,2.4,0,1,0,.7-1.7,2.39,2.39,0,0,0-.7,1.7h-1a3.45,3.45,0,1,1,3.45,3.45,3.45,3.45,0,0,1-3.45-3.45Z"/></g><g id="_Group_77" data-name="&lt;Group&gt;"><path id="_Path_76" data-name="&lt;Path&gt;" class="cls-18" d="M1110.18,429.65h.52a4.13,4.13,0,1,0,1.21-2.92,4.12,4.12,0,0,0-1.21,2.92h-1a5.18,5.18,0,1,1,5.18,5.18,5.18,5.18,0,0,1-5.18-5.18Z"/></g><g id="_Group_78" data-name="&lt;Group&gt;"><path id="_Path_77" data-name="&lt;Path&gt;" class="cls-18" d="M1169.17,426.28l-54.34-.76a.52.52,0,0,1,0-1l54.34.76a.52.52,0,1,1,0,1"/></g><g id="_Group_79" data-name="&lt;Group&gt;"><path id="_Path_78" data-name="&lt;Path&gt;" class="cls-18" d="M1164.44,448.7l-49.74-13.88a.52.52,0,1,1,.28-1l49.74,13.88a.52.52,0,0,1-.28,1"/></g><g id="_Group_80" data-name="&lt;Group&gt;"><circle id="_Path_79" data-name="&lt;Path&gt;" class="cls-16" cx="1169.18" cy="437.44" r="11.69"/></g><g id="_Group_81" data-name="&lt;Group&gt;"><path id="_Path_80" data-name="&lt;Path&gt;" class="cls-17" d="M1157.49,437.44h.52a11.16,11.16,0,1,0,3.27-7.89,11.13,11.13,0,0,0-3.27,7.89h-1a12.21,12.21,0,1,1,12.21,12.21A12.21,12.21,0,0,1,1157,437.44Z"/></g><g id="_Group_82" data-name="&lt;Group&gt;"><circle id="_Path_81" data-name="&lt;Path&gt;" class="cls-16" cx="1169.18" cy="437.44" r="5.68"/></g><g id="_Group_83" data-name="&lt;Group&gt;"><path id="_Path_82" data-name="&lt;Path&gt;" class="cls-18" d="M1163.5,437.44h.52a5.15,5.15,0,1,0,1.51-3.64,5.13,5.13,0,0,0-1.51,3.64h-1a6.2,6.2,0,1,1,6.2,6.2,6.2,6.2,0,0,1-6.2-6.2Z"/></g><g id="_Group_84" data-name="&lt;Group&gt;"><path id="_Path_83" data-name="&lt;Path&gt;" class="cls-16" d="M1228.8,333.55a8.22,8.22,0,0,1,3.26,6.56v0a8.22,8.22,0,0,1-3.53,6.76l-7.35,5.1h0a4.23,4.23,0,0,0-1.82,3.48h0a4.22,4.22,0,0,0,.17,1.19h0l1,3.37a1.57,1.57,0,0,1-3,.89l-1-3.37h0a7.38,7.38,0,0,1,2.87-8.14h0l7.35-5.1a5.08,5.08,0,0,0,2.18-4.17v0a5.08,5.08,0,0,0-2-4,1.57,1.57,0,1,1,1.9-2.51Z"/></g><g id="_Group_85" data-name="&lt;Group&gt;"><path id="_Path_84" data-name="&lt;Path&gt;" class="cls-16" d="M1146.07,358l3.54,11.45a1.57,1.57,0,1,1-3,.93l-3.54-11.45a1.57,1.57,0,1,1,3-.93"/></g><g id="_Group_86" data-name="&lt;Group&gt;"><path id="_Path_85" data-name="&lt;Path&gt;" class="cls-17" d="M1221,359.89l15.53,52.92a11.34,11.34,0,0,0,2.51,4.46l10,11a2.1,2.1,0,1,1-3.1,2.83l-10-11a15.54,15.54,0,0,1-3.44-6.11L1217,361.07a2.1,2.1,0,1,1,4-1.18Z"/></g><g id="_Group_87" data-name="&lt;Group&gt;"><path id="_Path_86" data-name="&lt;Path&gt;" class="cls-18" d="M1216.37,323.17l12.9,9.75a2.36,2.36,0,1,1-2.85,3.77l-12.9-9.75a2.36,2.36,0,1,1,2.85-3.77"/></g><g id="_Group_88" data-name="&lt;Group&gt;"><path id="_Path_87" data-name="&lt;Path&gt;" class="cls-17" d="M1150.12,369.27l21.07,68.17a2.1,2.1,0,0,1-4,1.24l-21.07-68.17a2.1,2.1,0,1,1,4-1.24"/></g><g id="_Group_89" data-name="&lt;Group&gt;"><path id="_Path_88" data-name="&lt;Path&gt;" class="cls-17" d="M1151.14,375l-34.52,55.73a2.1,2.1,0,0,1-3.79-.5l-16.75-55.73a2.1,2.1,0,0,1,4-1.21l15.4,51.27,32.06-51.77a2.1,2.1,0,1,1,3.57,2.21Z"/></g><g id="_Group_90" data-name="&lt;Group&gt;"><path id="_Path_89" data-name="&lt;Path&gt;" class="cls-17" d="M1149.36,376h-64.93a2.1,2.1,0,0,1,0-4.2h64.93a2.1,2.1,0,0,1,0,4.2"/></g><g id="_Group_91" data-name="&lt;Group&gt;"><path id="_Path_90" data-name="&lt;Path&gt;" class="cls-17" d="M1226.2,381.23l-55.5,58.28a2.1,2.1,0,1,1-3-2.9l55.5-58.28a2.1,2.1,0,1,1,3,2.9"/></g><g id="_Group_92" data-name="&lt;Group&gt;"><path id="_Path_91" data-name="&lt;Path&gt;" class="cls-17" d="M1222.24,366.64a108.63,108.63,0,0,1-17,19.21,96.43,96.43,0,0,1-19.76,13.94,70.08,70.08,0,0,1-26.18,7.93,2.1,2.1,0,1,1-.38-4.18,65.89,65.89,0,0,0,24.61-7.47,98.37,98.37,0,0,0,25.85-20.2c3-3.26,5.37-6.16,6.94-8.23.79-1,1.38-1.87,1.78-2.44l.44-.65.11-.16,0,0h0a2.1,2.1,0,0,1,3.52,2.29Z"/></g><g id="_Group_93" data-name="&lt;Group&gt;"><path id="_Path_92" data-name="&lt;Path&gt;" class="cls-16" d="M1170,437.46l12.85,18.47a1,1,0,1,1-1.72,1.2l-12.85-18.47a1,1,0,1,1,1.72-1.2"/></g><g id="_Group_94" data-name="&lt;Group&gt;"><path id="_Path_93" data-name="&lt;Path&gt;" class="cls-17" d="M1188,454.93l-9.56,6.65a2.1,2.1,0,0,1-2.4-3.45l9.56-6.65a2.1,2.1,0,1,1,2.4,3.45"/></g><g id="_Group_95" data-name="&lt;Group&gt;"><path id="_Path_94" data-name="&lt;Path&gt;" class="cls-18" d="M1159.39,353.78h-29.07c-2.24,0-3.72,1.91-2.76,3.57l3.41,5.92c1.47,2.55,5,3.81,8.29,3l21.44-5.55a3.69,3.69,0,0,0,3-3.37C1163.71,355.36,1161.78,353.78,1159.39,353.78Z"/></g><g id="_Group_96" data-name="&lt;Group&gt;"><path id="_Path_95" data-name="&lt;Path&gt;" class="cls-18" d="M1159.39,353.78v1h-29.07a2.33,2.33,0,0,0-1.51.51,1.26,1.26,0,0,0-.5.94,1.07,1.07,0,0,0,.16.54l3.41,5.92a5.12,5.12,0,0,0,2.14,2,7,7,0,0,0,3.17.74,7.23,7.23,0,0,0,1.81-.23l21.44-5.55a3.34,3.34,0,0,0,1.66-1,2.07,2.07,0,0,0,.57-1.39,1.93,1.93,0,0,0-.22-.89,2.77,2.77,0,0,0-1.14-1.12,4,4,0,0,0-1.91-.47v-2.1a5.87,5.87,0,0,1,3.72,1.27,4.64,4.64,0,0,1,1.19,1.45,4,4,0,0,1,.46,1.86,4.17,4.17,0,0,1-1.1,2.79,5.43,5.43,0,0,1-2.7,1.6l-21.44,5.55a9.33,9.33,0,0,1-2.34.3,9.1,9.1,0,0,1-4.13-1,7.21,7.21,0,0,1-3-2.78l-3.41-5.92a3.17,3.17,0,0,1-.44-1.59,3.35,3.35,0,0,1,1.24-2.54,4.42,4.42,0,0,1,2.87-1h29.07Z"/></g></g><polygon class="cls-20" points="1640.84 397.33 1598.67 371.01 1551.35 433 1551.35 493.25 1640.84 457.57 1640.84 397.33"/><polygon class="cls-21" points="1473.27 383.58 1551.35 433 1551.35 493.25 1473.27 443.83 1473.27 383.58"/><polygon class="cls-22" points="1464.51 384.14 1543.65 434.34 1598.91 361.59 1519.77 311.39 1464.51 384.14"/><polygon class="cls-23" points="1550.54 484.42 1549.31 496.56 1644.93 458.44 1643.67 447.29 1550.54 484.42"/><polygon class="cls-23" points="1550.54 484.42 1549.31 496.56 1470.01 445.87 1471.25 433.72 1550.54 484.42"/><polygon class="cls-23" points="1543.65 434.34 1550.13 438.43 1600.4 372.58 1644.81 400.23 1649 394.53 1598.91 361.59 1543.65 434.34"/><polygon class="cls-22" points="1640.84 445.58 1640.84 446.23 1551.39 482.49 1473.27 433.16 1473.27 432.19 1471.25 433.72 1550.54 484.42 1643.67 447.29 1640.84 445.58"/><polygon class="cls-24" points="1639.49 464.39 1610.47 475.94 1610.47 481.72 1639.49 470.18 1639.49 464.39"/><polygon class="cls-25" points="1601.13 469.94 1610.47 475.94 1610.47 481.72 1601.13 475.72 1601.13 469.94"/><polygon class="cls-26" points="1639.49 464.39 1610.47 475.94 1601.13 469.94 1630.17 458.42 1639.49 464.39"/><polygon class="cls-27" points="1603.99 469.59 1603.18 469.12 1603.18 423.73 1603.99 424.35 1603.99 469.59"/><polygon class="cls-28" points="1603.18 423.73 1628.67 413.71 1629.47 414.21 1603.99 424.35 1603.18 423.73"/><polygon class="cls-29" points="1644.81 400.23 1640.74 399.28 1599.4 373.87 1600.4 372.58 1644.81 400.23"/><path class="cls-23" d="M1604,424.35v45.24l25.49-10.14V414.21Zm17.94,33.85-15.6,6.21V426l15.6-6.21Z"/><polygon class="cls-30" points="1621.93 419.77 1627.33 417.62 1627.33 460.26 1621.93 458.2 1621.93 419.77"/><polygon class="cls-31" points="1606.33 464.41 1621.93 458.2 1627.33 460.26 1606.33 468.62 1606.33 464.41"/><polygon class="cls-32" points="1581.46 450.2 1581.46 436.17 1571.12 440.34 1571.12 454.36 1581.46 450.2"/><polygon class="cls-33" points="1569.07 460.41 1568.27 459.94 1568.27 438.02 1569.07 438.65 1569.07 460.41"/><path class="cls-23" d="M1569.07,438.65v21.77l17.2-6.93V431.72Zm12.39,11.55-10.35,4.17v-14l10.35-4.17Z"/><polygon class="cls-28" points="1568.27 438.02 1585.47 431.23 1586.27 431.72 1569.07 438.65 1568.27 438.02"/><polygon class="cls-30" points="1581.46 436.24 1584.23 435.13 1584.23 451.73 1581.46 450.2 1581.46 436.24"/><polygon class="cls-23" points="1571.12 454.36 1581.46 450.2 1584.23 451.73 1571.12 457.01 1571.12 454.36"/><polygon class="cls-23" points="1621.93 419.77 1606.33 425.98 1606.33 464.41 1621.93 458.2 1621.93 419.77"/><polygon class="cls-32" points="1603.11 409 1603.11 394.98 1592.76 399.14 1592.76 413.17 1603.11 409"/><polygon class="cls-34" points="1590.72 419.22 1589.91 418.75 1589.91 396.83 1590.72 397.45 1590.72 419.22"/><path class="cls-23" d="M1590.72,397.45v21.77l17.2-6.93V390.53ZM1603.1,409l-10.35,4.17v-14l10.35-4.17Z"/><polygon class="cls-28" points="1589.91 396.83 1607.11 390.03 1607.92 390.53 1590.72 397.45 1589.91 396.83"/><polygon class="cls-30" points="1603.11 395.05 1605.87 393.94 1605.87 410.53 1603.11 409 1603.11 395.05"/><polygon class="cls-23" points="1592.76 413.17 1603.11 409 1605.87 410.53 1592.76 415.81 1592.76 413.17"/><text class="cls-35" transform="translate(525.28 822.29)"><tspan class="cls-36">A<tspan class="cls-37" x="40.55" y="0" xml:space="preserve"> natural corner  in Shanghai </tspan></tspan><tspan x="-306.79" y="70.97">where you can share with others without any stress</tspan></text></svg>