<svg id="Layer_1" data-name="Layer 1" xmlns="http://www.w3.org/2000/svg" viewBox="0 0 1920 785"><defs><style>.cls-1{fill:#fff;}.cls-2{fill:none;stroke:#f7931e;stroke-miterlimit:10;stroke-width:4px;stroke-dasharray:4.99 4.99;}.cls-3,.cls-4{fill:#f09400;}.cls-4{font-size:20.16px;font-family:Helvetica-Light, Helvetica;}.cls-5,.cls-6{fill:#231815;}.cls-6{font-family:Helvetica-Bold, Helvetica;font-weight:700;}.cls-7{letter-spacing:-0.07em;}</style></defs><title>GAS-img</title><path class="cls-1" d="M416.18,696.06c0,10-9.22,18.14-20.6,18.14h-250c-11.38,0-20.6-8.12-20.6-18.14V208c0-10,9.22-18.14,20.6-18.14h250c11.38,0,20.6,8.12,20.6,18.14Z"/><path class="cls-2" d="M416.18,696.06c0,10-9.22,18.14-20.6,18.14h-250c-11.38,0-20.6-8.12-20.6-18.14V208c0-10,9.22-18.14,20.6-18.14h250c11.38,0,20.6,8.12,20.6,18.14Z"/><path class="cls-1" d="M756.5,696.06c0,10-9.22,18.14-20.6,18.14h-250c-11.38,0-20.6-8.12-20.6-18.14V208c0-10,9.22-18.14,20.6-18.14h250c11.38,0,20.6,8.12,20.6,18.14Z"/><path class="cls-2" d="M756.5,696.06c0,10-9.22,18.14-20.6,18.14h-250c-11.38,0-20.6-8.12-20.6-18.14V208c0-10,9.22-18.14,20.6-18.14h250c11.38,0,20.6,8.12,20.6,18.14Z"/><path class="cls-1" d="M1094.37,696.06c0,10-9.22,18.14-20.6,18.14h-250c-11.38,0-20.6-8.12-20.6-18.14V208c0-10,9.22-18.14,20.6-18.14h250c11.38,0,20.6,8.12,20.6,18.14Z"/><path class="cls-2" d="M1094.37,696.06c0,10-9.22,18.14-20.6,18.14h-250c-11.38,0-20.6-8.12-20.6-18.14V208c0-10,9.22-18.14,20.6-18.14h250c11.38,0,20.6,8.12,20.6,18.14Z"/><path class="cls-1" d="M1425.37,692.82c0,10-9.22,18.14-20.6,18.14h-250c-11.38,0-20.6-8.12-20.6-18.14v-488c0-10,9.22-18.14,20.6-18.14h250c11.38,0,20.6,8.12,20.6,18.14Z"/><path class="cls-2" d="M1425.37,692.82c0,10-9.22,18.14-20.6,18.14h-250c-11.38,0-20.6-8.12-20.6-18.14v-488c0-10,9.22-18.14,20.6-18.14h250c11.38,0,20.6,8.12,20.6,18.14Z"/><path class="cls-1" d="M1766,692.82c0,10-9.22,18.14-20.6,18.14h-250c-11.38,0-20.6-8.12-20.6-18.14v-488c0-10,9.22-18.14,20.6-18.14h250c11.38,0,20.6,8.12,20.6,18.14Z"/><path class="cls-2" d="M1766,692.82c0,10-9.22,18.14-20.6,18.14h-250c-11.38,0-20.6-8.12-20.6-18.14v-488c0-10,9.22-18.14,20.6-18.14h250c11.38,0,20.6,8.12,20.6,18.14Z"/><path class="cls-3" d="M1009.41,105.71c-1.33,5.68-2.44,11.41-4.89,16.76-9,19.58-24.07,31.54-45.16,35.58-31.81,6.1-63.73-15.66-70-47.4C882.7,76.83,904,45.18,938,38.46c.82-.16,1.63-.41,2.44-.63h17c.81.21,1.62.46,2.44.63,22.13,4.78,37.49,17.61,46,38.62,1.81,4.48,2.53,9.25,3.62,13.91ZM951.36,43.88c1,.18,2,.34,3,.55,9.29,1.89,15.67,11.89,13.15,21-.86,3.1-1.32,6.26-2.2,9.33a2.14,2.14,0,0,0,1.25,2.95,10.94,10.94,0,0,1,5.27,6.38c2,5.32,4.73,10.26,7.27,15.3a3.66,3.66,0,0,0,3.76,2.29c5.75-.09,11.5-.18,17.25,0,3,.11,3.69-1,3.62-3.77-.47-20.26-9.4-35.74-26.35-46.6A45.94,45.94,0,0,0,951.36,43.88Zm-7.77-.22a14.73,14.73,0,0,0-1.74,0,54.38,54.38,0,0,0-34.17,18.24A52.65,52.65,0,0,0,894,98.08c0,1.63.1,3,2.32,3,5.66,0,11.31,0,17,0,1.16,0,1.84-.29,1.43-1.65-1-3.24.48-5.64,2.7-7.8a53.89,53.89,0,0,0,6.79-7.56,16.06,16.06,0,0,1,6.16-5.69c.92-.43,1.73-1.06,1.32-2.17-1.53-4.16-1-8.56-1.53-12.82a16.39,16.39,0,0,1,5-14.61C937.52,46.49,940.61,45.52,943.59,43.66Zm5.3,88.6q-19.94,0-39.88,0c-.79,0-1.91-.43-2.28.54s.63,1.47,1.14,2.11a15.07,15.07,0,0,0,1.15,1.24c12.25,12.41,27.12,18.23,44.48,16.86,14.42-1.14,26.55-7.35,36.25-18.15.54-.6,1.59-1.24,1.27-2-.42-1-1.66-.56-2.53-.56Q968.69,132.24,948.89,132.26Zm-14.27-5.75a10.39,10.39,0,0,1-6-8.19c-.39-2.19.56-4.26,1-6.36.19-.82.7-1.82-.32-2.26-2.32-1-4.44-2.74-7-2.78-8.48-.12-17,0-25.43,0-1.53,0-2.32.56-1.95,2.24a57.16,57.16,0,0,0,5.73,15.58,3.24,3.24,0,0,0,3.18,1.83C914.09,126.5,924.36,126.51,934.62,126.51Zm28.07,0c10.36,0,20.72,0,31.08,0a3.35,3.35,0,0,0,3.37-2,64.74,64.74,0,0,0,5.34-13.95c.67-2.56-.1-3.27-2.69-3.23-9.51.13-19,0-28.54.06-3.06,0-3.06,0-1.56,2.63C974.07,117.63,971,124.66,962.69,126.52Zm-4.78-33.58h-.12c.14-2.73.26-5.45.42-8.18.09-1.69.83-1.92,2.42-1.37,3.24,1.11,4.7,3.57,5.67,6.55a88.11,88.11,0,0,0,4.54,10.34c.38.8,1,1.66,1.94,1.18,1.24-.65.09-1.47-.23-2.09a115.8,115.8,0,0,1-5.9-12.83,6.56,6.56,0,0,0-5.79-4.66c-2.54-.33-5.07-.28-7.61-.37-.8,0-1.73.23-2.22-.78a6.54,6.54,0,0,1,2.1-7.51,32.37,32.37,0,0,0,2.68-2.06,1,1,0,0,0,.13-1.7c-2.58-2.55-4.87-5.67-9.3-4.2a6.89,6.89,0,0,1-2.8.21c-2.07-.21-2.89,1.37-3.54,2.7s.49,2.59,1.5,3.34a18.8,18.8,0,0,0,3.79,1.83c2.27,1,3.05,3,2.58,5.86-.44,2.62-2.24,2.3-4,2.25a22,22,0,0,0-3.67.05c-3.74.54-7.64,1-10.18,4.21a93.49,93.49,0,0,1-9,10.14C920,97,920.1,98,921.6,99c3.25,2.09,6.47,4.26,10.28,5.24,1.56.4,2.79.92,3.3,2.63.27.88,1,1.95,2.06,1.31.86-.52.05-1.53-.18-2.3-.29-1-1.14-1.11-1.93-1.45a77.51,77.51,0,0,1-10.7-5.72c-1.28-.8-1.74-1.55-.54-2.87,2.4-2.65,4.7-5.4,7-8.11a9,9,0,0,1,7.86-3c.88.06,1.84.13,2,1.19.34,2.76,2,5,2.75,7.65,2.6,8.52,2.69,8.49,11.65,8.15h.57c1.53,0,2.24-.67,2.21-2.22C957.89,97.27,957.92,95.1,957.92,92.93Zm-2.56,14.51h-2.43c-5.63,0-5.09-.32-3.6,5,.28,1,.45,1.77,1.73,1.67,3.82-.3,7.65-.5,11.47-.82,2-.17,2-1,1-2.59C961.33,107.28,958.1,107.1,955.36,107.44Zm-19.1,12.77c1.48,1.64,3.41,1.41,5.19,1.2a74.48,74.48,0,0,1,9.84-.55q5.08.07,10.16,0c1.44,0,2.94-.09,4-2.13C955.39,118.84,945.9,120.45,936.25,120.21Z"/><path class="cls-3" d="M619.1,43c5.3,1.27,10.67,2.27,15.67,4.59,21.29,9.87,33.74,26.32,36.48,49.69,3.74,31.9-19.48,62.12-52.58,66.38s-63.87-19.32-68-52a60.89,60.89,0,0,1,49.57-68.07c.82-.16,1.63-.4,2.45-.6Zm24.23,16.72c-.33-1.17-1.09-1.43-1.69-1.84a54.05,54.05,0,0,0-34.58-9.21A52.35,52.35,0,0,0,571.7,65c-12.06,12.48-17.47,27.57-15.29,45,2.35,18.82,12.3,32.63,28.61,42,1.92,1.11,2.43.53,2.36-1.51-.1-2.92,0-5.84,0-8.76,0-6.33,2.71-9.17,9-9.29,3-.06,6-.1,9-.17,1.4,0,1.67-.94,1.61-2.13-.07-1.45-.94-1.38-2-1.12s-2.2.52-3.29.81c-7.22,1.87-11,0-13.68-7-1.22-3.25-2-6.67-3-10a6.13,6.13,0,0,0-2.12-3.54c-4.26-3.23-5.2-9.47-1.81-13.49,1.37-1.62,1-2.54-.13-3.8a53.17,53.17,0,0,1-5.27-6.63c-1.17-1.82-.95-3.35.83-4.65,2.58-1.89,5.09-3.89,7.72-5.72,3-2.07,3.93-2,6.07,1,1.12,1.54,2.23,2.06,4,1.48a6.69,6.69,0,0,1,5.73.5A11.57,11.57,0,0,1,603.46,81a1.75,1.75,0,0,0,2,.82c1.11-.38.41-1.25.29-1.91a26,26,0,0,1,1.21-13.35c3.84-11.14,17.48-16,27.05-9.15C637,59.6,639.88,59.72,643.33,59.72Zm-50.07,86.37h.1a63.81,63.81,0,0,0,0,6.49c.32,3.15,2,4.19,6.22,4.63,2.86.3,2.82-1.84,3.39-3.56,1.46-4.48,1.92-4.62,6.59-5,7.22-.56,14.47-.91,21.64-2.07,4.5-.73,7.29-3.77,9.3-7.54a5.13,5.13,0,0,0-.46-5.86,4.51,4.51,0,0,1-.87-4c.36-1.75.45-3.56.83-5.3,1.88-8.79.13-17-3.78-24.91-.75-1.52-1.55-3.17-3.13-3.92-3.6-1.7-3.76-4.59-3-7.87.33-1.48.65-2.89-.21-4.37a13.48,13.48,0,0,1-1.77-7.61c.09-1.68-.63-2.55-2.29-3a62.91,62.91,0,0,1-8.54-3c-1.51-.64-2.72-3.09-4.43-1.83-1.32,1-1,3.33-1.53,5-1.81,5.68,2.31,9,5,12.88,1.12,1.64,2.73.88,4.08,1.32a4.49,4.49,0,0,1,3.24,3.88,3.53,3.53,0,0,1-2,4.19c-3.62,1.9-5.12,5.4-6.25,9.06a47.05,47.05,0,0,0-1.8,10.28,3.61,3.61,0,0,1-2.92,3.56c-3.59,1.18-7.26,2-10.92,2.91A2.89,2.89,0,0,1,596,119c-2.92-5.39-5.66-10.83-5.3-17.23.09-1.59-.42-2.81-2.14-3.14-1.18-.23-2.39-.13-3,1.07-.67,1.4-1.09,3.33.32,4.16,4.07,2.39,4.42,6.56,5.56,10.37a46.23,46.23,0,0,0,2.74,8c1.1,2.15,2.6,3,5.06,2.26,3.15-1,6.38-1.68,9.58-2.49,4.07-1,4-1,4.08,3.14,0,3.62-.65,7.3,1.59,10.69,1,1.45-.62,1.54-1.65,1.66a140.57,140.57,0,0,1-15.53.61c-3.73,0-4,.34-4.12,4C593.23,143.45,593.26,144.77,593.26,146.09Zm48.37-67.4c.18,4-2.1,6.37-4.94,8.45-1.4,1-1.28,2.17,0,3.25a15.85,15.85,0,0,1,3.8,4.52c5.29,9.55,7.44,19.65,5.1,30.47a10.26,10.26,0,0,0,.51,6.58A10.73,10.73,0,0,1,646,141c-2.92,6.16-7.5,10.32-14.45,11.34-3.16.46-6.35.71-9.54,1-3.84.39-7.68.78-11.52,1.09a2.35,2.35,0,0,0-2.34,2.63c0,1.56,1.44,1.19,2.39,1.22a51.89,51.89,0,0,0,8.16-.5C656.38,153,678,109.51,659,76.66c-.59-1-1.28-2-2-3.12a2.51,2.51,0,0,0,0,2.27,61.74,61.74,0,0,1,1.24,17.7c-.29,5.67-4.78,9.13-10,7.86-4-1-5.88-4.28-5.19-9.29C643.58,87.57,643.7,83.12,641.63,78.68ZM615,92.27c-4.13.55-7.55,1.21-11,.65-1.1-.18-2,.5-1.58,1.68.91,2.6-.53,3.8-2.48,4.94-3.83,2.23-4.1,3-2.8,7.3.47,1.53.91,3.07,1.46,4.57s1.16,3,3.34,2.72c4.2-.48,6-1.47,6.3-4C609,103.94,610.6,98,615,92.27Zm-26.76-.09a12.89,12.89,0,0,1-.71-7.26c.29-1.57,1-3.48-.7-4.33-1.37-.68-2.31,1.19-3.46,1.88-.16.1-.28.26-.43.36-1.23.8-1.25,1.59-.26,2.71C584.61,87.69,586.4,90,588.24,92.18Zm4.94-5.6a2.9,2.9,0,0,0,2.76,3.24c.85,0,4.62-3,4.25-3.41-1.14-1.26-1.54-3.52-3.68-3.51S593.18,84.34,593.18,86.59Z"/><path class="cls-3" d="M1634.93,159.83c-7.4-1.52-14.67-3.39-21.31-7.16-18.33-10.39-28.86-26-31.39-46.93a60.7,60.7,0,0,1,120.06-17.41c6.2,33.54-16,64.9-49.91,71-.73.13-1.45.36-2.17.54Zm7.9-115.36a61.31,61.31,0,0,0-9,.55c-26.94,4.14-47.45,29-46.27,56.16,0,.89-.33,2.17.8,2.46s1.5-1,2.08-1.65c3.63-4.34,7.14-8.78,11.18-12.75a17.85,17.85,0,0,1,20.13-3.08c2.5,1.3,4.82,3,7.24,4.4.75.45,1.51,1.56,2.45.67s2.14-1.62,1.95-3.22a111.4,111.4,0,0,1-.79-14.59,7.13,7.13,0,0,0-.56-3.29c-2-4.29-1.23-8.6.93-12.42,2.83-5,13.68-9.42,19.26-7.89,7.75,2.13,12.26,7.69,14.35,15.26,1.87,6.74,1.21,13.46-.82,20.05a6.28,6.28,0,0,0,.36,4.84c1.75,3.86,3.27,7.83,4.92,11.73,1.37,3.23.9,6.22-1.64,8.54-1.73,1.58-.9,2.17.46,3.1,5.74,4,11.44,8,17.17,12,2.87,2,3.19,1.93,4.73-1.31a56.17,56.17,0,0,0,5.46-30.45A54.8,54.8,0,0,0,1642.83,44.47ZM1647.27,154c-2.22-2.28-2.22-2.28-6.27-1.66-3.2.49-5.77-.83-6.66-3.43a4.74,4.74,0,0,1,2.78-6.27c1.77-.78,2.44-1.79,2.25-3.67-.22-2.13-2-1.81-3.21-2-6.33-.93-12.68-1.75-19-2.54-1.79-.22-2.81-.84-2.51-2.86,1.06-7.07,2.13-14.15,3.08-21.24.27-2,1.19-2.84,3.17-2.53a3.62,3.62,0,0,0,3.22-1.11c2.91-2.52,2.63-6.22,3.28-9.3.44-2.08-3.27-2.87-5-4.33a12.79,12.79,0,0,0-1.92-1.2c-5.45-3.07-11.38-2.32-15.63,2.36-4.68,5.16-9,10.62-13.65,15.84a5.19,5.19,0,0,0-1.12,5.64,54.87,54.87,0,0,0,17.28,25.7C1618.71,151,1632,155.14,1647.27,154Zm3.22-6a5.6,5.6,0,0,0,1.31-4.31q0-6.64,0-13.29c0-4,0-4,3.82-4a6.94,6.94,0,0,1,.85,0c2.61.32,3.62-.8,3.31-3.41a52.63,52.63,0,0,0-2.85-12.92c-.76-2-.8-4,1-5.44s3.35-.31,4.72,1c.75.73,1.57,1.12,2.49.35a2,2,0,0,0,.37-2.57c-1-2.53-2.1-5-3-7.61-1.52-4.11-3.36-7.71-8.49-8.19-2.11-.19-2.82-1.92-2.71-4s.92-3.3,3.11-3.66c2.66-.43,5.06-1.82,5.69-4.47a18.07,18.07,0,0,0-.8-10.83c-.38-1-1-1.42-1.93-.78-4.43,3-9.69,4.12-14.35,6.61-2.35,1.25-2.13,2.49-1.13,4.24s2.79,2.77,4.24,4.09c2.16,2,2,6.88-.36,7.88-6,2.55-9.43,7.55-12.56,12.87a9.47,9.47,0,0,0-.79,1.81c-.24.73-.37,1.56.4,2a1.74,1.74,0,0,0,2.31-.36,8.55,8.55,0,0,0,1-1.36c.93-1.45,2.12-2.54,4-2a3.21,3.21,0,0,1,2.25,3.81c-.86,4.94.67,9.84,0,14.75-.18,1.4-.37,2.8-.49,4.21-.09,1,.06,2,1.32,2.08,2.3.06,2.1,1.54,2.08,3.13-.06,4.62,0,9.23,0,13.85,0,1.2-.12,2.68,1.64,2.77C1649.06,144.45,1650.3,145.51,1650.49,148Zm4.32,4.87c12.94-3,22.61-9.66,30.55-19,1.18-1.4.67-2.26-.66-3.17-4.43-3-8.81-6.11-13.22-9.17-2-1.37-4-2.72-6.63-4.52a44.4,44.4,0,0,1,.73,10.2c-.17,3.33-1.62,5-4.83,5-2.55,0-3.14,1-3.16,3.37C1657.55,141.19,1658.57,147,1654.81,152.87Zm-33.69-25.69c-.32,1.7.65,2,1.77,2.12,3.16.43,6.34.78,9.47,1.36,2,.37,2.79-.43,3-2.27.3-2.89.53-5.8,1-8.66.33-2,0-3.31-2.25-3.66-1.81-.28-2.72-1.15-1.95-3.1.54-1.36.59-2.57-1.19-3.12s-2.64.42-2.95,2a2.47,2.47,0,0,1-3,2.24,2,2,0,0,0-2.34,1.9C1622.14,119.79,1621.62,123.6,1621.11,127.18Z"/><path class="cls-3" d="M1217.75,81.12c1.3-5.49,2.38-11,4.82-16.2,9.76-20.71,25.9-33,48.61-35.9,32.27-4.16,63.85,19.05,67.58,54.72,3.41,32.59-21.87,62.84-54.57,66A61.12,61.12,0,0,1,1218.3,99.7c-.13-.73-.37-1.45-.55-2.17Q1217.75,89.33,1217.75,81.12Zm92.55,24.36c5.66,0,11.32-.15,17,.06,2.89.11,4-1.07,4.53-3.72a60.74,60.74,0,0,0,.68-21.34c-3.89-25.49-26.75-45.74-52.53-46.16-18.05-.29-33.15,6.42-44.52,20.58s-14.51,30.49-10.44,48.19c.36,1.56.81,2.83,2.85,2.82,9.9-.06,19.79,0,29.69,0,1.42,0,2.42-.46,2.48-2,.09-2-1.38-1.2-2.38-1.26a7.76,7.76,0,0,1-7-4.47,7,7,0,0,1,1.06-7.92c1-1.23,2.18-2.35,3.25-3.53a97.78,97.78,0,0,0,9.16-11.1c.63-.94,1.27-1.89.18-3-2.12-2.21-2.71-5.09-3.42-7.94-2.34-9.33,4.82-14.81,12.07-15.27,3.56-.22,6.8,1.35,10.27,1.71,2.51.26,4.77,3.36,4.07,5.78-.63,2.18-.33,4.28-.35,6.42,0,3.33-.77,6.36-3.39,8.65-.7.61-1.21,1.24-.53,2.16,1.77,2.41,2.62,5.38,5.05,7.41a84.59,84.59,0,0,1,6.2,6.19c4.49,4.61,3.48,10.13-2.48,12.65a2.9,2.9,0,0,0-2,3.5c.22,2,1.76,1.66,3,1.66C1298.61,105.5,1304.45,105.48,1310.3,105.48Zm-28.17-16.74c2.11,2,3.64,3.51,5.23,5,.88.81,1.84,2,3.13.74s.17-2.17-.65-3.08l-.2-.2c-4.95-4.64-9.55-9.53-12.84-15.57a11.74,11.74,0,0,1-1.18-5.69c0-1.66,1.89-1.14,2.89-1.69a4.63,4.63,0,0,0,1.88-1.65c1.75-2.92.58-5.32-2.73-5.8-1.86-.27-3.68-.79-5.51-1.22a2.85,2.85,0,0,0-2.44.1c-3.12,2-3.52,6.95-.76,9.32,3.14,2.7,3.29,3.53,1.36,7.29a28.42,28.42,0,0,1-3.86,5.89c-3.17,3.6-6.3,7.26-9.45,10.88-.83.95-1.85,2-.56,3.13s2.16-.25,3-1,1.3-1.62,2-2.37c1.19-1.28,2.52-2.47,4.42-1.59s2,2.79,1.63,4.64c-.58,3.15-1.26,6.28-1.8,9.43-.79,4.59.06,6.38,4.2,8.34,1.71.81,1.69,1.71.93,3.09-1.64,3-3.24,6-4.89,8.92-1.93,3.46-3.92,6.87-5.82,10.34-.6,1.09-.6,2.32.65,3s1.79-.57,2.28-1.44c3.32-5.81,6.61-11.63,9.93-17.44.45-.79.64-2.12,1.67-2.08s1.1,1.4,1.42,2.24a170.59,170.59,0,0,0,8.26,19.2c.55,1,1.07,2.62,2.62,1.88s.87-2.24.33-3.46c-.26-.6-.57-1.19-.87-1.78a190.85,190.85,0,0,1-8.14-19.56c-.63-1.65-.67-2.94,1.43-3.41a4.5,4.5,0,0,0,3.12-3c2.06-4.6,1.12-9.23.36-13.87C1282.77,94,1281.94,91.82,1282.13,88.74Zm26.15,22.9c-4.33,0-8.67.1-13,0-3.83-.12-7.36-.33-9.29,4.21-.6,1.42-1,2.32-.47,3.74a157.24,157.24,0,0,0,6.79,15.51c.73,1.43,1.58,2.88,1.41,4.52-.25,2.33.8,2.24,2.46,1.65,13.94-5,24.19-14.21,31.16-27.2,1-1.92.47-2.45-1.55-2.43C1320,111.68,1314.11,111.64,1308.28,111.63Zm-64.1,0c-4.42,0-8.85.08-13.27,0-2.5-.06-2.69.77-1.64,2.79a55.51,55.51,0,0,0,21.05,22.27c2.83,1.71,2.82,1.68,3.8-1.48a13.42,13.42,0,0,1,1.16-2.57c2.36-4.18,4.76-8.33,7.12-12.51,1.9-3.37-1-8.4-5-8.45C1253,111.59,1248.6,111.64,1244.18,111.64Zm31.89,32.69c4.28.1,4.28,0,2.76-3.1-1.43-2.95-2.8-5.93-4.14-8.92-.7-1.56-1.3-1.64-2.14-.09-1.61,3-3.23,5.92-5,8.79-1.09,1.78-.39,2.24,1.32,2.42C1271.56,143.72,1274.25,144.1,1276.07,144.33Z"/><path class="cls-3" d="M323.24,103.59c-.08,16.74-6.1,31-17.74,43-5.2,5.35-10.88,11-17.72,13.11-7.46,2.32-15.27,4.8-23.43,4.71a68.21,68.21,0,0,1-23.79-4.25,60.79,60.79,0,0,1-20.34-13,58.81,58.81,0,0,1-13.61-20,59.75,59.75,0,0,1-4.73-23.67A60.74,60.74,0,0,1,263,42.74C296.15,42.77,323.2,70.11,323.24,103.59Zm-92.49,44.75c0-3,0-5.2,0-7.44,0-3.1-.46-5.88-4.41-6.25a4.68,4.68,0,0,1-1.78-.84c-2.66-1.61-3.92-4-3.17-6.31a5.34,5.34,0,0,1,5.85-3.91,3.74,3.74,0,0,0,4-2.44c1.13-2.59,2.19-5.21,3.34-7.79.52-1.18-.1-1.61-1-2.21-6-4.12-5.92-10.75.34-14.6,4.65-2.86,9.44-5.5,14.19-8.2a19.28,19.28,0,0,0,5.62-4.2c1.34-1.61,1.85-3.06.16-4.89a14.55,14.55,0,0,1-2.78-5.83c-1.15-3.77-.22-7.69-.89-11.51a3.36,3.36,0,0,1,1.95-3.24c4-2.24,7.8-5,12.77-4.7a5.73,5.73,0,0,0,2.47-.44,5.12,5.12,0,0,1,5.07.71,26.11,26.11,0,0,1,4.75,4c3.69,3.92,4.4,8,2.2,12.93-.8,1.81-1.58,3.63-2.48,5.38a1.84,1.84,0,0,0,.25,2.52c2.9,2.77,3.45,6.34,3.45,10.12,0,5.94.06,11.87,0,17.81a10.46,10.46,0,0,0,1.26,5.43,73,73,0,0,0,8.85,12.74c3.34,3.69,6.83,7.28,9.29,11.71.76,1.38.47,4,2.34,3.91,1.24-.08,2.45-2.15,3.49-3.47,17.52-22.28,15-55.45-6.89-74.86-21.6-19.19-55.13-18.39-75.38,2.14A55,55,0,0,0,214,129.35,55.71,55.71,0,0,0,230.75,148.34ZM246.18,142c-.06,4,.25,7.89.52,11.84a2.91,2.91,0,0,0,2.61,3.06,64.19,64.19,0,0,0,9.48,1.42,53.69,53.69,0,0,0,26.63-4.84c1.36-.61,1.89-1.36,1.18-2.84a6.76,6.76,0,0,1-.42-5.48,2.73,2.73,0,0,0-.83-3,112.25,112.25,0,0,1-14-18c-.94-1.56-1.67-.92-2.59,0-3.74,3.64-8.24,4.38-13.08,3a38.77,38.77,0,0,1-7.6-3c-2.49-1.31-3.54-.35-4.44,1.83-.45,1.09-.54,1.86.37,2.76,1.72,1.7,2.13,3.94,2.19,6.23S246.17,139.7,246.18,142Zm10.55-73c-.61,1.16-.18,2.12.1,3.07a12.54,12.54,0,0,0,6.22,7.71c1.76,1,1.87,1.92.06,3a9.21,9.21,0,0,0-3.75,3.36c-1.68,3.18-4.47,5-7.5,6.62-5.17,2.73-10.25,5.6-15.18,8.76-1.27.82-2.34,1.89-1.26,3.47s2.12.25,3.12-.29c4.82-2.57,9.65-5.13,14.44-7.74,1.83-1,2.41-.33,2.26,1.5-.23,2.88.56,5.6,1.17,8.36a3.31,3.31,0,0,0,2.13,2.77,19.94,19.94,0,0,0,8.3,1.38c5.44-.55,8.11-3.42,8.15-8.82q.05-6.93-.12-13.85c-.07-2.85-.58-5.43-4.09-6.19a2.88,2.88,0,0,1-2.38-3.63c.78-2.46-.65-2.33-2.1-2.24-3,.19-5.51-.39-6.83-3.63C258.95,71.34,257.72,70.31,256.73,69.05Zm14.37,46.82a4.4,4.4,0,0,1,2.79,1.75,131.91,131.91,0,0,0,16,21c2.11,2.26,3.71,4.8,1.92,8.12a1.81,1.81,0,0,0,.92,2.41c1.14.67,1.71-.26,2.23-1a6.86,6.86,0,0,0,1-5.89,18.51,18.51,0,0,0-4.1-7c-4.8-5.65-10-11-13.63-17.56C276,113.6,275.92,113.66,271.1,115.88Zm-41.45,13.64a5,5,0,0,0,4.81-1.15,17.87,17.87,0,0,0,5.84-9.44c1-3.79.93-3.85,4.6-2.34,3.83,1.57,7.57,3.37,11.45,4.79s7.52.31,9.55-2.68c.36-.53.87-1.06.58-1.78-.21-.54-8.24-1.55-8.62-1.1a.9.9,0,0,0-.2.52c-.07,2.44-1.47,1.31-2.45.84-3.06-1.44-6-3.08-9.13-4.42s-4.42-.75-5.87,2.27c-1,2.12-1.88,4.31-2.75,6.49C236,125.06,234.09,128.05,229.65,129.52Zm10.86,10.72c0-1.6,0-3.19,0-4.79,0-.83.09-1.84-.84-2.22s-1.76.36-2.5.93a2.86,2.86,0,0,0-1.12,2.47c.15,4.78.21,9.56.54,14.33.14,1.94,2.18,2.43,3.61,2.47s.75-1.62.78-2.51C241.08,147.35,240.17,143.82,240.51,140.24Z"/><text class="cls-4" transform="translate(135.43 226.13)">Male,40 years old,Waiting for <tspan x="0" y="24.2" xml:space="preserve">school children and work out  </tspan><tspan x="0" y="48.39">near school gate,</tspan><tspan x="0" y="72.59">at 17:30</tspan><tspan x="0" y="120.98">subway</tspan><tspan class="cls-5" x="69.46" y="120.98">: everyday</tspan><tspan class="cls-5"><tspan x="0" y="145.18">-bring some newspaper.</tspan><tspan x="0" y="169.38">-chat with friends (more re</tspan><tspan x="236.42" y="169.38">-</tspan><tspan x="0" y="193.57">laxing.</tspan></tspan><tspan x="0" y="241.96">walk</tspan><tspan class="cls-5" x="40.33" y="241.96" xml:space="preserve"> for 10 min directly to </tspan><tspan class="cls-5"><tspan x="0" y="266.16">home.</tspan><tspan x="0" y="290.36">-willing to walk if time permit</tspan><tspan x="253.17" y="290.36">-</tspan><tspan x="0" y="314.55">ted</tspan><tspan x="0" y="338.75">.</tspan></tspan><tspan class="cls-6"><tspan x="0" y="387.14">“My children don’t like to </tspan><tspan x="0" y="411.34">walk especially when </tspan><tspan x="0" y="435.54">weather is cold.”</tspan></tspan></text><text class="cls-4" transform="translate(481.65 226.13)">Female, about 25 years old, <tspan x="0" y="24.2">writting e-mail with mobile</tspan><tspan x="233.01" y="24.2">-</tspan><tspan x="0" y="48.39">phone inside subway station,</tspan><tspan x="0" y="72.59">at 18:00</tspan><tspan x="0" y="120.98">SUBWAY</tspan><tspan class="cls-5" x="84.02" y="120.98">: every day</tspan><tspan class="cls-5"><tspan x="0" y="145.18">-always commute alone</tspan><tspan x="0" y="169.38">-use mobile phone for work </tspan><tspan x="0" y="193.57">or entertainment.</tspan></tspan><tspan x="0" y="241.96">WALK</tspan><tspan class="cls-5" x="56.03" y="241.96" xml:space="preserve"> for 10 min directly to </tspan><tspan class="cls-5"><tspan x="0" y="266.16">home.</tspan><tspan x="0" y="290.36">-walk is priority if weather is </tspan><tspan x="0" y="314.55">good (convenient&amp;healthy</tspan></tspan><tspan class="cls-6"><tspan x="0" y="387.14">“I never go to the park </tspan><tspan x="0" y="411.34">spend most time in home </tspan><tspan x="0" y="435.54">alone, Sometimes boring”</tspan></tspan></text><text class="cls-4" transform="translate(820.55 226.13)">Female, about 20 years old, <tspan x="0" y="24.2">having dinner in Family </tspan><tspan x="0" y="48.39">Mart,</tspan><tspan x="0" y="72.59">at 18:30</tspan><tspan x="0" y="120.98">SUBWAY</tspan><tspan class="cls-5" x="84.02" y="120.98">: once a week </tspan><tspan x="0" y="169.38">WALK</tspan><tspan class="cls-5" x="56.03" y="169.38" xml:space="preserve"> for 20 min  to dor</tspan><tspan class="cls-5" x="215.17" y="169.38">-</tspan><tspan class="cls-5"><tspan x="0" y="193.57">matry.</tspan><tspan x="0" y="217.77" xml:space="preserve">-have dinner/ drink  or go to </tspan><tspan x="0" y="241.96">shops on the way.</tspan><tspan x="0" y="266.16">-walk alone so quickly.</tspan><tspan x="0" y="290.36">-walk with friends more re</tspan><tspan x="230.79" y="290.36">-</tspan><tspan x="0" y="314.55">laxed.</tspan></tspan><tspan class="cls-6"><tspan x="0" y="387.14">“I want to spend more </tspan><tspan x="0" y="411.34">time outside when weath</tspan><tspan x="238.64" y="411.34">-</tspan><tspan x="0" y="435.54">er is good but no appro</tspan><tspan x="225.15" y="435.54">-</tspan><tspan x="0" y="459.73">priate place.”</tspan></tspan></text><text class="cls-4" transform="translate(1151.55 222.89)">Male, 43 years old, hurrying <tspan x="0" y="24.2">home from subway station.</tspan><tspan x="0" y="48.39">at 19:00</tspan><tspan x="0" y="96.79">SUBWAT</tspan><tspan class="cls-5" x="82.91" y="96.79">: always</tspan><tspan class="cls-5"><tspan x="0" y="120.98">-subway station near home </tspan><tspan x="0" y="145.18">so it’s convenient.</tspan><tspan x="0" y="169.38">-subway have a accurate </tspan><tspan x="0" y="193.57">schedule.</tspan></tspan><tspan x="0" y="241.96">WALK</tspan><tspan class="cls-5" x="56.04" y="241.96" xml:space="preserve"> for 5-10 min directly </tspan><tspan class="cls-5"><tspan x="0" y="266.16">to home.</tspan><tspan x="0" y="290.36">-family member buy vegeta</tspan><tspan x="246.48" y="290.36">-</tspan><tspan x="0" y="314.55">bles for meal in the after</tspan><tspan x="217.4" y="314.55">-</tspan><tspan x="0" y="338.75">noon.</tspan></tspan><tspan class="cls-6"><tspan x="0" y="387.14">“Commuting is so tiring, </tspan><tspan x="0" y="411.34">so after finishing dinner </tspan><tspan x="0" y="435.54">we go to bed earl</tspan><tspan class="cls-7" x="164.7" y="435.54">y</tspan><tspan x="174.42" y="435.54">.”</tspan></tspan></text><text class="cls-4" transform="translate(1491.49 221.43)">Female, 42 years old, <tspan x="0" y="24.2">going out from subway exit.</tspan><tspan x="0" y="48.39">at 19:20</tspan><tspan x="0" y="96.79">SUBWAT</tspan><tspan class="cls-5" x="82.91" y="96.79">: not often</tspan><tspan class="cls-5"><tspan x="0" y="120.98">-work place near home, </tspan><tspan x="0" y="145.18">sometimes take bus.</tspan></tspan><tspan x="0" y="193.57">WALK</tspan><tspan class="cls-5" x="56.04" y="193.57" xml:space="preserve"> directly to home.</tspan><tspan class="cls-5"><tspan x="0" y="217.77">-or buy some condiment on </tspan><tspan x="0" y="241.96">the way home</tspan></tspan><tspan class="cls-6"><tspan x="0" y="387.14">“My husband and son both </tspan><tspan x="0" y="411.34">have dinner near their work </tspan><tspan x="0" y="435.54">place or subway station in</tspan><tspan x="252.1" y="435.54">-</tspan><tspan x="0" y="459.73">dividually”</tspan></tspan></text></svg>