<svg id="Layer_1" data-name="Layer 1" xmlns="http://www.w3.org/2000/svg" xmlns:xlink="http://www.w3.org/1999/xlink" viewBox="0 0 1920 946"><defs><style>.cls-1{fill:none;}.cls-2{clip-path:url(#clip-path);}.cls-11,.cls-3,.cls-7{fill:#f09400;}.cls-4{clip-path:url(#clip-path-2);}.cls-5{clip-path:url(#clip-path-3);}.cls-6{clip-path:url(#clip-path-4);}.cls-7{opacity:0.2;}.cls-8{font-size:28.3px;}.cls-12,.cls-15,.cls-19,.cls-8,.cls-9{fill:#fff;}.cls-12,.cls-19,.cls-8,.cls-9{font-family:Arial-BoldMT, Arial;font-weight:700;}.cls-9{font-size:27.03px;}.cls-10{clip-path:url(#clip-path-5);}.cls-11{opacity:0.3;}.cls-12{font-size:25.77px;}.cls-13{letter-spacing:-0.06em;}.cls-14{font-size:22.94px;}.cls-14,.cls-16,.cls-17,.cls-18{fill:#231815;font-family:ArialMT, Arial;}.cls-16{font-size:24.99px;}.cls-17{font-size:24.63px;}.cls-18{font-size:23.13px;}.cls-19{font-size:29.17px;}</style><clipPath id="clip-path"><rect class="cls-1" x="4" y="1005" width="1911" height="1080.12"/></clipPath><clipPath id="clip-path-2"><circle class="cls-1" cx="1246.79" cy="187.97" r="100.3"/></clipPath><clipPath id="clip-path-3"><circle class="cls-1" cx="1666.97" cy="195.88" r="99.03"/></clipPath><clipPath id="clip-path-4"><circle class="cls-1" cx="296.1" cy="175.25" r="107.03"/></clipPath><clipPath id="clip-path-5"><circle class="cls-1" cx="770.11" cy="184.34" r="136.45"/></clipPath></defs><title>GAS-img</title><g class="cls-2"><image width="1920" height="1306" transform="translate(-14.49 828.79) scale(1.02)" xlink:href="../Links/Screen Shot 2019-10-10 at 4.14.34 AM.png"/></g><rect class="cls-3" x="293.88" y="279.97" width="5.49" height="42.35"/><rect class="cls-3" x="768.25" y="319.01" width="5.49" height="83.3"/><rect class="cls-3" x="1240.59" y="569.38" width="5.49" height="94.86"/><rect class="cls-3" x="1244.05" y="286.58" width="5.49" height="107.27"/><rect class="cls-3" x="1664.83" y="287.51" width="5.49" height="91.21"/><g class="cls-4"><image width="1280" height="720" transform="translate(1048.63 77.9) scale(0.29)" xlink:href="../Links/WechatIMG20.jpeg"/></g><g class="cls-5"><image width="720" height="1280" transform="translate(1567.95 91.44) scale(0.28)" xlink:href="../Links/WechatIMG19.jpeg"/></g><g class="cls-6"><image width="720" height="1280" transform="translate(185.36 48) scale(0.31)" xlink:href="../Links/WechatIMG18.jpeg"/></g><circle class="cls-7" cx="1666.97" cy="195.88" r="99.03"/><circle class="cls-7" cx="296.53" cy="175.25" r="107.03"/><text class="cls-8" transform="translate(261.94 175.24)">Busy<tspan x="-12.6" y="33.96">/Stress</tspan></text><text class="cls-9" transform="translate(1578.84 194.65)">monotonous<tspan x="58.53" y="32.43">city</tspan></text><g class="cls-10"><image width="960" height="639" transform="translate(496.88 37.5) scale(0.44)" xlink:href="../Links/2486549944278873205.jpg"/></g><circle class="cls-11" cx="770.85" cy="184.34" r="136.45"/><circle class="cls-7" cx="1246.79" cy="187.97" r="100.3"/><text class="cls-12" transform="translate(1202.38 155.25)"><tspan class="cls-13">V</tspan><tspan x="15.77" y="0">ehicle</tspan><tspan x="36.89" y="30.92">&gt;</tspan><tspan x="-46.51" y="61.85">human&amp;nature</tspan></text><text class="cls-14" transform="translate(257.12 399.45)">Chaotic<tspan x="19.14" y="27.53">City</tspan></text><path class="cls-3" d="M296,475.42A77.94,77.94,0,1,1,374,397.48,78,78,0,0,1,296,475.42Zm0-149.85a71.91,71.91,0,1,0,71.91,71.91A72,72,0,0,0,296,325.57Z"/><circle class="cls-3" cx="296.01" cy="359.91" r="12.8"/><rect class="cls-15" x="286.92" y="357.16" width="18.17" height="5.49"/><rect class="cls-15" x="293.27" y="350.38" width="5.49" height="19.05"/><text class="cls-16" transform="translate(737.08 475.72)">Local<tspan x="-33.31" y="29.99">Community</tspan></text><path class="cls-3" d="M770,556.75a79.4,79.4,0,1,1,79.4-79.4A79.49,79.49,0,0,1,770,556.75Zm0-153.31a73.91,73.91,0,1,0,73.91,73.91A74,74,0,0,0,770,403.43Z"/><circle class="cls-3" cx="769.96" cy="436.83" r="13.94"/><rect class="cls-15" x="759.75" y="434.08" width="19.8" height="5.49"/><text class="cls-17" transform="translate(1219.06 735.94)">Feel<tspan x="-1.38" y="29.56">Safe</tspan></text><path class="cls-3" d="M1243,817a79.7,79.7,0,1,1,79.7-79.7A79.79,79.79,0,0,1,1243,817Zm0-153a73.34,73.34,0,1,0,73.34,73.34A73.42,73.42,0,0,0,1243,664Z"/><circle class="cls-3" cx="1243.03" cy="698.89" r="13.74"/><rect class="cls-15" x="1232.96" y="696.14" width="19.51" height="5.49"/><text class="cls-14" transform="translate(262.21 605.28)">Selfish</text><path class="cls-3" d="M296.63,666.19a74.93,74.93,0,1,1,74.93-74.93A75,75,0,0,1,296.63,666.19Zm0-143.62a68.69,68.69,0,1,0,68.7,68.69A68.77,68.77,0,0,0,296.63,522.56Z"/><circle class="cls-3" cx="297.9" cy="559.83" r="12.8"/><rect class="cls-15" x="288.81" y="557.08" width="18.18" height="5.49"/><rect class="cls-15" x="295.16" y="550.3" width="5.49" height="19.05"/><text class="cls-14" transform="translate(259.02 801.01)">Anxiety</text><path class="cls-3" d="M296.63,853.07a72.69,72.69,0,1,1,72.7-72.7A72.78,72.78,0,0,1,296.63,853.07Zm0-139.44a66.74,66.74,0,1,0,66.74,66.74A66.82,66.82,0,0,0,296.63,713.63Z"/><circle class="cls-3" cx="264.03" cy="758.77" r="12.8"/><rect class="cls-15" x="254.95" y="756.03" width="18.17" height="5.49"/><rect class="cls-15" x="261.29" y="749.25" width="5.49" height="19.05"/><circle class="cls-3" cx="296.63" cy="758.77" r="12.8"/><rect class="cls-15" x="287.54" y="756.03" width="18.17" height="5.49"/><rect class="cls-15" x="293.88" y="749.25" width="5.49" height="19.05"/><circle class="cls-3" cx="327.58" cy="758.77" r="12.8"/><rect class="cls-15" x="318.5" y="756.03" width="18.17" height="5.49"/><rect class="cls-15" x="324.84" y="749.25" width="5.49" height="19.05"/><text class="cls-16" transform="translate(711.63 764.01)">Belonging</text><path class="cls-3" d="M766.95,821a75,75,0,1,1,75-75A75.09,75.09,0,0,1,766.95,821Zm0-144.52A69.51,69.51,0,1,0,836.46,746,69.59,69.59,0,0,0,766.95,676.46Z"/><circle class="cls-3" cx="768.59" cy="714.33" r="13.94"/><rect class="cls-15" x="758.38" y="711.59" width="19.8" height="5.49"/><text class="cls-17" transform="translate(1207.73 481.67)">Natual<tspan x="-33.54" y="29.56">Environment</tspan></text><path class="cls-3" d="M1243.33,574.06a91.23,91.23,0,1,1,91.23-91.23A91.33,91.33,0,0,1,1243.33,574.06Zm0-176.44a85.22,85.22,0,1,0,85.22,85.22A85.31,85.31,0,0,0,1243.33,397.62Z"/><circle class="cls-3" cx="1226.9" cy="443.62" r="13.74"/><rect class="cls-15" x="1216.84" y="440.87" width="19.51" height="5.49"/><circle class="cls-3" cx="1260.54" cy="443.62" r="13.74"/><rect class="cls-15" x="1250.47" y="440.87" width="19.51" height="5.49"/><text class="cls-18" transform="translate(1595.41 490.12)">Entertainment</text><path class="cls-3" d="M1667.57,574.06a98.34,98.34,0,1,1,98.34-98.34A98.45,98.45,0,0,1,1667.57,574.06Zm0-189.79A91.45,91.45,0,1,0,1759,475.72,91.56,91.56,0,0,0,1667.57,384.27Z"/><circle class="cls-3" cx="1649.53" cy="445.5" r="12.91"/><rect class="cls-15" x="1640.08" y="442.76" width="18.33" height="5.49"/><circle class="cls-3" cx="1681.11" cy="445.5" r="12.91"/><rect class="cls-15" x="1671.66" y="442.76" width="18.33" height="5.49"/><path class="cls-3" d="M1667,852.37A88.36,88.36,0,1,1,1755.33,764,88.46,88.46,0,0,1,1667,852.37Zm0-170.53A82.17,82.17,0,1,0,1749.15,764,82.27,82.27,0,0,0,1667,681.84Z"/><text class="cls-18" transform="translate(1638.68 768.06)">Good<tspan x="-29.57" y="27.76">Experience</tspan></text><circle class="cls-3" cx="1634.18" cy="733.61" r="12.91"/><rect class="cls-15" x="1624.73" y="730.86" width="18.33" height="5.49"/><circle class="cls-3" cx="1667.26" cy="733.61" r="12.91"/><rect class="cls-15" x="1657.81" y="730.86" width="18.33" height="5.49"/><circle class="cls-3" cx="1698.5" cy="733.61" r="12.91"/><rect class="cls-15" x="1689.04" y="730.86" width="18.33" height="5.49"/><text class="cls-19" transform="translate(722.28 173.04)">City is <tspan x="-55.1" y="35">Ever Changing</tspan></text><rect class="cls-3" x="293.27" y="472.6" width="5.49" height="46.5"/><rect class="cls-3" x="293.88" y="662.84" width="5.49" height="50.73"/><rect class="cls-3" x="764.2" y="556.38" width="5.49" height="117.34"/><rect class="cls-3" x="1665.47" y="567.01" width="5.49" height="108.5"/><path class="cls-3" d="M393.85,548.9l-2.5-5.19,27.17-6.54,2.5,5.19Zm54.34-13.08-2.5-5.19,27.17-6.54,2.5,5.19Zm54.34-13.08-2.5-5.19L527.19,511l2.5,5.19Zm54.34-13.08-2.5-5.19,27.17-6.54,2.5,5.19Zm54.34-13.08-2.5-5.19,27.17-6.54,2.5,5.19Z"/><polygon class="cls-3" points="665.53 483.48 663.03 478.29 677.73 474.75 680.24 479.94 665.53 483.48"/><path class="cls-3" d="M646.33,706.79l-28.56-7.11,2.58-5.17,28.56,7.11Zm-57.11-14.22-28.56-7.11,2.58-5.17,28.56,7.11ZM532.1,678.35l-28.56-7.11,2.58-5.17,28.56,7.11ZM475,664.13,446.42,657l2.58-5.17L477.56,659Zm-57.12-14.22-28.56-7.11,2.58-5.17,28.56,7.11Z"/><polygon class="cls-3" points="689.54 717.55 674.89 713.9 677.47 708.73 692.12 712.38 689.54 717.55"/><path class="cls-3" d="M372.07,795.36l-.8-6.45,36.49-2.26.8,6.45Zm73-4.52-.8-6.45,36.49-2.26.8,6.45Zm73-4.52-.8-6.45,36.49-2.26.8,6.45Zm73-4.52-.8-6.45,36.49-2.26.8,6.45Zm73-4.52-.8-6.45,36.49-2.26.8,6.45Z"/><polygon class="cls-3" points="846.4 721.04 841.88 716.98 851.87 709.61 856.39 713.68 846.4 721.04"/><path class="cls-3" d="M875.9,699.29l-4.52-4.07,19.51-14.39,4.52,4.07Zm39-28.77-4.52-4.07,19.51-14.39,4.52,4.07Zm39-28.77-4.52-4.07,19.51-14.38,4.52,4.07ZM993,613l-4.52-4.07L1008,594.53l4.52,4.07Zm39-28.77-4.52-4.07L1047,565.76l4.52,4.07Zm39-28.77-4.52-4.07L1086,537l4.52,4.07Zm39-28.77-4.52-4.07L1125,508.22l4.52,4.07Z"/><polygon class="cls-3" points="1149.08 497.9 1144.55 493.84 1154.54 486.47 1159.06 490.54 1149.08 497.9"/><path class="cls-3" d="M1174.65,748.72H1174v-5.49h.68Zm-27.63,0h-27v-5.49h27Zm-53.9,0h-27v-5.49h27Zm-53.9,0h-27v-5.49h27Zm-53.9,0h-27v-5.49h27Zm-53.9,0h-27v-5.49h27Zm-53.9,0h-27v-5.49h27Z"/><path class="cls-3" d="M1174.65,699.47l-4.85-3.37,4.34-3.81,4.85,3.37Zm-24.38-16.93L1130.75,669l4.34-3.81,19.52,13.56Zm-39-27.12-19.52-13.56L1096,638l19.52,13.56Zm-39-27.12-19.52-13.56,4.34-3.81,19.52,13.56Zm-39-27.12-19.52-13.56,4.34-3.81,19.52,13.56Zm-39-27.12-19.53-13.56,4.34-3.81,19.53,13.56Zm-39-27.12-19.52-13.56,4.34-3.81,19.52,13.56Zm-39-27.12-19.53-13.56,4.34-3.81L920.33,516Zm-39-27.12-19.52-13.56,4.34-3.81,19.52,13.56Z"/><path class="cls-3" d="M1226.86,895.34c-7.89,0-15.91-.13-23.83-.37l.22-5.48c7.85.25,15.8.37,23.61.37h1.25l0,5.49Zm26.35-.39-.21-5.48c8.27-.25,16.63-.62,24.85-1.1l.42,5.48C1270,894.33,1261.54,894.7,1253.21,895ZM1178,893.78c-8.27-.53-16.68-1.2-25-2l.68-5.46c8.24.79,16.58,1.45,24.78,2ZM1303.27,892l-.63-5.46c8.22-.73,16.54-1.59,24.71-2.55l.83,5.44C1319.94,890.41,1311.56,891.27,1303.27,892Zm-175.22-3c-8.22-1-16.55-2.22-24.78-3.51l1.1-5.4c8.16,1.28,16.43,2.45,24.57,3.48ZM1353,886.11l-1-5.41c8.16-1.22,16.38-2.58,24.45-4l1.26,5.38C1369.53,883.51,1361.23,884.88,1353,886.11Zm-274.36-4.83c-8.12-1.52-16.35-3.18-24.46-4.94l1.5-5.33c8,1.75,16.21,3.4,24.27,4.9Zm323.51-4.09-1.48-5.33c8.06-1.72,16.15-3.59,24.06-5.56l1.7,5.28C1418.46,873.56,1410.29,875.45,1402.16,877.19Zm-372.24-6.48c-8-2-16.11-4.09-24.06-6.29l1.87-5.24c7.89,2.18,15.92,4.28,23.87,6.24Zm420.56-5.51-1.92-5.22c7.89-2.24,15.81-4.63,23.53-7.11l2.14,5.15C1466.43,860.52,1458.44,862.93,1450.47,865.19ZM982,857.5c-7.85-2.4-15.78-4.94-23.58-7.55l2.23-5.13c7.74,2.6,15.62,5.12,23.41,7.49ZM1497.64,850l-2.38-5.07c7.72-2.79,15.39-5.72,22.8-8.72l2.62,5C1513.2,844.26,1505.44,847.22,1497.64,850Zm-562.51-8.26c-7.73-2.82-15.48-5.78-23-8.77l2.57-5c7.5,3,15.19,5.9,22.86,8.71Zm608.15-10.23-2.87-4.88c7.58-3.44,14.91-7,21.78-10.5l3.15,4.74C1558.38,824.49,1551,828.07,1543.28,831.55Zm-653.9-7.92c-7.6-3.27-15.13-6.63-22.38-10l2.92-4.85c7.19,3.35,14.67,6.69,22.21,9.93Zm697.35-14.57-3.57-4.5c1.41-.86,2.22-1.38,2.41-1.5l1.9-.56v2.74l1.84,2.22C1589.07,807.6,1588.22,808.15,1586.72,809.07ZM845,802.94c-13.83-7-21.26-11.43-21.57-11.61l3.5-4.54c.07,0,7.58,4.49,21.19,11.4Z"/></svg>