<svg id="Layer_1" data-name="Layer 1" xmlns="http://www.w3.org/2000/svg" xmlns:xlink="http://www.w3.org/1999/xlink" viewBox="0 0 1920 1080"><defs><style>.cls-1,.cls-6{fill:none;}.cls-2,.cls-3,.cls-5{fill:#fff;}.cls-2{opacity:0.8;}.cls-3,.cls-6{stroke:#b08046;stroke-miterlimit:10;stroke-width:2px;stroke-dasharray:8 2;}.cls-4{clip-path:url(#clip-path);}.cls-7{font-size:32.08px;fill:#84ba43;font-family:Helvetica-Bold, Helvetica;font-weight:700;}</style><clipPath id="clip-path"><rect class="cls-1" x="639.95" y="91.02" width="229.09" height="321.37"/></clipPath></defs><title>GAS-img</title><image width="2732" height="1896" transform="translate(157) scale(0.57)" xlink:href="../Links/新文档 18_5.jpg"/><rect class="cls-2" y="1" width="1920" height="1080"/><rect class="cls-3" x="1016.15" y="100.21" width="360.38" height="360.38" rx="71.59" ry="71.59"/><rect class="cls-3" x="998.85" y="526.26" width="360.38" height="360.38" rx="71.59" ry="71.59"/><rect class="cls-3" x="561.58" y="633.62" width="360.38" height="360.38" rx="71.59" ry="71.59"/><rect class="cls-3" x="574.3" y="88.94" width="360.38" height="360.38" rx="71.59" ry="71.59"/><g class="cls-4"><image width="595" height="1099" transform="translate(639.95 -39.55) scale(0.42)" xlink:href="../Links/494425287745263212.jpg"/></g><rect class="cls-5" x="639.95" y="91.02" width="42.51" height="25.54"/><image width="1080" height="1140" transform="translate(597.38 661.19) scale(0.24)" xlink:href="../Links/349648108238672563.jpg"/><image width="1070" height="939" transform="translate(1037.09 575.05) scale(0.27)" xlink:href="../Links/71632168605302314.jpg"/><image width="1163" height="1080" transform="translate(1319.66 145.04) rotate(90) scale(0.22)" xlink:href="../Links/378938463387123437.jpg"/><path class="cls-6" d="M879.26,271.54s-2.1-49.09,58.91-46.36c0,0,84.16-6.82,119.93,31.36"/><path class="cls-6" d="M1053.85,683s-51.4-52.51-71.06,0-37.8,62.36-59,52.51-28.73,8.06-28.73,8.06"/><path class="cls-6" d="M1260.28,470s39.39,44.57-9.85,55.93-60.72,49.1-60.72,49.1"/><polyline class="cls-3" points="1037.95 258.94 1062.77 257.11 1058.26 237.3"/><polyline class="cls-3" points="1175.47 571.42 1188.29 592.76 1203.94 579.81"/><polyline class="cls-6" points="892.7 718.78 895.1 743.55 914.8 738.59"/><text class="cls-7" transform="translate(648.47 432.57)">PROMOTING</text><text class="cls-7" transform="translate(1064.3 433.54)">PARTICIPATING</text><text class="cls-7" transform="translate(1092.65 863.74)">ENGAGING</text><text class="cls-7" transform="translate(635.81 974.55)">BELONGING</text></svg>