<svg xmlns="http://www.w3.org/2000/svg" xmlns:xlink="http://www.w3.org/1999/xlink" viewBox="0 0 1920 851"><defs><style>.cls-1,.cls-12,.cls-14,.cls-30,.cls-6,.cls-7,.cls-74,.cls-8,.cls-9{fill:none;}.cls-2{isolation:isolate;}.cls-3,.cls-85{opacity:0.2;}.cls-4{clip-path:url(#clip-path);}.cls-5{clip-path:url(#clip-path-2);}.cls-6{stroke:#0f8943;stroke-width:4.15px;}.cls-12,.cls-14,.cls-30,.cls-31,.cls-32,.cls-33,.cls-34,.cls-6,.cls-7,.cls-74,.cls-8,.cls-9{stroke-miterlimit:10;}.cls-7{stroke:#63bbc3;}.cls-12,.cls-7,.cls-8{stroke-width:4.12px;}.cls-8,.cls-9{stroke:#84ba43;}.cls-9{stroke-width:4.57px;}.cls-10{fill:#c9c9c9;}.cls-11,.cls-16{fill:#fff;}.cls-12{stroke:#c9c9c9;}.cls-13{fill:#d68219;}.cls-14,.cls-30,.cls-31,.cls-32,.cls-33,.cls-34{stroke:#fff;}.cls-14{stroke-width:1.54px;}.cls-15{fill:#b4282c;}.cls-16{font-size:13.68px;font-family:Avenir-Roman, Avenir;}.cls-17{letter-spacing:-0.02em;}.cls-18{letter-spacing:-0.07em;}.cls-19{letter-spacing:-0.02em;}.cls-20{letter-spacing:-0.02em;}.cls-21{letter-spacing:-0.09em;}.cls-22{fill:#a9a69b;}.cls-23,.cls-24,.cls-25{font-size:30.97px;}.cls-23,.cls-26{fill:#c7613c;}.cls-23,.cls-24,.cls-25,.cls-75{font-family:Helvetica-Bold, Helvetica;font-weight:700;}.cls-24,.cls-28,.cls-31{fill:#1ea839;}.cls-25,.cls-29,.cls-33,.cls-73{fill:#84ba43;}.cls-27,.cls-34{fill:#f09400;}.cls-30,.cls-31,.cls-32,.cls-33,.cls-34{stroke-width:5px;}.cls-32{fill:#e75513;}.cls-35{fill:#d1be8a;}.cls-36{fill:#ececed;}.cls-37{fill:#bbab7c;}.cls-38{fill:#d9dada;}.cls-39{fill:#d6c48d;}.cls-40{fill:#f6e59d;}.cls-41{fill:#c6c7c8;}.cls-42{fill:#9c9c9d;}.cls-43{fill:#6fc3cc;}.cls-44{fill:#8a5424;}.cls-45,.cls-46{fill:#6a3d1d;}.cls-46{fill-rule:evenodd;}.cls-47{fill:#8ecbce;}.cls-48{fill:#7cb3b3;}.cls-49{fill:#6a3906;}.cls-50{fill:#86c37a;}.cls-51{fill:#619156;}.cls-52{fill:#93cccd;}.cls-53{fill:#231815;}.cls-54{fill:#4bb376;}.cls-55{fill:#7d534a;}.cls-56{fill:#67b97b;}.cls-57{opacity:0.64;}.cls-58{fill:#98ca8a;}.cls-59{fill:#7aac70;}.cls-60{opacity:0.85;}.cls-61{fill:#91c780;}.cls-62{fill:#81ae7c;}.cls-63{opacity:0.76;}.cls-64{fill:#add4a2;}.cls-65{fill:#a4cd99;}.cls-66{fill:#9accae;}.cls-67{fill:#999;}.cls-68{fill:#ccc;}.cls-69{fill:#ca8c52;}.cls-70{fill:#99c590;}.cls-71{fill:#82ae7f;}.cls-72,.cls-75{fill:#b2b2b3;}.cls-104,.cls-73,.cls-77,.cls-96{opacity:0.5;}.cls-74{stroke:#80b245;stroke-width:2px;stroke-dasharray:8 2;}.cls-75{font-size:20.65px;}.cls-76,.cls-77,.cls-78{fill:#105a79;}.cls-108,.cls-112,.cls-77,.cls-78,.cls-85,.cls-91,.cls-93,.cls-96{mix-blend-mode:multiply;}.cls-112,.cls-78,.cls-91{opacity:0.3;}.cls-79{fill:#0e4e63;}.cls-80{fill:#c1ad95;}.cls-81{fill:#ecbe3b;}.cls-82{fill:#daac3c;}.cls-83{fill:#ad9c89;}.cls-84,.cls-85{fill:#908176;}.cls-86{fill:#969696;}.cls-87{fill:gray;}.cls-88{fill:#524740;}.cls-89,.cls-93{fill:#df4e37;}.cls-90,.cls-91{fill:#63bbc3;}.cls-92{fill:#4d4d4d;}.cls-93{opacity:0.4;}.cls-94{fill:#e3e3e2;}.cls-95,.cls-96{fill:#319ecf;}.cls-97{fill:#2e96bd;}.cls-98{fill:#f4c46b;}.cls-99{fill:#65544d;}.cls-100{fill:#4b3e3b;}.cls-101{fill:#715f5a;}.cls-102{fill:#7d9332;}.cls-103{fill:#667a33;}.cls-105{fill:#da5252;}.cls-106{fill:#e85e58;}.cls-107,.cls-108{fill:#b0b0b0;}.cls-109{fill:#757faa;}.cls-110{fill:#757fa8;}.cls-111,.cls-112{fill:#7f84ba;}.cls-113{fill:#666;}.cls-114{fill:#595757;}.cls-115{fill:#c2beab;}.cls-116{fill:#aac03a;}.cls-117{fill:#92a12a;}.cls-118{fill:#80ad28;}.cls-119{fill:#8bc01f;}</style><clipPath id="clip-path"><circle class="cls-1" cx="954.82" cy="413.05" r="279.79"/></clipPath><clipPath id="clip-path-2"><rect class="cls-1" x="429.62" y="106.8" width="906.67" height="639.89"/></clipPath></defs><title>GAS-img</title><g class="cls-2"><g id="Layer_1" data-name="Layer 1"><g class="cls-3"><g class="cls-4"><g class="cls-5"><rect class="cls-6" x="666.98" y="125.41" width="572.08" height="570.95"/><ellipse class="cls-7" cx="953.14" cy="410.89" rx="136.12" ry="135.85"/><ellipse class="cls-8" cx="953.14" cy="410.89" rx="159.58" ry="159.27"/><ellipse class="cls-8" cx="953.02" cy="410.89" rx="184.52" ry="184.16"/><ellipse class="cls-8" cx="953.14" cy="410.89" rx="234.21" ry="233.76"/><path class="cls-9" d="M1212.85,410.88c0,143.22-116.33,259.32-259.83,259.32S693.19,554.1,693.19,410.88,809.52,151.56,953,151.56,1212.85,267.67,1212.85,410.88Z"/><ellipse class="cls-8" cx="953.02" cy="410.89" rx="86.68" ry="86.51"/><ellipse class="cls-8" cx="953.14" cy="410.89" rx="111" ry="110.78"/><polygon class="cls-10" points="732.12 207.37 749.22 190.3 963.98 404.63 946.88 421.71 732.12 207.37"/><path class="cls-11" d="M749.22,194.87,959.4,404.64l-12.53,12.5L736.69,207.37Zm0-9.14-4.58,4.57-12.53,12.5-4.58,4.57,4.58,4.57L942.29,421.71l4.58,4.57,4.58-4.57L964,409.21l4.58-4.57L964,400.07,753.8,190.3Z"/><path class="cls-10" d="M743,239.71a38.59,38.59,0,1,1,38.67-38.59A38.67,38.67,0,0,1,743,239.71"/><path class="cls-11" d="M743,165.76a35.36,35.36,0,1,1-35.43,35.36A35.39,35.39,0,0,1,743,165.76m0-6.46a41.82,41.82,0,1,0,41.9,41.82A41.91,41.91,0,0,0,743,159.3"/><polygon class="cls-10" points="942.18 404.64 1156.93 190.3 1174.04 207.37 959.28 421.71 942.18 404.64"/><path class="cls-11" d="M1156.93,194.87l12.53,12.5L959.28,417.14l-12.53-12.5Zm0-9.14-4.58,4.57L942.18,400.07l-4.58,4.57,4.58,4.57,12.53,12.5,4.58,4.57,4.58-4.57L1174,211.94l4.58-4.57L1174,202.8l-12.53-12.5Z"/><path class="cls-10" d="M1163.2,239.71a38.59,38.59,0,1,1,38.67-38.59,38.67,38.67,0,0,1-38.67,38.59"/><path class="cls-11" d="M1163.2,165.76a35.36,35.36,0,1,1-35.43,35.36,35.39,35.39,0,0,1,35.43-35.36m0-6.46a41.82,41.82,0,1,0,41.9,41.82,41.91,41.91,0,0,0-41.9-41.82"/><polygon class="cls-10" points="732.12 614.4 946.88 400.07 963.98 417.14 749.22 631.47 732.12 614.4"/><path class="cls-11" d="M946.87,404.64l12.53,12.5L749.22,626.9l-12.53-12.5Zm0-9.14-4.58,4.57L732.11,609.83l-4.58,4.57,4.58,4.57,12.53,12.5,4.58,4.57,4.58-4.57L964,421.71l4.58-4.57L964,412.57l-12.53-12.5Z"/><path class="cls-10" d="M743,659.24a38.59,38.59,0,1,1,38.67-38.59A38.67,38.67,0,0,1,743,659.24"/><path class="cls-11" d="M743,585.29a35.36,35.36,0,1,1-35.43,35.36A35.39,35.39,0,0,1,743,585.29m0-6.46a41.82,41.82,0,1,0,41.9,41.82A41.91,41.91,0,0,0,743,578.83"/><rect class="cls-10" x="588.29" y="399.04" width="751.24" height="23.7"/><path class="cls-11" d="M1336.29,419.51H591.53V402.27h744.76Zm6.48-23.7H585.05V426h757.71V395.81Z"/><rect class="cls-10" x="941.14" y="103.57" width="23.75" height="630.5"/><path class="cls-11" d="M961.65,730.83H944.38v-624h17.27Zm6.48-630.5H937.91v637h30.22v-637Z"/><line class="cls-12" x1="511.57" y1="589.88" x2="511.57" y2="730.83"/><polygon class="cls-10" points="942.18 417.14 959.28 400.07 1174.04 614.4 1156.93 631.48 942.18 417.14"/><path class="cls-11" d="M959.28,404.64,1169.46,614.4l-12.53,12.5L946.76,417.14Zm0-9.14-4.58,4.57-12.53,12.5-4.58,4.57,4.58,4.57,210.18,209.77,4.58,4.57,4.58-4.57L1174,619l4.58-4.57-4.58-4.57L963.86,400.07Z"/><ellipse class="cls-12" cx="953.02" cy="410.89" rx="210.18" ry="209.77"/><path class="cls-13" d="M1024.3,410.89A71.29,71.29,0,1,1,953,339.74a71.22,71.22,0,0,1,71.29,71.15"/><path class="cls-13" d="M794.26,410.89a51.42,51.42,0,1,1-51.42-51.32,51.37,51.37,0,0,1,51.42,51.32"/><ellipse class="cls-14" cx="742.84" cy="410.89" rx="51.42" ry="51.32"/><path class="cls-13" d="M1004.44,201.12A51.42,51.42,0,1,1,953,149.8a51.37,51.37,0,0,1,51.42,51.32"/><ellipse class="cls-14" cx="953.02" cy="201.12" rx="51.42" ry="51.32"/><path class="cls-15" d="M953.14,670.25a49.6,49.6,0,1,1,49.69-49.6,49.7,49.7,0,0,1-49.69,49.6"/><path class="cls-11" d="M953.14,574.29a46.36,46.36,0,1,1-46.46,46.37,46.41,46.41,0,0,1,46.46-46.37m0-6.46a52.83,52.83,0,1,0,52.93,52.83,52.94,52.94,0,0,0-52.93-52.83"/><path class="cls-10" d="M1163.2,659.24a38.59,38.59,0,1,1,38.67-38.59,38.67,38.67,0,0,1-38.67,38.59"/><path class="cls-11" d="M1163.2,585.3a35.36,35.36,0,1,1-35.43,35.36,35.39,35.39,0,0,1,35.43-35.36m0-6.46a41.82,41.82,0,1,0,41.9,41.82,41.91,41.91,0,0,0-41.9-41.82"/><path class="cls-13" d="M1163.2,465.44a54.55,54.55,0,1,1,54.66-54.55,54.67,54.67,0,0,1-54.66,54.55"/><path class="cls-11" d="M1163.2,359.57a51.32,51.32,0,1,1-51.42,51.32,51.37,51.37,0,0,1,51.42-51.32m0-6.46a57.78,57.78,0,1,0,57.9,57.78,57.9,57.9,0,0,0-57.9-57.78"/><rect class="cls-10" x="429.62" y="714.11" width="906.68" height="16.72"/><rect class="cls-10" x="429.61" y="327.67" width="161.92" height="371.45"/></g><g class="cls-5"><text class="cls-16" transform="translate(482.23 674.5)">SUB<tspan class="cls-17" x="25.86" y="0">W</tspan><tspan class="cls-18" x="38.72" y="0">A</tspan><tspan x="47.34" y="0">Y</tspan></text><text class="cls-16" transform="translate(1142.37 206.83)">RELAX</text><text class="cls-16" transform="translate(722.14 206.83)">RELAX</text><text class="cls-16" transform="translate(1142.37 625.94)">RELAX</text><text class="cls-16" transform="translate(722.14 625.94)">RELAX</text><text class="cls-16" transform="translate(896.4 728.01)">MAIN ENTRANCE</text><text class="cls-16" transform="translate(922.41 619.1)">MEETING</text><text class="cls-16" transform="translate(932.31 635.52)">POINT</text><text class="cls-16" transform="translate(930.07 188.91)"><tspan class="cls-19">W</tspan><tspan x="12.85" y="0">ASTE </tspan></text><text class="cls-16" transform="translate(923.18 205.32)">SO<tspan class="cls-20" x="19.02" y="0">R</tspan><tspan x="27.14" y="0">TING</tspan></text><text class="cls-16" transform="translate(918.87 221.74)">COMPOST</text><text class="cls-16" transform="translate(1142.4 408.58)">WORK</text><text class="cls-16" transform="translate(1134.02 424.99)">KITCHEN</text><text class="cls-16" transform="translate(928.52 408.58)">E<tspan class="cls-21" x="8.11" y="0">A</tspan><tspan x="16.49" y="0">TING</tspan></text><text class="cls-16" transform="translate(903.9 424.99)">HANGING OUT</text><text class="cls-16" transform="translate(721.04 408.58)">SHARE</text><text class="cls-16" transform="translate(705.16 424.99)">EXCHANGE</text></g></g></g><ellipse class="cls-22" cx="786.6" cy="474.33" rx="81.35" ry="30.59"/><ellipse class="cls-22" cx="1083.22" cy="553.75" rx="42.38" ry="15.93"/><ellipse class="cls-22" cx="946.14" cy="302.03" rx="67.47" ry="25.37"/><text class="cls-23" transform="translate(1346.17 112.87)">Natural Experience</text><text class="cls-23" transform="translate(273.19 121.91)">Decreasing <tspan x="0" y="37.17">Energy Consumption</tspan></text><text class="cls-24" transform="translate(1355.24 732.93)">Social Connection</text><text class="cls-25" transform="translate(284.19 698.99)">Interactive<tspan x="0" y="37.17">Urban gardening</tspan></text><circle class="cls-26" cx="1273.47" cy="159.76" r="25.96"/><circle class="cls-27" cx="628.39" cy="161.66" r="25.96"/><circle class="cls-28" cx="1273.47" cy="658.76" r="25.96"/><circle class="cls-29" cx="628.95" cy="658.76" r="25.96"/><circle class="cls-28" cx="1323.73" cy="697.69" r="12.98"/><circle class="cls-29" cx="568.62" cy="699.33" r="12.98"/><circle class="cls-26" cx="1323.73" cy="113.23" r="12.98"/><circle class="cls-27" cx="566.72" cy="115.13" r="12.98"/><path class="cls-30" d="M950.89,684.71c151.81,0,274.88-123.07,274.88-274.88"/><path class="cls-30" d="M676,409.83c0,151.81,123.07,274.88,274.88,274.88"/><path class="cls-31" d="M1225.77,409.83c0,151.81-123.07,274.88-274.88,274.88v85c198.74,0,359.86-161.11,359.86-359.86Z"/><path class="cls-32" d="M1225.77,409.83h85C1310.75,211.09,1149.63,50,950.89,50v85C1102.7,135,1225.77,258,1225.77,409.83Z"/><path class="cls-33" d="M676,409.83H591c0,198.74,161.11,359.86,359.86,359.86v-85C799.08,684.71,676,561.64,676,409.83Z"/><path class="cls-34" d="M950.89,135V50C752.15,50,591,211.09,591,409.83h85C676,258,799.08,135,950.89,135Z"/><circle class="cls-29" cx="868.35" cy="486.91" r="0.32" transform="translate(-72.62 161.82) rotate(-10.22)"/><circle class="cls-29" cx="869.76" cy="486.65" r="0.31" transform="matrix(0.98, -0.18, 0.18, 0.98, -72.55, 162.07)"/><circle class="cls-29" cx="885.57" cy="492.39" r="0.36" transform="translate(-73.32 164.96) rotate(-10.22)"/><circle class="cls-29" cx="869.64" cy="489.72" r="0.33" transform="translate(-73.1 162.09) rotate(-10.22)"/><circle class="cls-29" cx="885.5" cy="495.94" r="0.38" transform="translate(-73.95 165.01) rotate(-10.22)"/><circle class="cls-29" cx="887.2" cy="495.63" r="0.38" transform="translate(-73.87 165.3) rotate(-10.22)"/><path class="cls-35" d="M710.14,391.76l90.69-5.63,65.31,19.46a.27.27,0,0,1,0,.54L764,421.52a.27.27,0,0,1-.17,0l-53.84-29A.4.4,0,0,1,710.14,391.76Z"/><path class="cls-36" d="M709.53,339.86l54.13,17.84a1.22,1.22,0,0,0,.46.06L866.18,351a1.22,1.22,0,0,0,.19-2.4l-59.74-13.56a1.22,1.22,0,0,0-.3,0l-96.45,2.43A1.22,1.22,0,0,0,709.53,339.86Z"/><path class="cls-37" d="M719.25,337.86v1.6a1,1,0,0,0,.69.92l47.32,13.77a1.8,1.8,0,0,0,.61.07l91.57-5.41a.8.8,0,0,0,.75-.8v-1.6"/><path class="cls-36" d="M763.93,358.91V416.7l100.5-14.25a3.41,3.41,0,0,0,2.93-3.37V351L765.07,357.7A1.22,1.22,0,0,0,763.93,358.91Z"/><path class="cls-38" d="M708.69,338.55v47.63a3,3,0,0,0,1.6,2.64l53.59,27.88V359.13a1.91,1.91,0,0,0-1.28-1.81Z"/><path class="cls-39" d="M763.89,489.82l-54.27-37.55a2.15,2.15,0,0,1-.93-1.77V392.76a.93.93,0,0,1,1.37-.81l53.82,29.59Z"/><path class="cls-37" d="M710.58,452.94v2.63a2.88,2.88,0,0,0,1.22,2.35l50.73,35.84a3.85,3.85,0,0,0,3.09.61l96.56-22.24a2.62,2.62,0,0,0,2-2.55v-1.77l-100.32,22Z"/><path class="cls-40" d="M720.5,336.91,806.06,335l.27,0,53.14,11c1.22.24.75,1.56-.49,1.63l-91.12,4.77a1.24,1.24,0,0,1-.41,0l-47.26-13.67A.92.92,0,0,1,720.5,336.91Z"/><path class="cls-37" d="M860,403.07l.18,1.21-95.39,14.64a2.79,2.79,0,0,1-1.76-.31L714.2,392.11l-.14-1.32,49.82,25.92Z"/><circle class="cls-29" cx="812.68" cy="358.37" r="0.6"/><circle class="cls-29" cx="812.68" cy="361.04" r="0.6"/><circle class="cls-29" cx="812.68" cy="363.7" r="0.6"/><circle class="cls-29" cx="812.68" cy="366.36" r="0.6"/><circle class="cls-29" cx="812.68" cy="369.03" r="0.6"/><path class="cls-29" d="M812.68,397.6l-.05,0L801.17,391v-13.3l.05,0L812.68,371l.05,0,11.46,6.62V391l-.05,0Zm-11.3-6.77,11.3,6.53,11.3-6.53V377.78l-11.3-6.53-11.3,6.53Z"/><rect class="cls-29" x="812.58" y="371.07" width="0.21" height="13.72"/><path class="cls-29" d="M823.64,390.08l-10.5-6V384l0-12,10.44,6V378Zm-10.28-6.16,10.07,5.79,0-11.61-10-5.79Z"/><polygon class="cls-29" points="813.33 383.38 813.22 383.19 822.2 378.07 813.22 372.89 813.33 372.7 822.64 378.07 813.33 383.38"/><path class="cls-29" d="M801.7,390.08l0-12.1.05,0,10.38-6,0,12.11-.05,0Zm.25-12,0,11.61L812,383.92l0-11.61Z"/><polygon class="cls-29" points="812.01 383.38 802.7 378.07 812.01 372.7 812.12 372.89 803.14 378.07 812.12 383.19 812.01 383.38"/><polygon class="cls-29" points="812.09 383.99 801.84 378.04 801.81 389.9 812.09 383.99"/><polygon class="cls-29" points="813.25 383.99 823.5 378.04 823.53 389.9 813.25 383.99"/><polyline class="cls-29" points="801.25 390.92 812.68 397.48 824.12 390.92 812.66 384.3 801.25 390.92 812.71 384.3"/><path class="cls-40" d="M763.89,421.21l102-15.65a1.66,1.66,0,0,1,1.92,1.64l0,58.3a1.86,1.86,0,0,1-1.46,1.82l-102.5,22.49Z"/><path class="cls-29" d="M818.13,456.91a8.8,8.8,0,0,1-2-.23c-5-1.17-8.07-6.48-6.82-11.83a9.9,9.9,0,0,1,9.35-7.81,8.81,8.81,0,0,1,2,.23,9,9,0,0,1,5.77,4.36,10.25,10.25,0,0,1,1.05,7.47A9.89,9.89,0,0,1,818.13,456.91Zm.53-19.23a9.25,9.25,0,0,0-8.73,7.31c-1.17,5,1.68,10,6.34,11.06a8.18,8.18,0,0,0,1.86.22,9.25,9.25,0,0,0,8.73-7.31,9.61,9.61,0,0,0-1-7,8.35,8.35,0,0,0-5.36-4A8.19,8.19,0,0,0,818.66,437.69Z"/><path class="cls-29" d="M818.09,458.57a10.3,10.3,0,0,1-2.34-.27,10.48,10.48,0,0,1-6.73-5.08,12,12,0,0,1-1.23-8.72,11.55,11.55,0,0,1,10.91-9.11,10.29,10.29,0,0,1,2.34.27c5.85,1.37,9.42,7.56,8,13.8A11.54,11.54,0,0,1,818.09,458.57ZM818.7,436a10.9,10.9,0,0,0-10.29,8.62,11.32,11.32,0,0,0,1.16,8.25,9.85,9.85,0,0,0,6.32,4.77,9.68,9.68,0,0,0,2.2.25,10.9,10.9,0,0,0,10.28-8.62c1.38-5.9-2-11.74-7.48-13A9.64,9.64,0,0,0,818.7,436Z"/><path class="cls-29" d="M818,460.33a11.83,11.83,0,0,1-2.69-.31c-6.73-1.57-10.84-8.71-9.16-15.9,1.42-6.08,6.71-10.5,12.57-10.5a11.84,11.84,0,0,1,2.69.31,12.07,12.07,0,0,1,7.75,5.85,13.78,13.78,0,0,1,1.42,10.05C829.18,455.92,823.89,460.33,818,460.33Zm.71-26.07c-5.56,0-10.59,4.21-11.94,10-1.6,6.85,2.3,13.63,8.68,15.13a11.2,11.2,0,0,0,2.55.29c5.57,0,10.59-4.21,11.95-10a13.14,13.14,0,0,0-1.35-9.58,11.44,11.44,0,0,0-7.34-5.54A11.22,11.22,0,0,0,818.74,434.26Z"/><path class="cls-29" d="M817.95,463.84a15,15,0,0,1-3.4-.39,15.24,15.24,0,0,1-9.78-7.38A17.4,17.4,0,0,1,803,443.38c1.8-7.68,8.47-13.26,15.87-13.26a15,15,0,0,1,3.4.39,15.24,15.24,0,0,1,9.78,7.38,17.4,17.4,0,0,1,1.79,12.69C832,458.27,825.35,463.84,817.95,463.84Zm.9-33.08c-7.1,0-13.51,5.37-15.24,12.76a16.76,16.76,0,0,0,1.72,12.22,14.6,14.6,0,0,0,9.37,7.07,14.32,14.32,0,0,0,3.26.38c7.1,0,13.51-5.37,15.24-12.76a16.76,16.76,0,0,0-1.72-12.22,14.61,14.61,0,0,0-9.37-7.08A14.3,14.3,0,0,0,818.85,430.76Z"/><path class="cls-29" d="M817.89,465.65a16.57,16.57,0,0,1-3.77-.44A16.87,16.87,0,0,1,803.3,457a19.27,19.27,0,0,1-2-14.05c2-8.51,9.38-14.68,17.57-14.68a16.54,16.54,0,0,1,3.76.44c9.41,2.2,15.16,12.17,12.81,22.23C833.47,459.47,826.08,465.65,817.89,465.65Zm1-36.7c-7.9,0-15,6-16.94,14.19a18.63,18.63,0,0,0,1.91,13.59,16.24,16.24,0,0,0,10.42,7.87,15.94,15.94,0,0,0,3.62.42c7.89,0,15-6,16.94-14.19,2.27-9.71-3.26-19.34-12.33-21.46A15.92,15.92,0,0,0,818.89,428.95Z"/><path class="cls-29" d="M818.22,453.42a5.72,5.72,0,0,1-1.3-.15,6.28,6.28,0,0,1-4.44-7.67,6.42,6.42,0,0,1,6.07-5.06,5.74,5.74,0,0,1,1.3.15,6.28,6.28,0,0,1,4.43,7.67A6.42,6.42,0,0,1,818.22,453.42Zm.33-12.24a5.77,5.77,0,0,0-5.45,4.57,5.64,5.64,0,0,0,4,6.9,5.1,5.1,0,0,0,1.16.13,5.77,5.77,0,0,0,5.44-4.57,5.64,5.64,0,0,0-4-6.9A5.11,5.11,0,0,0,818.56,441.18Z"/><path class="cls-29" d="M818.18,455.14a7.25,7.25,0,0,1-1.65-.19,8,8,0,0,1-5.61-9.71,8.13,8.13,0,0,1,7.68-6.42,7.23,7.23,0,0,1,1.65.19,7.39,7.39,0,0,1,4.74,3.58,8.41,8.41,0,0,1,.87,6.14A8.13,8.13,0,0,1,818.18,455.14Zm.43-15.68a7.48,7.48,0,0,0-7.06,5.92,7.31,7.31,0,0,0,5.13,8.94,6.64,6.64,0,0,0,1.5.17,7.48,7.48,0,0,0,7.06-5.92,7.78,7.78,0,0,0-.8-5.67,6.76,6.76,0,0,0-4.33-3.28A6.61,6.61,0,0,0,818.61,439.46Z"/><path class="cls-29" d="M818,462.14a13.44,13.44,0,0,1-3.06-.35,13.71,13.71,0,0,1-8.8-6.64,15.65,15.65,0,0,1-1.61-11.41c1.61-6.91,7.62-11.92,14.27-11.92a13.46,13.46,0,0,1,3.06.35c7.64,1.79,12.31,9.88,10.4,18.05C830.64,457.13,824.64,462.14,818,462.14Zm.81-29.69c-6.36,0-12.1,4.81-13.65,11.43a15,15,0,0,0,1.54,10.95,13.07,13.07,0,0,0,8.39,6.33,12.82,12.82,0,0,0,2.91.34c6.36,0,12.09-4.81,13.64-11.43,1.83-7.82-2.62-15.57-9.92-17.28A12.8,12.8,0,0,0,818.79,432.45Z"/><ellipse class="cls-29" cx="818.4" cy="446.98" rx="4.8" ry="4.49" transform="translate(196.86 1142.15) rotate(-76.84)"/><circle class="cls-29" cx="761.85" cy="456.22" r="0.4" transform="translate(-24.27 869.21) rotate(-58.63)"/><circle class="cls-29" cx="760.29" cy="455.26" r="0.4" transform="translate(-24.21 867.41) rotate(-58.63)"/><circle class="cls-29" cx="758.72" cy="454.31" r="0.4" transform="translate(-24.14 865.62) rotate(-58.63)"/><circle class="cls-29" cx="755.59" cy="452.4" r="0.4" transform="translate(-24.01 862.03) rotate(-58.63)"/><circle class="cls-29" cx="754.03" cy="451.44" r="0.4" transform="translate(-23.95 860.24) rotate(-58.63)"/><circle class="cls-29" cx="757.16" cy="453.35" r="0.4" transform="translate(-24.08 863.83) rotate(-58.63)"/><circle class="cls-29" cx="752.46" cy="450.49" r="0.4" transform="translate(-23.88 858.44) rotate(-58.63)"/><circle class="cls-29" cx="749.33" cy="448.58" r="0.4" transform="translate(-23.76 854.86) rotate(-58.63)"/><circle class="cls-29" cx="747.77" cy="447.63" r="0.4" transform="translate(-23.69 853.06) rotate(-58.63)"/><circle class="cls-29" cx="750.9" cy="449.54" r="0.4" transform="translate(-23.82 856.65) rotate(-58.63)"/><circle class="cls-29" cx="746.2" cy="446.67" r="0.4" transform="translate(-23.63 851.27) rotate(-58.63)"/><circle class="cls-29" cx="743.07" cy="444.76" r="0.4" transform="translate(-23.5 847.68) rotate(-58.63)"/><circle class="cls-29" cx="741.51" cy="443.81" r="0.4" transform="translate(-23.43 845.89) rotate(-58.63)"/><circle class="cls-29" cx="744.64" cy="445.72" r="0.4" transform="translate(-23.56 849.47) rotate(-58.63)"/><circle class="cls-29" cx="739.94" cy="442.86" r="0.4" transform="translate(-23.37 844.09) rotate(-58.63)"/><circle class="cls-29" cx="736.81" cy="440.95" r="0.4" transform="translate(-23.24 840.5) rotate(-58.63)"/><circle class="cls-29" cx="735.24" cy="439.99" r="0.4" transform="translate(-23.18 838.71) rotate(-58.63)"/><circle class="cls-29" cx="738.37" cy="441.9" r="0.4" transform="translate(-23.3 842.3) rotate(-58.63)"/><circle class="cls-29" cx="733.68" cy="439.04" r="0.4" transform="translate(-23.11 836.92) rotate(-58.63)"/><circle class="cls-29" cx="730.55" cy="437.13" r="0.4" transform="translate(-22.98 833.33) rotate(-58.63)"/><circle class="cls-29" cx="728.98" cy="436.17" r="0.4" transform="translate(-22.92 831.53) rotate(-58.63)"/><circle class="cls-29" cx="732.11" cy="438.08" r="0.4" transform="translate(-23.05 835.12) rotate(-58.63)"/><circle class="cls-29" cx="727.42" cy="435.22" r="0.4" transform="matrix(0.52, -0.85, 0.85, 0.52, -22.85, 829.74)"/><circle class="cls-29" cx="724.29" cy="433.31" r="0.4" transform="translate(-22.72 826.15) rotate(-58.63)"/><circle class="cls-29" cx="722.72" cy="432.36" r="0.4" transform="translate(-22.66 824.36) rotate(-58.63)"/><circle class="cls-29" cx="725.85" cy="434.27" r="0.4" transform="matrix(0.52, -0.85, 0.85, 0.52, -22.79, 827.95)"/><circle class="cls-29" cx="721.16" cy="431.4" r="0.4" transform="translate(-22.6 822.57) rotate(-58.63)"/><circle class="cls-29" cx="718.03" cy="429.49" r="0.4" transform="translate(-22.47 818.98) rotate(-58.63)"/><circle class="cls-29" cx="716.46" cy="428.54" r="0.4" transform="translate(-22.4 817.18) rotate(-58.63)"/><circle class="cls-29" cx="719.59" cy="430.45" r="0.4" transform="translate(-22.53 820.77) rotate(-58.63)"/><circle class="cls-29" cx="714.91" cy="427.59" r="0.4" transform="translate(-22.33 815.4) rotate(-58.63)"/><circle class="cls-29" cx="713.34" cy="426.63" r="0.4" transform="translate(-22.27 813.61) rotate(-58.63)"/><circle class="cls-29" cx="710.21" cy="424.73" r="0.4" transform="translate(-22.14 810.02) rotate(-58.63)"/><circle class="cls-29" cx="711.78" cy="425.68" r="0.4" transform="translate(-22.21 811.81) rotate(-58.63)"/><circle class="cls-29" cx="767.69" cy="455.66" r="0.46" transform="translate(-68.67 143.46) rotate(-10.22)"/><circle class="cls-29" cx="769.74" cy="455.29" r="0.46" transform="translate(-68.58 143.82) rotate(-10.22)"/><circle class="cls-29" cx="765.63" cy="456.03" r="0.46" transform="translate(-68.77 143.1) rotate(-10.22)"/><circle class="cls-29" cx="771.8" cy="454.92" r="0.46" transform="translate(-68.48 144.18) rotate(-10.22)"/><circle class="cls-29" cx="775.91" cy="454.18" r="0.46" transform="translate(-68.28 144.9) rotate(-10.22)"/><circle class="cls-29" cx="777.96" cy="453.81" r="0.46" transform="translate(-68.18 145.26) rotate(-10.22)"/><circle class="cls-29" cx="773.85" cy="454.55" r="0.46" transform="translate(-68.38 144.54) rotate(-10.22)"/><circle class="cls-29" cx="780.02" cy="453.43" r="0.46" transform="matrix(0.98, -0.18, 0.18, 0.98, -68.08, 145.61)"/><circle class="cls-29" cx="784.13" cy="452.69" r="0.46" transform="translate(-67.89 146.33) rotate(-10.22)"/><circle class="cls-29" cx="786.18" cy="452.32" r="0.46" transform="translate(-67.79 146.69) rotate(-10.22)"/><circle class="cls-29" cx="782.07" cy="453.06" r="0.46" transform="translate(-67.99 145.97) rotate(-10.22)"/><circle class="cls-29" cx="788.24" cy="451.95" r="0.46" transform="translate(-67.69 147.05) rotate(-10.22)"/><circle class="cls-29" cx="792.35" cy="451.21" r="0.46" transform="translate(-67.49 147.77) rotate(-10.22)"/><circle class="cls-29" cx="794.4" cy="450.84" r="0.46" transform="translate(-67.4 148.13) rotate(-10.22)"/><circle class="cls-29" cx="790.29" cy="451.58" r="0.46" transform="translate(-67.59 147.41) rotate(-10.22)"/><circle class="cls-29" cx="796.46" cy="450.47" r="0.46" transform="translate(-67.3 148.48) rotate(-10.22)"/><circle class="cls-29" cx="800.57" cy="449.73" r="0.46" transform="translate(-67.1 149.2) rotate(-10.22)"/><circle class="cls-29" cx="798.51" cy="450.1" r="0.46" transform="translate(-67.2 148.84) rotate(-10.22)"/><circle class="cls-29" cx="817" cy="446.77" r="0.46" transform="translate(-66.31 152.07) rotate(-10.22)"/><circle class="cls-29" cx="819.06" cy="446.39" r="0.46" transform="translate(-66.22 152.43) rotate(-10.22)"/><circle class="cls-29" cx="814.95" cy="447.14" r="0.46" transform="translate(-66.41 151.71) rotate(-10.22)"/><circle class="cls-29" cx="821.11" cy="446.02" r="0.46" transform="translate(-66.12 152.79) rotate(-10.22)"/><circle class="cls-29" cx="835.5" cy="443.43" r="0.46" transform="translate(-65.43 155.3) rotate(-10.22)"/><circle class="cls-29" cx="837.55" cy="443.06" r="0.46" transform="translate(-65.33 155.66) rotate(-10.22)"/><circle class="cls-29" cx="841.66" cy="442.32" r="0.46" transform="translate(-65.13 156.38) rotate(-10.22)"/><circle class="cls-29" cx="843.72" cy="441.95" r="0.46" transform="translate(-65.04 156.74) rotate(-10.22)"/><circle class="cls-29" cx="839.61" cy="442.69" r="0.46" transform="translate(-65.23 156.02) rotate(-10.22)"/><circle class="cls-29" cx="845.76" cy="441.58" r="0.46" transform="translate(-64.94 157.09) rotate(-10.22)"/><circle class="cls-29" cx="847.82" cy="441.21" r="0.46" transform="translate(-64.84 157.45) rotate(-10.22)"/><circle class="cls-29" cx="851.93" cy="440.47" r="0.46" transform="translate(-64.64 158.17) rotate(-10.22)"/><circle class="cls-29" cx="853.98" cy="440.1" r="0.46" transform="matrix(0.98, -0.18, 0.18, 0.98, -64.54, 158.53)"/><circle class="cls-29" cx="849.87" cy="440.84" r="0.46" transform="translate(-64.74 157.81) rotate(-10.22)"/><circle class="cls-29" cx="856.04" cy="439.73" r="0.46" transform="translate(-64.45 158.89) rotate(-10.22)"/><circle class="cls-29" cx="860.15" cy="438.99" r="0.46" transform="matrix(0.98, -0.18, 0.18, 0.98, -64.25, 159.6)"/><circle class="cls-29" cx="862.2" cy="438.62" r="0.46" transform="translate(-64.15 159.96) rotate(-10.22)"/><circle class="cls-29" cx="858.09" cy="439.36" r="0.46" transform="matrix(0.98, -0.18, 0.18, 0.98, -64.35, 159.25)"/><circle class="cls-29" cx="864.26" cy="438.25" r="0.46" transform="translate(-64.05 160.32) rotate(-10.22)"/><circle class="cls-29" cx="866.31" cy="437.88" r="0.46" transform="translate(-63.95 160.68) rotate(-10.22)"/><path class="cls-38" d="M756.52,317.08s-8-.26-8.33,6.36l.43,19.3,2.85,1,.4-.07-.74-20.14S754.16,317.15,756.52,317.08Z"/><path class="cls-11" d="M751.56,343.75s-.6-19.06-.61-20,.65-6.53,5.75-6.67l54.16-1.42s5-.72,5.8,6.66l.44,18.92-4.16.3-4.25-1.64V323.68A4.92,4.92,0,0,0,803,320l-45.86,1.5c-1.37,0-2.62,1.85-2.54,4.81l.61,17Z"/><path class="cls-38" d="M804.11,320s6.68-1.52,7.55,3.64l.43,17.62-3.74-1.58-.24-15.95S807.31,319.88,804.11,320Z"/><path class="cls-41" d="M1086.65,542.33c-4.81,0-4.67-1.17-4.67-1.17V524.37h9.35v16.78s.14,1.17-4.67,1.17"/><path class="cls-42" d="M1052.68,530.11c1.8-.23,60.86-9.69,62.54-9.94s3.75-3.44,3.75-5.32,4.29-162.76,4.33-164.93-4-5.35-5.9-5.18-61.4-.29-65,.23-4.54,3.86-4.54,5.75,0,172.27,0,175.26S1050.88,530.33,1052.68,530.11Z"/><path class="cls-38" d="M1055.62,530.09c1.8-.23,62.9.27,64.58,0s3.75-3.44,3.75-5.32,0-172.19,0-174.37-2.45-3.62-4.37-3.45-61-.41-64.61.1-4.54,3.86-4.54,5.75.24,169.59.25,172.58A5,5,0,0,0,1055.62,530.09Z"/><path class="cls-29" d="M1088.18,513.41a7.38,7.38,0,1,1,7.45-7.38A7.42,7.42,0,0,1,1088.18,513.41Zm0-14.25a6.87,6.87,0,1,0,6.94,6.87A6.91,6.91,0,0,0,1088.18,499.16Z"/><path class="cls-29" d="M1088.18,514.64a8.61,8.61,0,1,1,8.69-8.61A8.66,8.66,0,0,1,1088.18,514.64Zm0-16.71a8.1,8.1,0,1,0,8.18,8.1A8.15,8.15,0,0,0,1088.18,497.93Z"/><path class="cls-29" d="M1088.18,515.95a9.91,9.91,0,1,1,10-9.92A10,10,0,0,1,1088.18,515.95Zm0-19.32a9.41,9.41,0,1,0,9.5,9.41A9.46,9.46,0,0,0,1088.18,496.63Z"/><path class="cls-29" d="M1088.18,518.55A12.51,12.51,0,1,1,1100.81,506,12.59,12.59,0,0,1,1088.18,518.55Zm0-24.52a12,12,0,1,0,12.12,12A12.08,12.08,0,0,0,1088.18,494Z"/><path class="cls-29" d="M1088.18,519.89a13.86,13.86,0,1,1,14-13.86A13.94,13.94,0,0,1,1088.18,519.89Zm0-27.2A13.35,13.35,0,1,0,1101.67,506,13.43,13.43,0,0,0,1088.18,492.69Z"/><path class="cls-29" d="M1088.18,510.82A4.79,4.79,0,1,1,1093,506,4.82,4.82,0,0,1,1088.18,510.82Zm0-9.07a4.28,4.28,0,1,0,4.33,4.28A4.31,4.31,0,0,0,1088.18,501.75Z"/><path class="cls-29" d="M1088.18,512.1a6.06,6.06,0,1,1,6.12-6.06A6.1,6.1,0,0,1,1088.18,512.1Zm0-11.62a5.56,5.56,0,1,0,5.61,5.56A5.59,5.59,0,0,0,1088.18,500.48Z"/><path class="cls-29" d="M1088.18,517.29A11.26,11.26,0,1,1,1099.55,506,11.32,11.32,0,0,1,1088.18,517.29Zm0-22A10.75,10.75,0,1,0,1099,506,10.81,10.81,0,0,0,1088.18,495.29Z"/><ellipse class="cls-29" cx="1088.18" cy="506.03" rx="3.58" ry="3.55"/><path class="cls-42" d="M1061.13,486.86h50.36a4.47,4.47,0,0,0,4.49-4.45l.07-123.22a4.47,4.47,0,0,0-4.48-4.45l-50.37-.18a4.47,4.47,0,0,0-4.51,4.45l-.07,123.4A4.47,4.47,0,0,0,1061.13,486.86Z"/><path class="cls-36" d="M1062.68,481h47.27a4.2,4.2,0,0,0,4.22-4.17l.07-115.65A4.2,4.2,0,0,0,1110,357l-47.27-.16a4.2,4.2,0,0,0-4.23,4.17l-.07,115.82A4.2,4.2,0,0,0,1062.68,481Z"/><path class="cls-43" d="M1071.73,380.42a3.79,3.79,0,0,1-7.58,0c0-2.07,3.79-8.14,3.79-8.14S1071.73,378.35,1071.73,380.42Z"/><path class="cls-11" d="M1068.21,375.41l-.05,0c.06.06-.06-.08,0,0l.07.11c.06.11.11.22.16.33v0l0,.12.09.23.18.5c.22.61.42,1.23.68,1.83a.4.4,0,0,0,.7-.41c.06.14,0,0,0-.07l-.07-.18-.17-.46-.37-1c-.12-.34-.25-.67-.4-1a1.39,1.39,0,0,0-.42-.61.4.4,0,1,0-.41.69Z"/><path class="cls-11" d="M1069.63,380.35a.42.42,0,0,1,0,.26.76.76,0,0,1-.22.27.4.4,0,0,0,0,.57.42.42,0,0,0,.57,0,1.29,1.29,0,0,0,.44-1.3.41.41,0,0,0-.78.21Z"/><path class="cls-44" d="M1073.47,396.41a22.14,22.14,0,0,0-3.47-.28,15.77,15.77,0,0,0-3.09.2,8.17,8.17,0,0,0-1.09.1c-.42.11-.76.1-.87.17s-.18.16-.39.34l-.73.62-.25.24a14.32,14.32,0,0,0-2.51,2.69c-.21.29.22.48.48.48s7.69,0,7.9,0a1.27,1.27,0,0,0,1-.5l3.34-3.54C1074,396.7,1073.76,396.51,1073.47,396.41Z"/><path class="cls-45" d="M1073.47,396.44a4.83,4.83,0,0,0-.76-.12,1.85,1.85,0,0,1-.22.67,4.76,4.76,0,0,1-1.78,1.71,14.58,14.58,0,0,1-2.36.85,3.41,3.41,0,0,1-1,.14,12.55,12.55,0,0,1-4-.09,2.69,2.69,0,0,1-1.14-.51,17,17,0,0,0-1.17,1.43c-.21.29.22.48.48.48s7.69,0,7.9,0a1.27,1.27,0,0,0,1-.5l3.34-3.54C1074,396.72,1073.76,396.54,1073.47,396.44Z"/><path class="cls-46" d="M1065.49,398.14v.06h.08v-.06Z"/><path class="cls-46" d="M1065.65,398.2s.08,0,.08-.09S1065.65,398.15,1065.65,398.2Z"/><path class="cls-46" d="M1065.89,398.2v.06h.08v-.06Z"/><path class="cls-46" d="M1067.71,399.16v.06h.05a.06.06,0,0,0,0-.06Z"/><path class="cls-46" d="M1067.91,396.43c-.15.09.12.1,0,0Z"/><path class="cls-46" d="M1068.19,396.7s.08,0,.08-.09S1068.18,396.65,1068.19,396.7Z"/><path class="cls-46" d="M1068.27,399.13c-.15.09.12.1,0,0Z"/><path class="cls-46" d="M1068.66,398.92c.15-.09-.12-.1,0,0Z"/><path class="cls-46" d="M1068.7,398.74v.06h.08v-.06Z"/><path class="cls-46" d="M1068.78,398.92s.08,0,.08-.09S1068.78,398.87,1068.78,398.92Z"/><path class="cls-46" d="M1068.86,398.74v.06h.08v-.06Z"/><path class="cls-46" d="M1068.94,396.7v.06h.08v-.06Z"/><path class="cls-46" d="M1069,398c-.14.08.2.07,0,0Z"/><path class="cls-46" d="M1069.06,397.06c.13-.07-.14-.12,0,0Z"/><path class="cls-46" d="M1069.1,396.49v.06h.05a.06.06,0,0,0,0-.06Z"/><path class="cls-46" d="M1069.77,400.08h-.05a.06.06,0,0,0,0,.06h.08"/><path class="cls-46" d="M1069.77,399.45s.08,0,.08-.09S1069.77,399.4,1069.77,399.45Z"/><path class="cls-46" d="M1064.82,398.32c-.09-.12,0,0,0,0S1064.82,398.32,1064.82,398.32Z"/><path class="cls-46" d="M1065.41,399.78s.11.06.12.12S1065.5,399.77,1065.41,399.78Z"/><path class="cls-46" d="M1068.58,398.77s0,.07-.12.06,0,.05,0,.06S1068.58,398.82,1068.58,398.77Z"/><path class="cls-46" d="M1069.61,399.93c-.09-.12,0,0,0,0S1069.62,399.94,1069.61,399.93Z"/><path class="cls-46" d="M1067.92,398.27c-.15.09.12.1,0,0Z"/><path class="cls-46" d="M1068,398.36c-.15.09.12.1,0,0Z"/><path class="cls-46" d="M1068,398.66v.06h.05a.06.06,0,0,0,0-.06Z"/><path class="cls-46" d="M1068.2,397.94h.08v-.06h-.08"/><path class="cls-46" d="M1068.2,398.12h.08v-.06h-.08"/><path class="cls-46" d="M1068.28,398.51v-.06h-.08v.06h.08"/><path class="cls-46" d="M1068.48,397.58c-.15.09.12.1,0,0Z"/><path class="cls-46" d="M1068.48,398.63s.08,0,.08-.09S1068.47,398.58,1068.48,398.63Z"/><path class="cls-46" d="M1068.91,397.1c-.15.09.12.1,0,0Z"/><path class="cls-46" d="M1069.19,398.54c-.08,0-.06.14,0,.09v-.06S1069.19,398.56,1069.19,398.54Z"/><path class="cls-46" d="M1069.19,397s.08,0,.08-.09S1069.19,396.94,1069.19,397Z"/><path class="cls-46" d="M1069.19,397.76s.08,0,.08-.09S1069.19,397.71,1069.19,397.76Z"/><path class="cls-46" d="M1069.35,398.15c-.15.09.12.1,0,0Z"/><path class="cls-46" d="M1069.51,398.9s0,0,0-.06,0,0-.08,0"/><path class="cls-46" d="M1069.47,396.59c-.15.09.12.1,0,0Z"/><path class="cls-46" d="M1069.47,397.85s.08,0,.08-.09S1069.46,397.8,1069.47,397.85Z"/><path class="cls-46" d="M1069.58,397.94c.13-.07-.14-.12,0,0Z"/><path class="cls-46" d="M1064.36,398.07c-.15.09.12.1,0,0Z"/><path class="cls-46" d="M1064.32,398.67v.06h.08v-.06Z"/><path class="cls-46" d="M1064.4,398.07s.08,0,.08-.09S1064.41,398,1064.4,398.07Z"/><path class="cls-46" d="M1064.52,398.64c-.12,0,0,.06,0,.12S1064.53,398.66,1064.52,398.64Z"/><path class="cls-46" d="M1069.9,398.66v.06h.08v-.06Z"/><path class="cls-46" d="M1064.6,398.55c-.08,0-.06.14,0,.09v-.06S1064.6,398.57,1064.6,398.55Z"/><path class="cls-46" d="M1064.6,399.36v.06h.08v-.06Z"/><path class="cls-46" d="M1064.8,397.36h.08v-.06h-.08"/><path class="cls-46" d="M1064.84,398.46v.06h.08v-.06Z"/><path class="cls-46" d="M1064.88,399c-.08,0-.06.14,0,.09v-.06S1064.88,399.05,1064.88,399Z"/><path class="cls-46" d="M1064.92,398.82c.09,0,.09-.09.16-.12S1064.92,398.77,1064.92,398.82Z"/><path class="cls-46" d="M1065.08,397.78v.06h.08v-.06Z"/><path class="cls-46" d="M1065.15,397.69v.06h.08v-.06Z"/><path class="cls-46" d="M1065.27,398.91c-.11-.08,0-.09,0-.18S1065.12,398.93,1065.27,398.91Z"/><path class="cls-46" d="M1065.35,399v.06h.05a.06.06,0,0,0,0-.06Z"/><path class="cls-46" d="M1065.39,399.3c.13-.07-.14-.12,0,0Z"/><path class="cls-46" d="M1065.39,397.06s.08,0,.08-.09S1065.4,397,1065.39,397.06Z"/><path class="cls-46" d="M1065.39,397.57v.06h.05a.06.06,0,0,0,0-.06Z"/><path class="cls-46" d="M1065.47,397.09v.06h.08v-.06Z"/><path class="cls-46" d="M1065.47,397.75s.08,0,.08-.09S1065.47,397.69,1065.47,397.75Z"/><path class="cls-46" d="M1065.47,397.87a.11.11,0,0,0,.12.06A.11.11,0,0,0,1065.47,397.87Z"/><path class="cls-46" d="M1065.51,399.21v.06h.08v-.06Z"/><path class="cls-46" d="M1065.55,396.82c.1.1.1-.15,0,0Z"/><path class="cls-46" d="M1065.55,400.65c0,.08.18,0,.08-.06S1065.6,400.65,1065.55,400.65Z"/><path class="cls-46" d="M1065.59,399.39s.08,0,.08-.09S1065.59,399.34,1065.59,399.39Z"/><path class="cls-46" d="M1065.63,397.69c.1.1.1-.15,0,0Z"/><path class="cls-46" d="M1065.67,399v.06h.08V399Z"/><path class="cls-46" d="M1065.67,399.42s0,.05,0,.09S1065.77,399.37,1065.67,399.42Z"/><path class="cls-46" d="M1065.75,396.76c-.08,0-.06.14,0,.09v-.06S1065.75,396.78,1065.75,396.76Z"/><path class="cls-46" d="M1065.71,397v.09h.08V397Z"/><path class="cls-46" d="M1065.71,399.63v.06h.08v-.06Z"/><path class="cls-46" d="M1065.75,399.81c-.08,0-.06.14,0,.09v-.06S1065.75,399.83,1065.75,399.81Z"/><path class="cls-46" d="M1064,400.35c-.15.09.12.1,0,0Z"/><path class="cls-46" d="M1066,397.36c.12-.07,0-.19,0,0Z"/><path class="cls-46" d="M1066,397.66s-.07.06,0,.09S1066.1,397.63,1066,397.66Z"/><path class="cls-46" d="M1064.09,399.87c-.15.09.12.1,0,0Z"/><path class="cls-46" d="M1066.07,397v.06c.08,0,.08,0,.08-.09S1066.11,397,1066.07,397Z"/><path class="cls-46" d="M1066.07,397.57v.06h.08v-.06Z"/><path class="cls-46" d="M1066.07,398.13v.09h.08v-.09Z"/><path class="cls-46" d="M1066.15,397.09v.06h.08v-.06Z"/><path class="cls-46" d="M1066.15,397.45v.06h.08v-.06Z"/><path class="cls-46" d="M1066.22,396.58v.06h.05a.06.06,0,0,0,0-.06Z"/><path class="cls-46" d="M1066.26,398.34v.06h.05a.06.06,0,0,0,0-.06Z"/><path class="cls-46" d="M1066.3,397.51c.1.1.1-.15,0,0Z"/><path class="cls-46" d="M1066.34,397.93c.13-.07-.11-.14,0,0Z"/><path class="cls-46" d="M1066.38,397.27s-.07.06,0,.09S1066.45,397.24,1066.38,397.27Z"/><path class="cls-46" d="M1066.5,396.85c-.08,0-.06.14,0,.09v-.06S1066.5,396.87,1066.5,396.85Z"/><path class="cls-46" d="M1066.5,400.11c-.15.09.12.1,0,0Z"/><path class="cls-46" d="M1066.5,397.66v.06h.08v-.06Z"/><path class="cls-46" d="M1066.58,400.47c.13-.07-.14-.12,0,0Z"/><path class="cls-46" d="M1066.58,398.73v.06h.08v-.06Z"/><path class="cls-46" d="M1066.7,397.93c.13-.07-.14-.12,0,0Z"/><path class="cls-46" d="M1066.7,399.81c0,.05,0,.06.08.06a0,0,0,0,1,0,0S1066.75,399.81,1066.7,399.81Z"/><path class="cls-46" d="M1066.78,397.36c-.15.09.12.1,0,0Z"/><path class="cls-46" d="M1066.74,398s.08,0,.08-.09S1066.74,398,1066.74,398Z"/><path class="cls-46" d="M1066.74,398.13v.06h.05a.06.06,0,0,0,0-.06Z"/><path class="cls-46" d="M1066.82,396.67v.06h.08v-.06Z"/><path class="cls-46" d="M1066.82,397a.13.13,0,0,0,.08-.12C1066.78,396.82,1066.83,396.92,1066.82,397Z"/><path class="cls-46" d="M1066.82,398.25v.06c.08,0,.08,0,.08-.09S1066.86,398.25,1066.82,398.25Z"/><path class="cls-46" d="M1066.82,399.9V400h.08v-.06Z"/><path class="cls-46" d="M1066.9,396.79c.1.1.1-.15,0,0Z"/><path class="cls-46" d="M1066.94,400c-.08,0-.06.14,0,.09V400S1066.94,400,1066.94,400Z"/><path class="cls-46" d="M1066.94,400.29a.11.11,0,0,0,.12.06A.11.11,0,0,0,1066.94,400.29Z"/><path class="cls-46" d="M1067.06,397s0,.11.12.09S1067.16,396.95,1067.06,397Z"/><path class="cls-46" d="M1067.14,397.54c-.15.09.12.1,0,0Z"/><path class="cls-46" d="M1067.18,399.9c-.15.09.12.1,0,0Z"/><path class="cls-46" d="M1067.45,397.3c.1.1.1-.15,0,0Z"/><path class="cls-46" d="M1067.69,398.49c.13-.07-.14-.12,0,0Z"/><path class="cls-46" d="M1067.77,400.83c.13-.07-.14-.12,0,0Z"/><path class="cls-46" d="M1068,397.24v.06h.05a.06.06,0,0,0,0-.06Z"/><path class="cls-46" d="M1068,397.63c-.06,0-.06.16,0,.09S1068,397.63,1068,397.63Z"/><path class="cls-46" d="M1068.09,400.26c.13-.07-.14-.12,0,0Z"/><path class="cls-46" d="M1068.17,400.38c.13-.07-.11-.14,0,0Z"/><path class="cls-46" d="M1068.36,400.26s.08,0,.08-.09S1068.36,400.21,1068.36,400.26Z"/><path class="cls-46" d="M1068.44,397.33c-.06,0-.06.16,0,.09S1068.44,397.33,1068.44,397.33Z"/><path class="cls-46" d="M1068.52,397.54c.15-.09-.12-.1,0,0Z"/><path class="cls-46" d="M1068.52,400.08c-.15.09.12.1,0,0Z"/><path class="cls-46" d="M1069.6,398.52s.08,0,.08-.09S1069.6,398.47,1069.6,398.52Z"/><path class="cls-46" d="M1069.47,400.65v.06h.08v-.06Z"/><path class="cls-46" d="M1069.91,400.26c.14-.11-.11-.15,0,0Z"/><path class="cls-46" d="M1070.11,400.17c-.15.09.12.1,0,0Z"/><path class="cls-46" d="M1070.11,400.35c-.15.09.12.1,0,0Z"/><path class="cls-46" d="M1068.59,397.34Z"/><path class="cls-46" d="M1068.55,398.48c.06.08.15-.06.16-.12S1068.66,398.47,1068.55,398.48Z"/><path class="cls-46" d="M1069.15,397.25Z"/><path class="cls-46" d="M1069.58,398.3c.08-.1-.2-.14,0,0Z"/><path class="cls-46" d="M1064.36,398.46c-.06,0,0,.16.12.15S1064.39,398.53,1064.36,398.46Z"/><path class="cls-46" d="M1064.64,398.94c-.11.11.22.28,0,0Z"/><path class="cls-46" d="M1064.72,398.67c-.11,0,0,.1,0,.15S1064.68,398.75,1064.72,398.67Z"/><path class="cls-46" d="M1064.76,399.69c-.05-.09-.05.09,0,.06S1064.78,399.72,1064.76,399.69Z"/><path class="cls-46" d="M1065.19,396.79c.12.19.29.1,0,0"/><path class="cls-46" d="M1065.47,398.61Z"/><path class="cls-46" d="M1065.47,398.91c-.11.11.22.28,0,0Z"/><path class="cls-46" d="M1065.47,397.27a.12.12,0,0,1,0,.09.52.52,0,0,0,.12-.18c-.07,0-.08,0,0,0A.11.11,0,0,1,1065.47,397.27Z"/><path class="cls-46" d="M1065.63,398.79c-.09-.12,0,.07,0,.09S1065.64,398.8,1065.63,398.79Z"/><path class="cls-46" d="M1063.78,400V400c.11,0,.11-.11.16-.18C1063.79,399.83,1063.93,400,1063.78,400Z"/><path class="cls-46" d="M1063.78,400.35v.06s0,0,0,0,.17-.14.08-.21,0,0,0,0S1063.86,400.35,1063.78,400.35Z"/><path class="cls-46" d="M1065.87,396.88Z"/><path class="cls-46" d="M1064,400a.17.17,0,0,0-.12.18c.08,0,.08,0,.08.09C1064,400.12,1063.91,400.1,1064,400Z"/><path class="cls-46" d="M1066.07,398.25c-.14,0,0,.15.08.15S1066,398.35,1066.07,398.25Z"/><path class="cls-46" d="M1064.05,400.14c.11,0,.07-.13.16-.15C1064.14,399.91,1064.09,400.09,1064.05,400.14Z"/><path class="cls-46" d="M1066.11,397.18c-.05,0,.08.14.16.21s0,0,0,0S1066.22,397.26,1066.11,397.18Z"/><path class="cls-46" d="M1066.11,400.56c-.13.09.14.13.12.24C1066.34,400.71,1066.09,400.66,1066.11,400.56Z"/><path class="cls-46" d="M1066.11,398c.08,0,0-.11.12-.12S1066.12,398,1066.11,398Z"/><path class="cls-46" d="M1066.22,400.17c-.09,0,0,.08,0,.12S1066.22,400.21,1066.22,400.17Z"/><path class="cls-46" d="M1066.34,398.76c-.18,0,.15.22,0,0Z"/><path class="cls-46" d="M1066.34,397.66c-.12,0,.09.08.08.15s0-.09,0-.15S1066.35,397.69,1066.34,397.66Z"/><path class="cls-46" d="M1066.42,399.3c0,.1.06.09.12.12S1066.54,399.28,1066.42,399.3Z"/><path class="cls-46" d="M1064.52,397.18c-.1.06.17,0,.12-.09S1064.61,397.2,1064.52,397.18Z"/><path class="cls-46" d="M1066.58,397.81c.08,0,.19-.12.12-.18S1066.64,397.73,1066.58,397.81Z"/><path class="cls-46" d="M1066.66,399.69s0,0,0,0,0,0,.1,0S1066.66,399.73,1066.66,399.69Z"/><path class="cls-46" d="M1066.82,398.79Z"/><path class="cls-46" d="M1067.1,398.16c.15,0,.15-.22,0,0Z"/><path class="cls-46" d="M1067.33,397.09c-.2-.08,0,0,0,0S1067.36,397.1,1067.33,397.09Z"/><path class="cls-46" d="M1067.26,397.18v0C1067.12,397.16,1067.47,397.27,1067.26,397.18Z"/><path class="cls-46" d="M1067.41,398.22c.22-.11.09-.21,0,0Z"/><path class="cls-46" d="M1067.73,400.47c-.07.2.1-.24,0,0Z"/><path class="cls-46" d="M1068.52,397.66Z"/><path class="cls-46" d="M1070.76,397.86a.22.22,0,0,0,.08-.09C1070.82,397.7,1070.76,397.82,1070.76,397.86Z"/><rect class="cls-47" x="1077.64" y="377.96" width="33.9" height="4.89" rx="0.5" ry="0.5"/><path class="cls-48" d="M1109.54,383.1h-29.89a2.26,2.26,0,0,1-2.26-2.26V380a2.26,2.26,0,0,1,2.26-2.26h29.89a2.26,2.26,0,0,1,2.26,2.26v.89A2.26,2.26,0,0,1,1109.54,383.1Zm-29.89-4.89a1.75,1.75,0,0,0-1.75,1.75v.89a1.75,1.75,0,0,0,1.75,1.75h29.89a1.75,1.75,0,0,0,1.75-1.75V380a1.75,1.75,0,0,0-1.75-1.75Z"/><rect class="cls-44" x="1077.64" y="395.48" width="33.9" height="4.89" rx="0.5" ry="0.5"/><path class="cls-49" d="M1109.54,400.62h-29.89a2.26,2.26,0,0,1-2.26-2.26v-.89a2.26,2.26,0,0,1,2.26-2.26h29.89a2.26,2.26,0,0,1,2.26,2.26v.89A2.26,2.26,0,0,1,1109.54,400.62Zm-29.89-4.89a1.75,1.75,0,0,0-1.75,1.75v.89a1.75,1.75,0,0,0,1.75,1.75h29.89a1.75,1.75,0,0,0,1.75-1.75v-.89a1.75,1.75,0,0,0-1.75-1.75Z"/><rect class="cls-50" x="1077.64" y="412.43" width="33.9" height="4.89" rx="0.5" ry="0.5"/><path class="cls-51" d="M1109.54,417.58h-29.89a2.26,2.26,0,0,1-2.26-2.26v-.89a2.26,2.26,0,0,1,2.26-2.26h29.89a2.26,2.26,0,0,1,2.26,2.26v.89A2.26,2.26,0,0,1,1109.54,417.58Zm-29.89-4.89a1.75,1.75,0,0,0-1.75,1.75v.89a1.75,1.75,0,0,0,1.75,1.75h29.89a1.75,1.75,0,0,0,1.75-1.75v-.89a1.75,1.75,0,0,0-1.75-1.75Z"/><ellipse class="cls-52" cx="1074.72" cy="380.36" rx="0.9" ry="0.89"/><ellipse class="cls-44" cx="1075.29" cy="398.16" rx="0.9" ry="0.89"/><ellipse class="cls-50" cx="1075.62" cy="414.88" rx="0.9" ry="0.89"/><polygon class="cls-36" points="1063.63 410.38 1070.79 409.75 1071.87 410.5 1071.87 412.51 1070.79 411.75 1063.63 411.88 1063.63 410.38"/><path class="cls-53" d="M1072,412.75l-1.25-.87-7.25.13v-1.75l7.32-.64,1.17.82Zm-1.17-1.12.92.64v-1.69l-1-.69-7,.61v1.26Z"/><polygon class="cls-36" points="1063.63 411.88 1062.26 418.02 1062.94 419.77 1069.99 419.77 1071.87 418.77 1071.87 412.51 1070.79 411.75 1063.63 411.88"/><path class="cls-53" d="M1070,419.9h-7.17l-.73-1.87,1.4-6.27h.1l7.2-.13,1.17.81v6.4Zm-7-.25H1070l1.78-1v-6.12l-1-.69-7,.12-1.34,6Z"/><line class="cls-36" x1="1070.79" y1="412.26" x2="1069.99" y2="419.39"/><polygon class="cls-53" points="1070.12 419.41 1069.86 419.38 1070.66 412.24 1070.91 412.27 1070.12 419.41"/><path class="cls-54" d="M1087.6,464.38a3.39,3.39,0,0,1,2,1.42,23.92,23.92,0,0,1,2,4.1,23,23,0,0,0,2.22-2c.52-.65,1.52-1.9,2-2.63s1.92-3.62,1.92-3.62a15.54,15.54,0,0,1-.22,3.79c-.35.78-1.83,3.45-2.31,4.35A13.76,13.76,0,0,1,1093,473a10.84,10.84,0,0,1-1.48.95,5.92,5.92,0,0,1-1.22-1.12,17.94,17.94,0,0,1-2-3.45c-.39-.95-1.35-3-1.35-3a27.29,27.29,0,0,1-1.78,3.84c-.48.52-1.09.91-1.39.78a5.76,5.76,0,0,1-2.83-3.06,28.08,28.08,0,0,0-2.74-5.35c-.61-.69-2.22-2.07-2.18-2.5s.65-.47,1.31,0,2,1.64,2.87,2.2a14.68,14.68,0,0,1,2.66,2.8,28.39,28.39,0,0,1,1.61,3.75s.48-3.36.57-4.1a17.9,17.9,0,0,1,1.09-4.83,32.15,32.15,0,0,1,2.13-3.71c.26-.26.35.56.3.69s-.17,2.67-.26,3.36-.39,2.59-.44,2.85S1087.6,464.38,1087.6,464.38Z"/><path class="cls-54" d="M1092.09,458.47a5.56,5.56,0,0,1-2-2.37c-.7-1.64-1.48-3.79-1.57-4.1s-.26-.73-.26-.73a3.75,3.75,0,0,1,1.7,1.25,17.21,17.21,0,0,1,2,3,3.81,3.81,0,0,0,.39.78s1.39-1,2.44-1.72a16.27,16.27,0,0,1,2.74-1.68c.3,0,.35.6-.13,1.21a33.13,33.13,0,0,1-3,3,7.25,7.25,0,0,1-2.13,1.38"/><path class="cls-55" d="M1083.39,448.87a39.88,39.88,0,0,1,.29,7c0,2.17.24,4.33.28,6.5.07,3.81-.19,7.93.36,11.69a.2.2,0,0,0,.37,0c.6-4.12,0-8.52-.09-12.66s.21-8.65-.93-12.57a.15.15,0,0,0-.29.08Z"/><path class="cls-55" d="M1084.68,471.15a11.47,11.47,0,0,0-2.67-7.61c-1.32-1.73-3.93-3.83-6.1-4.19-.23,0-.5.15-.41.41a5.77,5.77,0,0,0,1.78,2.18c1.36,1.29,2,3.5,2.89,5.12.68,1.27,2.2,4.88,4.14,4,.19-.08.06-.31-.09-.33-2.21-.29-3.76-4.47-4.58-6.24a20.71,20.71,0,0,0-1.53-2.62c-.57-.87-1.61-1.28-2-2.32l-.41.41c2.17.36,4.4,2.34,5.82,3.91a12.91,12.91,0,0,1,2.93,7.28c0,.12.19.08.2,0Z"/><path class="cls-55" d="M1084.69,470.74c.4-5.09,1-10.38,4-14.63l-.61-.16a27.13,27.13,0,0,1-3.8,15.06c-.17.27.23.59.45.35,3.36-3.78,4.23-10.56,4-15.41a.33.33,0,0,0-.61-.16c-3,4.2-4,9.85-3.72,15a.12.12,0,0,0,.24,0Z"/><path class="cls-55" d="M1087.89,474.35c.67-2,.47-4.45.7-6.54a24.25,24.25,0,0,0,0-7.07.26.26,0,0,0-.5,0c-.38,2,0,4.15-.08,6.16-.1,2.46-.18,5-.35,7.41,0,.14.2.16.24,0Z"/><path class="cls-55" d="M1088.32,456.2a23.36,23.36,0,0,0,0-4.05,13.65,13.65,0,0,0-.31-3.5.18.18,0,0,0-.35,0,9.45,9.45,0,0,0,0,3.5c.12,1.36.2,2.74.41,4.09,0,.15.23.09.25,0Z"/><path class="cls-55" d="M1091.66,474.67c.46-4.34.19-8.73.58-13.08.21-2.28.42-4.59.8-6.85.3-1.8,1.15-3.46,1.19-5.29a.26.26,0,0,0-.49-.13c-1.7,3.53-1.88,7.51-2.26,11.35a73.54,73.54,0,0,0-.08,14,.13.13,0,0,0,.25,0Z"/><path class="cls-56" d="M1092.3,457a4.25,4.25,0,0,0-1.27-2.91c-.7-.79-1.76-2.55-2.9-2.79a13.35,13.35,0,0,1,.57,1.82c.29.67.61,1.39,1,2a12.25,12.25,0,0,0,2.36,3.49"/><path class="cls-55" d="M1091.64,471a6,6,0,0,0-.71-3.5,7,7,0,0,0-2-3c-.32-.22-.63.25-.39.51a11.3,11.3,0,0,1,2.91,6c0,.11.19.16.21,0Z"/><path class="cls-55" d="M1086.88,466.44c1.07,2.84,2,5.48,4.35,7.57a.34.34,0,0,0,.48-.48,21.22,21.22,0,0,1-2.64-3.34c-.74-1.25-1.05-2.68-1.93-3.86-.09-.12-.31-.05-.25.11Z"/><path class="cls-55" d="M1091.63,474c2.07-.46,3.74-3.82,4.7-5.44,1.26-2.12,2.41-4.94,1.63-7.43a.33.33,0,0,0-.63.17c.6,4.22-2.33,10-5.79,12.49a.11.11,0,0,0,.09.2Z"/><path class="cls-55" d="M1097.51,461.08a23.56,23.56,0,0,1-3.65,6.09c-.89,1-2.55,2.09-2.27,3.61a.16.16,0,0,0,.26.07c1.05-1.34,2.22-2.61,3.25-4,1.19-1.56,2.66-3.68,2.72-5.71,0-.16-.25-.24-.32-.09Z"/><g class="cls-57"><path class="cls-58" d="M1083.67,449c-.53,0-1.26.17-1.6-.29s0-1.18.54-1.42c-.48-.13-1.16-1-.49-1.33a1.07,1.07,0,0,1,.22-2.08c-.39-.61-2.2-1.74-.84-2.55-.21-.35-.56-.61-.69-1s.14-.64.14-1c0-.81-.75-1.09,0-1.93-.57-.51-1-1-.64-1.75.13-.3.58-.49.68-.71s0-.31-.1-.74-.14-1.52.55-1.43c.44.06.76,1.21.7,1.57,1.82,0,1,1.34.43,2.29,1,.57,1.2,1.06.4,1.92.66.31,1.28,1.6.38,2.05a1.28,1.28,0,0,1,.94,1.16c0,.52-.49.77-.48,1.13s.57.73.55,1.28-.26.73-.68,1.18a1.26,1.26,0,0,1,.56,2.14c1.56,0,.39,2.58-.72,1.52"/><path class="cls-59" d="M1084.09,449.48a1,1,0,0,1-.64-.24h-.11a1.57,1.57,0,0,1-1.47-.41,1,1,0,0,1-.2-.92,1.28,1.28,0,0,1,.44-.64,1.35,1.35,0,0,1-.51-.84.68.68,0,0,1,.09-.43,1.31,1.31,0,0,1-.52-1.21,1.32,1.32,0,0,1,.74-1.07l-.19-.19c-.46-.46-1-1-.95-1.63a1,1,0,0,1,.39-.65l-.12-.15a2.12,2.12,0,0,1-.46-.74,1.08,1.08,0,0,1,.06-.8.79.79,0,0,0,.08-.29,1.46,1.46,0,0,0-.16-.62,1.12,1.12,0,0,1,.06-1.27,1.51,1.51,0,0,1-.53-1.88,1.42,1.42,0,0,1,.46-.5,1.05,1.05,0,0,0,.22-.21.42.42,0,0,0,0-.14l0-.06a1.48,1.48,0,0,1-.13-.39s-.21-1.05.23-1.52a.68.68,0,0,1,.61-.2.73.73,0,0,1,.48.32,2.82,2.82,0,0,1,.45,1.25,1.14,1.14,0,0,1,1,.48c.3.53-.06,1.27-.49,2a1.52,1.52,0,0,1,.79.94,1.31,1.31,0,0,1-.36,1,1.91,1.91,0,0,1,.7,1.36,1,1,0,0,1-.22.68,1.66,1.66,0,0,1,.71,1.22,1.24,1.24,0,0,1-.32.85.68.68,0,0,0-.16.3.9.9,0,0,0,.19.37,1.51,1.51,0,0,1,.36.92,1.33,1.33,0,0,1-.47,1.07,1.35,1.35,0,0,1,.66.79,1.65,1.65,0,0,1-.12,1.26.82.82,0,0,1,.53.56,1.45,1.45,0,0,1-.63,1.51A1,1,0,0,1,1084.09,449.48Zm-.38-.69a.47.47,0,0,0,.61.11,1,1,0,0,0,.41-.94c0-.07-.07-.27-.48-.26h-.6l.41-.44a1.15,1.15,0,0,0,.27-1.12.87.87,0,0,0-.69-.6l-.45-.09.31-.33.22-.23a.9.9,0,0,0,.38-.78,1.07,1.07,0,0,0-.27-.61,1.2,1.2,0,0,1-.28-.66,1,1,0,0,1,.26-.61.78.78,0,0,0,.22-.51,1,1,0,0,0-.73-.93l-.76-.13.69-.35a.53.53,0,0,0,.31-.52,1.38,1.38,0,0,0-.69-1.08l-.32-.15.24-.26c.32-.35.46-.61.43-.81s-.28-.44-.76-.72l-.23-.13.14-.23c.23-.36.82-1.3.61-1.67-.09-.16-.38-.25-.82-.23h-.31l0-.3a2.21,2.21,0,0,0-.35-1.16.45.45,0,0,0-.12-.12c-.11,0-.15,0-.18,0a1.59,1.59,0,0,0-.1,1.08,1,1,0,0,0,.09.26.62.62,0,0,1,0,.63,1.14,1.14,0,0,1-.37.4,1.08,1.08,0,0,0-.31.31c-.26.59,0,.91.57,1.46l.19.17-.17.19a.68.68,0,0,0-.13.93,1.94,1.94,0,0,1,.21.83,1.26,1.26,0,0,1-.11.47.59.59,0,0,0,0,.46,1.68,1.68,0,0,0,.36.56,3.15,3.15,0,0,1,.31.41l.13.22-.22.13c-.23.14-.36.28-.38.44,0,.36.45.85.8,1.21a3.9,3.9,0,0,1,.49.55l.22.34-.41,0a.79.79,0,0,0-.71.73.78.78,0,0,0,.54.85l.57.19-.54.27c-.13.07-.15.14-.14.21a1,1,0,0,0,.58.64l.71.19-.68.29a.93.93,0,0,0-.55.55.54.54,0,0,0,.12.48c.19.26.62.23,1,.2l.37,0v.11Z"/></g><g class="cls-60"><path class="cls-61" d="M1088,448.28c-1,1.53-3-1-.92-1.78-1,0-.8-1.23-.21-1.65-1.31-.34-1.2-1.62.07-1.94-.59-.77-.42-1,.14-1.66a2.88,2.88,0,0,1-1-1c-.12-.39.2-.7.21-1,0-.47-.42-.69-.47-1.2s.46-.75.75-1.16c-.89-.61-.72-1.17-.34-1.95.08-.16.35-.12.36-.32s-.37-.24-.43-.43c-.21-.64.13-.39.44-.88.14-.22,0-.63.18-.84.39-.46.72.09.86.4a1.69,1.69,0,0,1-.14,1.81c1,.1,1.13,1.17.42,1.87.41.3,1.16,1.33.36,1.65a21.52,21.52,0,0,1,.4,4.59c1,.07.51,1.23.07,1.67.49.25,1.19,1.44.21,1.59.95.71.91,1.65-.28,2,.92.71-.15,1.35-.78.76"/><path class="cls-62" d="M1088.48,449.25a1.1,1.1,0,0,1-.74-.3l.34-.37a.56.56,0,0,0,.56.14.22.22,0,0,0,.16-.14c0-.07,0-.21-.26-.37l-.4-.31.49-.14c.43-.12.7-.33.75-.6s-.15-.64-.55-.94l-.48-.36.6-.09c.25,0,.27-.14.28-.19a1.2,1.2,0,0,0-.56-.93l-.32-.16.25-.25c.28-.27.53-.81.44-1.06,0,0-.06-.15-.35-.17l-.63,0,.48-.4a1.09,1.09,0,0,0,.4-.86,1.22,1.22,0,0,0-.46-.94l-.25-.2.25-.2a1.07,1.07,0,0,0,.42-1,1.25,1.25,0,0,0-.71-1l-.52-.25.54-.22c.16-.06.18-.14.19-.2a1.53,1.53,0,0,0-.61-1l-.24-.18.21-.21a1.06,1.06,0,0,0,.35-1,.66.66,0,0,0-.62-.4l-.5,0,.33-.37a1.45,1.45,0,0,0,.1-1.54c-.15-.33-.29-.42-.32-.43s-.06,0-.11.09a.6.6,0,0,0,0,.29,1,1,0,0,1-.12.52,1.27,1.27,0,0,1-.41.4l-.07,0s0,.06.06.22l.08,0a.54.54,0,0,1,.36.48.46.46,0,0,1-.33.42l-.07,0c-.36.73-.44,1.12.27,1.61l.21.14-.14.21a2.36,2.36,0,0,1-.36.4c-.24.22-.36.35-.34.6a1.05,1.05,0,0,0,.21.48,1.2,1.2,0,0,1,.26.75,1.31,1.31,0,0,1-.13.45.66.66,0,0,0-.09.47c.1.32.68.76.87.91l.21.16-.17.2c-.53.62-.61.71-.13,1.34l.23.31-.37.09c-.49.12-.81.42-.81.75s.28.57.74.7l.52.14-.44.31a1,1,0,0,0-.36.93c0,.06.08.25.43.26l1.24,0-1.15.46c-.5.2-.76.52-.74.92a1,1,0,0,0,.64.84.66.66,0,0,0,.71-.35l.42.28a1.14,1.14,0,0,1-1.27.56,1.46,1.46,0,0,1-1-1.3,1.3,1.3,0,0,1,.53-1.12.83.83,0,0,1-.29-.43,1.42,1.42,0,0,1,.25-1.18,1.17,1.17,0,0,1-.73-1,1.28,1.28,0,0,1,.86-1.13,1.08,1.08,0,0,1,.18-1.49,2.46,2.46,0,0,1-.84-1,1.11,1.11,0,0,1,.11-.82,1,1,0,0,0,.09-.28.74.74,0,0,0-.18-.45,1.52,1.52,0,0,1-.29-.71,1.17,1.17,0,0,1,.5-1l.13-.13c-.8-.68-.56-1.38-.2-2.1a.51.51,0,0,1,.26-.23h0a.59.59,0,0,1-.33-.33c-.16-.49-.06-.67.21-.85a.77.77,0,0,0,.26-.25.7.7,0,0,0,0-.26.92.92,0,0,1,.17-.61.62.62,0,0,1,.57-.26c.27,0,.51.28.71.72a2.06,2.06,0,0,1,0,1.75,1.07,1.07,0,0,1,.66.65,1.47,1.47,0,0,1-.3,1.36,1.81,1.81,0,0,1,.6,1.3.71.71,0,0,1-.15.36,1.75,1.75,0,0,1,.65,1.16,1.57,1.57,0,0,1-.4,1.25,1.71,1.71,0,0,1,.44,1.13,1.61,1.61,0,0,1-.28.93.7.7,0,0,1,.34.39,2.1,2.1,0,0,0,.21,2.65.68.68,0,0,1-.26.44,1.33,1.33,0,0,1,.43,1.15,1.19,1.19,0,0,1-.73.85.73.73,0,0,1,.15.55.71.71,0,0,1-.49.54A1,1,0,0,1,1088.48,449.25Z"/></g><g class="cls-63"><path class="cls-64" d="M1094.18,449.25c-.49,0-1.08.05-1.35-.45a.68.68,0,0,1,.76-1c-1.06-.12-.41-1.65.22-1.94-.81-1.16-.26-1.72.7-2.39-1.13-1,.11-1.25.23-2.24.05-.44-.41-.91-.2-1.37a1.55,1.55,0,0,1,1-.61,1.13,1.13,0,0,1,.57-1.86c-.25-1.13-.48-1.57.68-2.19a1.16,1.16,0,0,1-.05-1.24,3,3,0,0,1,1-.49c1.19.07.71,1.48.2,2.06,1.16.33-.05,1.1-.12,1.56s.87.75.73,1.54c-.08.44-.51.63-.68,1-.31.65,0,.27.18.88s-.48,1.49-1.15,1.72c1.37.21.6,1.66-.12,2.08,1,.56-.06,2-.78,2.31a1,1,0,0,1-.13,1.8c.1.47-.27,1.91-.92,1.27.45,1.14-1.07.87-1.19,0"/><path class="cls-65" d="M1094.62,450.7a1.07,1.07,0,0,1-.31-.05,1.14,1.14,0,0,1-.8-.88l.5-.07a.63.63,0,0,0,.45.47.32.32,0,0,0,.29,0s0-.18,0-.38l-.43-1.1.84.83c.11.11.15.09.17.08a1.48,1.48,0,0,0,.33-1.11l0-.19.18-.09a.89.89,0,0,0,.52-.76.66.66,0,0,0-.39-.6l-.51-.27.54-.2a1.93,1.93,0,0,0,1-1.34.49.49,0,0,0-.29-.51l-.39-.22.39-.22a1.52,1.52,0,0,0,.74-1.24c0-.07-.05-.29-.53-.37l-1-.16,1-.33c.52-.18,1.17-.79,1-1.41a.42.42,0,0,0-.15-.26c-.26-.22-.18-.44,0-.79a1.8,1.8,0,0,1,.35-.46,1,1,0,0,0,.31-.47c.05-.29-.09-.45-.33-.69a1,1,0,0,1-.4-.84,1.49,1.49,0,0,1,.34-.61c.11-.14.31-.41.28-.5s-.09-.1-.31-.17l-.39-.11.27-.3a1.66,1.66,0,0,0,.44-1.38c0-.06-.09-.23-.46-.25a3.64,3.64,0,0,0-.8.4.92.92,0,0,0,.07.94l.16.23-.25.13c-.88.47-.82.71-.62,1.61l.11.5-.2.08a1.09,1.09,0,0,0-.7.71.82.82,0,0,0,.23.75l.32.36-.47.06a1.36,1.36,0,0,0-.82.46c-.07.16,0,.33.08.59a1.49,1.49,0,0,1,.14.7,2,2,0,0,1-.45,1c-.29.39-.41.55.14,1.06l.23.21-.26.18c-1,.68-1.31,1.07-.63,2l.17.25-.27.13a1.42,1.42,0,0,0-.63,1.19c0,.11.07.23.29.26h.05l-.07.5h-.05a.48.48,0,0,0-.45.18.41.41,0,0,0,0,.45c.18.32.53.33,1.06.32h.06v.51h-.06a1.49,1.49,0,0,1-1.52-.58.91.91,0,0,1,.3-1.24.83.83,0,0,1-.12-.32,1.91,1.91,0,0,1,.68-1.58c-.66-1.12-.11-1.77.66-2.35a1,1,0,0,1,0-1.51,1.53,1.53,0,0,0,.36-.72,1.11,1.11,0,0,0-.11-.46,1.23,1.23,0,0,1-.07-1,1.53,1.53,0,0,1,.84-.65,1.25,1.25,0,0,1-.12-.89,1.54,1.54,0,0,1,.81-1l0-.09c-.2-.86-.33-1.44.65-2a1.34,1.34,0,0,1,.09-1.31,3,3,0,0,1,1.22-.58.94.94,0,0,1,.9.57,2,2,0,0,1-.32,1.63.66.66,0,0,1,.33.36c.12.35-.13.68-.35,1a1.44,1.44,0,0,0-.24.38c0,.11.07.21.26.4a1.22,1.22,0,0,1,.47,1.14,1.42,1.42,0,0,1-.44.73,1.41,1.41,0,0,0-.26.33l-.09.21a1,1,0,0,1,.29.49,1.66,1.66,0,0,1-.77,1.75.87.87,0,0,1,.37.56,1.87,1.87,0,0,1-.7,1.56,1,1,0,0,1,.25.76,2.4,2.4,0,0,1-1,1.57,1.11,1.11,0,0,1,.32.8,1.38,1.38,0,0,1-.65,1.11,1.8,1.8,0,0,1-.6,1.47.57.57,0,0,1-.26.07.62.62,0,0,1-.16.41A.67.67,0,0,1,1094.62,450.7Z"/></g><path class="cls-51" d="M1094.15,477.48V477h6.25l0,.39v.12Zm-3.12,0h-6.25V477H1091Zm-9.37,0h-5.43a6.24,6.24,0,0,1-.85-.06l.07-.5a5.79,5.79,0,0,0,.78.05h5.43Zm21.88-.84-.25-.44a5.88,5.88,0,0,0,2.95-4.91h.51A6.39,6.39,0,0,1,1103.54,476.64Zm-31.13-.46a6.3,6.3,0,0,1-2.51-5v-.64h.51v.64a5.79,5.79,0,0,0,2.31,4.64Zm34.34-8h-.51v-6.25h.51Zm-36.34-.8h-.51v-6.25h.51Zm36.34-8.58h-.51v-6.25h.51Zm-36.34-.8h-.51v-6.25h.51Zm36.34-8.58h-.51v-6.25h.51Zm-36.34-.8h-.51v-6.25h.51Zm36.34-8.58h-.51v-5.31a5.84,5.84,0,0,0-.07-.89l.5-.08a6.34,6.34,0,0,1,.07,1Zm-36.34-.8h-.51v-4.52a6.3,6.3,0,0,1,.26-1.78l.49.14a5.8,5.8,0,0,0-.23,1.63Zm34.58-8.12a5.8,5.8,0,0,0-4.57-2.23h-.75v-.51h.75a6.31,6.31,0,0,1,5,2.42Zm-32.82-.57-.35-.36a6.3,6.3,0,0,1,4.42-1.8h1.55v.51h-1.55A5.79,5.79,0,0,0,1072.16,430.56Zm24.36-1.66h-6.25v-.51h6.25Zm-9.37,0h-6.25v-.51h6.25Z"/><path class="cls-66" d="M1092.65,458.38a12.61,12.61,0,0,0,3.49-2.68c.63-.65,2.44-2.27,2.32-3.25a12.07,12.07,0,0,0-3.21,1.81,9.27,9.27,0,0,0-2.32,1.68"/><path class="cls-67" d="M945.27,189.23v3.06l46.54,26.87a9.75,9.75,0,0,1,.68-2.67Z"/><polygon class="cls-68" points="945.27 187.11 945.27 190.18 992.47 217.42 992.96 216.57 992.96 214.64 945.27 187.11"/><path class="cls-69" d="M902.91,142.53c4.52,3.63,10,5.64,14.88,8.64a87.8,87.8,0,0,1,8.93,6.51c7,5.62,13.88,11.94,18.91,19.45,2.07,3.09,4,6.64,4.41,10.39a12.9,12.9,0,0,1-.38,5.41c-.28.85-.81.6-1.57.23-2.89-1.41-5.15-4.47-6.7-7.19-2.89-5.06-4.49-11-6.06-16.54-2.37-8.41-4.67-16.77-7.5-25-3.08-9-6.46-17.92-10-26.77-1-2.45-5-1.38-4,1.1C918.73,131,923.32,143.4,927.3,156c3.41,10.81,5,22.87,10.92,32.74,2.41,4,10.2,13.08,14.77,6.69,2-2.84,1.43-7.77.65-10.94a32.92,32.92,0,0,0-5.33-10.73c-5.1-7.28-11.78-13.45-18.67-19-2.87-2.31-5.82-4.52-8.87-6.58-4.76-3.22-10.43-5-14.93-8.57-2.06-1.65-5,1.25-2.92,2.92Z"/><path class="cls-67" d="M899.22,215.82a9.7,9.7,0,0,1,.38,2.69c0,.05,0,.11,0,.16l45.67-26.37v-3.06Z"/><polygon class="cls-68" points="897.33 214.79 897.33 216.11 898.09 217.42 945.27 190.18 945.27 187.11 897.33 214.79"/><path class="cls-70" d="M946.75,231.94l-2.13-1.35c2.9-4.57,8.22-12.19,11.26-11.92l-.23,2.51C954.47,221.33,950.29,226.36,946.75,231.94Z"/><path class="cls-70" d="M945.1,239.89A80.87,80.87,0,0,0,941,216.32a35.89,35.89,0,0,0-3.49-7.63l2.08-1.43c.29.43,7.2,10.73,8,32.54Z"/><path class="cls-70" d="M966.11,210.19s-24.64,1.61-14.1,13Z"/><path class="cls-71" d="M966.11,210.19s-3.56,24.44-14.1,13Z"/><path class="cls-70" d="M931.77,186.65s-11.66,30,7.62,23.83Z"/><path class="cls-71" d="M931.77,186.65s26.91,17.65,7.62,23.83Z"/><path class="cls-44" d="M951.71,246.3c5.25-.15,10.53.13,15.8.32-4-6-11.69-10.12-20.5-10.12-9.79,0-18.17,5-21.69,12.18C934.07,249.46,943,246.55,951.71,246.3Z"/><polygon class="cls-38" points="897.33 215.21 897.33 270.47 945.18 298.1 945.18 242.84 897.33 215.21"/><polygon class="cls-38" points="990.75 213.52 945.27 239.77 899.94 213.6 897.56 214.97 897.42 215.21 897.33 218.22 945.27 245.9 992.96 218.38 992.96 214.91 992.85 214.72 990.75 213.52"/><polygon class="cls-72" points="992.96 215.21 992.96 270.47 945.1 298.1 945.1 242.84 992.96 215.21"/><path class="cls-73" d="M969.28,277.64a14.33,14.33,0,0,1-4.92-.86c-8.91-3.24-12.92-14.76-8.94-25.68,3.17-8.7,10.75-14.78,18.44-14.78a14.34,14.34,0,0,1,4.92.86c8.91,3.24,12.92,14.76,8.94,25.68C984.55,271.56,977,277.64,969.28,277.64Zm4.58-38c-6.33,0-12.63,5.18-15.33,12.61-3.35,9.21-.23,18.82,7,21.44a11,11,0,0,0,3.79.66c6.33,0,12.63-5.19,15.33-12.61,3.35-9.21.23-18.83-7-21.44A11,11,0,0,0,973.86,239.62Z"/><path class="cls-73" d="M967.45,288.61a19.6,19.6,0,0,1-6.73-1.18c-12.89-4.69-18.39-22.2-12.27-39,5-13.65,16.38-23.18,27.76-23.18a19.6,19.6,0,0,1,6.73,1.18c6.33,2.3,11.07,7.69,13.36,15.17a38,38,0,0,1-1.09,23.85C990.24,279.08,978.82,288.61,967.45,288.61Zm8.76-60.07c-10,0-20.15,8.64-24.65,21-5.5,15.11-.88,30.71,10.29,34.78a16.3,16.3,0,0,0,5.6,1c10,0,20.15-8.64,24.65-21a34.64,34.64,0,0,0,1-21.75c-2-6.46-6-11.09-11.33-13A16.3,16.3,0,0,0,976.21,228.54Z"/><path class="cls-73" d="M966.19,297.55a25,25,0,0,1-8.59-1.5c-8.09-2.95-14.16-9.85-17.09-19.44-2.88-9.42-2.38-20.34,1.41-30.76C948.32,228.26,963,216,977.6,216a25,25,0,0,1,8.59,1.5c8.09,2.95,14.16,9.85,17.1,19.44,2.88,9.42,2.38,20.34-1.41,30.76C995.48,285.26,980.8,297.55,966.19,297.55Zm11.42-78.26C964.35,219.28,951,230.67,945,247c-3.55,9.74-4,19.92-1.36,28.66,2.62,8.57,8,14.72,15.06,17.3a21.74,21.74,0,0,0,7.46,1.3c13.25,0,26.65-11.39,32.58-27.69,3.55-9.74,4-19.92,1.36-28.66-2.62-8.57-8-14.72-15.06-17.3A21.74,21.74,0,0,0,977.6,219.28Z"/><path class="cls-29" d="M970.35,264.86a4.75,4.75,0,0,1-1.63-.29,5.54,5.54,0,0,1-3.32-3.91,10.26,10.26,0,0,1,.36-6.24c1.32-3.62,4.27-6.15,7.17-6.15a4.75,4.75,0,0,1,1.63.29,5.54,5.54,0,0,1,3.32,3.91,10.26,10.26,0,0,1-.36,6.24C976.2,262.33,973.26,264.86,970.35,264.86ZM972.93,249c-2.61,0-5.28,2.34-6.5,5.68a9.55,9.55,0,0,0-.34,5.8A4.85,4.85,0,0,0,969,263.9a4,4,0,0,0,1.39.24c2.61,0,5.28-2.34,6.5-5.68a9.55,9.55,0,0,0,.34-5.8,4.86,4.86,0,0,0-2.88-3.44A4,4,0,0,0,972.93,249Z"/><path class="cls-29" d="M970.13,266.23a5.5,5.5,0,0,1-1.89-.33,6.44,6.44,0,0,1-3.86-4.55,12,12,0,0,1,.42-7.27c1.54-4.22,5-7.17,8.35-7.17a5.5,5.5,0,0,1,1.89.33,6.44,6.44,0,0,1,3.86,4.55,12,12,0,0,1-.42,7.27C976.94,263.28,973.51,266.23,970.13,266.23Zm3-18.61c-3.08,0-6.24,2.76-7.68,6.7a11.25,11.25,0,0,0-.41,6.84,5.75,5.75,0,0,0,3.42,4.07,4.8,4.8,0,0,0,1.65.29c3.08,0,6.24-2.76,7.68-6.7a11.25,11.25,0,0,0,.41-6.84,5.75,5.75,0,0,0-3.42-4.07A4.8,4.8,0,0,0,973.15,247.62Z"/><path class="cls-29" d="M969.89,267.68a6.31,6.31,0,0,1-2.17-.38,7.39,7.39,0,0,1-4.43-5.22,13.78,13.78,0,0,1,.49-8.38c1.77-4.86,5.72-8.26,9.6-8.26a6.31,6.31,0,0,1,2.17.38c4.33,1.58,6.1,7.68,3.94,13.6C977.72,264.29,973.77,267.68,969.89,267.68Zm3.49-21.52c-3.59,0-7.26,3.2-8.93,7.79a13.07,13.07,0,0,0-.47,7.94,6.7,6.7,0,0,0,4,4.75,5.59,5.59,0,0,0,1.92.34c3.59,0,7.26-3.2,8.93-7.79,2-5.55.45-11.24-3.51-12.69A5.59,5.59,0,0,0,973.38,246.16Z"/><path class="cls-29" d="M969.43,270.58a7.91,7.91,0,0,1-2.72-.48,9.29,9.29,0,0,1-5.56-6.56,17.4,17.4,0,0,1,.62-10.57c2.23-6.13,7.21-10.41,12.09-10.41a7.91,7.91,0,0,1,2.72.48c5.45,2,7.66,9.67,4.94,17.14C979.29,266.3,974.31,270.58,969.43,270.58Zm4.43-27.31c-4.59,0-9.29,4.09-11.42,9.95a16.68,16.68,0,0,0-.6,10.14,8.6,8.6,0,0,0,5.12,6.09,7.2,7.2,0,0,0,2.47.43c4.59,0,9.29-4.09,11.42-9.95,2.59-7.1.56-14.37-4.52-16.22A7.2,7.2,0,0,0,973.86,243.27Z"/><path class="cls-29" d="M969.18,272.07a8.73,8.73,0,0,1-3-.52c-2.94-1.07-5.12-3.65-6.14-7.26a19.26,19.26,0,0,1,.68-11.71c2.47-6.79,8-11.53,13.38-11.53a8.74,8.74,0,0,1,3,.52c2.94,1.07,5.12,3.65,6.14,7.25a19.26,19.26,0,0,1-.68,11.71C980.09,267.33,974.58,272.07,969.18,272.07Zm4.92-30.3c-5.11,0-10.34,4.55-12.71,11.06a18.55,18.55,0,0,0-.67,11.27c1,3.38,3,5.79,5.7,6.78a8,8,0,0,0,2.76.48c5.11,0,10.34-4.55,12.71-11.06a18.55,18.55,0,0,0,.67-11.27c-1-3.38-3-5.79-5.7-6.78A8,8,0,0,0,974.1,241.77Z"/><path class="cls-29" d="M970.82,262a3.15,3.15,0,0,1-1.08-.19c-2.13-.78-3-3.75-2-6.63.86-2.36,2.79-4,4.69-4a3.15,3.15,0,0,1,1.08.19,3.66,3.66,0,0,1,2.2,2.58,6.66,6.66,0,0,1-.23,4.05C974.65,260.33,972.72,262,970.82,262Zm1.64-10.11c-1.61,0-3.26,1.45-4,3.53-.91,2.51-.22,5.07,1.54,5.72a2.44,2.44,0,0,0,.84.15c1.61,0,3.26-1.45,4-3.53a6,6,0,0,0,.22-3.61,3,3,0,0,0-1.75-2.1A2.44,2.44,0,0,0,972.46,251.87Z"/><path class="cls-29" d="M970.59,263.39a3.94,3.94,0,0,1-1.35-.24,4.59,4.59,0,0,1-2.75-3.24,8.43,8.43,0,0,1,.3-5.13c1.09-3,3.51-5.06,5.91-5.06A3.93,3.93,0,0,1,974,250a4.59,4.59,0,0,1,2.75,3.24,8.43,8.43,0,0,1-.3,5.13C975.41,261.31,973,263.39,970.59,263.39Zm2.1-12.94c-2.1,0-4.25,1.89-5.24,4.59a7.72,7.72,0,0,0-.28,4.69,3.89,3.89,0,0,0,2.31,2.76,3.22,3.22,0,0,0,1.11.19c2.1,0,4.25-1.89,5.24-4.59a7.72,7.72,0,0,0,.28-4.69,3.89,3.89,0,0,0-2.31-2.76A3.22,3.22,0,0,0,972.69,250.45Z"/><path class="cls-29" d="M969.65,269.18a7.13,7.13,0,0,1-2.45-.43c-4.91-1.79-6.91-8.71-4.46-15.43,2-5.52,6.49-9.37,10.89-9.37a7.13,7.13,0,0,1,2.45.43c4.91,1.79,6.91,8.71,4.46,15.43C978.53,265.32,974,269.18,969.65,269.18Zm4-24.51c-4.11,0-8.31,3.66-10.22,8.9-2.31,6.35-.5,12.86,4,14.51a6.43,6.43,0,0,0,2.21.39c4.11,0,8.31-3.66,10.22-8.9,2.31-6.35.5-12.86-4-14.51A6.43,6.43,0,0,0,973.63,244.66Z"/><ellipse class="cls-29" cx="971.64" cy="256.57" rx="4.07" ry="2.94" transform="translate(397.93 1081.66) rotate(-69.98)"/><line class="cls-74" x1="937.56" y1="340.86" x2="891.67" y2="426.46"/><line class="cls-74" x1="965.87" y1="341.99" x2="1012.23" y2="428.48"/><line class="cls-74" x1="893.72" y1="451.39" x2="1013.61" y2="451.39"/><circle class="cls-29" cx="885.12" cy="445.56" r="17.22"/><circle class="cls-29" cx="1018.92" cy="445.56" r="17.22"/><circle class="cls-29" cx="952.01" cy="337.42" r="17.22"/><text class="cls-75" transform="translate(274.16 186.26)">promote low-carbon lifestyle</text><text class="cls-75" transform="translate(283.16 763.86)">benefit more citizens</text><text class="cls-75" transform="translate(1359.69 760.41)">make people feel belonged</text><text class="cls-75" transform="translate(1346.17 137.59)">release pressure in the nature</text><rect class="cls-76" x="466.74" y="358.5" width="47.6" height="87.93"/><rect class="cls-77" x="477.77" y="436.11" width="25.83" height="10.32"/><rect class="cls-78" x="489.14" y="436.11" width="2.21" height="10.32"/><rect class="cls-79" x="466.74" y="355.02" width="47.6" height="3.48"/><rect class="cls-11" x="469.97" y="362.7" width="40.8" height="10.49"/><rect class="cls-10" x="471.48" y="364.03" width="7.98" height="7.98"/><rect class="cls-10" x="481.41" y="364.03" width="7.98" height="7.98"/><rect class="cls-10" x="491.35" y="364.03" width="7.98" height="7.98"/><rect class="cls-10" x="501.29" y="364.03" width="7.98" height="7.98"/><rect class="cls-11" x="469.97" y="376.7" width="40.8" height="10.49"/><rect class="cls-10" x="471.48" y="378.03" width="7.98" height="7.98"/><rect class="cls-10" x="481.41" y="378.03" width="7.98" height="7.98"/><rect class="cls-10" x="491.35" y="378.03" width="7.98" height="7.98"/><rect class="cls-10" x="501.29" y="378.03" width="7.98" height="7.98"/><rect class="cls-11" x="469.97" y="390.7" width="40.8" height="10.49"/><rect class="cls-10" x="471.48" y="392.02" width="7.98" height="7.98"/><rect class="cls-10" x="481.41" y="392.02" width="7.98" height="7.98"/><rect class="cls-10" x="491.35" y="392.02" width="7.98" height="7.98"/><rect class="cls-10" x="501.29" y="392.02" width="7.98" height="7.98"/><rect class="cls-11" x="469.97" y="404.7" width="40.8" height="10.49"/><rect class="cls-10" x="471.48" y="406.02" width="7.98" height="7.98"/><rect class="cls-10" x="481.41" y="406.02" width="7.98" height="7.98"/><rect class="cls-10" x="491.35" y="406.02" width="7.98" height="7.98"/><rect class="cls-10" x="501.29" y="406.02" width="7.98" height="7.98"/><rect class="cls-11" x="469.97" y="418.7" width="40.8" height="10.49"/><rect class="cls-10" x="471.48" y="420.02" width="7.98" height="7.98"/><rect class="cls-10" x="481.41" y="420.02" width="7.98" height="7.98"/><rect class="cls-10" x="491.35" y="420.02" width="7.98" height="7.98"/><rect class="cls-10" x="501.29" y="420.02" width="7.98" height="7.98"/><rect class="cls-11" x="433.01" y="388.4" width="15.82" height="1.82"/><rect class="cls-80" x="433.6" y="373.63" width="47.28" height="72.93"/><rect class="cls-81" x="438.66" y="379.52" width="7.91" height="10.7"/><rect class="cls-82" x="446.55" y="379.52" width="7.91" height="10.7"/><rect class="cls-82" x="467.92" y="379.52" width="7.91" height="10.7"/><rect class="cls-81" x="460.01" y="379.52" width="7.91" height="10.7"/><path class="cls-11" d="M438.66,379.52v10.7h15.82v-10.7Zm2.25,8.88v-7.06h4.54v7.06Zm11.33,0h-4.54v-7.06h4.54Z"/><path class="cls-11" d="M473.58,379.52H460v10.7h15.82v-10.7Zm-11.33,8.88v-7.06h4.54v7.06Zm11.33,0H469v-7.06h4.54Z"/><rect class="cls-81" x="438.66" y="395.43" width="7.91" height="10.7"/><rect class="cls-82" x="446.55" y="395.43" width="7.91" height="10.7"/><rect class="cls-82" x="467.92" y="395.43" width="7.91" height="10.7"/><rect class="cls-81" x="460.01" y="395.43" width="7.91" height="10.7"/><path class="cls-11" d="M438.66,395.43v10.7h15.82v-10.7Zm2.25,8.88v-7.06h4.54v7.06Zm11.33,0h-4.54v-7.06h4.54Z"/><path class="cls-11" d="M473.58,395.43H460v10.7h15.82v-10.7Zm-11.33,8.88v-7.06h4.54v7.06Zm11.33,0H469v-7.06h4.54Z"/><rect class="cls-81" x="438.66" y="411.34" width="7.91" height="10.7"/><rect class="cls-82" x="446.55" y="411.34" width="7.91" height="10.7"/><rect class="cls-82" x="467.92" y="411.34" width="7.91" height="10.7"/><rect class="cls-81" x="460.01" y="411.34" width="7.91" height="10.7"/><path class="cls-11" d="M438.66,411.34V422h15.82v-10.7Zm2.25,8.88v-7.06h4.54v7.06Zm11.33,0h-4.54v-7.06h4.54Z"/><path class="cls-11" d="M473.58,411.34H460V422h15.82v-10.7Zm-11.33,8.88v-7.06h4.54v7.06Zm11.33,0H469v-7.06h4.54Z"/><rect class="cls-81" x="438.66" y="427.25" width="7.91" height="10.7"/><rect class="cls-82" x="446.55" y="427.25" width="7.91" height="10.7"/><rect class="cls-82" x="467.92" y="427.25" width="7.91" height="10.7"/><rect class="cls-81" x="460.01" y="427.25" width="7.91" height="10.7"/><path class="cls-11" d="M438.66,427.25V438h15.82v-10.7Zm2.25,8.88v-7.06h4.54v7.06Zm11.33,0h-4.54v-7.06h4.54Z"/><path class="cls-11" d="M473.58,427.25H460V438h15.82v-10.7Zm-11.33,8.88v-7.06h4.54v7.06Zm11.33,0H469v-7.06h4.54Z"/><rect class="cls-83" x="438.66" y="351.14" width="37.17" height="22.49"/><polygon class="cls-84" points="475.82 351.14 438.66 351.14 457.24 336.17 475.82 351.14"/><rect class="cls-82" x="448.83" y="358.5" width="6.98" height="9.44"/><rect class="cls-81" x="441.85" y="358.5" width="6.98" height="9.44"/><path class="cls-11" d="M441.85,358.5v9.44h14V358.5Zm2,7.84v-6.23h4v6.23Zm10,0h-4v-6.23h4Z"/><rect class="cls-82" x="465.75" y="358.5" width="6.98" height="9.44"/><rect class="cls-81" x="458.77" y="358.5" width="6.98" height="9.44"/><rect class="cls-11" x="458.77" y="358.5" width="13.96" height="1.61"/><rect class="cls-11" x="458.77" y="366.34" width="13.96" height="1.61"/><rect class="cls-11" x="458.77" y="358.5" width="1.98" height="9.44"/><rect class="cls-11" x="470.75" y="358.5" width="1.98" height="9.44"/><rect class="cls-11" x="464.76" y="358.5" width="1.98" height="9.44"/><polygon class="cls-85" points="457.24 336.17 457.24 351.14 475.82 351.14 457.24 336.17"/><rect class="cls-11" x="423.96" y="393.41" width="86.95" height="6.42"/><rect class="cls-86" x="496.14" y="404.58" width="4.62" height="41.85"/><path class="cls-87" d="M498.35,407.75a8,8,0,0,0,8-8h-16A8,8,0,0,0,498.35,407.75Z"/><rect class="cls-86" x="441.15" y="404.58" width="4.62" height="41.85"/><path class="cls-87" d="M443.36,407.75a8,8,0,0,0,8-8h-16A8,8,0,0,0,443.36,407.75Z"/><polygon class="cls-88" points="510.9 388.77 441.56 388.77 441.56 390.88 444.9 390.88 444.9 393.41 447.56 393.41 447.56 390.88 453.58 390.88 453.58 393.41 456.24 393.41 456.24 390.88 462.26 390.88 462.26 393.41 464.92 393.41 464.92 390.88 470.94 390.88 470.94 393.41 473.6 393.41 473.6 390.88 479.62 390.88 479.62 393.41 482.28 393.41 482.28 390.88 488.3 390.88 488.3 393.41 490.96 393.41 490.96 390.88 496.98 390.88 496.98 393.41 499.64 393.41 499.64 390.88 505.66 390.88 505.66 393.41 508.32 393.41 508.32 390.88 510.9 390.88 510.9 388.77"/><polygon class="cls-89" points="441.56 328.92 441.56 317.93 354.59 317.93 354.59 446.56 441.56 446.56 441.56 438.35 397.38 438.35 397.38 328.92 441.56 328.92"/><rect class="cls-11" x="359.38" y="328.91" width="7.5" height="7.54"/><rect class="cls-11" x="372.05" y="328.91" width="7.5" height="7.54"/><rect class="cls-11" x="384.72" y="328.91" width="7.5" height="7.54"/><rect class="cls-11" x="359.38" y="342.83" width="7.5" height="7.54"/><rect class="cls-11" x="372.05" y="342.83" width="7.5" height="7.54"/><rect class="cls-11" x="384.72" y="342.83" width="7.5" height="7.54"/><rect class="cls-11" x="359.38" y="356.75" width="7.5" height="7.54"/><rect class="cls-11" x="372.05" y="356.75" width="7.5" height="7.54"/><rect class="cls-11" x="384.72" y="356.75" width="7.5" height="7.54"/><rect class="cls-11" x="359.38" y="370.67" width="7.5" height="7.54"/><rect class="cls-11" x="372.05" y="370.67" width="7.5" height="7.54"/><rect class="cls-11" x="384.72" y="370.67" width="7.5" height="7.54"/><rect class="cls-11" x="359.38" y="384.59" width="7.5" height="7.54"/><rect class="cls-11" x="372.05" y="384.59" width="7.5" height="7.54"/><rect class="cls-11" x="384.72" y="384.59" width="7.5" height="7.54"/><rect class="cls-11" x="359.38" y="398.5" width="7.5" height="7.54"/><rect class="cls-11" x="372.05" y="398.5" width="7.5" height="7.54"/><rect class="cls-11" x="384.72" y="398.5" width="7.5" height="7.54"/><rect class="cls-11" x="359.38" y="412.42" width="7.5" height="7.54"/><rect class="cls-11" x="372.05" y="412.42" width="7.5" height="7.54"/><rect class="cls-11" x="384.72" y="412.42" width="7.5" height="7.54"/><rect class="cls-11" x="359.38" y="426.34" width="7.5" height="7.54"/><rect class="cls-11" x="372.05" y="426.34" width="7.5" height="7.54"/><rect class="cls-11" x="384.72" y="426.34" width="7.5" height="7.54"/><rect class="cls-90" x="397.38" y="328.91" width="44.18" height="109.43"/><rect class="cls-91" x="428.95" y="328.91" width="12.61" height="109.43"/><rect class="cls-92" x="397.36" y="340.3" width="46" height="3.1"/><rect class="cls-92" x="397.36" y="361.73" width="46" height="3.1"/><rect class="cls-92" x="397.36" y="383.15" width="46" height="3.1"/><rect class="cls-92" x="397.36" y="404.58" width="46" height="3.1"/><rect class="cls-92" x="397.36" y="426" width="46" height="3.1"/><rect class="cls-93" x="428.95" y="317.93" width="12.61" height="10.99"/><rect class="cls-93" x="428.95" y="438.34" width="12.61" height="8.22"/><rect class="cls-11" x="372.19" y="357.89" width="51.77" height="88.54"/><rect class="cls-10" x="378.35" y="363.14" width="7.51" height="7.51"/><rect class="cls-10" x="393.61" y="363.14" width="7.51" height="7.51"/><rect class="cls-94" x="389.06" y="363.98" width="0.74" height="5.67"/><rect class="cls-10" x="409.81" y="363.14" width="7.51" height="7.51"/><rect class="cls-94" x="405.26" y="363.98" width="0.74" height="5.67"/><rect class="cls-10" x="378.35" y="376.68" width="7.51" height="7.51"/><rect class="cls-10" x="393.61" y="376.68" width="7.51" height="7.51"/><rect class="cls-94" x="389.06" y="377.52" width="0.74" height="5.67"/><rect class="cls-10" x="409.81" y="376.68" width="7.51" height="7.51"/><rect class="cls-94" x="405.26" y="377.52" width="0.74" height="5.67"/><rect class="cls-10" x="378.35" y="390.22" width="7.51" height="7.51"/><rect class="cls-10" x="393.61" y="390.22" width="7.51" height="7.51"/><rect class="cls-94" x="389.06" y="391.06" width="0.74" height="5.67"/><rect class="cls-10" x="409.81" y="390.22" width="7.51" height="7.51"/><rect class="cls-94" x="405.26" y="391.06" width="0.74" height="5.67"/><rect class="cls-10" x="378.35" y="403.76" width="7.51" height="7.51"/><rect class="cls-10" x="393.61" y="403.76" width="7.51" height="7.51"/><rect class="cls-94" x="389.06" y="404.6" width="0.74" height="5.67"/><rect class="cls-10" x="409.81" y="403.76" width="7.51" height="7.51"/><rect class="cls-94" x="405.26" y="404.6" width="0.74" height="5.67"/><rect class="cls-10" x="378.35" y="417.3" width="7.51" height="7.51"/><rect class="cls-10" x="393.61" y="417.3" width="7.51" height="7.51"/><rect class="cls-94" x="389.06" y="418.14" width="0.74" height="5.67"/><rect class="cls-10" x="409.81" y="417.3" width="7.51" height="7.51"/><rect class="cls-94" x="405.26" y="418.14" width="0.74" height="5.67"/><rect class="cls-10" x="378.35" y="430.84" width="7.51" height="7.51"/><rect class="cls-10" x="393.61" y="430.84" width="7.51" height="7.51"/><rect class="cls-94" x="389.06" y="431.68" width="0.74" height="5.67"/><rect class="cls-10" x="409.81" y="430.84" width="7.51" height="7.51"/><rect class="cls-94" x="405.26" y="431.68" width="0.74" height="5.67"/><rect class="cls-95" x="246.4" y="348.86" width="31.3" height="97.57"/><circle class="cls-96" cx="256.26" cy="358.3" r="3.98"/><circle class="cls-96" cx="268.11" cy="358.3" r="3.98"/><circle class="cls-96" cx="256.26" cy="369.65" r="3.98"/><circle class="cls-96" cx="268.11" cy="369.65" r="3.98"/><circle class="cls-96" cx="256.26" cy="381" r="3.98"/><circle class="cls-96" cx="268.11" cy="381" r="3.98"/><circle class="cls-96" cx="256.26" cy="392.35" r="3.98"/><circle class="cls-96" cx="268.11" cy="392.35" r="3.98"/><circle class="cls-96" cx="256.26" cy="403.7" r="3.98"/><circle class="cls-96" cx="268.11" cy="403.7" r="3.98"/><circle class="cls-96" cx="256.26" cy="415.05" r="3.98"/><circle class="cls-96" cx="268.11" cy="415.05" r="3.98"/><circle class="cls-96" cx="256.26" cy="426.4" r="3.98"/><circle class="cls-96" cx="268.11" cy="426.4" r="3.98"/><circle class="cls-96" cx="256.26" cy="437.75" r="3.98"/><circle class="cls-96" cx="268.11" cy="437.75" r="3.98"/><rect class="cls-97" x="246.4" y="346.34" width="31.3" height="2.52"/><path class="cls-98" d="M326.16,327.76H289.07c-2.71,0-4.9,2.9-4.9,6.47v112.2h46.89V334.23C331.06,330.66,328.87,327.76,326.16,327.76Z"/><rect class="cls-11" x="288.76" y="336.58" width="10.02" height="10.02"/><rect class="cls-94" x="290.14" y="337.96" width="7.27" height="7.27"/><rect class="cls-11" x="302.6" y="336.58" width="10.02" height="10.02"/><rect class="cls-94" x="303.98" y="337.96" width="7.27" height="7.27"/><rect class="cls-11" x="316.45" y="336.58" width="10.02" height="10.02"/><rect class="cls-94" x="317.82" y="337.96" width="7.27" height="7.27"/><rect class="cls-11" x="288.76" y="351.14" width="10.02" height="10.02"/><rect class="cls-94" x="290.14" y="352.52" width="7.27" height="7.27"/><rect class="cls-11" x="302.6" y="351.14" width="10.02" height="10.02"/><rect class="cls-94" x="303.98" y="352.52" width="7.27" height="7.27"/><rect class="cls-11" x="316.45" y="351.14" width="10.02" height="10.02"/><rect class="cls-94" x="317.82" y="352.52" width="7.27" height="7.27"/><rect class="cls-11" x="288.76" y="365.7" width="10.02" height="10.02"/><rect class="cls-94" x="290.14" y="367.08" width="7.27" height="7.27"/><rect class="cls-11" x="302.6" y="365.7" width="10.02" height="10.02"/><rect class="cls-94" x="303.98" y="367.08" width="7.27" height="7.27"/><rect class="cls-11" x="316.45" y="365.7" width="10.02" height="10.02"/><rect class="cls-94" x="317.82" y="367.08" width="7.27" height="7.27"/><rect class="cls-11" x="288.76" y="380.26" width="10.02" height="10.02"/><rect class="cls-94" x="290.14" y="381.63" width="7.27" height="7.27"/><rect class="cls-11" x="302.6" y="380.26" width="10.02" height="10.02"/><rect class="cls-94" x="303.98" y="381.63" width="7.27" height="7.27"/><rect class="cls-11" x="316.45" y="380.26" width="10.02" height="10.02"/><rect class="cls-94" x="317.82" y="381.63" width="7.27" height="7.27"/><rect class="cls-11" x="288.76" y="394.82" width="10.02" height="10.02"/><rect class="cls-94" x="290.14" y="396.19" width="7.27" height="7.27"/><rect class="cls-11" x="302.6" y="394.82" width="10.02" height="10.02"/><rect class="cls-94" x="303.98" y="396.19" width="7.27" height="7.27"/><rect class="cls-11" x="316.45" y="394.82" width="10.02" height="10.02"/><rect class="cls-94" x="317.82" y="396.19" width="7.27" height="7.27"/><rect class="cls-99" x="319.06" y="342.35" width="53.12" height="104.08"/><path class="cls-100" d="M345.62,431.61a5.88,5.88,0,0,0-5.88,5.88v9.08H351.5v-9.08A5.88,5.88,0,0,0,345.62,431.61Z"/><rect class="cls-100" x="319.06" y="350.75" width="5.31" height="5.31"/><rect class="cls-101" x="324.37" y="350.75" width="5.31" height="5.31"/><rect class="cls-100" x="329.68" y="350.75" width="5.31" height="5.31"/><rect class="cls-101" x="335" y="350.75" width="5.31" height="5.31"/><rect class="cls-100" x="340.31" y="350.75" width="5.31" height="5.31"/><rect class="cls-101" x="345.62" y="350.75" width="5.31" height="5.31"/><rect class="cls-100" x="350.94" y="350.75" width="5.31" height="5.31"/><rect class="cls-101" x="356.25" y="350.75" width="5.31" height="5.31"/><rect class="cls-100" x="361.56" y="350.75" width="5.31" height="5.31"/><rect class="cls-101" x="366.88" y="350.75" width="5.31" height="5.31"/><rect class="cls-100" x="319.06" y="364.26" width="5.31" height="5.31"/><rect class="cls-101" x="324.37" y="364.26" width="5.31" height="5.31"/><rect class="cls-100" x="329.68" y="364.26" width="5.31" height="5.31"/><rect class="cls-101" x="335" y="364.26" width="5.31" height="5.31"/><rect class="cls-100" x="340.31" y="364.26" width="5.31" height="5.31"/><rect class="cls-101" x="345.62" y="364.26" width="5.31" height="5.31"/><rect class="cls-100" x="350.94" y="364.26" width="5.31" height="5.31"/><rect class="cls-101" x="356.25" y="364.26" width="5.31" height="5.31"/><rect class="cls-100" x="361.56" y="364.26" width="5.31" height="5.31"/><rect class="cls-101" x="366.88" y="364.26" width="5.31" height="5.31"/><rect class="cls-100" x="319.06" y="377.78" width="5.31" height="5.31"/><rect class="cls-101" x="324.37" y="377.78" width="5.31" height="5.31"/><rect class="cls-100" x="329.68" y="377.78" width="5.31" height="5.31"/><rect class="cls-101" x="335" y="377.78" width="5.31" height="5.31"/><rect class="cls-100" x="340.31" y="377.78" width="5.31" height="5.31"/><rect class="cls-101" x="345.62" y="377.78" width="5.31" height="5.31"/><rect class="cls-100" x="350.94" y="377.78" width="5.31" height="5.31"/><rect class="cls-101" x="356.25" y="377.78" width="5.31" height="5.31"/><rect class="cls-100" x="361.56" y="377.78" width="5.31" height="5.31"/><rect class="cls-101" x="366.88" y="377.78" width="5.31" height="5.31"/><rect class="cls-100" x="319.06" y="391.29" width="5.31" height="5.31"/><rect class="cls-101" x="324.37" y="391.29" width="5.31" height="5.31"/><rect class="cls-100" x="329.68" y="391.29" width="5.31" height="5.31"/><rect class="cls-101" x="335" y="391.29" width="5.31" height="5.31"/><rect class="cls-100" x="340.31" y="391.29" width="5.31" height="5.31"/><rect class="cls-101" x="345.62" y="391.29" width="5.31" height="5.31"/><rect class="cls-100" x="350.94" y="391.29" width="5.31" height="5.31"/><rect class="cls-101" x="356.25" y="391.29" width="5.31" height="5.31"/><rect class="cls-100" x="361.56" y="391.29" width="5.31" height="5.31"/><rect class="cls-101" x="366.88" y="391.29" width="5.31" height="5.31"/><rect class="cls-100" x="319.06" y="404.8" width="5.31" height="5.31"/><rect class="cls-101" x="324.37" y="404.8" width="5.31" height="5.31"/><rect class="cls-100" x="329.68" y="404.8" width="5.31" height="5.31"/><rect class="cls-101" x="335" y="404.8" width="5.31" height="5.31"/><rect class="cls-100" x="340.31" y="404.8" width="5.31" height="5.31"/><rect class="cls-101" x="345.62" y="404.8" width="5.31" height="5.31"/><rect class="cls-100" x="350.94" y="404.8" width="5.31" height="5.31"/><rect class="cls-101" x="356.25" y="404.8" width="5.31" height="5.31"/><rect class="cls-100" x="361.56" y="404.8" width="5.31" height="5.31"/><rect class="cls-101" x="366.88" y="404.8" width="5.31" height="5.31"/><rect class="cls-100" x="319.06" y="418.31" width="5.31" height="5.31"/><rect class="cls-101" x="324.37" y="418.31" width="5.31" height="5.31"/><rect class="cls-100" x="329.68" y="418.31" width="5.31" height="5.31"/><rect class="cls-101" x="335" y="418.31" width="5.31" height="5.31"/><rect class="cls-100" x="340.31" y="418.31" width="5.31" height="5.31"/><rect class="cls-101" x="345.62" y="418.31" width="5.31" height="5.31"/><rect class="cls-100" x="350.94" y="418.31" width="5.31" height="5.31"/><rect class="cls-101" x="356.25" y="418.31" width="5.31" height="5.31"/><rect class="cls-100" x="361.56" y="418.31" width="5.31" height="5.31"/><rect class="cls-101" x="366.88" y="418.31" width="5.31" height="5.31"/><path class="cls-102" d="M535.6,463.55a17.12,17.12,0,0,0-17.12-17.12H242.27a17.12,17.12,0,0,0-17.12,17.12Z"/><rect class="cls-103" x="225.15" y="463.55" width="310.45" height="5.79"/><g class="cls-104"><path class="cls-103" d="M249.84,446.43v8.3a4.57,4.57,0,0,0,9.14,0v-8.3Z"/><path class="cls-103" d="M270.83,446.43v8.3a4.57,4.57,0,0,0,9.14,0v-8.3Z"/><path class="cls-103" d="M291.83,446.43v8.3a4.57,4.57,0,0,0,9.14,0v-8.3Z"/><path class="cls-103" d="M312.82,446.43v8.3a4.57,4.57,0,0,0,9.14,0v-8.3Z"/><path class="cls-103" d="M333.81,446.43v8.3a4.57,4.57,0,0,0,9.14,0v-8.3Z"/><path class="cls-103" d="M354.81,446.43v8.3a4.57,4.57,0,0,0,9.14,0v-8.3Z"/><path class="cls-103" d="M375.8,446.43v8.3a4.57,4.57,0,0,0,9.14,0v-8.3Z"/><path class="cls-103" d="M396.79,446.43v8.3a4.57,4.57,0,1,0,9.14,0v-8.3Z"/><path class="cls-103" d="M417.79,446.43v8.3a4.57,4.57,0,0,0,9.14,0v-8.3Z"/><path class="cls-103" d="M438.78,446.43v8.3a4.57,4.57,0,0,0,9.14,0v-8.3Z"/><path class="cls-103" d="M459.77,446.43v8.3a4.57,4.57,0,0,0,9.14,0v-8.3Z"/><path class="cls-103" d="M480.77,446.43v8.3a4.57,4.57,0,0,0,9.14,0v-8.3Z"/><path class="cls-103" d="M501.76,446.43v8.3a4.57,4.57,0,0,0,9.14,0v-8.3Z"/></g><rect class="cls-105" x="267.63" y="373.72" width="68.31" height="5.88"/><rect class="cls-106" x="271.57" y="379.6" width="60.43" height="66.91"/><rect class="cls-10" x="279.13" y="388.16" width="8.92" height="10.29"/><rect class="cls-80" x="277.71" y="397.7" width="12.09" height="1.61"/><rect class="cls-11" x="283.12" y="392.45" width="0.96" height="5.25"/><rect class="cls-11" x="279.13" y="392.45" width="8.92" height="0.96"/><rect class="cls-11" x="279.13" y="388.16" width="8.92" height="0.96"/><rect class="cls-11" x="279.13" y="388.16" width="1.02" height="9.54"/><rect class="cls-11" x="287.04" y="388.16" width="1.02" height="9.54"/><rect class="cls-10" x="297.17" y="388.16" width="8.92" height="10.29"/><rect class="cls-80" x="295.74" y="397.7" width="12.09" height="1.61"/><rect class="cls-11" x="301.15" y="392.45" width="0.96" height="5.25"/><rect class="cls-11" x="297.17" y="392.45" width="8.92" height="0.96"/><rect class="cls-11" x="297.17" y="388.16" width="8.92" height="0.96"/><rect class="cls-11" x="297.17" y="388.16" width="1.02" height="9.54"/><rect class="cls-11" x="305.07" y="388.16" width="1.02" height="9.54"/><rect class="cls-10" x="315.2" y="388.16" width="8.92" height="10.29"/><rect class="cls-80" x="313.78" y="397.7" width="12.09" height="1.61"/><rect class="cls-11" x="319.19" y="392.45" width="0.96" height="5.25"/><rect class="cls-11" x="315.2" y="392.45" width="8.92" height="0.96"/><rect class="cls-11" x="315.2" y="388.16" width="8.92" height="0.96"/><rect class="cls-11" x="315.2" y="388.16" width="1.02" height="9.54"/><rect class="cls-11" x="323.11" y="388.16" width="1.02" height="9.54"/><rect class="cls-10" x="279.13" y="407.27" width="8.92" height="10.29"/><rect class="cls-80" x="277.71" y="416.81" width="12.09" height="1.61"/><rect class="cls-11" x="283.12" y="411.56" width="0.96" height="5.25"/><rect class="cls-11" x="279.13" y="411.56" width="8.92" height="0.96"/><rect class="cls-11" x="279.13" y="407.27" width="8.92" height="0.96"/><rect class="cls-11" x="279.13" y="407.27" width="1.02" height="9.54"/><rect class="cls-11" x="287.04" y="407.27" width="1.02" height="9.54"/><rect class="cls-10" x="297.17" y="407.27" width="8.92" height="10.29"/><rect class="cls-80" x="295.74" y="416.81" width="12.09" height="1.61"/><rect class="cls-11" x="301.15" y="411.56" width="0.96" height="5.25"/><rect class="cls-11" x="297.17" y="411.56" width="8.92" height="0.96"/><rect class="cls-11" x="297.17" y="407.27" width="8.92" height="0.96"/><rect class="cls-11" x="297.17" y="407.27" width="1.02" height="9.54"/><rect class="cls-11" x="305.07" y="407.27" width="1.02" height="9.54"/><rect class="cls-10" x="315.2" y="407.27" width="8.92" height="10.29"/><rect class="cls-80" x="313.78" y="416.81" width="12.09" height="1.61"/><rect class="cls-11" x="319.19" y="411.56" width="0.96" height="5.25"/><rect class="cls-11" x="315.2" y="411.56" width="8.92" height="0.96"/><rect class="cls-11" x="315.2" y="407.27" width="8.92" height="0.96"/><rect class="cls-11" x="315.2" y="407.27" width="1.02" height="9.54"/><rect class="cls-11" x="323.11" y="407.27" width="1.02" height="9.54"/><rect class="cls-10" x="279.13" y="426.37" width="8.92" height="10.29"/><rect class="cls-80" x="277.71" y="435.92" width="12.09" height="1.61"/><rect class="cls-11" x="283.12" y="430.67" width="0.96" height="5.25"/><rect class="cls-11" x="279.13" y="430.67" width="8.92" height="0.96"/><rect class="cls-11" x="279.13" y="426.37" width="8.92" height="0.96"/><rect class="cls-11" x="279.13" y="426.37" width="1.02" height="9.54"/><rect class="cls-11" x="287.04" y="426.37" width="1.02" height="9.54"/><rect class="cls-10" x="297.17" y="426.37" width="8.92" height="10.29"/><rect class="cls-80" x="295.74" y="435.92" width="12.09" height="1.61"/><rect class="cls-11" x="301.15" y="430.67" width="0.96" height="5.25"/><rect class="cls-11" x="297.17" y="430.67" width="8.92" height="0.96"/><rect class="cls-11" x="297.17" y="426.37" width="8.92" height="0.96"/><rect class="cls-11" x="297.17" y="426.37" width="1.02" height="9.54"/><rect class="cls-11" x="305.07" y="426.37" width="1.02" height="9.54"/><rect class="cls-10" x="315.2" y="426.37" width="8.92" height="10.29"/><rect class="cls-80" x="313.78" y="435.92" width="12.09" height="1.61"/><rect class="cls-11" x="319.19" y="430.67" width="0.96" height="5.25"/><rect class="cls-11" x="315.2" y="430.67" width="8.92" height="0.96"/><rect class="cls-11" x="315.2" y="426.37" width="8.92" height="0.96"/><rect class="cls-11" x="315.2" y="426.37" width="1.02" height="9.54"/><rect class="cls-11" x="323.11" y="426.37" width="1.02" height="9.54"/><rect class="cls-107" x="281.63" y="369.23" width="5.41" height="4.49"/><rect class="cls-107" x="274.18" y="365.87" width="5.41" height="7.84"/><rect class="cls-108" x="274.18" y="365.87" width="5.41" height="1.43"/><rect class="cls-108" x="281.63" y="369.23" width="5.41" height="1.43"/><path class="cls-109" d="M264.77,335.61l-3.21,8.88a.89.89,0,0,0,1.67.61l3.21-8.88a.89.89,0,1,0-1.67-.61Z"/><path class="cls-110" d="M264.44,334.42a1.89,1.89,0,0,0,2.25,3l3.69-2.74-2.25-3Z"/><path class="cls-111" d="M268.71,323.68a8,8,0,1,0,9.49,12.76Z"/><path class="cls-112" d="M267.08,334.81a8,8,0,0,0,11.12,1.64l-4.74-6.38Z"/><circle class="cls-111" cx="265.67" cy="335.85" r="1.46" transform="translate(-6.67 5.38) rotate(-1.15)"/><circle class="cls-112" cx="265.67" cy="335.85" r="1.02" transform="translate(-6.7 5.41) rotate(-1.15)"/><path class="cls-111" d="M266.28,346.34a4.13,4.13,0,1,0-8.26,0Z"/><rect class="cls-113" x="372.18" y="354.32" width="51.77" height="3.57"/><path class="cls-41" d="M1471.06,412.22s-24.73,31.22-28.58,38.69,2,21.84,13.51,23.3,24.27,0,29.68-15.84S1471.06,412.22,1471.06,412.22Z"/><circle class="cls-114" cx="1427.97" cy="280.2" r="25.78"/><ellipse class="cls-115" cx="1424.85" cy="538.72" rx="37.53" ry="14.11"/><path class="cls-114" d="M1403.64,411.86c0,9.91,9.63,17.94,21.5,17.94H1429c11.88,0,21.5-8,21.5-17.94V332.4c0-9.91-9.63-17.94-21.5-17.94h-3.84c-11.88,0-21.5,8-21.5,17.94Z"/><path class="cls-114" d="M1443.22,527.43l0-.12a4.94,4.94,0,0,0,.39-2c-.77-33.62,3.22-67.15,2.11-100.77-.12-3.76-2.06-7.14-6.17-7.55-3.36-.34-7.67,2.4-7.55,6.17,1.1,33.25-2.78,66.41-2.13,99.66a19.31,19.31,0,0,0-2.87,1.49,8.53,8.53,0,0,0-2.76,12.08c3,4.36,9.41,6.64,14.29,4.19S1444.86,532.37,1443.22,527.43Z"/><path class="cls-114" d="M1422.2,525.32l0-.12a5,5,0,0,0,.39-2c-.77-33.62,3.22-67.15,2.11-100.77-.12-3.76-2.06-7.14-6.17-7.55-3.36-.34-7.67,2.4-7.55,6.17,1.1,33.25-2.78,66.41-2.13,99.66a19.32,19.32,0,0,0-2.87,1.49,8.53,8.53,0,0,0-2.76,12.08c3,4.36,9.41,6.64,14.29,4.19S1423.84,530.25,1422.2,525.32Z"/><path class="cls-114" d="M1439,336.06c14.15,24.94,18.18,54.47,24.76,82.41a5.69,5.69,0,0,0,11-3c-6.8-28.86-11.06-59-25.91-85.12a5.69,5.69,0,1,0-9.82,5.74Z"/><path class="cls-114" d="M1418.77,316.76c-10.92,8.64-18.43,20.61-28.71,29.9-5,4.52-11.57,8.32-18.15,11.65a85.76,85.76,0,0,1-21.59,7.67c-3,.62-4.75,4.16-4,7a5.78,5.78,0,0,0,7,4,99.45,99.45,0,0,0,23.69-8.51,95.2,95.2,0,0,0,20.17-12.95c10.83-9.3,18.36-21.8,29.6-30.69,2.44-1.93,2-6,0-8-2.38-2.38-5.61-1.92-8,0Z"/><path class="cls-116" d="M1470.81,447.46c2.68.12,4.46-2.94,3.87-5.33-1.12-4.52-4.16-5.26-7.37-4.55a4.61,4.61,0,0,0-4.85-3.95,3.15,3.15,0,0,0-2.09.62,4,4,0,0,0-1.81,3c.05.52,2.07,1.14-.51.81-2.77-.18-5.17,1-5.59,5.44-.23,2.45,1.72,5.27,4.06,4.82-1.58.69-3.83,4.86-3.28,7.26,1,4.32,4,4.76,6.73,4.24.15.26,0,.92.13,1.27a3.94,3.94,0,0,0,2.18,2.68,3.27,3.27,0,0,0,1.87.4,3.89,3.89,0,0,0,2.34-.64,4,4,0,0,0,2.24-3.89c3.27.29,6.19-.84,6.72-5.46C1475.74,451.76,1472.66,447.93,1470.81,447.46Z"/><path class="cls-117" d="M1460,461.07a4.32,4.32,0,0,0,2.3,2.68,3.27,3.27,0,0,0,1.88.4,3.9,3.9,0,0,0,2.34-.64,4,4,0,0,0,2.24-3.89c3.27.29,6.19-.84,6.72-5.46.28-2.45-2.8-6.28-4.65-6.75,2.68.12,4.46-2.94,3.87-5.33-1.12-4.52-4.16-5.26-7.37-4.55a4,4,0,0,0-2.72-3.57,5.62,5.62,0,0,0-4.21.24c-1.61.77-2,1.66-1.95,2.34s.07,1.39.76,1.51c-3.45-.12-6.3,1-6.72,5.44-.23,2.45,1.72,5.27,4.06,4.82-1.58.69-3.83,4.86-3.28,7.26,1,4.52,3.74,5.29,6.59,4.6a1.8,1.8,0,0,0,.14.9m8.5-3.49c.08,1-1.52,5.78-3.76,5.92s-3.41-.51-4.19-2.16a6.79,6.79,0,0,1-.71-3.23c-2.71.65-4.74-.41-4.83-3s1.06-6.44,2.56-7.09c-2.23.42-3.52-2.07-3.3-4.4a6.08,6.08,0,0,1,4.36-5.18,2.76,2.76,0,0,1,1.3,0,.91.91,0,0,1-.59-1c0-.72,1.36-2,3.27-2.06s4.21.7,4.32,2.53c2.59-.24,4.9.78,5.82,4.52.56,2.27-.53,4.92-3.08,4.81,1.76.44,3.57,4.14,3.82,6.68S1471.59,457.85,1468.48,457.58Z"/><path class="cls-11" d="M1463.94,438.85l.1.23c.07.15.16.37.26.66s.23.64.36,1,.25.87.38,1.38.3,1.05.4,1.64.24,1.21.35,1.85l.17,1,.09.5,0,.13v.15l0,.25.18,2.06c0,.71,0,1.42,0,2.12,0,.35,0,.69-.06,1l-.08,1c0,.66-.16,1.28-.23,1.87s-.19,1.15-.29,1.66-.2,1-.31,1.39-.19.77-.28,1.06c-.17.59-.29.91-.29.91l.07-1,.08-1.09c0-.42.06-.89.09-1.41s.07-1.07.09-1.66l0-.91,0-.47v-.48l0-2,0-2-.14-2.06,0-.25v0h0v-.06l0-.12-.06-.5-.11-1c-.08-.64-.14-1.26-.19-1.85,0-.3-.07-.58-.1-.86l-.1-.8c-.07-.51-.12-1-.16-1.41s-.11-.78-.16-1.08-.07-.54-.1-.7Z"/><path class="cls-118" d="M1476.3,463.61c-.14-1.43-4-3.21-3.64-3,3.37,2.33,7-1.38,3.43-4.64,1.57,1.18,4.13.86,4.7-1,1.56-5-.35-7-3.15-7.55a4.73,4.73,0,0,0-.16-4.7,2.68,2.68,0,0,0-1.41-1.23,2.23,2.23,0,0,0-1.91-.19c-1.46.39-2.61,2.69-2.64,3.92a13.78,13.78,0,0,0-1.17-.94c-2-1.28-4.46-1-7.13,3.31-1.48,2.39-2.51,8.46-.5,8.94-1.56.07-4.48,1-5.34,3.64-.73,2.23.66,4.46,1.17,5.53-2.64-.27-2.77,2.84-1.64,4a2.83,2.83,0,0,0,2.47.72,4.06,4.06,0,0,0,.48,1.68,2.21,2.21,0,0,0,1.21,1.15,2.72,2.72,0,0,0,2.11.28,5.13,5.13,0,0,0,3.76-3.06c2.33,1.59,5.14,1.6,8-2.88A6.46,6.46,0,0,0,1476.3,463.61Z"/><path class="cls-11" d="M1473.4,449.41s-.83,2.68-3.6,9a94.88,94.88,0,0,1-7.44,13.12"/><path class="cls-119" d="M1475.21,463c-.48-1.8-4.08-2.79-3.76-2.56,3,2.11,7.67-2.2,4.43-5.15,1.42,1.06,3.73.78,4.25-.88,1.41-4.55-.32-6.32-2.85-6.83a4.27,4.27,0,0,0-.14-4.25,2.42,2.42,0,0,0-1.28-1.11,2,2,0,0,0-1.73-.18c-1.32.35-2.47,3-2.46,3.43-.4-.26-.78-.58-1-.73-1.81-1.16-4-.92-6.45,3-1.34,2.16-2.47,9-.65,9.46-1.41.07-4.45.91-5.23,3.31a9.7,9.7,0,0,0,.49,5.87c-2.39-.25-3.27,1.85-1.4,3.12s2.86-.06,3.32-1.14c0,.5-.82,1.1-.58,2.55s.5,1.48,1.55,2a2.65,2.65,0,0,0,2.55,0,4,4,0,0,0,2.18-3.6c2.1,1.44,5.09,2,7.7-2.27C1474.73,466,1475.7,464.77,1475.21,463Z"/><path class="cls-11" d="M1473.66,449s-.06.37-.21,1c-.08.31-.16.7-.28,1.13s-.27.91-.45,1.43c-.34,1-.78,2.26-1.28,3.54-.12.32-.26.65-.39,1l-.2.49-.05.12-.07.14-.12.24c-.3.65-.63,1.3-1,2s-.66,1.3-1,1.93-.73,1.24-1.1,1.83-.73,1.15-1.08,1.68-.7,1-1,1.46c-.66.88-1.23,1.6-1.66,2.09s-.68.76-.68.76.12-.36.36-1,.58-1.45,1-2.45,1-2.16,1.57-3.37c.3-.61.62-1.22.94-1.86s.63-1.3,1-2,.66-1.3,1-1.93.63-1.25.94-1.85c.62-1.21,1.24-2.32,1.8-3.27.28-.47.55-.9.79-1.28s.43-.72.6-1C1473.44,449.27,1473.66,449,1473.66,449Z"/></g></g></svg>