<svg id="Layer_1" data-name="Layer 1" xmlns="http://www.w3.org/2000/svg" viewBox="0 0 100 100"><defs><style>.cls-1,.cls-2{fill:#6889b7;}.cls-1,.cls-3{stroke:#6889b7;stroke-miterlimit:10;}.cls-3{fill:#fff;}</style></defs><title>Logo</title><polygon class="cls-1" points="42.28 28.08 42.24 28.08 42.24 12.72 32.37 12.72 32.37 28.08 11.49 28.08 11.49 12.69 1.62 12.69 1.62 28.08 1.62 37.96 1.62 53.35 11.49 53.35 11.49 37.96 32.37 37.96 32.37 53.38 42.24 53.38 42.24 37.96 42.28 37.96 42.28 28.08"/><path class="cls-2" d="M98,78.88V58.33H88.09l-.22,20.55a10.26,10.26,0,0,1-1.76,5.76q-.28.41-.59.79a10.38,10.38,0,0,1-1.4,1.4,10.31,10.31,0,0,1-16.87-8V58.55H57.38V78.88a20.33,20.33,0,0,0,40.66,0Z"/><polygon class="cls-2" points="42.28 23.95 42.24 23.95 42.24 8.59 32.37 8.59 32.37 23.95 11.49 23.95 11.49 8.56 1.62 8.56 1.62 23.95 1.62 33.83 1.62 49.22 11.49 49.22 11.49 33.83 32.37 33.83 32.37 49.25 42.24 49.25 42.24 33.83 42.28 33.83 42.28 23.95"/><path class="cls-1" d="M98,74.75V54.2H88.09l-.22,20.55a10.26,10.26,0,0,1-1.76,5.76q-.28.41-.59.79a10.38,10.38,0,0,1-1.4,1.4,10.31,10.31,0,0,1-16.87-8V54.42H57.38V74.75a20.33,20.33,0,0,0,40.66,0Z"/><polygon class="cls-3" points="42.28 17.07 42.24 17.07 42.24 1.71 32.37 1.71 32.37 17.07 11.49 17.07 11.49 1.68 1.62 1.68 1.62 17.07 1.62 26.94 1.62 42.33 11.49 42.33 11.49 26.94 32.37 26.94 32.37 42.37 42.24 42.37 42.24 26.94 42.28 26.94 42.28 17.07"/><path class="cls-3" d="M98,67.86V47.31H88.09l-.22,20.55a10.26,10.26,0,0,1-1.76,5.76q-.28.41-.59.79a10.38,10.38,0,0,1-1.4,1.4,10.31,10.31,0,0,1-16.87-8V47.54H57.38V67.86a20.33,20.33,0,0,0,40.66,0Z"/></svg>