<svg width="100" height="93" viewBox="0 0 100 93" fill="none" xmlns="http://www.w3.org/2000/svg">
<path d="M99.998 82.946C94.547 82.946 89.39 80.861 85.478 77.076L83.332 75L81.186 77.076C77.273 80.861 72.116 82.946 66.665 82.946C61.214 82.946 56.057 80.861 52.145 77.076L49.999 75L47.853 77.076C43.94 80.861 38.783 82.946 33.333 82.946C27.882 82.946 22.725 80.861 18.813 77.076L16.667 75L14.521 77.076C10.608 80.861 5.451 82.946 0 82.946V89.12C6.105 89.12 11.925 87.101 16.667 83.385C21.408 87.101 27.229 89.12 33.334 89.12C39.439 89.12 45.259 87.101 50.001 83.385C54.742 87.101 60.563 89.12 66.668 89.12C72.773 89.12 78.593 87.101 83.335 83.385C88.073 87.101 93.893 89.12 99.998 89.12V82.946Z" fill="white"/>
<path d="M99.998 57.946C94.547 57.946 89.39 55.861 85.478 52.076L83.332 50L81.186 52.076C77.273 55.861 72.116 57.946 66.665 57.946C61.214 57.946 56.057 55.861 52.145 52.076L49.999 50L47.853 52.076C43.94 55.861 38.783 57.946 33.333 57.946C27.882 57.946 22.725 55.861 18.813 52.076L16.667 50L14.521 52.076C10.608 55.861 5.451 57.946 0 57.946V64.12C6.105 64.12 11.925 62.101 16.667 58.385C21.408 62.101 27.229 64.12 33.334 64.12C39.439 64.12 45.259 62.101 50.001 58.385C54.742 62.101 60.563 64.12 66.668 64.12C72.773 64.12 78.593 62.101 83.335 58.385C88.073 62.101 93.893 64.12 99.998 64.12V57.946Z" fill="white"/>
<path d="M99.998 32.946C94.547 32.946 89.39 30.861 85.478 27.076L83.332 25L81.186 27.076C77.273 30.861 72.116 32.946 66.665 32.946C61.214 32.946 56.057 30.861 52.145 27.076L49.999 25L47.853 27.076C43.94 30.861 38.783 32.946 33.333 32.946C27.882 32.946 22.725 30.861 18.813 27.076L16.667 25L14.521 27.076C10.608 30.861 5.451 32.946 0 32.946V39.12C6.105 39.12 11.925 37.101 16.667 33.385C21.408 37.101 27.229 39.12 33.334 39.12C39.439 39.12 45.259 37.101 50.001 33.385C54.742 37.101 60.563 39.12 66.668 39.12C72.773 39.12 78.593 37.101 83.335 33.385C88.073 37.101 93.893 39.12 99.998 39.12V32.946Z" fill="white"/>
<path d="M99.998 7.94598C94.547 7.94598 89.39 5.86099 85.478 2.07599L83.332 0L81.186 2.07599C77.273 5.86099 72.116 7.94598 66.665 7.94598C61.214 7.94598 56.057 5.86099 52.145 2.07599L49.999 0L47.853 2.07599C43.94 5.86099 38.783 7.94598 33.333 7.94598C27.882 7.94598 22.725 5.86099 18.813 2.07599L16.667 0L14.521 2.07599C10.608 5.86099 5.451 7.94598 0 7.94598V14.12C6.105 14.12 11.925 12.101 16.667 8.38501C21.408 12.101 27.229 14.12 33.334 14.12C39.439 14.12 45.259 12.101 50.001 8.38501C54.742 12.101 60.563 14.12 66.668 14.12C72.773 14.12 78.593 12.101 83.335 8.38501C88.073 12.101 93.893 14.12 99.998 14.12V7.94598Z" fill="white"/>
<path d="M99.998 85.946C94.547 85.946 89.39 83.861 85.478 80.076L83.332 78L81.186 80.076C77.273 83.861 72.116 85.946 66.665 85.946C61.214 85.946 56.057 83.861 52.145 80.076L49.999 78L47.853 80.076C43.94 83.861 38.783 85.946 33.333 85.946C27.882 85.946 22.725 83.861 18.813 80.076L16.667 78L14.521 80.076C10.608 83.861 5.451 85.946 0 85.946V92.12C6.105 92.12 11.925 90.101 16.667 86.385C21.408 90.101 27.229 92.12 33.334 92.12C39.439 92.12 45.259 90.101 50.001 86.385C54.742 90.101 60.563 92.12 66.668 92.12C72.773 92.12 78.593 90.101 83.335 86.385C88.073 90.101 93.893 92.12 99.998 92.12V85.946Z" fill="white"/>
<path d="M99.998 60.946C94.547 60.946 89.39 58.861 85.478 55.076L83.332 53L81.186 55.076C77.273 58.861 72.116 60.946 66.665 60.946C61.214 60.946 56.057 58.861 52.145 55.076L49.999 53L47.853 55.076C43.94 58.861 38.783 60.946 33.333 60.946C27.882 60.946 22.725 58.861 18.813 55.076L16.667 53L14.521 55.076C10.608 58.861 5.451 60.946 0 60.946V67.12C6.105 67.12 11.925 65.101 16.667 61.385C21.408 65.101 27.229 67.12 33.334 67.12C39.439 67.12 45.259 65.101 50.001 61.385C54.742 65.101 60.563 67.12 66.668 67.12C72.773 67.12 78.593 65.101 83.335 61.385C88.073 65.101 93.893 67.12 99.998 67.12V60.946Z" fill="white"/>
<path d="M99.998 35.946C94.547 35.946 89.39 33.861 85.478 30.076L83.332 28L81.186 30.076C77.273 33.861 72.116 35.946 66.665 35.946C61.214 35.946 56.057 33.861 52.145 30.076L49.999 28L47.853 30.076C43.94 33.861 38.783 35.946 33.333 35.946C27.882 35.946 22.725 33.861 18.813 30.076L16.667 28L14.521 30.076C10.608 33.861 5.451 35.946 0 35.946V42.12C6.105 42.12 11.925 40.101 16.667 36.385C21.408 40.101 27.229 42.12 33.334 42.12C39.439 42.12 45.259 40.101 50.001 36.385C54.742 40.101 60.563 42.12 66.668 42.12C72.773 42.12 78.593 40.101 83.335 36.385C88.073 40.101 93.893 42.12 99.998 42.12V35.946Z" fill="white"/>
<path d="M99.998 10.946C94.547 10.946 89.39 8.86099 85.478 5.07599L83.332 3L81.186 5.07599C77.273 8.86099 72.116 10.946 66.665 10.946C61.214 10.946 56.057 8.86099 52.145 5.07599L49.999 3L47.853 5.07599C43.94 8.86099 38.783 10.946 33.333 10.946C27.882 10.946 22.725 8.86099 18.813 5.07599L16.667 3L14.521 5.07599C10.608 8.86099 5.451 10.946 0 10.946V17.12C6.105 17.12 11.925 15.101 16.667 11.385C21.408 15.101 27.229 17.12 33.334 17.12C39.439 17.12 45.259 15.101 50.001 11.385C54.742 15.101 60.563 17.12 66.668 17.12C72.773 17.12 78.593 15.101 83.335 11.385C88.073 15.101 93.893 17.12 99.998 17.12V10.946Z" fill="white"/>
</svg>
